<?xml version="1.0" encoding="utf-8"?>
<!-- Generator: Adobe Illustrator 26.5.0, SVG Export Plug-In . SVG Version: 6.00 Build 0)  -->
<svg version="1.1" id="Camada_1" xmlns="http://www.w3.org/2000/svg" xmlns:xlink="http://www.w3.org/1999/xlink" x="0px" y="0px"
	 viewBox="0 0 500 500" style="enable-background:new 0 0 500 500;" xml:space="preserve">
<style type="text/css">
	.st0{fill:#6DD1AE;}
	.st1{opacity:0.7;fill:#FFFFFF;enable-background:new    ;}
	.st2{fill:#073447;}
	.st3{fill:#FFFFFF;}
	.st4{fill:#BFBFBF;}
	.st5{fill:#263238;}
</style>
<g id="freepik--background-simple--inject-133">
	<path class="st0" d="M382.7,117.3c-3.3-6.7-6.9-13.3-10.8-19.6C326,24.9,203.2-14.7,142.3,60.5c-14.5,17.9-19.6,39.6-29.3,60.1
		c-22.2,46.7-63.7,74.7-89.7,118C3.1,272.1,5.8,315.1,17,351.4c12.2,39.4,33.7,66.9,68.2,87.9c38.6,23.5,79.8,17,121.6,8.8
		c18.8-3.7,38.1-7.4,57.3-6c24,1.8,47.7,8.8,71.5,12.2c24.8,3.6,50.5,4.4,74.4-3.4c76.4-24.9,94.5-141.7,63.1-208.7
		c-11.1-23.7-30-42-47.5-60.5C406.6,161.7,395,142.1,382.7,117.3z"/>
	<path class="st1" d="M382.7,117.3c-3.3-6.7-6.9-13.3-10.8-19.6C326,24.9,203.2-14.7,142.3,60.5c-14.5,17.9-19.6,39.6-29.3,60.1
		c-22.2,46.7-63.7,74.7-89.7,118C3.1,272.1,5.8,315.1,17,351.4c12.2,39.4,33.7,66.9,68.2,87.9c38.6,23.5,79.8,17,121.6,8.8
		c18.8-3.7,38.1-7.4,57.3-6c24,1.8,47.7,8.8,71.5,12.2c24.8,3.6,50.5,4.4,74.4-3.4c76.4-24.9,94.5-141.7,63.1-208.7
		c-11.1-23.7-30-42-47.5-60.5C406.6,161.7,395,142.1,382.7,117.3z"/>
</g>
<g id="freepik--Clock--inject-133">
	<path class="st2" d="M324.3,134.8c-18,0-32.7-14.6-32.7-32.7s14.6-32.7,32.7-32.7c18,0,32.7,14.6,32.7,32.7
		C356.9,120.2,342.3,134.8,324.3,134.8z M324.3,70.5c-17.5,0-31.7,14.2-31.7,31.7s14.2,31.7,31.7,31.7c17.5,0,31.7-14.2,31.7-31.7v0
		C355.9,84.7,341.7,70.5,324.3,70.5z"/>
	<path class="st2" d="M324.3,130.3c-15.5,0-28.1-12.6-28.1-28.1S308.7,74,324.3,74c15.5,0,28.1,12.6,28.1,28.1
		C352.4,117.7,339.8,130.3,324.3,130.3z M324.3,75c-15,0-27.1,12.2-27.1,27.1s12.2,27.1,27.1,27.1c15,0,27.1-12.2,27.1-27.1
		C351.4,87.2,339.2,75,324.3,75L324.3,75z"/>
	<path class="st2" d="M318,113.4c-0.1,0-0.2,0-0.2-0.1c-0.2-0.1-0.3-0.4-0.2-0.7l6.2-10.7c0.1-0.2,0.3-0.2,0.4-0.2h19.2
		c0.3,0,0.5,0.2,0.5,0.5s-0.2,0.5-0.5,0.5h-18.9l-6.1,10.5C318.4,113.3,318.2,113.4,318,113.4z"/>
</g>
<g id="freepik--Calendars--inject-133">
	<path class="st2" d="M137.2,142.2h-54c-0.3,0-0.5-0.2-0.5-0.5V94.6c0-0.3,0.2-0.5,0.5-0.5h54c0.3,0,0.5,0.2,0.5,0.5v47.1
		C137.7,141.9,137.5,142.2,137.2,142.2z M83.7,141.2h53V95.1h-53V141.2z"/>
	<path class="st2" d="M93.1,113.9h-4.4c-0.3,0-0.5-0.2-0.5-0.5V109c0-0.3,0.2-0.5,0.5-0.5h4.4c0.3,0,0.5,0.2,0.5,0.5v4.4
		C93.6,113.7,93.4,113.9,93.1,113.9z M89.2,112.9h3.4v-3.4h-3.4V112.9z"/>
	<path class="st2" d="M99.7,113.9h-4.4c-0.3,0-0.5-0.2-0.5-0.5V109c0-0.3,0.2-0.5,0.5-0.5h4.4c0.3,0,0.5,0.2,0.5,0.5v4.4
		C100.1,113.7,99.9,113.9,99.7,113.9z M95.7,112.9h3.4v-3.4h-3.4V112.9z"/>
	<path class="st2" d="M106.2,113.9h-4.4c-0.3,0-0.5-0.2-0.5-0.5V109c0-0.3,0.2-0.5,0.5-0.5h4.4c0.3,0,0.5,0.2,0.5,0.5v4.4
		C106.7,113.7,106.5,113.9,106.2,113.9z M102.3,112.9h3.4v-3.4h-3.4V112.9z"/>
	<path class="st2" d="M112.7,113.9h-4.4c-0.3,0-0.5-0.2-0.5-0.5V109c0-0.3,0.2-0.5,0.5-0.5h4.4c0.3,0,0.5,0.2,0.5,0.5v4.4
		C113.2,113.7,113,113.9,112.7,113.9z M108.8,112.9h3.4v-3.4h-3.4V112.9z"/>
	<path class="st2" d="M119.3,113.9h-4.4c-0.3,0-0.5-0.2-0.5-0.5V109c0-0.3,0.2-0.5,0.5-0.5h4.4c0.3,0,0.5,0.2,0.5,0.5v4.4
		C119.7,113.7,119.5,113.9,119.3,113.9z M115.3,112.9h3.4v-3.4h-3.4V112.9z"/>
	<path class="st2" d="M125.8,113.9h-4.4c-0.3,0-0.5-0.2-0.5-0.5V109c0-0.3,0.2-0.5,0.5-0.5h4.4c0.3,0,0.5,0.2,0.5,0.5v4.4
		C126.3,113.7,126.1,113.9,125.8,113.9z M121.9,112.9h3.4v-3.4h-3.4V112.9z"/>
	<path class="st2" d="M132.4,113.9h-4.4c-0.3,0-0.5-0.2-0.5-0.5V109c0-0.3,0.2-0.5,0.5-0.5h4.4c0.3,0,0.5,0.2,0.5,0.5v4.4
		C132.8,113.7,132.6,113.9,132.4,113.9z M128.4,112.9h3.4v-3.4h-3.4V112.9z"/>
	<path class="st2" d="M93.1,121.2h-4.4c-0.3,0-0.5-0.2-0.5-0.5v-4.4c0-0.3,0.2-0.5,0.5-0.5h4.4c0.3,0,0.5,0.2,0.5,0.5v4.4
		C93.6,121,93.4,121.2,93.1,121.2z M89.2,120.2h3.4v-3.4h-3.4V120.2z"/>
	<path class="st2" d="M99.7,121.2h-4.4c-0.3,0-0.5-0.2-0.5-0.5v-4.4c0-0.3,0.2-0.5,0.5-0.5h4.4c0.3,0,0.5,0.2,0.5,0.5v4.4
		C100.2,121,99.9,121.2,99.7,121.2z M95.7,120.2h3.4v-3.4h-3.4V120.2z"/>
	<path class="st2" d="M106.2,121.2h-4.4c-0.3,0-0.5-0.2-0.5-0.5v-4.4c0-0.3,0.2-0.5,0.5-0.5h4.4c0.3,0,0.5,0.2,0.5,0.5v4.4
		C106.7,121,106.5,121.2,106.2,121.2z M102.3,120.2h3.4v-3.4h-3.4V120.2z"/>
	<path class="st2" d="M112.7,121.2h-4.4c-0.3,0-0.5-0.2-0.5-0.5v-4.4c0-0.3,0.2-0.5,0.5-0.5h4.4c0.3,0,0.5,0.2,0.5,0.5v4.4
		C113.2,121,113,121.2,112.7,121.2z M108.8,120.2h3.4v-3.4h-3.4V120.2z"/>
	<path class="st2" d="M119.3,121.2h-4.4c-0.3,0-0.5-0.2-0.5-0.5v-4.4c0-0.3,0.2-0.5,0.5-0.5h4.4c0.3,0,0.5,0.2,0.5,0.5v4.4
		C119.8,121,119.5,121.2,119.3,121.2z M115.3,120.2h3.4v-3.4h-3.4V120.2z"/>
	<path class="st2" d="M125.8,121.2h-4.4c-0.3,0-0.5-0.2-0.5-0.5v-4.4c0-0.3,0.2-0.5,0.5-0.5h4.4c0.3,0,0.5,0.2,0.5,0.5v4.4
		C126.3,121,126.1,121.2,125.8,121.2z M121.9,120.2h3.4v-3.4h-3.4V120.2z"/>
	<path class="st2" d="M132.4,121.2h-4.4c-0.3,0-0.5-0.2-0.5-0.5v-4.4c0-0.3,0.2-0.5,0.5-0.5h4.4c0.3,0,0.5,0.2,0.5,0.5v4.4
		C132.9,121,132.6,121.2,132.4,121.2z M128.4,120.2h3.4v-3.4h-3.4V120.2z"/>
	<path class="st2" d="M93.1,128.5h-4.4c-0.3,0-0.5-0.2-0.5-0.5v-4.4c0-0.3,0.2-0.5,0.5-0.5h4.4c0.3,0,0.5,0.2,0.5,0.5v4.4
		C93.6,128.3,93.4,128.5,93.1,128.5C93.1,128.5,93.1,128.5,93.1,128.5z M89.2,127.5h3.4v-3.4h-3.4V127.5z"/>
	<path class="st2" d="M99.7,128.5h-4.4c-0.3,0-0.5-0.2-0.5-0.5v-4.4c0-0.3,0.2-0.5,0.5-0.5h4.4c0.3,0,0.5,0.2,0.5,0.5v4.4
		C100.2,128.3,99.9,128.5,99.7,128.5C99.7,128.5,99.7,128.5,99.7,128.5z M95.7,127.5h3.4v-3.4h-3.4V127.5z"/>
	<path class="st2" d="M106.2,128.5h-4.4c-0.3,0-0.5-0.2-0.5-0.5v-4.4c0-0.3,0.2-0.5,0.5-0.5h4.4c0.3,0,0.5,0.2,0.5,0.5v4.4
		C106.7,128.3,106.5,128.5,106.2,128.5C106.2,128.5,106.2,128.5,106.2,128.5z M102.3,127.5h3.4v-3.4h-3.4V127.5z"/>
	<path class="st2" d="M112.7,128.5h-4.4c-0.3,0-0.5-0.2-0.5-0.5v-4.4c0-0.3,0.2-0.5,0.5-0.5h4.4c0.3,0,0.5,0.2,0.5,0.5v4.4
		C113.2,128.3,113,128.5,112.7,128.5C112.7,128.5,112.7,128.5,112.7,128.5z M108.8,127.5h3.4v-3.4h-3.4V127.5z"/>
	<path class="st2" d="M119.3,128.5h-4.4c-0.3,0-0.5-0.2-0.5-0.5v-4.4c0-0.3,0.2-0.5,0.5-0.5h4.4c0.3,0,0.5,0.2,0.5,0.5v4.4
		C119.8,128.3,119.6,128.5,119.3,128.5C119.3,128.5,119.3,128.5,119.3,128.5z M115.3,127.5h3.4v-3.4h-3.4V127.5z"/>
	<path class="st2" d="M125.8,128.5h-4.4c-0.3,0-0.5-0.2-0.5-0.5v-4.4c0-0.3,0.2-0.5,0.5-0.5h4.4c0.3,0,0.5,0.2,0.5,0.5v4.4
		C126.3,128.3,126.1,128.5,125.8,128.5C125.8,128.5,125.8,128.5,125.8,128.5z M121.9,127.5h3.4v-3.4h-3.4V127.5z"/>
	<path class="st2" d="M132.4,128.5h-4.4c-0.3,0-0.5-0.2-0.5-0.5v-4.4c0-0.3,0.2-0.5,0.5-0.5h4.4c0.3,0,0.5,0.2,0.5,0.5v4.4
		C132.9,128.3,132.6,128.5,132.4,128.5C132.4,128.5,132.4,128.5,132.4,128.5z M128.4,127.5h3.4v-3.4h-3.4V127.5z"/>
	<path class="st2" d="M93.1,135.8h-4.4c-0.3,0-0.5-0.2-0.5-0.5v-4.4c0-0.3,0.2-0.5,0.5-0.5h4.4c0.3,0,0.5,0.2,0.5,0.5v4.4
		C93.6,135.6,93.4,135.8,93.1,135.8z M89.2,134.8h3.4v-3.4h-3.4V134.8z"/>
	<path class="st2" d="M99.7,135.8h-4.4c-0.3,0-0.5-0.2-0.5-0.5v-4.4c0-0.3,0.2-0.5,0.5-0.5h4.4c0.3,0,0.5,0.2,0.5,0.5v4.4
		C100.2,135.6,99.9,135.8,99.7,135.8z M95.7,134.8h3.4v-3.4h-3.4V134.8z"/>
	<path class="st2" d="M106.2,135.8h-4.4c-0.3,0-0.5-0.2-0.5-0.5v-4.4c0-0.3,0.2-0.5,0.5-0.5h4.4c0.3,0,0.5,0.2,0.5,0.5v4.4
		C106.7,135.6,106.5,135.8,106.2,135.8z M102.3,134.8h3.4v-3.4h-3.4V134.8z"/>
	<path class="st2" d="M112.7,135.8h-4.4c-0.3,0-0.5-0.2-0.5-0.5v-4.4c0-0.3,0.2-0.5,0.5-0.5h4.4c0.3,0,0.5,0.2,0.5,0.5v4.4
		C113.2,135.6,113,135.8,112.7,135.8z M108.8,134.8h3.4v-3.4h-3.4V134.8z"/>
	<path class="st2" d="M119.3,135.8h-4.4c-0.3,0-0.5-0.2-0.5-0.5v-4.4c0-0.3,0.2-0.5,0.5-0.5h4.4c0.3,0,0.5,0.2,0.5,0.5v4.4
		C119.8,135.6,119.5,135.8,119.3,135.8z M115.3,134.8h3.4v-3.4h-3.4V134.8z"/>
	<path class="st2" d="M125.8,135.8h-4.4c-0.3,0-0.5-0.2-0.5-0.5v-4.4c0-0.3,0.2-0.5,0.5-0.5h4.4c0.3,0,0.5,0.2,0.5,0.5v4.4
		C126.3,135.6,126.1,135.8,125.8,135.8z M121.9,134.8h3.4v-3.4h-3.4V134.8z"/>
	<path class="st2" d="M132.4,135.8h-4.4c-0.3,0-0.5-0.2-0.5-0.5v-4.4c0-0.3,0.2-0.5,0.5-0.5h4.4c0.3,0,0.5,0.2,0.5,0.5v4.4
		C132.9,135.6,132.6,135.8,132.4,135.8z M128.4,134.8h3.4v-3.4h-3.4V134.8z"/>
	<path class="st2" d="M131.7,101.9h-43c-0.3,0-0.5-0.2-0.5-0.5c0-0.3,0.2-0.5,0.5-0.5h43c0.3,0,0.5,0.2,0.5,0.5
		C132.2,101.7,132,101.9,131.7,101.9z"/>
	<path class="st2" d="M418.6,255.1h-32.8c-0.3,0-0.5-0.2-0.5-0.5v-28.6c0-0.3,0.2-0.5,0.5-0.5h32.8c0.3,0,0.5,0.2,0.5,0.5v28.6
		C419.1,254.9,418.9,255.1,418.6,255.1z M386.3,254.1h31.8v-27.6h-31.8V254.1z"/>
	<path class="st2" d="M391.8,238h-2.7c-0.3,0-0.5-0.2-0.5-0.5v-2.7c0-0.3,0.2-0.5,0.5-0.5h2.7c0.3,0,0.5,0.2,0.5,0.5v2.7
		C392.3,237.8,392.1,238,391.8,238z M389.7,237h1.7v-1.7h-1.7V237z"/>
	<path class="st2" d="M395.8,238h-2.7c-0.3,0-0.5-0.2-0.5-0.5v-2.7c0-0.3,0.2-0.5,0.5-0.5h2.7c0.3,0,0.5,0.2,0.5,0.5v2.7
		C396.3,237.8,396.1,238,395.8,238z M393.6,237h1.7v-1.7h-1.7V237z"/>
	<path class="st2" d="M399.8,238h-2.7c-0.3,0-0.5-0.2-0.5-0.5v-2.7c0-0.3,0.2-0.5,0.5-0.5h2.7c0.3,0,0.5,0.2,0.5,0.5v2.7
		C400.3,237.8,400,238,399.8,238z M397.6,237h1.7v-1.7h-1.7V237z"/>
	<path class="st2" d="M403.7,238H401c-0.3,0-0.5-0.2-0.5-0.5v-2.7c0-0.3,0.2-0.5,0.5-0.5h2.7c0.3,0,0.5,0.2,0.5,0.5v2.7
		C404.2,237.8,404,238,403.7,238z M401.5,237h1.7v-1.7h-1.7V237z"/>
	<path class="st2" d="M407.7,238H405c-0.3,0-0.5-0.2-0.5-0.5v-2.7c0-0.3,0.2-0.5,0.5-0.5h2.7c0.3,0,0.5,0.2,0.5,0.5v2.7
		C408.2,237.8,408,238,407.7,238z M405.5,237h1.7v-1.7h-1.7V237z"/>
	<path class="st2" d="M411.7,238H409c-0.3,0-0.5-0.2-0.5-0.5v-2.7c0-0.3,0.2-0.5,0.5-0.5h2.7c0.3,0,0.5,0.2,0.5,0.5v2.7
		C412.2,237.8,412,238,411.7,238C411.7,238,411.7,238,411.7,238z M409.5,237h1.7v-1.7h-1.7V237z"/>
	<path class="st2" d="M415.6,238H413c-0.3,0-0.5-0.2-0.5-0.5v-2.7c0-0.3,0.2-0.5,0.5-0.5h2.7c0.3,0,0.5,0.2,0.5,0.5v2.7
		C416.2,237.8,416,238,415.6,238C415.7,238,415.6,238,415.6,238z M413.5,237h1.7v-1.7h-1.7V237z"/>
	<path class="st2" d="M391.8,242.4h-2.7c-0.3,0-0.5-0.2-0.5-0.5v-2.7c0-0.3,0.2-0.5,0.5-0.5h2.7c0.3,0,0.5,0.2,0.5,0.5v2.7
		C392.3,242.2,392.1,242.4,391.8,242.4z M389.7,241.4h1.7v-1.7h-1.7V241.4z"/>
	<path class="st2" d="M395.8,242.4h-2.7c-0.3,0-0.5-0.2-0.5-0.5v-2.7c0-0.3,0.2-0.5,0.5-0.5h2.7c0.3,0,0.5,0.2,0.5,0.5v2.7
		C396.3,242.2,396.1,242.4,395.8,242.4z M393.6,241.4h1.7v-1.7h-1.7V241.4z"/>
	<path class="st2" d="M399.8,242.4h-2.7c-0.3,0-0.5-0.2-0.5-0.5v-2.7c0-0.3,0.2-0.5,0.5-0.5h2.7c0.3,0,0.5,0.2,0.5,0.5v2.7
		C400.3,242.2,400,242.4,399.8,242.4z M397.6,241.4h1.7v-1.7h-1.7V241.4z"/>
	<path class="st2" d="M403.7,242.4H401c-0.3,0-0.5-0.2-0.5-0.5v-2.7c0-0.3,0.2-0.5,0.5-0.5h2.7c0.3,0,0.5,0.2,0.5,0.5v2.7
		C404.2,242.2,404,242.4,403.7,242.4z M401.5,241.4h1.7v-1.7h-1.7V241.4z"/>
	<path class="st2" d="M407.7,242.4H405c-0.3,0-0.5-0.2-0.5-0.5v-2.7c0-0.3,0.2-0.5,0.5-0.5h2.7c0.3,0,0.5,0.2,0.5,0.5v2.7
		C408.2,242.2,408,242.4,407.7,242.4z M405.5,241.4h1.7v-1.7h-1.7V241.4z"/>
	<path class="st2" d="M411.7,242.4H409c-0.3,0-0.5-0.2-0.5-0.5v-2.7c0-0.3,0.2-0.5,0.5-0.5h2.7c0.3,0,0.5,0.2,0.5,0.5v2.7
		C412.2,242.2,412,242.4,411.7,242.4C411.7,242.4,411.7,242.4,411.7,242.4z M409.5,241.4h1.7v-1.7h-1.7V241.4z"/>
	<path class="st2" d="M415.6,242.4H413c-0.3,0-0.5-0.2-0.5-0.5v-2.7c0-0.3,0.2-0.5,0.5-0.5h2.7c0.3,0,0.5,0.2,0.5,0.5v2.7
		C416.2,242.2,416,242.4,415.6,242.4C415.7,242.4,415.6,242.4,415.6,242.4z M413.5,241.4h1.7v-1.7h-1.7V241.4z"/>
	<path class="st2" d="M391.8,246.9h-2.7c-0.3,0-0.5-0.2-0.5-0.5v-2.7c0-0.3,0.2-0.5,0.5-0.5h2.7c0.3,0,0.5,0.2,0.5,0.5v2.7
		C392.3,246.6,392.1,246.9,391.8,246.9z M389.7,245.9h1.7v-1.7h-1.7V245.9z"/>
	<path class="st2" d="M395.8,246.9h-2.7c-0.3,0-0.5-0.2-0.5-0.5v-2.7c0-0.3,0.2-0.5,0.5-0.5h2.7c0.3,0,0.5,0.2,0.5,0.5v2.7
		C396.3,246.6,396.1,246.9,395.8,246.9z M393.6,245.9h1.7v-1.7h-1.7V245.9z"/>
	<path class="st2" d="M399.8,246.9h-2.7c-0.3,0-0.5-0.2-0.5-0.5v-2.7c0-0.3,0.2-0.5,0.5-0.5h2.7c0.3,0,0.5,0.2,0.5,0.5v2.7
		C400.3,246.6,400,246.9,399.8,246.9z M397.6,245.9h1.7v-1.7h-1.7V245.9z"/>
	<path class="st2" d="M403.7,246.9H401c-0.3,0-0.5-0.2-0.5-0.5v-2.7c0-0.3,0.2-0.5,0.5-0.5h2.7c0.3,0,0.5,0.2,0.5,0.5v2.7
		C404.2,246.6,404,246.9,403.7,246.9z M401.5,245.9h1.7v-1.7h-1.7V245.9z"/>
	<path class="st2" d="M407.7,246.9H405c-0.3,0-0.5-0.2-0.5-0.5v-2.7c0-0.3,0.2-0.5,0.5-0.5h2.7c0.3,0,0.5,0.2,0.5,0.5v2.7
		C408.2,246.6,408,246.8,407.7,246.9z M405.5,245.9h1.7v-1.7h-1.7V245.9z"/>
	<path class="st2" d="M411.7,246.9H409c-0.3,0-0.5-0.2-0.5-0.5v-2.7c0-0.3,0.2-0.5,0.5-0.5h2.7c0.3,0,0.5,0.2,0.5,0.5v2.7
		C412.2,246.6,412,246.9,411.7,246.9C411.7,246.9,411.7,246.9,411.7,246.9z M409.5,245.9h1.7v-1.7h-1.7V245.9z"/>
	<path class="st2" d="M415.6,246.9H413c-0.3,0-0.5-0.2-0.5-0.5v-2.7c0-0.3,0.2-0.5,0.5-0.5h2.7c0.3,0,0.5,0.2,0.5,0.5v2.7
		C416.2,246.6,416,246.9,415.6,246.9C415.7,246.9,415.6,246.9,415.6,246.9z M413.5,245.9h1.7v-1.7h-1.7V245.9z"/>
	<path class="st2" d="M391.8,251.3h-2.7c-0.3,0-0.5-0.2-0.5-0.5v-2.7c0-0.3,0.2-0.5,0.5-0.5h2.7c0.3,0,0.5,0.2,0.5,0.5v2.7
		C392.3,251.1,392.1,251.3,391.8,251.3z M389.7,250.3h1.7v-1.7h-1.7V250.3z"/>
	<path class="st2" d="M395.8,251.3h-2.7c-0.3,0-0.5-0.2-0.5-0.5v-2.7c0-0.3,0.2-0.5,0.5-0.5h2.7c0.3,0,0.5,0.2,0.5,0.5v2.7
		C396.3,251.1,396.1,251.3,395.8,251.3z M393.6,250.3h1.7v-1.7h-1.7V250.3z"/>
	<path class="st2" d="M399.8,251.3h-2.7c-0.3,0-0.5-0.2-0.5-0.5v-2.7c0-0.3,0.2-0.5,0.5-0.5h2.7c0.3,0,0.5,0.2,0.5,0.5v2.7
		C400.3,251.1,400,251.3,399.8,251.3z M397.6,250.3h1.7v-1.7h-1.7V250.3z"/>
	<path class="st2" d="M403.7,251.3H401c-0.3,0-0.5-0.2-0.5-0.5v-2.7c0-0.3,0.2-0.5,0.5-0.5h2.7c0.3,0,0.5,0.2,0.5,0.5v2.7
		C404.2,251.1,404,251.3,403.7,251.3z M401.5,250.3h1.7v-1.7h-1.7V250.3z"/>
	<path class="st2" d="M407.7,251.3H405c-0.3,0-0.5-0.2-0.5-0.5v-2.7c0-0.3,0.2-0.5,0.5-0.5h2.7c0.3,0,0.5,0.2,0.5,0.5v2.7
		C408.2,251.1,408,251.3,407.7,251.3z M405.5,250.3h1.7v-1.7h-1.7V250.3z"/>
	<path class="st2" d="M411.7,251.3H409c-0.3,0-0.5-0.2-0.5-0.5v-2.7c0-0.3,0.2-0.5,0.5-0.5h2.7c0.3,0,0.5,0.2,0.5,0.5v2.7
		C412.2,251.1,412,251.3,411.7,251.3C411.7,251.3,411.7,251.3,411.7,251.3z M409.5,250.3h1.7v-1.7h-1.7V250.3z"/>
	<path class="st2" d="M415.6,251.3H413c-0.3,0-0.5-0.2-0.5-0.5v-2.7c0-0.3,0.2-0.5,0.5-0.5h2.7c0.3,0,0.5,0.2,0.5,0.5v2.7
		C416.2,251.1,416,251.3,415.6,251.3C415.7,251.3,415.6,251.3,415.6,251.3z M413.5,250.3h1.7v-1.7h-1.7V250.3z"/>
	<path class="st2" d="M415.2,230.7h-26.1c-0.3,0-0.5-0.2-0.5-0.5s0.2-0.5,0.5-0.5h26.1c0.3,0,0.5,0.2,0.5,0.5
		C415.7,230.5,415.5,230.7,415.2,230.7z"/>
</g>
<g id="freepik--Symbols--inject-133">
	<path class="st2" d="M79.8,236.6c-15.2,0-27.6-12.3-27.6-27.6s12.3-27.6,27.6-27.6s27.6,12.3,27.6,27.6l0,0
		C107.4,224.3,95.1,236.6,79.8,236.6z M79.8,182.5c-14.7,0-26.6,11.9-26.6,26.6s11.9,26.6,26.6,26.6s26.6-11.9,26.6-26.6l0,0
		C106.4,194.4,94.5,182.5,79.8,182.5z"/>
	<path class="st2" d="M79.8,233c-13.2,0-23.9-10.7-23.9-23.9s10.7-23.9,23.9-23.9s23.9,10.7,23.9,23.9l0,0
		C103.7,222.3,93,233,79.8,233z M79.8,186.2c-12.7,0-22.9,10.3-22.9,22.9S67.2,232,79.8,232s22.9-10.3,22.9-22.9l0,0
		C102.7,196.4,92.5,186.2,79.8,186.2L79.8,186.2z"/>
	<path class="st2" d="M81.8,228.1h-2.3v-2.7c-2.2,0-4.4-1-5.8-2.8c-1.4-2-2.2-4.3-2.2-6.7v-0.4l4.8-1.3v0.6c0.1,1,0.2,2.1,0.5,3.1
		c0.2,0.9,0.6,1.7,1.2,2.3c0.6,0.6,1.4,0.9,2.2,0.8c0.8,0.1,1.6-0.2,2.2-0.8c0.5-0.7,0.8-1.5,0.7-2.4c0.1-1.1-0.2-2.2-0.9-3.1
		c-0.7-0.9-1.4-1.8-2.3-2.5l-5.2-4.6c-0.7-0.6-1.2-1.3-1.8-2c-0.5-0.7-0.8-1.5-1.1-2.4c-0.2-0.9-0.3-1.9-0.3-2.9
		c-0.1-2.1,0.6-4.1,2-5.6c1.4-1.3,3.1-2,5-2.1v-2.6h2.3v2.6c0.9,0.1,1.7,0.3,2.5,0.7c0.9,0.4,1.6,1,2.2,1.7c0.6,0.8,1.1,1.7,1.4,2.6
		c0.4,1.1,0.6,2.3,0.7,3.5v0.4l-4.7,1.3v-0.6c-0.1-0.9-0.2-1.9-0.4-2.8c-0.2-0.7-0.5-1.4-1.1-1.9c-0.6-0.5-1.4-0.7-2.1-0.6
		c-0.8,0-1.6,0.3-2.2,0.8c-0.5,0.6-0.8,1.3-0.7,2.1c0,0.7,0.1,1.4,0.4,2.1c0.4,0.7,0.9,1.3,1.5,1.8l5.3,4.6c0.8,0.7,1.6,1.5,2.2,2.4
		c0.7,0.9,1.3,1.9,1.7,3c0.5,1.2,0.7,2.5,0.7,3.7c0,1.4-0.3,2.7-0.9,3.9c-0.5,1.1-1.4,2-2.4,2.7c-0.9,0.6-2,1-3.1,1.1L81.8,228.1z
		 M80.5,227.1h0.3v-2.6l0.4-0.1c1.1-0.1,2.2-0.4,3.2-1c0.9-0.6,1.6-1.4,2.1-2.4c0.5-1.1,0.8-2.3,0.8-3.5c0-1.1-0.2-2.3-0.6-3.4
		c-0.4-1-1-1.9-1.6-2.7c-0.6-0.8-1.3-1.6-2.1-2.3l-5.3-4.6c-0.7-0.6-1.2-1.3-1.6-2.1c-0.4-0.8-0.6-1.7-0.5-2.6
		c-0.1-1.1,0.3-2.1,1.1-2.9c0.8-0.6,1.8-1,2.8-1c1-0.1,2.1,0.2,2.9,0.8c0.7,0.6,1.1,1.5,1.3,2.4c0.2,0.8,0.3,1.6,0.4,2.4l2.7-0.7
		c-0.1-1-0.3-2-0.6-2.9c-0.3-0.8-0.7-1.6-1.2-2.3c-0.5-0.6-1.2-1.1-1.9-1.4c-0.8-0.4-1.7-0.6-2.7-0.6h-0.5v-2.6h-0.3v2.6h-0.5
		c-1.8,0-3.5,0.6-4.8,1.8c-1.2,1.3-1.8,3.1-1.7,4.9c0,0.9,0.1,1.8,0.3,2.6c0.2,0.7,0.5,1.4,0.9,2.1c0.5,0.7,1,1.3,1.6,1.8l5.2,4.6
		c0.9,0.8,1.7,1.7,2.5,2.7c0.8,1.1,1.1,2.4,1.1,3.7c0.1,1.1-0.3,2.2-1,3.1c-0.8,0.8-1.8,1.2-2.9,1.1c-1.1,0.1-2.2-0.4-2.9-1.1
		c-0.7-0.8-1.2-1.7-1.4-2.7c-0.2-0.9-0.4-1.8-0.5-2.7l-2.9,0.8c0.1,2.1,0.8,4.1,2,5.8c1.2,1.6,3,2.3,5.5,2.4h0.5L80.5,227.1z"/>
	<path class="st2" d="M399,151.1c-9.1,0-16.5-7.4-16.5-16.5s7.4-16.5,16.5-16.5s16.5,7.4,16.5,16.5
		C415.5,143.7,408.1,151.1,399,151.1z M399,119.1c-8.6,0-15.5,6.9-15.5,15.5s6.9,15.5,15.5,15.5s15.5-6.9,15.5-15.5
		C414.5,126.1,407.6,119.1,399,119.1z"/>
	<path class="st2" d="M399,149c-7.9,0-14.4-6.4-14.4-14.4s6.4-14.3,14.4-14.3c7.9,0,14.4,6.4,14.4,14.3
		C413.3,142.6,406.9,149,399,149z M399,121.3c-7.4,0-13.4,6-13.4,13.4s6,13.3,13.4,13.3c7.4,0,13.4-6,13.4-13.3
		C412.3,127.3,406.4,121.3,399,121.3L399,121.3z"/>
	<path class="st2" d="M400.4,146.1h-1.8v-1.6c-1.3,0-2.6-0.7-3.4-1.7c-0.9-1.2-1.3-2.6-1.4-4.1v-0.4l3.2-0.9v0.6
		c0,0.6,0.1,1.2,0.3,1.8c0.1,0.5,0.3,0.9,0.7,1.3c0.7,0.5,1.6,0.5,2.3,0c0.3-0.4,0.4-0.8,0.4-1.3c0-0.6-0.1-1.2-0.5-1.7
		c-0.4-0.5-0.9-1-1.4-1.5l-3.1-2.7c-0.4-0.4-0.8-0.8-1.1-1.2c-0.3-0.4-0.5-0.9-0.7-1.5c-0.1-0.6-0.2-1.2-0.2-1.8
		c-0.1-1.3,0.4-2.5,1.3-3.4c0.8-0.7,1.8-1.2,2.9-1.3v-1.5h1.8v1.6c0.5,0.1,0.9,0.2,1.4,0.4c0.5,0.2,1,0.6,1.4,1.1
		c0.4,0.5,0.7,1,0.9,1.6c0.2,0.7,0.3,1.4,0.4,2.1v0.4l-3.2,0.9l0-0.6c0-0.5-0.1-1.1-0.2-1.6c-0.1-0.4-0.3-0.7-0.6-1
		c-0.3-0.2-0.7-0.3-1.1-0.3c-0.4,0-0.9,0.1-1.2,0.4c-0.3,0.3-0.4,0.7-0.4,1.1c0,0.4,0.1,0.8,0.2,1.1c0.2,0.4,0.5,0.7,0.8,1l3.1,2.7
		c0.5,0.4,0.9,0.9,1.4,1.4c0.4,0.6,0.8,1.2,1,1.8c0.3,0.7,0.4,1.5,0.4,2.3c0,0.8-0.2,1.7-0.5,2.4c-0.3,0.7-0.9,1.3-1.5,1.7
		c-0.5,0.3-1.1,0.6-1.8,0.7L400.4,146.1z M394.9,139.1c0.1,1.1,0.5,2.2,1.1,3.1c0.8,0.9,1.9,1.4,3.1,1.3h0.4h0.3
		c0.6,0,1.2-0.2,1.8-0.6c0.5-0.3,0.9-0.8,1.2-1.3c0.3-0.6,0.4-1.3,0.4-2c0-0.6-0.1-1.3-0.3-1.9c-0.2-0.6-0.5-1.1-0.9-1.6
		c-0.4-0.5-0.8-0.9-1.2-1.3l-3.1-2.7c-0.4-0.4-0.7-0.8-1-1.3c-0.2-0.5-0.4-1.1-0.3-1.6c-0.1-0.7,0.2-1.4,0.7-1.8
		c0.5-0.4,1.1-0.7,1.8-0.7c0.7-0.1,1.3,0.1,1.8,0.5c0.4,0.4,0.7,0.9,0.9,1.5c0.1,0.4,0.2,0.8,0.2,1.2l1.2-0.3
		c-0.1-0.5-0.2-1-0.3-1.5c-0.1-0.5-0.4-0.9-0.7-1.3c-0.3-0.3-0.6-0.6-1-0.8c-0.5-0.2-1-0.3-1.5-0.3h-0.3l0,0h-0.5c-1,0-2,0.3-2.7,1
		c-0.7,0.7-1.1,1.7-1,2.7c0,0.5,0.1,1,0.2,1.5c0.1,0.4,0.3,0.8,0.5,1.2c0.3,0.4,0.6,0.7,0.9,1.1l3.1,2.7c0.6,0.5,1.1,1,1.5,1.6
		c0.5,0.7,0.7,1.5,0.7,2.3c0,0.7-0.2,1.4-0.6,1.9c-0.5,0.5-1.2,0.8-1.9,0.7c-0.7,0-1.4-0.2-1.9-0.7c-0.4-0.5-0.8-1.1-0.9-1.7
		c-0.1-0.5-0.2-0.9-0.3-1.4L394.9,139.1z"/>
</g>
<g id="freepik--Door--inject-133">
	<rect x="400.3" y="273.4" class="st3" width="47.1" height="108"/>
	<path class="st2" d="M447.5,381.9h-47.1c-0.3,0-0.5-0.2-0.5-0.5v-108c0-0.3,0.2-0.5,0.5-0.5h47.1c0.3,0,0.5,0.2,0.5,0.5v108
		C448,381.6,447.8,381.9,447.5,381.9z M400.8,380.9H447v-107h-46.2L400.8,380.9z"/>
	<rect x="404.9" y="278.6" class="st3" width="37.4" height="40.9"/>
	<path class="st2" d="M442.3,320h-37.4c-0.3,0-0.5-0.2-0.5-0.5v-40.9c0-0.3,0.2-0.5,0.5-0.5h37.4c0.3,0,0.5,0.2,0.5,0.5v40.9
		C442.8,319.7,442.6,320,442.3,320C442.3,320,442.3,320,442.3,320z M405.4,319h36.4v-39.9h-36.4V319z"/>
	<rect x="404.9" y="338.9" class="st3" width="37.4" height="38.3"/>
	<path class="st2" d="M442.3,377.7h-37.4c-0.3,0-0.5-0.2-0.5-0.5v-38.3c0-0.3,0.2-0.5,0.5-0.5h37.4c0.3,0,0.5,0.2,0.5,0.5v38.3
		C442.8,377.5,442.5,377.7,442.3,377.7z M405.4,376.7h36.4v-37.3h-36.4V376.7z"/>
	<path class="st3" d="M443.7,329c0-1.6-1.4-2.9-3-2.9c-1.6,0-2.9,1.4-2.9,3c0,1.6,1.3,2.9,2.9,2.9C442.4,332,443.7,330.7,443.7,329
		C443.7,329,443.7,329,443.7,329z"/>
	<path class="st2" d="M440.8,332.5c-1.9,0-3.4-1.5-3.4-3.4c0-1.9,1.5-3.4,3.4-3.4s3.4,1.5,3.5,3.4c0,0,0,0,0,0
		C444.2,330.9,442.7,332.4,440.8,332.5z M440.8,326.6c-1.3,0-2.4,1.1-2.4,2.4c0,1.3,1.1,2.4,2.4,2.4c1.3,0,2.4-1.1,2.4-2.4
		c0,0,0,0,0,0C443.2,327.7,442.1,326.6,440.8,326.6C440.8,326.6,440.8,326.6,440.8,326.6L440.8,326.6z"/>
</g>
<g id="freepik--file-cabinet--inject-133">
	<rect x="347.5" y="300.5" class="st3" width="37.7" height="80.6"/>
	<path class="st2" d="M385.1,381.7h-37.7c-0.3,0-0.5-0.2-0.5-0.5v-80.6c0-0.3,0.2-0.5,0.5-0.5h37.7c0.3,0,0.5,0.2,0.5,0.5v80.6
		C385.6,381.4,385.4,381.7,385.1,381.7z M348,380.7h36.7V301H348L348,380.7z"/>
	<rect x="374.3" y="300.5" class="st2" width="10.9" height="80.6"/>
	<path class="st2" d="M385.1,381.7h-10.9c-0.3,0-0.5-0.2-0.5-0.5v-80.6c0-0.3,0.2-0.5,0.5-0.5h10.9c0.3,0,0.5,0.2,0.5,0.5v80.6
		C385.6,381.4,385.4,381.7,385.1,381.7z M374.8,380.7h9.9V301h-9.9V380.7z"/>
	<path class="st2" d="M372.6,323h-23.6c-0.3,0-0.5-0.2-0.5-0.5v-18.6c0-0.3,0.2-0.5,0.5-0.5h23.6c0.3,0,0.5,0.2,0.5,0.5v18.6
		C373.1,322.8,372.8,323,372.6,323z M349.4,322h22.6v-17.6h-22.6V322z"/>
	<rect x="358.5" y="311.6" class="st2" width="4" height="3.4"/>
	<path class="st2" d="M362.6,315.5h-4c-0.3,0-0.5-0.2-0.5-0.5v-3.4c0-0.3,0.2-0.5,0.5-0.5h4c0.3,0,0.5,0.2,0.5,0.5v3.4
		C363.1,315.3,362.8,315.5,362.6,315.5z M359,314.5h3v-2.4h-3V314.5z"/>
	<path class="st2" d="M372.6,345.3h-23.6c-0.3,0-0.5-0.2-0.5-0.5v-18.6c0-0.3,0.2-0.5,0.5-0.5h23.6c0.3,0,0.5,0.2,0.5,0.5v18.6
		C373.1,345.1,372.8,345.3,372.6,345.3z M349.4,344.3h22.6v-17.6h-22.6V344.3z"/>
	<rect x="358.5" y="333.9" class="st2" width="4" height="3.4"/>
	<path class="st2" d="M362.6,337.8h-4c-0.3,0-0.5-0.2-0.5-0.5v-3.4c0-0.3,0.2-0.5,0.5-0.5h4c0.3,0,0.5,0.2,0.5,0.5v3.4
		C363.1,337.6,362.8,337.8,362.6,337.8z M359,336.8h3v-2.4h-3V336.8z"/>
	<rect x="348.9" y="348.5" class="st3" width="23.6" height="18.6"/>
	<path class="st2" d="M372.6,367.6h-23.6c-0.3,0-0.5-0.2-0.5-0.5v-18.6c0-0.3,0.2-0.5,0.5-0.5h23.6c0.3,0,0.5,0.2,0.5,0.5v18.6
		C373.1,367.4,372.8,367.6,372.6,367.6z M349.4,366.6h22.6V349h-22.6V366.6z"/>
	<rect x="358.5" y="356.2" class="st2" width="4" height="3.4"/>
	<path class="st2" d="M362.6,360.1h-4c-0.3,0-0.5-0.2-0.5-0.5v-3.4c0-0.3,0.2-0.5,0.5-0.5h4c0.3,0,0.5,0.2,0.5,0.5v3.4
		C363.1,359.9,362.8,360.1,362.6,360.1z M359,359.1h3v-2.4h-3V359.1z"/>
</g>
<g id="freepik--Board--inject-133">
	<rect x="243.5" y="273.8" class="st3" width="62.4" height="43.3"/>
	<path class="st2" d="M306,317.6h-62.5c-0.3,0-0.5-0.2-0.5-0.5v-43.3c0-0.3,0.2-0.5,0.5-0.5H306c0.3,0,0.5,0.2,0.5,0.5v43.3
		C306.5,317.4,306.3,317.6,306,317.6z M244.1,316.6h61.4v-42.3H244L244.1,316.6z"/>
	<rect x="246.5" y="275.8" class="st4" width="56.5" height="39.2"/>
	<path class="st2" d="M303,315.5h-56.5c-0.3,0-0.5-0.2-0.5-0.5v-39.2c0-0.3,0.2-0.5,0.5-0.5H303c0.3,0,0.5,0.2,0.5,0.5V315
		C303.5,315.3,303.3,315.5,303,315.5z M247,314.5h55.5v-38.2H247V314.5z"/>
	<rect x="251.3" y="282.2" class="st3" width="8.1" height="10.2"/>
	<path class="st2" d="M259.4,292.9h-8.1c-0.3,0-0.5-0.2-0.5-0.5v-10.2c0-0.3,0.2-0.5,0.5-0.5h8.1c0.3,0,0.5,0.2,0.5,0.5v10.2
		C259.9,292.6,259.6,292.9,259.4,292.9z M251.8,291.9h7.1v-9.2h-7.1V291.9z"/>
	<rect x="270.6" y="287.5" class="st0" width="9.1" height="14.4"/>
	<path class="st2" d="M279.7,302.3h-9.1c-0.3,0-0.5-0.2-0.5-0.5v-14.4c0-0.3,0.2-0.5,0.5-0.5h9.1c0.3,0,0.5,0.2,0.5,0.5v14.4
		C280.2,302.1,280,302.3,279.7,302.3z M271.1,301.3h8.1V288h-8.1V301.3z"/>
	<rect x="251.7" y="301.5" class="st0" width="4.6" height="4.6"/>
	<path class="st2" d="M256.2,306.5h-4.6c-0.3,0-0.5-0.2-0.5-0.5v-4.6c0-0.3,0.2-0.5,0.5-0.5h4.6c0.3,0,0.5,0.2,0.5,0.5v4.5
		C256.7,306.3,256.5,306.5,256.2,306.5C256.2,306.5,256.2,306.5,256.2,306.5z M252.2,305.5h3.6V302h-3.6V305.5z"/>
	<rect x="287.8" y="288.5" class="st3" width="3.9" height="5.3"/>
	<path class="st2" d="M291.6,294.3h-3.9c-0.3,0-0.5-0.2-0.5-0.5v-5.2c0-0.3,0.2-0.5,0.5-0.5h3.9c0.3,0,0.5,0.2,0.5,0.5v5.2
		C292.1,294,291.9,294.3,291.6,294.3z M288.2,293.3h2.9V289h-2.9V293.3z"/>
	<rect x="275.5" y="279.1" class="st3" width="3.1" height="2.8"/>
	<path class="st2" d="M278.6,282.4h-3.2c-0.3,0-0.5-0.2-0.5-0.5v-2.8c0-0.3,0.2-0.5,0.5-0.5h3.2c0.3,0,0.5,0.2,0.5,0.5v2.8
		C279.1,282.1,278.9,282.4,278.6,282.4z M276,281.4h2.2v-1.8H276L276,281.4z"/>
	<rect x="282.8" y="299.4" class="st3" width="6" height="8.8"/>
	<path class="st2" d="M288.8,308.6h-6c-0.3,0-0.5-0.2-0.5-0.5v-8.8c0-0.3,0.2-0.5,0.5-0.5h6c0.3,0,0.5,0.2,0.5,0.5v8.8
		C289.3,308.4,289.1,308.6,288.8,308.6z M283.3,307.6h5v-7.8h-5V307.6z"/>
	<rect x="294" y="294.5" class="st0" width="4.6" height="7"/>
	<path class="st2" d="M298.6,302H294c-0.3,0-0.5-0.2-0.5-0.5v-7c0-0.3,0.2-0.5,0.5-0.5h4.6c0.3,0,0.5,0.2,0.5,0.5v7
		C299.1,301.8,298.9,302,298.6,302z M294.5,301h3.6v-6h-3.6V301z"/>
</g>
<g id="freepik--table-2--inject-133">
	<rect x="266.1" y="339.7" class="st2" width="18.7" height="41.5"/>
	<path class="st2" d="M284.8,381.7h-18.7c-0.3,0-0.5-0.2-0.5-0.5v-41.5c0-0.3,0.2-0.5,0.5-0.5h18.7c0.3,0,0.5,0.2,0.5,0.5v41.5
		C285.3,381.4,285.1,381.7,284.8,381.7z M266.6,380.7h17.7v-40.5h-17.7V380.7z"/>
	<path class="st2" d="M343.2,338.4h-81.7c-0.3,0-0.5-0.2-0.5-0.5v-2.5c0-0.3,0.2-0.5,0.5-0.5h81.7c0.3,0,0.5,0.2,0.5,0.5v2.5
		C343.7,338.2,343.5,338.4,343.2,338.4z M262,337.4h80.7v-1.5H262L262,337.4z"/>
	<path class="st2" d="M343.2,338.4h-18.9c-0.3,0-0.5-0.2-0.5-0.5v-2.5c0-0.3,0.2-0.5,0.5-0.5h18.9c0.3,0,0.5,0.2,0.5,0.5v2.5
		C343.7,338.2,343.5,338.4,343.2,338.4z M324.8,337.4h17.9v-1.5h-17.9V337.4z"/>
	<polygon class="st3" points="263.6,337.9 263.6,381.2 266.8,381.2 266.8,343.1 301.4,343.1 301.4,381.2 342,381.2 342,337.9 	"/>
	<path class="st2" d="M342,381.7h-40.6c-0.3,0-0.5-0.2-0.5-0.5v-37.6h-33.5v37.6c0,0.3-0.2,0.5-0.5,0.5h-3.2c-0.3,0-0.5-0.2-0.5-0.5
		v-43.3c0-0.3,0.2-0.5,0.5-0.5H342c0.3,0,0.5,0.2,0.5,0.5v43.3C342.5,381.4,342.3,381.7,342,381.7z M301.9,380.7h39.6v-42.3h-77.4
		v42.3h2.2v-37.6c0-0.3,0.2-0.5,0.5-0.5h34.5c0.3,0,0.5,0.2,0.5,0.5L301.9,380.7z"/>
	<rect x="323.3" y="337.9" class="st2" width="18.7" height="43.3"/>
	<path class="st2" d="M342,381.7h-18.7c-0.3,0-0.5-0.2-0.5-0.5v-43.3c0-0.3,0.2-0.5,0.5-0.5H342c0.3,0,0.5,0.2,0.5,0.5v43.3
		C342.5,381.4,342.3,381.7,342,381.7z M323.8,380.7h17.7v-42.3h-17.7L323.8,380.7z"/>
	<rect x="303.5" y="343.4" class="st3" width="17.2" height="8.7"/>
	<path class="st2" d="M320.8,352.6h-17.2c-0.3,0-0.5-0.2-0.5-0.5v-8.7c0-0.3,0.2-0.5,0.5-0.5h17.2c0.3,0,0.5,0.2,0.5,0.5v8.7
		C321.3,352.4,321,352.6,320.8,352.6z M304.1,351.6h16.2v-7.7H304L304.1,351.6z"/>
	<path class="st2" d="M314.1,348.1h-3.8c-0.3,0-0.5-0.2-0.5-0.5s0.2-0.5,0.5-0.5h3.8c0.3,0,0.5,0.2,0.5,0.5S314.3,348.1,314.1,348.1
		z"/>
	<rect x="303.5" y="354.6" class="st3" width="17.2" height="8.7"/>
	<path class="st2" d="M320.8,363.8h-17.2c-0.3,0-0.5-0.2-0.5-0.5v-8.7c0-0.3,0.2-0.5,0.5-0.5h17.2c0.3,0,0.5,0.2,0.5,0.5v8.7
		C321.3,363.6,321,363.8,320.8,363.8z M304.1,362.8h16.2v-7.7H304L304.1,362.8z"/>
	<path class="st2" d="M314.1,359.6h-3.8c-0.3,0-0.5-0.2-0.5-0.5s0.2-0.5,0.5-0.5h3.8c0.3,0,0.5,0.2,0.5,0.5S314.3,359.6,314.1,359.6
		z"/>
	<rect x="303.5" y="365.8" class="st3" width="17.2" height="8.7"/>
	<path class="st2" d="M320.8,375h-17.2c-0.3,0-0.5-0.2-0.5-0.5v-8.7c0-0.3,0.2-0.5,0.5-0.5h17.2c0.3,0,0.5,0.2,0.5,0.5v8.7
		C321.3,374.8,321,375,320.8,375z M304.1,374h16.2v-7.7H304L304.1,374z"/>
	<path class="st2" d="M314.1,371h-3.8c-0.3,0-0.5-0.2-0.5-0.5s0.2-0.5,0.5-0.5h3.8c0.3,0,0.5,0.2,0.5,0.5S314.3,371,314.1,371z"/>
</g>
<g id="freepik--chair-2--inject-133">
	<rect x="242.8" y="353.1" class="st2" width="2.2" height="17.1"/>
	<path class="st2" d="M245,370.7h-2.2c-0.3,0-0.5-0.2-0.5-0.5v-17.2c0-0.3,0.2-0.5,0.5-0.5h2.2c0.3,0,0.5,0.2,0.5,0.5v17.1
		C245.5,370.5,245.3,370.7,245,370.7C245,370.7,245,370.7,245,370.7z M243.3,369.7h1.2v-16.2h-1.2L243.3,369.7z"/>
	<circle class="st2" cx="229.4" cy="378.9" r="1.8"/>
	<path class="st2" d="M229.4,381.2c-1.3,0-2.3-1-2.3-2.3c0-1.3,1-2.3,2.3-2.3c1.3,0,2.3,1,2.3,2.3c0,0,0,0,0,0
		C231.7,380.1,230.7,381.2,229.4,381.2z M229.4,377.6c-0.7,0-1.3,0.6-1.3,1.3s0.6,1.3,1.3,1.3c0.7,0,1.3-0.6,1.3-1.3c0,0,0,0,0,0
		C230.7,378.2,230.2,377.6,229.4,377.6z"/>
	<circle class="st2" cx="258.3" cy="378.9" r="1.8"/>
	<path class="st2" d="M258.3,381.2c-1.3,0-2.3-1-2.3-2.3s1-2.3,2.3-2.3c1.3,0,2.3,1,2.3,2.3c0,0,0,0,0,0
		C260.6,380.1,259.6,381.2,258.3,381.2z M258.3,377.6c-0.7,0-1.3,0.6-1.3,1.3c0,0.7,0.6,1.3,1.3,1.3s1.3-0.6,1.3-1.3c0,0,0,0,0,0
		C259.6,378.2,259,377.6,258.3,377.6z"/>
	<polygon class="st2" points="244.8,370.2 243.8,370.4 242.8,370.2 226.9,376.9 226.9,378.2 229.6,378.2 230.2,376.9 243.8,373.3 
		257.4,376.9 258,378.2 260.7,378.2 260.7,376.9 	"/>
	<path class="st2" d="M260.7,378.7H258c-0.2,0-0.4-0.1-0.5-0.3l-0.5-1.1l-13.3-3.5l-13.3,3.5l-0.5,1.1c-0.1,0.2-0.3,0.3-0.5,0.3
		h-2.7c-0.3,0-0.5-0.2-0.5-0.5v-1.3c0-0.2,0.1-0.4,0.3-0.5l15.9-6.7c0.1,0,0.2,0,0.3,0l0.9,0.1l0.9-0.1c0.1,0,0.2,0,0.3,0l15.9,6.7
		c0.2,0.1,0.3,0.3,0.3,0.5v1.3C261.2,378.5,260.9,378.7,260.7,378.7z M258.3,377.7h1.8v-0.5l-15.4-6.5l-0.9,0.1h-0.1l-0.9-0.1
		l-15.4,6.5v0.5h1.8l0.5-1c0.1-0.1,0.2-0.2,0.3-0.3l13.6-3.5c0.1,0,0.2,0,0.3,0l13.6,3.5c0.1,0,0.3,0.1,0.3,0.3L258.3,377.7z"/>
	<rect x="242.8" y="370.2" class="st2" width="2.3" height="8.6"/>
	<path class="st2" d="M245.1,379.3h-2.3c-0.3,0-0.5-0.2-0.5-0.5v-8.6c0-0.3,0.2-0.5,0.5-0.5h2.3c0.3,0,0.5,0.2,0.5,0.5v8.6
		C245.6,379.1,245.4,379.3,245.1,379.3z M243.3,378.3h1.3v-7.6h-1.3V378.3z"/>
	<rect x="242.8" y="378.3" class="st2" width="2.1" height="2.9"/>
	<path class="st2" d="M244.9,381.7h-2.1c-0.3,0-0.5-0.2-0.5-0.5v-2.9c0-0.3,0.2-0.5,0.5-0.5h2.1c0.3,0,0.5,0.2,0.5,0.5v2.9
		C245.4,381.4,245.2,381.7,244.9,381.7z M243.3,380.7h1.1v-1.9h-1.1V380.7z"/>
	<path class="st4" d="M238.3,311.8L238.3,311.8c5.4,0,9.7,4.3,9.7,9.7v28.6l0,0h-19.4l0,0v-28.6C228.6,316.2,233,311.8,238.3,311.8z
		"/>
	<path class="st2" d="M248,350.6h-19.4c-0.3,0-0.5-0.2-0.5-0.5v-28.6c0-5.6,4.6-10.2,10.2-10.2c5.6,0,10.2,4.6,10.2,10.2v28.6
		C248.5,350.4,248.3,350.6,248,350.6C248,350.6,248,350.6,248,350.6z M229.1,349.6h18.4v-28.1c0-5.1-4.1-9.2-9.2-9.2
		c-5.1,0-9.2,4.1-9.2,9.2V349.6z"/>
	<path class="st4" d="M251.4,350.1H232v-28.6c0-5.4,4.3-9.7,9.7-9.7l0,0c5.4,0,9.7,4.3,9.7,9.7L251.4,350.1z"/>
	<path class="st2" d="M251.4,350.6H232c-0.3,0-0.5-0.2-0.5-0.5v-28.6c0-5.6,4.6-10.2,10.2-10.2s10.2,4.6,10.2,10.2c0,0,0,0,0,0v28.6
		C251.9,350.4,251.7,350.6,251.4,350.6C251.4,350.6,251.4,350.6,251.4,350.6z M232.5,349.6h18.4v-28.1c0-5.1-4.1-9.2-9.2-9.2
		s-9.2,4.1-9.2,9.2c0,0,0,0,0,0V349.6z"/>
	<rect x="228.6" y="345.8" class="st4" width="33.4" height="4.3"/>
	<path class="st2" d="M262,350.6h-33.4c-0.3,0-0.5-0.2-0.5-0.5v-4.3c0-0.3,0.2-0.5,0.5-0.5H262c0.3,0,0.5,0.2,0.5,0.5v4.3
		C262.5,350.4,262.3,350.6,262,350.6z M229.1,349.6h32.4v-3.3h-32.4L229.1,349.6z"/>
	<rect x="245" y="345.8" class="st4" width="17" height="4.3"/>
	<path class="st2" d="M262,350.6h-17c-0.3,0-0.5-0.2-0.5-0.5v-4.3c0-0.3,0.2-0.5,0.5-0.5h17c0.3,0,0.5,0.2,0.5,0.5v4.3
		C262.5,350.4,262.3,350.6,262,350.6z M245.5,349.6h16v-3.3h-16L245.5,349.6z"/>
	<rect x="238.3" y="350.3" class="st2" width="11.9" height="2.6"/>
	<path class="st2" d="M250.3,353.4h-12c-0.3,0-0.5-0.2-0.5-0.5v-2.6c0-0.3,0.2-0.5,0.5-0.5h12c0.3,0,0.5,0.2,0.5,0.5v2.6
		C250.8,353.2,250.5,353.4,250.3,353.4z M238.8,352.4h11v-1.6h-11V352.4z"/>
</g>
<g id="freepik--Plant--inject-133">
	<rect x="186.1" y="362.1" class="st2" width="12.6" height="19.1"/>
	<path class="st2" d="M198.8,381.7h-12.6c-0.3,0-0.5-0.2-0.5-0.5v-19.1c0-0.3,0.2-0.5,0.5-0.5h12.6c0.3,0,0.5,0.2,0.5,0.5v19.1
		C199.2,381.4,199,381.7,198.8,381.7z M186.6,380.7h11.6v-18.1h-11.6V380.7z"/>
	<path class="st0" d="M192.5,338.1c0,0-3.3-9.7-2.6-12.5c0.4-1.5,1.9-2.3,3.4-1.9c0.9,0.2,1.6,0.9,1.9,1.7
		C195.9,327.7,192.5,338.1,192.5,338.1z"/>
	<path class="st2" d="M192.5,338.6c-0.2,0-0.4-0.1-0.5-0.3c-0.1-0.4-3.4-9.9-2.6-12.8c0.3-1.4,1.6-2.4,3-2.4
		c1.4-0.1,2.7,0.8,3.2,2.2c0.8,2.4-2.3,12-2.7,13C192.9,338.4,192.7,338.5,192.5,338.6L192.5,338.6z M192.6,324L192.6,324
		c-1,0-1.9,0.7-2.1,1.7c-0.5,1.8,1.1,7.5,2.1,10.8c1.3-4.1,2.7-9.5,2.2-11C194.4,324.6,193.5,324,192.6,324L192.6,324z"/>
	<path class="st2" d="M192.5,362.8c-0.3,0-0.5-0.2-0.5-0.5v-33.5c0-0.3,0.2-0.5,0.5-0.5s0.5,0.2,0.5,0.5v33.5
		C193,362.5,192.8,362.8,192.5,362.8z"/>
	<path class="st0" d="M192.6,359.1c0,0,1.7-4.9,4.9-7.1s6.6-0.2,6.6,1.6S196.2,355.6,192.6,359.1z"/>
	<path class="st2" d="M192.6,359.6c-0.1,0-0.2,0-0.3-0.1c-0.2-0.1-0.3-0.4-0.2-0.6c0.1-0.2,1.8-5.1,5.1-7.3c1.7-1.2,3.8-1.3,5.6-0.4
		c1,0.4,1.7,1.4,1.8,2.5c0,1.2-1.8,1.7-4.2,2.4s-5.6,1.6-7.5,3.4C192.9,359.6,192.7,359.6,192.6,359.6z M200.5,351.6
		c-1,0-1.9,0.3-2.7,0.9c-1.7,1.3-3.1,3.1-4,5.1c2-1.1,4.1-1.9,6.4-2.5c1.5-0.4,3.5-1,3.5-1.4c-0.1-0.7-0.6-1.3-1.2-1.6
		C201.8,351.8,201.2,351.6,200.5,351.6L200.5,351.6z"/>
	<path class="st0" d="M192.3,359.1c0,0-1.7-4.9-4.9-7.1s-6.6-0.2-6.6,1.6S188.7,355.6,192.3,359.1z"/>
	<path class="st2" d="M192.3,359.6c-0.1,0-0.3,0-0.4-0.1c-1.9-1.8-5-2.7-7.5-3.4s-4.2-1.2-4.2-2.4c0.1-1.1,0.8-2,1.8-2.5
		c1.8-0.9,4-0.7,5.6,0.4c3.3,2.2,5,7.1,5.1,7.3c0.1,0.2,0,0.5-0.3,0.6C192.4,359.6,192.4,359.6,192.3,359.6z M184.4,351.6
		c-0.7,0-1.3,0.2-1.9,0.5c-0.7,0.3-1.1,0.9-1.2,1.6c0,0.5,2,1,3.5,1.4c2.2,0.5,4.4,1.4,6.4,2.5c-0.9-2-2.3-3.7-4-5.1
		C186.3,351.9,185.4,351.6,184.4,351.6L184.4,351.6z"/>
	<path class="st0" d="M192.6,351.1c0,0,1.7-4.9,4.9-7.1s6.6-0.2,6.6,1.6S196.2,347.6,192.6,351.1z"/>
	<path class="st2" d="M192.6,351.6c-0.1,0-0.2,0-0.3-0.1c-0.2-0.1-0.3-0.4-0.2-0.6c0.1-0.2,1.8-5.1,5.1-7.3c1.6-1.2,3.8-1.4,5.6-0.5
		c1,0.4,1.7,1.4,1.8,2.5c0,1.2-1.8,1.7-4.2,2.4s-5.6,1.6-7.5,3.4C192.9,351.6,192.7,351.6,192.6,351.6z M200.5,343.6
		c-1,0-1.9,0.3-2.7,0.9c-1.7,1.3-3.1,3.1-4,5.1c2-1.1,4.1-1.9,6.4-2.4c1.5-0.4,3.5-1,3.5-1.4c-0.1-0.7-0.6-1.3-1.2-1.6
		C201.8,343.8,201.2,343.6,200.5,343.6z"/>
	<path class="st0" d="M192.3,351.1c0,0-1.7-4.9-4.9-7.1s-6.6-0.2-6.6,1.6S188.7,347.6,192.3,351.1z"/>
	<path class="st2" d="M192.3,351.6c-0.1,0-0.3-0.1-0.4-0.1c-1.9-1.8-5-2.7-7.5-3.4s-4.2-1.2-4.2-2.4c0.1-1.1,0.8-2,1.8-2.5
		c1.8-0.9,4-0.7,5.6,0.5c3.3,2.2,5,7.1,5.1,7.3c0.1,0.2,0,0.5-0.2,0.6C192.5,351.6,192.4,351.6,192.3,351.6z M184.4,343.6
		c-0.7,0-1.3,0.2-1.9,0.5c-0.7,0.3-1.1,0.9-1.2,1.6c0,0.5,2,1,3.5,1.4c2.2,0.5,4.4,1.3,6.4,2.4c-0.9-2-2.3-3.7-4-5.1
		C186.3,343.9,185.4,343.6,184.4,343.6L184.4,343.6z"/>
	<path class="st0" d="M192.6,343.1c0,0,1.7-4.9,4.9-7.1s6.6-0.2,6.6,1.6S196.2,339.6,192.6,343.1z"/>
	<path class="st2" d="M192.6,343.6c-0.1,0-0.2,0-0.3-0.1c-0.2-0.1-0.3-0.4-0.2-0.6c0.1-0.2,1.8-5.1,5.1-7.3c1.6-1.2,3.8-1.4,5.6-0.5
		c1,0.4,1.7,1.4,1.8,2.5c0,1.2-1.8,1.7-4.2,2.4s-5.6,1.6-7.5,3.4C192.9,343.5,192.7,343.6,192.6,343.6z M200.5,335.6
		c-1,0-1.9,0.3-2.7,0.9c-1.7,1.3-3.1,3.1-4,5.1c2-1.1,4.1-1.9,6.4-2.5c1.5-0.4,3.5-1,3.5-1.4c-0.1-0.7-0.6-1.3-1.2-1.6
		C201.8,335.7,201.2,335.6,200.5,335.6L200.5,335.6z"/>
	<path class="st0" d="M192.3,343.1c0,0-1.7-4.9-4.9-7.1s-6.6-0.2-6.6,1.6S188.7,339.6,192.3,343.1z"/>
	<path class="st2" d="M192.3,343.6c-0.1,0-0.3-0.1-0.4-0.1c-1.9-1.8-5-2.7-7.5-3.4s-4.2-1.2-4.2-2.4c0.1-1.1,0.8-2,1.8-2.5
		c1.8-0.9,4-0.7,5.6,0.5c3.3,2.2,5,7.1,5.1,7.3c0.1,0.2,0,0.5-0.2,0.6C192.5,343.6,192.4,343.6,192.3,343.6z M184.4,335.6
		c-0.7,0-1.3,0.1-1.9,0.5c-0.7,0.3-1.1,0.9-1.2,1.6c0,0.5,2,1,3.5,1.4c2.2,0.5,4.4,1.3,6.4,2.5c-0.9-2-2.3-3.7-4-5.1
		C186.3,335.9,185.4,335.6,184.4,335.6L184.4,335.6z"/>
</g>
<g id="freepik--Picture--inject-133">
	<rect x="32.6" y="281" class="st3" width="35.3" height="44.4"/>
	<path class="st2" d="M67.9,325.9H32.6c-0.3,0-0.5-0.2-0.5-0.5V281c0-0.3,0.2-0.5,0.5-0.5h35.3c0.3,0,0.5,0.2,0.5,0.5v44.4
		C68.4,325.7,68.2,325.9,67.9,325.9z M33.1,324.9h34.3v-43.4H33.1L33.1,324.9z"/>
	<rect x="35.9" y="285.2" class="st3" width="28.7" height="36"/>
	<path class="st2" d="M64.6,321.7H35.9c-0.3,0-0.5-0.2-0.5-0.5v-36c0-0.3,0.2-0.5,0.5-0.5h28.7c0.3,0,0.5,0.2,0.5,0.5v36
		C65.1,321.5,64.8,321.7,64.6,321.7z M36.4,320.7h27.7v-35H36.4L36.4,320.7z"/>
	<rect x="44" y="295.4" class="st0" width="12.4" height="15.6"/>
	<path class="st2" d="M56.4,311.5H44c-0.3,0-0.5-0.2-0.5-0.5v-15.6c0-0.3,0.2-0.5,0.5-0.5h12.4c0.3,0,0.5,0.2,0.5,0.5V311
		C56.9,311.3,56.7,311.5,56.4,311.5z M44.5,310.5h11.4v-14.6H44.5L44.5,310.5z"/>
</g>
<g id="freepik--table-1--inject-133">
	<rect x="102.9" y="294.1" class="st3" width="39" height="28.7"/>
	<path class="st2" d="M141.9,323.3h-39c-0.3,0-0.5-0.2-0.5-0.5v-28.7c0-0.3,0.2-0.5,0.5-0.5h39c0.3,0,0.5,0.2,0.5,0.5v28.7
		C142.4,323.1,142.2,323.3,141.9,323.3C141.9,323.3,141.9,323.3,141.9,323.3z M103.4,322.3h38v-27.7h-38V322.3z"/>
	<rect x="101.7" y="294.1" class="st3" width="39" height="28.7"/>
	<path class="st2" d="M140.7,323.3h-39c-0.3,0-0.5-0.2-0.5-0.5v-28.7c0-0.3,0.2-0.5,0.5-0.5h39c0.3,0,0.5,0.2,0.5,0.5v28.7
		C141.2,323.1,141,323.3,140.7,323.3C140.7,323.3,140.7,323.3,140.7,323.3z M102.2,322.3h38v-27.7h-38V322.3z"/>
	<rect x="104.6" y="296.3" class="st3" width="33.1" height="24.4"/>
	<path class="st2" d="M137.8,321.2h-33.1c-0.3,0-0.5-0.2-0.5-0.5v-24.4c0-0.3,0.2-0.5,0.5-0.5h33.1c0.3,0,0.5,0.2,0.5,0.5v24.4
		C138.3,320.9,138,321.2,137.8,321.2z M105.1,320.2h32.1v-23.4h-32.1L105.1,320.2z"/>
	<rect x="118.9" y="322.9" class="st3" width="7.8" height="10.8"/>
	<path class="st2" d="M126.7,334.1h-7.8c-0.3,0-0.5-0.2-0.5-0.5v-10.8c0-0.3,0.2-0.5,0.5-0.5h7.8c0.3,0,0.5,0.2,0.5,0.5v10.8
		C127.2,333.9,127,334.1,126.7,334.1z M119.4,333.1h6.8v-9.8h-6.8V333.1z"/>
	<rect x="117.3" y="322.9" class="st3" width="7.8" height="10.8"/>
	<path class="st2" d="M125.1,334.1h-7.8c-0.3,0-0.5-0.2-0.5-0.5v-10.8c0-0.3,0.2-0.5,0.5-0.5h7.8c0.3,0,0.5,0.2,0.5,0.5v10.8
		C125.6,333.9,125.4,334.1,125.1,334.1z M117.8,333.1h6.8v-9.8h-6.8V333.1z"/>
	<rect x="111.9" y="333.4" class="st3" width="18.7" height="1.9"/>
	<path class="st2" d="M130.5,335.8h-18.7c-0.3,0-0.5-0.2-0.5-0.5v-1.9c0-0.3,0.2-0.5,0.5-0.5h18.7c0.3,0,0.5,0.2,0.5,0.5v1.9
		C131,335.5,130.8,335.8,130.5,335.8z M112.4,334.8H130v-0.9h-17.6L112.4,334.8z"/>
	<rect x="77.1" y="339.7" class="st2" width="18.7" height="41.5"/>
	<path class="st2" d="M95.8,381.7H77.1c-0.3,0-0.5-0.2-0.5-0.5v-41.5c0-0.3,0.2-0.5,0.5-0.5h18.7c0.3,0,0.5,0.2,0.5,0.5v41.5
		C96.3,381.4,96.1,381.7,95.8,381.7z M77.6,380.7h17.7v-40.5H77.6V380.7z"/>
	<path class="st2" d="M154.2,338.4H72.5c-0.3,0-0.5-0.2-0.5-0.5v-2.5c0-0.3,0.2-0.5,0.5-0.5h81.7c0.3,0,0.5,0.2,0.5,0.5v2.5
		C154.7,338.2,154.5,338.4,154.2,338.4z M73,337.4h80.7v-1.5H73L73,337.4z"/>
	<path class="st2" d="M154.2,338.4h-18.9c-0.3,0-0.5-0.2-0.5-0.5v-2.5c0-0.3,0.2-0.5,0.5-0.5h18.9c0.3,0,0.5,0.2,0.5,0.5v2.5
		C154.7,338.2,154.5,338.4,154.2,338.4z M135.8,337.4h17.9v-1.5h-17.9V337.4z"/>
	<polygon class="st3" points="74.7,337.9 74.7,381.2 77.8,381.2 77.8,343.1 112.4,343.1 112.4,381.2 153,381.2 153,337.9 	"/>
	<path class="st2" d="M153,381.7h-40.6c-0.3,0-0.5-0.2-0.5-0.5v-37.6H78.3v37.6c0,0.3-0.2,0.5-0.5,0.5h-3.2c-0.3,0-0.5-0.2-0.5-0.5
		v-43.3c0-0.3,0.2-0.5,0.5-0.5H153c0.3,0,0.5,0.2,0.5,0.5v43.3C153.5,381.4,153.3,381.7,153,381.7z M112.9,380.7h39.6v-42.3H75.2
		v42.3h2.2v-37.6c0-0.3,0.2-0.5,0.5-0.5h34.5c0.3,0,0.5,0.2,0.5,0.5V380.7z"/>
	<rect x="134.3" y="337.9" class="st2" width="18.7" height="43.3"/>
	<path class="st2" d="M153,381.7h-18.7c-0.3,0-0.5-0.2-0.5-0.5v-43.3c0-0.3,0.2-0.5,0.5-0.5H153c0.3,0,0.5,0.2,0.5,0.5v43.3
		C153.5,381.4,153.3,381.7,153,381.7z M134.8,380.7h17.7v-42.3h-17.7V380.7z"/>
	<rect x="114.6" y="343.4" class="st3" width="17.2" height="8.7"/>
	<path class="st2" d="M131.8,352.6h-17.2c-0.3,0-0.5-0.2-0.5-0.5v-8.7c0-0.3,0.2-0.5,0.5-0.5h17.2c0.3,0,0.5,0.2,0.5,0.5v8.7
		C132.3,352.4,132.1,352.6,131.8,352.6z M115.1,351.6h16.2v-7.7h-16.2V351.6z"/>
	<path class="st2" d="M125.1,348.1h-3.8c-0.3,0-0.5-0.2-0.5-0.5s0.2-0.5,0.5-0.5h3.8c0.3,0,0.5,0.2,0.5,0.5S125.4,348.1,125.1,348.1
		z"/>
	<rect x="114.6" y="354.6" class="st3" width="17.2" height="8.7"/>
	<path class="st2" d="M131.8,363.8h-17.2c-0.3,0-0.5-0.2-0.5-0.5v-8.7c0-0.3,0.2-0.5,0.5-0.5h17.2c0.3,0,0.5,0.2,0.5,0.5v8.7
		C132.3,363.6,132.1,363.8,131.8,363.8z M115.1,362.8h16.2v-7.7h-16.2V362.8z"/>
	<path class="st2" d="M125.1,359.6h-3.8c-0.3,0-0.5-0.2-0.5-0.5s0.2-0.5,0.5-0.5h3.8c0.3,0,0.5,0.2,0.5,0.5S125.4,359.6,125.1,359.6
		z"/>
	<rect x="114.6" y="365.8" class="st3" width="17.2" height="8.7"/>
	<path class="st2" d="M131.8,375h-17.2c-0.3,0-0.5-0.2-0.5-0.5v-8.7c0-0.3,0.2-0.5,0.5-0.5h17.2c0.3,0,0.5,0.2,0.5,0.5v8.7
		C132.3,374.8,132.1,375,131.8,375z M115.1,374h16.2v-7.7h-16.2V374z"/>
	<path class="st2" d="M125.1,371h-3.8c-0.3,0-0.5-0.2-0.5-0.5s0.2-0.5,0.5-0.5h3.8c0.3,0,0.5,0.2,0.5,0.5S125.4,371,125.1,371z"/>
</g>
<g id="freepik--chair-1--inject-133">
	<rect x="72.8" y="353.1" class="st2" width="2.2" height="17.1"/>
	<path class="st2" d="M75,370.7h-2.2c-0.3,0-0.5-0.2-0.5-0.5v-17.2c0-0.3,0.2-0.5,0.5-0.5H75c0.3,0,0.5,0.2,0.5,0.5v17.1
		C75.5,370.5,75.3,370.7,75,370.7C75,370.7,75,370.7,75,370.7z M73.3,369.7h1.2v-16.2h-1.2L73.3,369.7z"/>
	<circle class="st2" cx="59.4" cy="378.9" r="1.8"/>
	<path class="st2" d="M59.4,381.2c-1.3,0-2.3-1-2.3-2.3c0-1.3,1-2.3,2.3-2.3c1.3,0,2.3,1,2.3,2.3c0,0,0,0,0,0
		C61.7,380.1,60.7,381.2,59.4,381.2z M59.4,377.6c-0.7,0-1.3,0.6-1.3,1.3c0,0.7,0.6,1.3,1.3,1.3s1.3-0.6,1.3-1.3c0,0,0,0,0,0
		C60.7,378.2,60.1,377.6,59.4,377.6z"/>
	<circle class="st2" cx="88.2" cy="378.9" r="1.8"/>
	<path class="st2" d="M88.2,381.2c-1.3,0-2.3-1-2.3-2.3c0-1.3,1-2.3,2.3-2.3c1.3,0,2.3,1,2.3,2.3c0,0,0,0,0,0
		C90.5,380.1,89.5,381.2,88.2,381.2z M88.2,377.6c-0.7,0-1.3,0.6-1.3,1.3c0,0.7,0.6,1.3,1.3,1.3s1.3-0.6,1.3-1.3c0,0,0,0,0,0
		C89.5,378.2,89,377.6,88.2,377.6z"/>
	<polygon class="st2" points="74.8,370.2 73.8,370.4 72.8,370.2 56.9,376.9 56.9,378.2 59.5,378.2 60.1,376.9 73.8,373.3 
		87.4,376.9 88,378.2 90.6,378.2 90.6,376.9 	"/>
	<path class="st2" d="M90.6,378.7H88c-0.2,0-0.4-0.1-0.5-0.3l-0.5-1.1l-13.3-3.5l-13.3,3.5l-0.5,1.1c-0.1,0.2-0.3,0.3-0.5,0.3h-2.7
		c-0.3,0-0.5-0.2-0.5-0.5v-1.3c0-0.2,0.1-0.4,0.3-0.5l15.9-6.7c0.1,0,0.2,0,0.3,0l0.9,0.1l0.9-0.1c0.1,0,0.2,0,0.3,0l15.9,6.7
		c0.2,0.1,0.3,0.3,0.3,0.5v1.3C91.1,378.5,90.9,378.7,90.6,378.7L90.6,378.7z M88.3,377.7h1.8v-0.5l-15.4-6.5l-0.9,0.1h-0.1
		l-0.9-0.1l-15.4,6.5v0.5h1.8l0.5-1c0.1-0.1,0.2-0.2,0.3-0.3l13.6-3.5c0.1,0,0.2,0,0.3,0l13.6,3.5c0.1,0,0.3,0.1,0.3,0.3L88.3,377.7
		z"/>
	<rect x="72.8" y="370.2" class="st2" width="2.3" height="8.6"/>
	<path class="st2" d="M75,379.3h-2.2c-0.3,0-0.5-0.2-0.5-0.5v-8.6c0-0.3,0.2-0.5,0.5-0.5H75c0.3,0,0.5,0.2,0.5,0.5v8.6
		C75.5,379.1,75.3,379.3,75,379.3z M73.2,378.3h1.3v-7.6h-1.2L73.2,378.3z"/>
	<rect x="72.8" y="378.3" class="st2" width="2.1" height="2.9"/>
	<path class="st2" d="M74.9,381.7h-2.1c-0.3,0-0.5-0.2-0.5-0.5v-2.9c0-0.3,0.2-0.5,0.5-0.5h2.1c0.3,0,0.5,0.2,0.5,0.5v2.9
		C75.4,381.4,75.1,381.7,74.9,381.7z M73.3,380.7h1.1v-1.9h-1.1V380.7z"/>
	<path class="st4" d="M78,350.1H58.6v-28.6c0-5.4,4.3-9.7,9.7-9.7l0,0c5.4,0,9.7,4.3,9.7,9.7c0,0,0,0,0,0V350.1z"/>
	<path class="st2" d="M78,350.6H58.6c-0.3,0-0.5-0.2-0.5-0.5v-28.6c0-5.6,4.6-10.2,10.2-10.2s10.2,4.6,10.2,10.2v28.6
		C78.5,350.4,78.3,350.6,78,350.6z M59.1,349.6h18.4v-28.1c0-5.1-4.1-9.2-9.2-9.2c-5.1,0-9.2,4.1-9.2,9.2L59.1,349.6z"/>
	<path class="st4" d="M81.3,350.1H61.9v-28.6c0-5.4,4.3-9.7,9.7-9.7l0,0c5.4,0,9.7,4.3,9.7,9.7V350.1z"/>
	<path class="st2" d="M81.3,350.6H61.9c-0.3,0-0.5-0.2-0.5-0.5v-28.6c0-5.6,4.6-10.2,10.2-10.2c5.6,0,10.2,4.6,10.2,10.2v28.6
		C81.8,350.4,81.6,350.6,81.3,350.6z M62.4,349.6h18.4v-28.1c0-5.1-4.1-9.2-9.2-9.2c-5.1,0-9.2,4.1-9.2,9.2V349.6z"/>
	<rect x="58.6" y="345.8" class="st4" width="33.4" height="4.3"/>
	<path class="st2" d="M92,350.6H58.6c-0.3,0-0.5-0.2-0.5-0.5v-4.3c0-0.3,0.2-0.5,0.5-0.5H92c0.3,0,0.5,0.2,0.5,0.5v4.3
		C92.5,350.4,92.3,350.6,92,350.6z M59.1,349.6h32.4v-3.3H59.1L59.1,349.6z"/>
	<rect x="75" y="345.8" class="st4" width="17" height="4.3"/>
	<path class="st2" d="M92,350.6H75c-0.3,0-0.5-0.2-0.5-0.5v-4.3c0-0.3,0.2-0.5,0.5-0.5h17c0.3,0,0.5,0.2,0.5,0.5v4.3
		C92.5,350.4,92.3,350.6,92,350.6z M75.5,349.6h16v-3.3h-16V349.6z"/>
	<rect x="68.3" y="350.3" class="st2" width="11.9" height="2.6"/>
	<path class="st2" d="M80.2,353.4h-12c-0.3,0-0.5-0.2-0.5-0.5v-2.6c0-0.3,0.2-0.5,0.5-0.5h12c0.3,0,0.5,0.2,0.5,0.5v2.6
		C80.7,353.2,80.5,353.4,80.2,353.4z M68.8,352.4h11v-1.6h-11V352.4z"/>
</g>
<g id="freepik--Floor--inject-133">
	<path class="st2" d="M471.1,381.7H32.4c-0.3,0-0.5-0.2-0.5-0.5s0.2-0.5,0.5-0.5h438.7c0.3,0,0.5,0.2,0.5,0.5
		S471.3,381.7,471.1,381.7z"/>
</g>
<g id="freepik--Character--inject-133">
	<path class="st2" d="M221.4,59.3c0,0-12.1,3.3-18.8,9.4c-5.8,5.3-9.3,12.7-9.8,20.5c-0.2,6-10.3,39.7-8,47.1s25.9,13.8,32.1,14.3
		s19.9,2.4,32.6-2.5c12.7-4.9,21.7-14.3,22.6-17.9s0.9-8.5-2.7-16.1s-0.7-24.1-11.8-39.1S230.6,55,221.4,59.3z"/>
	<path class="st2" d="M230.1,151.9c-4.1,0-7.8-0.3-10.7-0.6l-2.5-0.2c-6-0.4-30.2-6.8-32.6-14.6c-1.5-4.9,2.1-20.5,5.1-33
		c1.5-6.6,2.9-12.2,2.9-14.3c0.5-8,4.1-15.5,10-20.9c6.6-5.9,18-9.2,18.9-9.5c9.1-4.2,25.3,0.7,36.7,16c7.4,9.9,8.6,20.3,9.7,28.6
		c0.5,4.3,1,8,2.2,10.5c3,6.4,3.9,11.7,2.7,16.4c-0.9,3.5-9.7,13.1-22.9,18.2C243.5,150.8,236.8,152,230.1,151.9z M228.5,58.4
		c-2.3,0-4.7,0.4-6.8,1.4h-0.1c-0.1,0-12,3.4-18.6,9.3c-5.7,5.2-9.1,12.5-9.6,20.2c-0.1,2.2-1.4,7.6-3,14.5
		c-2.7,11.7-6.5,27.8-5.1,32.4c2.1,6.8,25.1,13.5,31.7,13.9c0.7,0.1,1.6,0.1,2.5,0.2c7,0.6,18.8,1.7,29.9-2.6
		c12.8-4.9,21.4-14.2,22.2-17.5c1.1-4.5,0.3-9.5-2.6-15.7c-1.3-2.7-1.7-6.5-2.3-10.8c-1-8.2-2.3-18.5-9.5-28.1
		C248.5,63.8,237.2,58.4,228.5,58.4L228.5,58.4z M221.5,59.3L221.5,59.3z"/>
	<polygon class="st3" points="267.8,268.1 255.4,228.5 248.3,143.2 214.6,145.1 212.4,228.2 205.3,268.1 	"/>
	<path class="st2" d="M267.8,268.6h-62.5c-0.1,0-0.3-0.1-0.4-0.2c-0.1-0.1-0.1-0.3-0.1-0.4l7.1-39.9l2.2-83c0-0.3,0.2-0.5,0.5-0.5
		l33.7-1.9c0.3,0,0.5,0.2,0.5,0.5l7.1,85.2l12.3,39.6c0,0.2,0,0.3-0.1,0.4C268.1,268.6,267.9,268.6,267.8,268.6z M205.9,267.6h61.2
		l-12.1-39c0,0,0-0.1,0-0.1l-7.1-84.8l-32.8,1.9l-2.2,82.6L205.9,267.6z"/>
	<polygon class="st2" points="214.1,162.2 234.2,152.6 223.1,144.7 214.6,145.1 	"/>
	<path class="st2" d="M214.1,162.8c-0.1,0-0.2,0-0.3-0.1c-0.1-0.1-0.2-0.3-0.2-0.4l0.4-17.1c0-0.3,0.2-0.5,0.5-0.5l8.5-0.5
		c0.1,0,0.2,0,0.3,0.1l11.1,8c0.1,0.1,0.2,0.3,0.2,0.4c0,0.2-0.1,0.3-0.3,0.4l-20.1,9.6C214.3,162.8,214.2,162.8,214.1,162.8z
		 M215.1,145.6l-0.4,15.8l18.6-8.9l-10.3-7.4L215.1,145.6z"/>
	<polygon class="st3" points="267.8,268.1 255.4,228.5 251.9,186.4 213.5,187.9 212.4,228.2 205.3,268.1 	"/>
	<path class="st2" d="M267.8,268.6h-62.5c-0.1,0-0.3-0.1-0.4-0.2c-0.1-0.1-0.1-0.3-0.1-0.4l7.1-39.9l1.1-40.2c0-0.3,0.2-0.5,0.5-0.5
		l38.4-1.5c0.3,0,0.5,0.2,0.5,0.5c0,0,0,0,0,0l3.5,42l12.3,39.6c0,0.2,0,0.3-0.1,0.4C268.1,268.6,267.9,268.6,267.8,268.6z
		 M205.9,267.6h61.2l-12.1-39c0,0,0-0.1,0-0.1l-3.5-41.6l-37.5,1.5l-1.1,39.8L205.9,267.6z"/>
	<polygon class="st0" points="303,151.2 321.5,224.4 310,262.8 293.8,247.7 	"/>
	<path class="st2" d="M310,263.2c-0.1,0-0.2,0-0.3-0.1L293.5,248c-0.1-0.1-0.2-0.3-0.2-0.4l9.2-96.5c0-0.3,0.2-0.5,0.5-0.5
		c0.3,0,0.5,0.2,0.5,0.5l18.5,73.3c0,0.1,0,0.2,0,0.3l-11.5,38.4c0,0.2-0.2,0.3-0.3,0.3L310,263.2z M294.4,247.5l15.4,14.4
		l11.2-37.5l-17.8-70.3L294.4,247.5z"/>
	<polygon class="st2" points="344.8,237.8 346.2,217 338.8,223.6 	"/>
	<path class="st2" d="M344.8,238.3c-0.2,0-0.4-0.1-0.5-0.3l-6-14.2c-0.1-0.2,0-0.4,0.1-0.6l7.4-6.6c0.2-0.1,0.4-0.2,0.5-0.1
		c0.2,0.1,0.3,0.3,0.3,0.5l-1.4,20.8C345.3,238.1,345.1,238.3,344.8,238.3L344.8,238.3z M339.4,223.8l5,11.9l1.2-17.5L339.4,223.8z"
		/>
	<path class="st3" d="M338.5,208.5c0,0,13.7-14.2,15.4-14.8s21.7,0,21.7,0s4.9-0.8,7.7-1.1s9-4.1,8.5-1.4s-4.9,3.6-5.8,3.8
		s10.7,0,10.7,0s4.1-1.4,2.2,1.6s-11.2,11.5-15.1,12.3s-31.8,3.8-31.8,3.8l-9.9,12.9L338.5,208.5z"/>
	<path class="st2" d="M342.1,226.2L342.1,226.2c-0.3,0-0.4-0.2-0.5-0.4l-3.6-17.3c0-0.2,0-0.3,0.1-0.4c2.3-2.4,13.9-14.4,15.6-14.9
		s19.8-0.1,21.8,0c0,0,4.9-0.8,7.6-1.1c1.3-0.2,2.5-0.6,3.7-1.2c2.6-1,4.2-1.6,5-0.9c0.4,0.3,0.5,0.8,0.3,1.3
		c-0.3,1.7-1.9,2.7-3.4,3.4c2.3,0,5.5-0.1,7.8-0.1c0.6-0.2,2.4-0.7,3.1,0.2s-0.1,1.9-0.4,2.2c-2,3.1-11.4,11.7-15.4,12.6
		c-3.7,0.8-28.9,3.5-31.6,3.8l-9.7,12.7C342.4,226.2,342.2,226.2,342.1,226.2z M339.1,208.6l3.3,15.9l9.2-12
		c0.1-0.1,0.2-0.2,0.3-0.2c0.3,0,28-3,31.8-3.8s12.9-9.2,14.8-12.1c0.5-0.8,0.5-1,0.4-1.1s-1.1-0.1-2,0.2c0,0-0.1,0-0.1,0
		c-11.1,0.3-11.1,0.1-11.2-0.4c0-0.3,0.1-0.5,0.4-0.6l0.5-0.1c1.2-0.3,4.5-1.2,4.9-3.3c0-0.2,0-0.3,0-0.3c-0.4-0.3-2.6,0.6-4,1.1
		c-1.3,0.6-2.6,1-4,1.2c-2.7,0.3-7.6,1.1-7.6,1.1c-8.1-0.2-20.4-0.4-21.6,0S344.3,203.1,339.1,208.6L339.1,208.6z"/>
	<path class="st3" d="M394.1,201.1c0,0,5.2-4.3,5.8-7s-0.8-8.8-2.1-7.2s-1.4,5.1-1.8,6.4S394.1,201.1,394.1,201.1z"/>
	<path class="st2" d="M394.1,201.6c-0.1,0-0.2,0-0.3-0.1c-0.2-0.1-0.3-0.3-0.2-0.5c0.1-0.3,1.6-6.4,2-7.8c0.1-0.5,0.2-1.1,0.3-1.6
		c0.2-1.7,0.5-3.8,1.6-5c0.3-0.4,0.8-0.5,1.3-0.3c1.5,0.7,2.2,5.7,1.7,8c-0.6,2.9-5.8,7.1-6,7.3
		C394.3,201.6,394.2,201.6,394.1,201.6z M398.2,187.1L398.2,187.1c-0.9,1.1-1.2,3.1-1.4,4.6c-0.1,0.6-0.2,1.2-0.3,1.7
		c-0.3,0.9-1.1,4.3-1.6,6.2c1.7-1.6,4.1-4,4.5-5.7C399.9,191.5,398.9,187.4,398.2,187.1z"/>
	<path class="st3" d="M398.1,200.7c0,0,5.2-4.3,5.8-7s-0.8-8.8-2.1-7.2s-1.4,5-1.8,6.4S398.1,200.7,398.1,200.7z"/>
	<path class="st2" d="M398.1,201.2c-0.3,0-0.5-0.2-0.5-0.5c0,0,0-0.1,0-0.1c0.1-0.3,1.6-6.4,2-7.8c0.1-0.5,0.2-1.1,0.3-1.6
		c0.2-1.7,0.5-3.8,1.6-5c0.3-0.4,0.8-0.5,1.3-0.3c1.5,0.7,2.2,5.7,1.7,7.9c-0.6,2.9-5.8,7.1-6,7.3
		C398.4,201.1,398.3,201.2,398.1,201.2z M402.3,186.7L402.3,186.7c-0.9,1.1-1.2,3.1-1.4,4.6c-0.1,0.6-0.2,1.2-0.3,1.7
		c-0.3,0.9-1.1,4.3-1.6,6.2c1.7-1.6,4.1-4.1,4.5-5.7C404,191.1,402.9,187,402.3,186.7z"/>
	<path class="st3" d="M387.9,206.2l10.2-5.6c0,0,3.5-6.4,3.1-9.3s-3-1-3.3,0.4s-4.3,7.2-4.9,8S387.9,206.2,387.9,206.2z"/>
	<path class="st2" d="M387.9,206.7c-0.3,0-0.5-0.2-0.5-0.5c0-0.1,0-0.2,0.1-0.3c0-0.1,4.6-5.8,5.2-6.5c0.9-1.2,4.5-6.6,4.8-7.8
		c0.3-1.3,1.4-2.2,2.7-2.3c0.4,0,1.4,0.2,1.6,2c0.4,3.1-3,9.4-3.2,9.6c0,0.1-0.1,0.2-0.2,0.2l-10.2,5.6
		C388.1,206.7,388,206.8,387.9,206.7z M400.1,190.3c-0.8,0.2-1.4,0.7-1.6,1.5c-0.3,1.7-4.9,8.1-5,8.2c-0.4,0.5-2.3,2.9-3.7,4.6
		l8-4.3c0.5-0.9,3.3-6.4,3-8.9C400.7,190.9,400.5,190.3,400.1,190.3L400.1,190.3z"/>
	<path class="st3" d="M348.7,204.6c0,0,3.4-3.4,6.7-3.4s25.6,3.4,25.6,3.4s16.7-14.6,16.7-11.5s-8.1,11.9-9.8,13.1s-4.1,3.1-6.7,3.6
		s-12.9,1-12.9,1"/>
	<path class="st2" d="M368.3,211.3c-0.3,0-0.5-0.2-0.5-0.5s0.2-0.5,0.5-0.5c0.1,0,10.3-0.5,12.8-0.9c2.2-0.4,4.4-2,5.9-3.1l0.6-0.4
		c1.6-1.1,9.5-9.7,9.6-12.7c-1.5,0-9.2,5.9-15.9,11.8c-0.1,0.1-0.3,0.1-0.4,0.1c-0.2,0-22.2-3.3-25.5-3.3c-3.1,0-6.3,3.2-6.3,3.2
		c-0.2,0.2-0.5,0.2-0.7,0c-0.2-0.2-0.2-0.5,0-0.7c0.1-0.1,3.5-3.5,7-3.5c3.2,0,22.9,2.9,25.4,3.3c4.6-4,14.9-12.7,16.9-11.8
		c0.3,0.2,0.5,0.5,0.5,0.9c0,3.5-8.5,12.5-10,13.6l-0.6,0.4c-1.6,1.2-3.9,2.8-6.3,3.3C378.7,210.8,368.7,211.3,368.3,211.3
		L368.3,211.3z"/>
	<path class="st0" d="M312.2,230.1l26.3-21.7l6.3,29.3c0,0-28.5,28.2-31,27.7s-11.2-9.9-11.2-9.9"/>
	<path class="st2" d="M313.8,266h-0.1c-2.5-0.6-10.6-9-11.5-10c-0.2-0.2-0.2-0.5,0-0.7c0,0,0,0,0,0c0.2-0.2,0.5-0.2,0.7,0
		c0,0,0,0,0,0c3.5,3.7,9.3,9.3,11,9.7c2,0,19.6-16.7,30.3-27.4l-6.1-28.3l-25.7,21.1c-0.2,0.2-0.5,0.1-0.7-0.1
		c-0.2-0.2-0.1-0.5,0.1-0.7l26.3-21.6c0.1-0.1,0.3-0.2,0.5-0.1c0.2,0.1,0.3,0.2,0.3,0.4l6.3,29.3c0,0.2,0,0.3-0.1,0.5
		C338.5,244.7,316.8,266,313.8,266z"/>
	<polygon class="st2" points="299.4,219 301,253.5 297.1,250.9 	"/>
	<path class="st2" d="M301,254c-0.1,0-0.2,0-0.3-0.1l-3.9-2.6c-0.1-0.1-0.2-0.3-0.2-0.4l2.3-31.9c0-0.3,0.2-0.5,0.5-0.5
		c0.3,0,0.5,0.2,0.5,0.5l1.6,34.6c0,0.2-0.1,0.4-0.2,0.5C301.2,254,301.1,254,301,254z M297.6,250.6l2.8,1.9l-1.2-25.1L297.6,250.6z
		"/>
	<path class="st0" d="M263,268.1h32.6c1.3-15.6,8.1-112.4,7.4-117c-0.8-4.9-7.4-6.3-7.4-6.3l-47.3-1.6c0,0-0.8,86.9,0.3,91.3
		C249.5,238.2,259.8,261.1,263,268.1z"/>
	<path class="st2" d="M295.6,268.6H263c-0.2,0-0.4-0.1-0.5-0.3c-3.1-7-13.5-29.9-14.4-33.7c-1.1-4.4-0.3-87.9-0.3-91.4
		c0-0.1,0.1-0.3,0.1-0.4c0.1-0.1,0.2-0.1,0.4-0.1l47.3,1.6c0.4,0.1,7,1.5,7.9,6.7c0.8,4.7-6.1,102.2-7.4,117.1
		C296.1,268.4,295.9,268.6,295.6,268.6z M263.3,267.6h31.8c1.5-17.3,8-112,7.3-116.4c-0.8-4.5-7-5.9-7-5.9l-46.7-1.6
		c-0.1,7.2-0.8,86.5,0.3,90.6C250,238,260,260.4,263.3,267.6L263.3,267.6z"/>
	<path class="st0" d="M255.4,180.5l12.6-9.9l-11.3-27.8l-8.4,0.4c0,0-0.8,86.9,0.3,91.3c0,0,22.2-42.8,22.5-44.7
		S255.4,180.5,255.4,180.5z"/>
	<path class="st2" d="M248.6,235L248.6,235c-0.3,0-0.4-0.2-0.5-0.4c-1.1-4.4-0.3-87.9-0.3-91.4c0-0.3,0.2-0.5,0.5-0.5l8.4-0.4
		c0.2,0,0.4,0.1,0.5,0.3l11.3,27.8c0.1,0.2,0,0.5-0.2,0.6l-12,9.4c6.1,2.9,15.5,7.6,15.2,9.5s-20.2,40.5-22.5,44.9
		C248.9,234.9,248.8,235,248.6,235z M248.8,143.7c-0.1,6.5-0.7,77.1,0.1,89.1c8.9-17,21.4-41.6,21.7-43.1c-0.2-1.1-8.1-5.4-15.3-8.8
		c-0.2-0.1-0.3-0.2-0.3-0.4c0-0.2,0-0.3,0.2-0.4l12.3-9.6l-11.1-27.1L248.8,143.7z"/>
	<path class="st0" d="M167.7,213.1l2.1,55h39.6c3.1-6.8,14.1-31.9,14.1-39.4c0-8.8-7.1-83-7.1-83s-34.7,6.1-44.2,8.4
		c-4.3,1.1-9.4-0.7-16.6,8.7c-0.9,1.2-44.8,64.5-44.8,64.5l40.5,12.1L167.7,213.1z"/>
	<path class="st2" d="M209.4,268.6h-39.6c-0.3,0-0.5-0.2-0.5-0.5l-2-53.4l-15.6,25c-0.1,0.2-0.4,0.3-0.6,0.2l-40.5-12.1
		c-0.2,0-0.3-0.2-0.3-0.3c-0.1-0.2,0-0.3,0.1-0.4c1.8-2.6,43.9-63.3,44.8-64.5c5.8-7.6,10.4-8.1,14.1-8.5c0.9-0.1,1.9-0.2,2.8-0.4
		c9.4-2.4,43.9-8.4,44.2-8.4c0.1,0,0.3,0,0.4,0.1c0.1,0.1,0.2,0.2,0.2,0.4c0.1,0.8,7.1,74.3,7.1,83c0,7.6-10.8,32.2-14.1,39.6
		C209.8,268.5,209.6,268.6,209.4,268.6z M170.2,267.6h38.8c3.4-7.6,13.9-31.6,13.9-38.9c0-8.2-6.4-75.6-7-82.4
		c-4.4,0.8-34.9,6.1-43.6,8.3c-1,0.2-1.9,0.4-2.9,0.4c-3.7,0.4-7.8,0.8-13.4,8.1c-0.9,1.1-40,57.6-44.4,63.9l39.4,11.8l16.2-26.1
		c0.1-0.2,0.5-0.3,0.7-0.2c0.1,0.1,0.2,0.2,0.2,0.4L170.2,267.6z"/>
	<polygon class="st2" points="167.7,213.1 166.7,185.1 163.8,219.3 	"/>
	<path class="st2" d="M163.8,219.8c-0.1,0-0.1,0-0.2,0c-0.2-0.1-0.4-0.3-0.3-0.5l2.9-34.3c0-0.3,0.2-0.5,0.5-0.5c0,0,0,0,0,0
		c0.3,0,0.5,0.2,0.5,0.5l1,28c0,0.1,0,0.2-0.1,0.3l-3.9,6.2C164.2,219.7,164,219.8,163.8,219.8z M166.5,193.4l-2.1,23.9l2.7-4.3
		L166.5,193.4z"/>
	<path class="st5" d="M471.1,268.6H32.4c-0.3,0-0.5-0.2-0.5-0.5s0.2-0.5,0.5-0.5h438.7c0.3,0,0.5,0.2,0.5,0.5
		S471.3,268.6,471.1,268.6z"/>
	<path class="st0" d="M216.4,145.8l-8.9,1.6c-3.1,6.9-9.9,22.5-8.6,23c1.7,0.7,12.5,11.1,12.5,11.1L197.8,192
		c0,0,22.3,39.8,23.6,42.8c0.2,0.4,0.4,0.7,0.6,1c0.8-2.3,1.2-4.7,1.4-7.1C223.5,220,216.4,145.8,216.4,145.8z"/>
	<path class="st2" d="M222.1,236.3c-0.2,0-0.3-0.1-0.4-0.2c-0.3-0.3-0.5-0.7-0.7-1.1c-1.3-3-23.4-42.4-23.6-42.8
		c-0.1-0.2-0.1-0.5,0.1-0.6l13-10.1c-4.3-4.2-10.8-10.2-11.9-10.6c-0.2-0.1-0.3-0.2-0.4-0.4c-0.5-1.3,2.4-9.2,8.8-23.3
		c0.1-0.2,0.2-0.3,0.4-0.3l8.9-1.6c0.1,0,0.3,0,0.4,0.1c0.1,0.1,0.2,0.2,0.2,0.4c0.1,0.8,7.1,74.3,7.1,83c-0.2,2.5-0.6,4.9-1.4,7.2
		C222.5,236.1,222.3,236.3,222.1,236.3L222.1,236.3z M198.5,192.1c2.4,4.3,22.1,39.6,23.4,42.5l0,0c0.6-1.9,0.9-3.9,1.1-5.9
		c0-8.2-6.4-75.6-7-82.4c-1.2,0.2-4.2,0.7-8.1,1.4c-6.6,14.7-8.8,21.1-8.7,22.2c2.1,1.1,11.4,10.1,12.5,11.2
		c0.1,0.1,0.2,0.2,0.1,0.4c0,0.1-0.1,0.3-0.2,0.4L198.5,192.1z"/>
	<path class="st3" d="M202.8,115.5l-3.2,4.6c0,0,0,7.3,5.9,9.3L202.8,115.5z"/>
	<path class="st2" d="M205.4,130h-0.2c-6.1-2.1-6.2-9.7-6.2-9.8c0-0.1,0-0.2,0.1-0.3l3.2-4.6c0.1-0.2,0.3-0.3,0.5-0.2
		c0.2,0,0.3,0.2,0.4,0.4l2.6,13.9c0,0.2,0,0.4-0.2,0.5C205.6,130,205.5,130,205.4,130z M200.1,120.4c0.1,1,0.5,6.3,4.7,8.3
		l-2.2-11.8L200.1,120.4z"/>
	<path class="st3" d="M254.7,115.5l3.7,2.3c0,0,1.9,8.7-3.4,11.9L254.7,115.5z"/>
	<path class="st2" d="M255,130.2c-0.1,0-0.2,0-0.2-0.1c-0.2-0.1-0.2-0.2-0.2-0.4l-0.3-14.2c0-0.2,0.1-0.4,0.3-0.4
		c0.2-0.1,0.4-0.1,0.5,0l3.7,2.3c0.1,0.1,0.2,0.2,0.2,0.3c0.1,0.4,1.9,9.1-3.6,12.4C255.2,130.1,255.1,130.2,255,130.2z
		 M255.2,116.4l0.2,12.3c3.7-3,2.7-9.4,2.5-10.6L255.2,116.4z"/>
	<path class="st3" d="M225.9,81.8c0,0,0,4.2-8.9,14.1s-15.4,10.7-15.4,10.7s3.4,21.8,4.4,25.4c3,10.7,18.3,22.8,23.4,23.7
		s7.6-0.4,10-2s15.3-13.9,16.3-25.9c0.2-2.7-1.8-19.4-1.8-19.4s-3.6-0.7-9.4-5.4s-7.1-7.8-7.1-7.8l2.2,8.3
		C239.7,103.4,227.5,91.6,225.9,81.8z"/>
	<path class="st5" d="M232.5,156.5c-1.1,0-2.1-0.1-3.1-0.3c-5.6-1-20.8-13.2-23.8-24c-1-3.6-4.3-24.6-4.5-25.5c0-0.1,0-0.3,0.1-0.4
		c0.1-0.1,0.2-0.2,0.3-0.2c0.1,0,6.4-1,15.1-10.6s8.8-13.7,8.8-13.7c0-0.3,0.2-0.5,0.5-0.5c0.3,0,0.5,0.2,0.5,0.4
		c1.2,7.6,9.2,16.7,12.4,20l-1.7-6.4c-0.1-0.3,0.1-0.5,0.3-0.6c0.2-0.1,0.5,0,0.7,0.2c0,0,0,0,0,0c0,0,1.4,3.1,7,7.6
		s9.1,5.2,9.1,5.3c0.2,0,0.4,0.2,0.4,0.4c0.1,0.7,2,16.8,1.8,19.5c-1,12.1-14,24.6-16.5,26.3C237.7,155.7,235.1,156.5,232.5,156.5z
		 M202.1,107c0.5,3.2,3.5,21.6,4.4,24.9c3,10.6,18.2,22.5,23,23.3s7.2-0.3,9.7-1.9s15.1-13.8,16.1-25.5c0.2-2.4-1.5-16.6-1.8-19
		c-1.1-0.3-4.4-1.4-9.2-5.4c-2-1.6-3.9-3.4-5.5-5.4l1.4,5.3c0.1,0.2,0,0.4-0.2,0.6c-0.2,0.1-0.4,0.1-0.6-0.1
		c-0.5-0.4-10.9-10.5-13.5-19.9c-0.8,2.2-3,6.2-8.5,12.3C209.7,104.6,203.8,106.6,202.1,107z"/>
	<path class="st2" d="M218.9,122.1c-1.7,0-3.4-0.5-4.9-1.2c-0.2-0.1-0.3-0.4-0.2-0.7c0,0,0,0,0,0c0.1-0.2,0.4-0.3,0.7-0.2
		c0,0,0,0,0,0c0.2,0.1,5.5,2.9,8.8-0.8c0.2-0.2,0.5-0.2,0.7,0c0,0,0,0,0,0c0.2,0.2,0.2,0.5,0,0.7c0,0,0,0,0,0
		C222.7,121.3,220.9,122.1,218.9,122.1z"/>
	<path class="st2" d="M211.2,114.7c-0.6,0-1-0.4-1-1c0-0.3,0.1-0.5,0.3-0.7c3.9-4.4,12.4-3.1,12.7-3c0.5,0.1,0.9,0.6,0.8,1.1
		c0,0,0,0,0,0c-0.1,0.5-0.6,0.9-1.1,0.8c0,0,0,0,0,0c-0.1,0-7.8-1.2-10.9,2.3C211.7,114.6,211.4,114.7,211.2,114.7z"/>
	<path class="st2" d="M243.9,120c-1.6-0.1-3.2-0.6-4.5-1.7c-0.2-0.2-0.2-0.5,0-0.7c0,0,0,0,0,0c0.2-0.2,0.5-0.2,0.7-0.1
		c2.3,2,5.8,1.8,7.8-0.4c0.2-0.2,0.5-0.2,0.7,0c0,0,0,0,0,0c0.2,0.2,0.2,0.5,0,0.7C247.4,119.2,245.7,120,243.9,120z"/>
	<path class="st2" d="M248.9,111.8c-0.2,0-0.4-0.1-0.6-0.2c-4.8-3.8-10.9-0.8-11-0.8c-0.5,0.2-1.1,0-1.3-0.4
		c-0.2-0.5-0.1-1.1,0.4-1.3c0.3-0.2,7.3-3.6,13.1,1c0.4,0.3,0.5,1,0.2,1.4C249.5,111.7,249.2,111.8,248.9,111.8L248.9,111.8z"/>
	<path class="st2" d="M232.3,135.5c-1.8-0.2-3.5-0.8-4.9-1.9c-1.1-0.8-0.9-3.1-0.9-3.6c0-0.3,0.3-0.5,0.6-0.5c0.3,0,0.5,0.3,0.4,0.6
		c-0.1,0.9,0,2.3,0.5,2.7c0.9,0.7,3.8,2.3,5.3,1.5c1.3-0.9,2.4-2,3.3-3.2l-0.2-1.8c0-0.3,0.2-0.5,0.4-0.6c0.3,0,0.5,0.2,0.6,0.4
		l0.2,2c0,0.1,0,0.2-0.1,0.3c-1,1.5-2.3,2.8-3.8,3.8C233.3,135.4,232.8,135.5,232.3,135.5z"/>
	<path class="st2" d="M231.2,141.2c-2.6-0.1-5.2-0.8-7.6-2.1c-0.2-0.1-0.3-0.4-0.2-0.7c0.1-0.2,0.4-0.3,0.7-0.2c0.1,0,5.2,3,9.9,1.5
		c2.6-0.7,4.9-2.1,6.7-4.1c0.2-0.2,0.5-0.3,0.7-0.1c0.2,0.2,0.3,0.5,0.1,0.7c-0.1,0.1-2.2,2.8-7.2,4.4
		C233.3,141.1,232.2,141.2,231.2,141.2z"/>
	<polygon class="st2" points="186.2,282.2 198.2,275.9 189,267.7 	"/>
	<path class="st2" d="M186.2,282.8c-0.1,0-0.2,0-0.3-0.1c-0.2-0.1-0.2-0.3-0.2-0.5l2.8-14.6c0.1-0.3,0.3-0.4,0.6-0.4
		c0.1,0,0.2,0.1,0.2,0.1l9.3,8.2c0.2,0.2,0.2,0.5,0,0.7c0,0-0.1,0.1-0.1,0.1l-12.1,6.3C186.3,282.7,186.3,282.8,186.2,282.8z
		 M189.3,268.6l-2.4,12.7l10.5-5.5L189.3,268.6z"/>
	<path class="st3" d="M196.9,254.8c0,0,32.7,21.5,35.6,23.9s6.5,22.5,6.5,22.5c-0.8,0.5-1.7,0.7-2.6,0.5c-1.2-0.5-9.4-13.4-9.6-14.1
		s-3.8,6.8-4,8.3s0.7,11.8,1.4,13.2s5,12.9,5.5,14.1s-0.2,2.4-1,2.4s-5.2-2.4-5.2-2.4l-9.6-4.8c-1.8-2.4-3.5-4.8-5-7.4
		c-1-1.6-1.8-3.3-2.6-5c0,0,0,13.4-1,15s-3.3-0.7-3.3-2.1s-0.5-12.2-0.5-14.1s-6.9-30.3-6.9-30.3l-3.8-1.7L196.9,254.8z"/>
	<path class="st2" d="M228.7,326c-0.8,0-4.1-1.7-5.5-2.4l-9.5-4.8c-0.1,0-0.1-0.1-0.2-0.1c-1.8-2.4-3.5-4.9-5.1-7.5
		c-0.7-1.3-1.3-2.3-1.7-3.1c0,3.9-0.2,11.8-1,13.1c-0.3,0.7-1.1,1-1.8,0.8c-1.4-0.5-2.3-1.7-2.5-3.2c0-0.7-0.1-3.3-0.2-6.2
		c-0.1-3.4-0.3-6.9-0.3-7.9c0-1.5-4.9-21.9-6.9-30l-3.6-1.6c-0.2-0.1-0.4-0.4-0.3-0.6l6.2-17.9c0.1-0.1,0.2-0.3,0.3-0.3
		c0.1-0.1,0.3,0,0.4,0.1c1.3,0.9,32.8,21.5,35.6,23.9s6.3,20.7,6.7,22.8c0,0.2-0.1,0.4-0.2,0.5c-0.9,0.6-2,0.8-3.1,0.5
		c-1.4-0.6-8-11.1-9.6-13.8c-1.4,2.4-2.5,4.9-3.4,7.6c-0.2,1.5,0.7,11.7,1.3,12.9c0.5,1.1,3,7.5,4.4,11.3c0.5,1.4,0.9,2.5,1.1,2.8
		c0.3,0.8,0.2,1.6-0.2,2.4C229.6,325.7,229.2,326,228.7,326z M214.2,318l9.4,4.7c1.6,0.9,3.3,1.7,5,2.3c0.2,0,0.3-0.1,0.4-0.3
		c0.3-0.4,0.3-1,0.1-1.4c-0.1-0.3-0.5-1.4-1.1-2.8c-1.5-3.8-3.9-10.2-4.4-11.2c-0.8-1.5-1.7-12.1-1.4-13.5c0.1-0.5,3.3-8.6,4.4-8.7
		c0.3,0,0.5,0.1,0.6,0.4c0.5,1.2,8.3,13.2,9.4,13.9c0.6,0.2,1.3,0.1,1.9-0.3c-1.1-5.8-4.1-20-6.3-21.9c-2.6-2.2-30.7-20.7-35-23.5
		l-5.9,16.9l3.4,1.5c0.1,0.1,0.2,0.2,0.3,0.3c0.7,2.9,6.9,28.5,6.9,30.4c0,1,0.1,4.7,0.3,7.9c0.1,2.9,0.2,5.5,0.2,6.2
		c0.2,1,0.8,1.8,1.8,2.2c0.3,0.1,0.5,0,0.6-0.3c0.6-1.1,0.9-9.7,0.9-14.8c-0.1-0.3,0.1-0.5,0.4-0.6s0.5,0.1,0.6,0.4
		c0.8,1.7,1.6,3.4,2.6,5C210.8,313.2,212.4,315.6,214.2,318L214.2,318z"/>
	<path class="st2" d="M228.7,326c-0.2,0-0.3-0.1-0.4-0.2c-0.3-0.4-7-9-8.1-11.2s-7.2-18.6-7.5-19.3c-0.1-0.2,0-0.5,0.2-0.7
		c0.2-0.1,0.5,0,0.7,0.2c0,0,0,0.1,0,0.1c0.1,0.2,6.4,17,7.4,19.2s8,11,8,11c0.2,0.2,0.1,0.5-0.1,0.7C228.9,326,228.8,326,228.7,326
		L228.7,326z"/>
	<path class="st2" d="M223.4,323.6c-0.1,0-0.2,0-0.3-0.1c-0.3-0.2-7.4-6.2-9.2-8s-6.8-16-7.4-17.5c-0.1-0.3,0.1-0.5,0.3-0.6
		c0.2-0.1,0.5,0,0.6,0.3c0,0,0,0,0,0c1.5,4.3,5.7,15.7,7.2,17.2c1.8,1.8,9.1,7.9,9.1,8c0.2,0.2,0.2,0.5,0.1,0.7
		C223.7,323.6,223.6,323.6,223.4,323.6z"/>
	<path class="st0" d="M142.2,219.9l57.8,35.6l-13.9,26.7l-80.7-46.3c-0.5-1.2-0.5-2.6,0-3.8c1-1.7,20.3-25.8,20.3-25.8"/>
	<path class="st2" d="M186.2,282.8c-0.1,0-0.2,0-0.2-0.1l-80.7-46.3c-0.1-0.1-0.2-0.1-0.2-0.2c-0.6-1.4-0.6-2.9,0-4.3
		c1-1.7,19.6-24.9,20.3-25.9c0.2-0.2,0.5-0.2,0.7-0.1s0.2,0.5,0.1,0.7l0,0c-6.7,8.3-19.5,24.4-20.2,25.7c-0.4,1-0.4,2.2,0,3.2
		l80.1,46l13.4-25.9L142,220.4c-0.2-0.2-0.3-0.5-0.1-0.7c0.1-0.2,0.4-0.3,0.6-0.2l57.8,35.6c0.2,0.1,0.3,0.4,0.2,0.7l-13.8,26.7
		c-0.1,0.1-0.2,0.2-0.3,0.2L186.2,282.8z"/>
	<rect x="353.6" y="159" class="st3" width="39" height="28.7"/>
	<path class="st2" d="M392.6,188.2h-39c-0.3,0-0.5-0.2-0.5-0.5V159c0-0.3,0.2-0.5,0.5-0.5h39c0.3,0,0.5,0.2,0.5,0.5v28.7
		C393.1,188,392.9,188.2,392.6,188.2z M354.1,187.2h38v-27.7h-38V187.2z"/>
	<rect x="352.4" y="159" class="st3" width="39" height="28.7"/>
	<path class="st2" d="M391.4,188.2h-39c-0.3,0-0.5-0.2-0.5-0.5V159c0-0.3,0.2-0.5,0.5-0.5h39c0.3,0,0.5,0.2,0.5,0.5v28.7
		C391.9,188,391.7,188.2,391.4,188.2z M352.9,187.2h38v-27.7h-38V187.2z"/>
	<rect x="355.3" y="161.1" class="st3" width="33.1" height="24.4"/>
	<path class="st2" d="M388.5,186h-33.1c-0.3,0-0.5-0.2-0.5-0.5v-24.4c0-0.3,0.2-0.5,0.5-0.5h33.1c0.3,0,0.5,0.2,0.5,0.5v24.4
		C388.9,185.8,388.7,186,388.5,186z M355.8,185H388v-23.4h-32.2L355.8,185z"/>
	<rect x="369.6" y="187.7" class="st3" width="7.8" height="10.8"/>
	<path class="st2" d="M377.4,199h-7.8c-0.3,0-0.5-0.2-0.5-0.5v-10.8c0-0.3,0.2-0.5,0.5-0.5h7.8c0.3,0,0.5,0.2,0.5,0.5v10.8
		C377.9,198.7,377.7,199,377.4,199C377.4,199,377.4,199,377.4,199z M370.1,198h6.8v-9.8h-6.8V198z"/>
	<rect x="368" y="187.7" class="st3" width="7.8" height="10.8"/>
	<path class="st2" d="M375.8,199H368c-0.3,0-0.5-0.2-0.5-0.5v-10.8c0-0.3,0.2-0.5,0.5-0.5h7.8c0.3,0,0.5,0.2,0.5,0.5v10.8
		C376.3,198.7,376.1,199,375.8,199C375.8,199,375.8,199,375.8,199z M368.5,198h6.8v-9.8h-6.8V198z"/>
	<rect x="362.6" y="198.2" class="st3" width="18.7" height="1.9"/>
	<path class="st2" d="M381.2,200.6h-18.7c-0.3,0-0.5-0.2-0.5-0.5v-1.9c0-0.3,0.2-0.5,0.5-0.5h18.7c0.3,0,0.5,0.2,0.5,0.5v1.9
		C381.7,200.4,381.5,200.6,381.2,200.6z M363.1,199.6h17.7v-0.9h-17.7V199.6z"/>
</g>
</svg>
