<?xml version="1.0" encoding="utf-8"?>
<!-- Generator: Adobe Illustrator 26.5.0, SVG Export Plug-In . SVG Version: 6.00 Build 0)  -->
<svg version="1.1" id="Camada_1" xmlns="http://www.w3.org/2000/svg" xmlns:xlink="http://www.w3.org/1999/xlink" x="0px" y="0px"
	 viewBox="0 0 500 500" style="enable-background:new 0 0 500 500;" xml:space="preserve">
<style type="text/css">
	.st0{fill:#6DD1AE;}
	.st1{opacity:0.7;fill:#FFFFFF;enable-background:new    ;}
	.st2{opacity:0.2;}
	.st3{fill:none;stroke:#073447;stroke-linecap:round;stroke-miterlimit:10;}
	.st4{fill:#FFFFFF;stroke:#073447;stroke-linecap:round;stroke-miterlimit:10;}
	.st5{fill:#6DD1AE;stroke:#073447;stroke-linecap:round;stroke-miterlimit:10;}
	.st6{fill:#FFFFFF;stroke:#073447;stroke-miterlimit:10;}
	.st7{fill:#073447;stroke:#073447;stroke-miterlimit:10;}
	.st8{fill:#696969;}
	.st9{fill:#C2C2C2;}
	.st10{fill:#696969;stroke:#073447;stroke-miterlimit:10;}
	.st11{fill:none;stroke:#073447;stroke-miterlimit:10;}
	.st12{fill:#C2C2C2;stroke:#073447;stroke-miterlimit:10;}
	.st13{fill:#696969;stroke:#073447;stroke-width:0.999;stroke-miterlimit:9.9905;}
	.st14{fill:#FFFFFF;}
	.st15{fill:none;stroke:#FFFFFF;stroke-miterlimit:10;}
	.st16{fill:#073447;stroke:#073447;stroke-linecap:round;stroke-miterlimit:10;}
	.st17{fill:#073447;}
</style>
<g id="freepik--background-simple--inject-92">
	<path class="st0" d="M415.2,105.3c-8.8-14.9-21-27.1-36.6-37.1C326.9,35,256.7,23,196.3,32.1c-43.1,6.4-71.9,35.8-90.3,74
		c-21.7,45.1-41.5,90-66.2,133.9C11.4,290.3-1.4,342.6,60.3,386c53.4,37.6,120.4,27.8,181.6,26.6c20.3-0.4,40.7,0.3,60.7,4.2
		c39.7,7.8,78.2,35.5,117.2,9.6c29.7-19.7,47.1-56.9,55.6-90.6c5-20.1,9-42.2,7.1-63.5c-2-23.4-12.8-40.9-23.9-60.8
		c-14-25.1-24.8-51.7-32.4-79.4C423.8,122.7,420.1,113.7,415.2,105.3z"/>
	<path class="st1" d="M415.2,105.3c-8.8-14.9-21-27.1-36.6-37.1C326.9,35,256.7,23,196.3,32.1c-43.1,6.4-71.9,35.8-90.3,74
		c-21.7,45.1-41.5,90-66.2,133.9C11.4,290.3-1.4,342.6,60.3,386c53.4,37.6,120.4,27.8,181.6,26.6c20.3-0.4,40.7,0.3,60.7,4.2
		c39.7,7.8,78.2,35.5,117.2,9.6c29.7-19.7,47.1-56.9,55.6-90.6c5-20.1,9-42.2,7.1-63.5c-2-23.4-12.8-40.9-23.9-60.8
		c-14-25.1-24.8-51.7-32.4-79.4C423.8,122.7,420.1,113.7,415.2,105.3z"/>
</g>
<g id="freepik--Plants--inject-92">
	<g class="st2">
		<path d="M405.6,249.7c1.2,2.8,6.2,7.3,6.2,7.3s2-4.2,2.1-4.5c1-3.3,1.1-10.2-2-12.4c-2.1-1.4-4.9-0.9-6.3,1.2
			c-0.1,0.1-0.2,0.3-0.3,0.4C404,244.1,404.6,247.4,405.6,249.7z"/>
		<path d="M454.1,297.5c0,0.1,4-2.4,4.2-2.6c2.7-2.1,6.6-7.9,5.2-11.4c-1-2.3-3.6-3.4-5.9-2.5c-0.2,0.1-0.3,0.1-0.4,0.2
			c-2.4,1.2-3.7,4.3-4.2,6.8C452.5,291,454.1,297.5,454.1,297.5z"/>
		<path d="M485.5,293.6c-2.5-2.9-9.4-2.2-12.5-0.9c-0.3,0.1-4.3,2.4-4.3,2.4h0.1c-1.1,0.1-2.2,0.2-3.5,0.4c-2.3,0.3-5,0.7-7.8,1.3
			c-3.1,0.6-6.1,1.4-9.1,2.4c-3.4,1.1-6.6,2.4-9.7,4.1l-0.1,0.1c0.8-0.8,2.9-3.1,3-3.3c2-2.8,4.3-9.3,2-12.4c-1.5-2-4.4-2.3-6.4-0.8
			c-0.1,0.1-0.3,0.2-0.4,0.3c-2,1.8-2.5,5.1-2.2,7.7c0.2,2.9,3.3,8.3,3.6,8.8c-3.1,1.7-6.1,3.7-9,5.8c-1.7,1.2-3.3,2.5-5,3.9
			c0.7-0.7,1.2-1.4,1.3-1.5c2-2.8,4.3-9.3,2-12.4c-1.5-2-4.4-2.3-6.4-0.8c-0.1,0.1-0.3,0.2-0.4,0.3c-2,1.8-2.5,5.1-2.2,7.7
			s2.8,7.3,3.4,8.5l-1.9,1.5c-3,2.5-5.9,5-8.9,7.3c-1,0.8-2.1,1.6-3.2,2.4c0.6-0.6,1.1-1.2,1.1-1.3c2-2.8,4.3-9.3,2-12.4
			c-1.5-2-4.4-2.4-6.4-0.8c-0.1,0.1-0.3,0.2-0.4,0.3c-2,1.8-2.4,5.1-2.2,7.7s2.5,6.8,3.3,8.3c-1.1,0.8-2.2,1.5-3.3,2.2
			c-0.8,0.5-1.5,1-2.3,1.4l-2.3,1.3c-1.5,0.8-3.1,1.5-4.5,2.2c-1,0.5-2,1-3,1.4c1.1-0.8,3.1-2.5,3.2-2.6c2-2.2,3.5-4.9,4.2-7.9
			c0.2-0.2,0.4-0.5,0.6-0.8c1.5-2,1-4.9-1-6.3c-0.1-0.1-0.3-0.2-0.4-0.3c-3.4-1.8-9.5,1.3-12,3.7c-0.1,0.1-1.6,1.8-2.4,2.9
			c0.4-0.7,0.8-1.4,1.2-2.1c0.8-1.5,1.6-2.9,2.5-4.5c0.4-0.8,0.8-1.6,1.2-2.4s0.8-1.7,1.1-2.5c0.9-2,1.6-4,2.3-6
			c1.3,0.7,5.9,3.3,8.4,3.5s5.9-0.1,7.7-2.1c1.8-1.8,1.8-4.6,0-6.4c-0.1-0.1-0.2-0.2-0.4-0.3c-3.1-2.3-9.6-0.2-12.4,1.8
			c-0.2,0.1-2,1.8-3,2.7c0.4-1.2,0.9-2.5,1.2-3.8c1.1-3.7,2.1-7.4,3.2-11.1c0.3-1.1,0.6-2.3,1-3.4c0.5,0.3,5.8,3.4,8.7,3.7
			c2.5,0.3,5.9-0.1,7.7-2.1c1.8-1.8,1.8-4.6,0-6.4c-0.1-0.1-0.2-0.2-0.4-0.3c-3-2.3-9.6-0.2-12.4,1.8c-0.2,0.1-2.9,2.5-3.5,3.1
			c0.7-2.5,1.5-5,2.3-7.4c1.1-3.3,2.4-6.5,3.9-9.6c0.2,0.1,5.8,3.4,8.8,3.7c2.5,0.3,5.9-0.1,7.7-2.1c1.8-1.8,1.8-4.6,0-6.4
			c-0.1-0.1-0.2-0.2-0.4-0.3c-3-2.3-9.6-0.2-12.4,1.8c-0.2,0.1-2.2,1.9-3.2,2.8l-0.2-0.1c1.6-3.1,3.5-6,5.6-8.8
			c1.1-1.5,2.3-2.9,3.5-4.3c1,0.7,5.5,4,8.1,4.5s5.8,0.5,7.9-1.2c2-1.6,2.3-4.4,0.7-6.4c-0.1-0.1-0.2-0.3-0.3-0.4
			c-2.8-2.6-9.6-1.2-12.6,0.4c-0.2,0.1-1.7,1.2-2.9,2c0.5-0.6,1.1-1.2,1.6-1.8c2-2.1,4-3.9,5.7-5.5c1-0.9,1.9-1.7,2.8-2.4
			c1.3,0.2,6.7,1,9.2,0.3s5.4-2.2,6.4-4.7c1-2.3,0-5-2.3-6c-0.1-0.1-0.3-0.1-0.4-0.2c-3.7-1-9,3.3-11,6.2c-0.2,0.2-2.3,4.4-2.2,4.4
			h0.1c-0.9,0.7-1.8,1.4-2.7,2.3c-1.8,1.6-3.8,3.3-5.8,5.4c-2.2,2.2-4.3,4.5-6.3,7c-2.2,2.7-4.2,5.7-5.9,8.7l-0.1,0.1
			c0.2-1.1,0.7-4.2,0.7-4.5c0.1-3.4-1.6-10.1-5.2-11.4c-2.4-0.8-5,0.5-5.8,2.8c-0.1,0.2-0.1,0.3-0.1,0.5c-0.7,2.6,0.8,5.6,2.4,7.6
			c1.8,2.3,7.4,5.1,7.8,5.4c-1.6,3.2-3.1,6.5-4.3,9.8c-0.7,2-1.4,4-2,6c0.2-1,0.3-1.8,0.3-1.9c0.1-3.4-1.6-10.1-5.2-11.5
			c-2.4-0.8-4.9,0.5-5.8,2.8c-0.1,0.2-0.1,0.3-0.1,0.5c-0.7,2.6,0.8,5.6,2.4,7.6s6.3,4.6,7.6,5.2c-0.2,0.8-0.5,1.5-0.7,2.3
			c-1.1,3.7-2.2,7.4-3.4,11c-0.4,1.3-0.9,2.5-1.3,3.7c0.1-0.9,0.2-1.6,0.2-1.7c0.1-3.4-1.6-10.1-5.2-11.5c-2.4-0.8-4.9,0.5-5.7,2.8
			c-0.1,0.2-0.1,0.3-0.1,0.5c-0.7,2.6,0.8,5.6,2.4,7.6s5.9,4.3,7.3,5.1c-0.5,1.2-1,2.5-1.5,3.7c-0.4,0.8-0.7,1.6-1.1,2.4l-1.2,2.4
			c-0.8,1.5-1.7,3-2.5,4.4c-0.6,1-1.2,1.9-1.7,2.8c0.4-1.3,1.2-3.8,1.3-4c0.7-3.4,0-10.2-3.4-12.1c-2.2-1.2-5-0.3-6.1,1.9
			c-0.1,0.1-0.1,0.3-0.2,0.4c-1.1,2.5-0.1,5.7,1.2,7.9c1.4,2.4,6.2,6,6.9,6.4c-1,1.5-1.9,3-2.8,4.4c-3.1,4.8-6,8.7-8,11.4l1.9,1.8
			l0.1-0.2c2-2.8,4.8-6.8,7.9-11.7c1-1.6,2-3.2,3-5c1.8,0.7,3.6,1.3,5.5,1.8c0,2.9,1.9,8.1,2.2,8.8c-1.6,0.8-3.3,1.5-4.8,2.1
			c-5.3,2.3-9.7,3.9-12.9,5.1l2.1,2c3.1-1.2,7.1-2.9,11.7-5c1.7-0.8,3.5-1.6,5.3-2.5c0.4,0.6,3.9,5.5,6.3,7c2.2,1.3,5.4,2.4,7.9,1.3
			c2.3-0.9,3.6-3.5,2.7-5.8c-0.1-0.2-0.1-0.3-0.2-0.5c-1.8-3.4-8.7-4.2-12-3.6c-0.2,0-2.3,0.7-3.6,1.1c0.7-0.4,1.5-0.7,2.2-1.1
			c1.5-0.8,3-1.5,4.6-2.4l2.3-1.3c0.8-0.4,1.5-1,2.3-1.5c1.8-1.2,3.5-2.4,5.3-3.8c0.7,1.3,3.1,6,5.1,7.6s5,3.1,7.6,2.5
			c2.5-0.5,4-2.9,3.5-5.3c0-0.2-0.1-0.3-0.1-0.5c-1.3-3.6-7.9-5.5-11.4-5.4c-0.2,0-2.7,0.3-4,0.6c1-0.8,2.1-1.6,3.1-2.5
			c3-2.4,5.9-5,8.8-7.5l2.7-2.3c0.2,0.5,3,6,5.2,7.9c2,1.6,5,3.1,7.6,2.5c2.5-0.5,4-2.9,3.5-5.4c0-0.2-0.1-0.3-0.1-0.5
			c-1.3-3.6-7.9-5.5-11.4-5.4c-0.3,0-3.8,0.5-4.7,0.7c2-1.7,4-3.4,6-4.9c2.7-2.1,5.6-4.1,8.6-5.9c0.1,0.2,3,6.1,5.2,7.9
			c2,1.6,5,3.1,7.6,2.5c2.5-0.5,4-2.9,3.5-5.4c0-0.2-0.1-0.3-0.1-0.5c-1.3-3.6-7.9-5.5-11.4-5.4c-0.2,0-2.9,0.4-4.2,0.6L439,304
			c3-1.7,6.2-3.1,9.5-4.2c1.8-0.6,3.6-1.2,5.3-1.6c0.4,1.1,2.4,6.4,4.3,8.3s4.6,3.7,7.3,3.3c2.5-0.2,4.3-2.5,4.1-5
			c0-0.2,0-0.3-0.1-0.5c-0.9-3.7-7.3-6.3-10.7-6.6c-0.2,0-2.1,0-3.5,0.1c0.8-0.2,1.6-0.4,2.3-0.6c2.8-0.7,5.5-1.1,7.8-1.5
			c1.3-0.2,2.5-0.3,3.6-0.5c1,0.9,5.1,4.5,7.5,5.3s5.8,1.1,8-0.4c2.1-1.3,2.7-4.2,1.4-6.3C485.7,293.8,485.6,293.7,485.5,293.6z"/>
	</g>
	<g class="st2">
		<path d="M69.2,406.8c0.1-3-2.6-9.2-2.6-9.2s-3.5,3-3.7,3.2c-2.3,2.5-5.3,8.8-3.3,12.1c1.3,2.1,4.1,2.8,6.2,1.5
			c0.1-0.1,0.3-0.2,0.4-0.3C68.4,412.6,69.2,409.3,69.2,406.8z"/>
		<path d="M44.9,343.1c0-0.1-4.6,0.5-4.9,0.6c-3.3,0.8-9.2,4.4-9.5,8.2c-0.1,2.5,1.9,4.6,4.4,4.7c0.2,0,0.3,0,0.5,0
			c2.7-0.1,5.2-2.4,6.6-4.5C43.7,349.8,44.9,343.1,44.9,343.1z"/>
		<path d="M14.7,333.8c1.1,3.7,7.6,5.9,11,6c0.3,0,4.9-0.4,4.9-0.4v-0.1c1,0.4,2.1,0.7,3.4,1.1c2.3,0.7,4.8,1.5,7.7,2.1
			c3.1,0.7,6.2,1.3,9.3,1.6c3.5,0.4,7,0.5,10.5,0.3h0.1c-1,0.4-3.9,1.6-4.2,1.8c-3,1.7-7.7,6.7-7,10.5c0.6,2.4,3,4,5.5,3.4
			c0.2,0,0.3-0.1,0.5-0.1c2.6-0.8,4.3-3.6,5.2-6.1c1-2.7,0.4-9,0.4-9.5c3.6-0.3,7.1-0.8,10.6-1.6c2-0.4,4.1-0.9,6.1-1.5
			c-0.9,0.4-1.7,0.7-1.8,0.8c-3,1.7-7.7,6.7-7,10.5c0.6,2.4,3,3.9,5.5,3.4c0.2,0,0.3-0.1,0.5-0.1c2.6-0.8,4.3-3.6,5.2-6.1
			s0.5-7.8,0.4-9.2l2.3-0.6c3.7-1,7.5-2.1,11.2-3c1.3-0.3,2.6-0.6,3.9-0.9c-0.8,0.3-1.5,0.6-1.6,0.7c-3,1.7-7.7,6.7-7,10.5
			c0.6,2.4,3,3.9,5.5,3.4c0.2,0,0.3-0.1,0.5-0.1c2.6-0.8,4.3-3.6,5.2-6.1s0.6-7.2,0.4-8.9c1.3-0.2,2.7-0.5,4-0.7
			c0.9-0.1,1.7-0.2,2.6-0.3l2.6-0.2c1.7-0.1,3.4-0.1,5.1-0.2h3.3c-1.3,0.3-3.8,1-4,1c-2.8,1.2-5.2,3.1-7,5.4
			c-0.3,0.1-0.6,0.3-0.9,0.4c-2.2,1.2-3,4-1.7,6.2c0.1,0.1,0.2,0.3,0.3,0.4c2.3,3.1,9.2,2.8,12.5,1.6c0.2-0.1,2.2-1,3.4-1.6
			c-0.7,0.5-1.3,0.9-2,1.4c-1.4,1-2.7,2-4.2,3.1l-2.1,1.7c-0.7,0.5-1.4,1.2-2.1,1.8c-1.6,1.4-3.1,3-4.6,4.5c-0.9-1.2-4-5.4-6.2-6.7
			s-5.4-2.3-7.9-1.3c-2.3,0.9-3.5,3.5-2.7,5.8c0.1,0.2,0.1,0.3,0.2,0.4c1.8,3.4,8.7,4.1,12.1,3.5c0.2,0,2.6-0.8,3.9-1.2
			c-0.9,1-1.8,1.9-2.7,2.9c-2.5,2.9-5,5.9-7.5,8.8c-0.8,0.9-1.5,1.8-2.3,2.7c-0.3-0.4-3.9-5.5-6.4-7c-2.2-1.3-5.4-2.3-7.9-1.3
			c-2.3,0.9-3.5,3.5-2.7,5.8c0.1,0.2,0.1,0.3,0.2,0.5c1.8,3.4,8.7,4.1,12.1,3.5c0.3,0,3.7-1.1,4.5-1.4c-1.7,2-3.4,3.9-5.1,5.8
			c-2.4,2.5-4.9,4.9-7.5,7.1c-0.1-0.2-3.9-5.5-6.4-7c-2.2-1.3-5.4-2.3-7.9-1.3c-2.3,0.9-3.5,3.5-2.6,5.8c0.1,0.2,0.1,0.3,0.2,0.5
			c1.8,3.4,8.7,4.1,12.1,3.5c0.2,0,2.8-0.8,4-1.2l0.1,0.2c-2.7,2.1-5.7,4-8.8,5.7c-1.7,0.9-3.3,1.7-5,2.4c-0.6-1.1-3.3-5.9-5.5-7.5
			s-5.1-2.9-7.7-2.1c-2.4,0.6-3.9,3.1-3.3,5.5c0,0.2,0.1,0.3,0.2,0.5c1.5,3.6,8.2,5.1,11.6,4.8c0.2,0,2.1-0.4,3.4-0.6
			c-0.7,0.3-1.5,0.7-2.2,1c-2.7,1.1-5.2,1.9-7.5,2.6c-1.3,0.4-2.5,0.7-3.5,1c-1.1-0.8-5.7-3.7-8.3-4.1s-5.8-0.2-7.8,1.6
			c-1.9,1.7-2,4.5-0.4,6.4c0.1,0.1,0.2,0.2,0.4,0.4c2.9,2.5,9.6,0.7,12.5-1.1c0.2-0.1,3.9-3,3.8-3.1l-0.1,0c1.1-0.3,2.2-0.6,3.4-0.9
			c2.3-0.7,4.8-1.5,7.5-2.5c3-1.1,5.9-2.3,8.7-3.7c3.2-1.6,6.2-3.4,9-5.5l0.1-0.1c-0.7,0.9-2.4,3.5-2.5,3.8c-1.6,3.1-2.8,9.9,0,12.6
			c1.8,1.7,4.7,1.6,6.4-0.2c0.1-0.1,0.2-0.2,0.3-0.4c1.7-2.1,1.6-5.4,1-7.9c-0.7-2.8-4.6-7.7-4.9-8.1c2.8-2.2,5.5-4.6,8-7.2
			c1.5-1.5,2.9-3,4.3-4.6c-0.5,0.8-1,1.5-1.1,1.6c-1.6,3-2.8,9.9,0,12.6c1.8,1.7,4.7,1.6,6.4-0.2c0.1-0.1,0.2-0.2,0.3-0.4
			c1.7-2.1,1.6-5.4,1-7.9s-3.8-6.8-4.7-7.9l1.6-1.8c2.6-2.9,5.1-5.9,7.7-8.6c0.9-1,1.8-1.9,2.8-2.9c-0.5,0.7-0.9,1.3-0.9,1.4
			c-1.6,3-2.8,9.9,0,12.6c1.8,1.7,4.7,1.6,6.4-0.2c0.1-0.1,0.2-0.2,0.3-0.4c1.7-2.1,1.6-5.4,1-7.9s-3.5-6.4-4.6-7.7
			c1-0.9,2-1.9,3-2.7c0.7-0.6,1.3-1.2,2-1.7s1.4-1.1,2.1-1.6c1.4-1,2.8-2,4.1-2.9c0.9-0.6,1.8-1.2,2.8-1.9c-0.9,1-2.7,2.9-2.8,3.1
			c-2,2.8-4.2,9.3-1.9,12.4c1.5,2,4.4,2.3,6.4,0.8c0.1-0.1,0.2-0.2,0.4-0.3c2-1.8,2.4-5.1,2.2-7.7c-0.2-2.8-3.2-8-3.6-8.7
			c1.5-1,3-2,4.4-2.9c4.8-3,9-5.4,11.9-7l-1-2.4l-0.2,0.1c-2.9,1.7-7.1,4.2-12,7.4c-1.6,1-3.2,2.1-4.8,3.3c-1.4-1.4-2.9-2.7-4.5-4
			c1.2-2.6,1.6-8.2,1.7-8.9c1.8,0,3.6,0,5.2,0.1c5.7,0.1,10.5,0.5,13.9,0.7l-1.1-2.6c-3.3-0.2-7.6-0.4-12.7-0.4
			c-1.8,0-3.8,0-5.8,0.1c-0.1-0.7-1.2-6.6-2.9-9c-1.5-2.1-3.9-4.4-6.6-4.5c-2.5-0.2-4.7,1.7-4.9,4.2c0,0.2,0,0.3,0,0.5
			c0.2,3.8,6.2,7.4,9.5,8.2c0.2,0,2.4,0.4,3.8,0.5l-2.5,0.1c-1.7,0.1-3.4,0.2-5.2,0.3l-2.6,0.3c-0.9,0.1-1.8,0.2-2.7,0.4
			c-2.1,0.3-4.2,0.8-6.4,1.2c-0.1-1.5-0.3-6.7-1.5-9s-3.2-4.9-5.9-5.4c-2.4-0.6-4.9,1-5.4,3.4c0,0.2-0.1,0.3-0.1,0.5
			c-0.3,3.8,5,8.3,8.1,9.6c0.2,0.1,2.6,0.8,3.9,1.1c-1.3,0.3-2.6,0.6-3.8,0.9c-3.7,1-7.4,2.1-11.1,3.2c-1.1,0.3-2.3,0.7-3.4,1
			c0-0.5-0.2-6.8-1.5-9.3c-1.1-2.3-3.2-4.9-5.9-5.4c-2.4-0.6-4.9,1-5.4,3.4c0,0.2-0.1,0.3-0.1,0.5c-0.3,3.8,5,8.2,8.1,9.6
			c0.2,0.1,3.7,1.1,4.5,1.3c-2.5,0.7-5,1.4-7.5,2c-3.4,0.8-6.8,1.4-10.2,1.8c0-0.2-0.2-6.7-1.5-9.4c-1.1-2.3-3.2-4.9-5.9-5.4
			c-2.4-0.6-4.9,1-5.4,3.4c0,0.2-0.1,0.3-0.1,0.5c-0.3,3.8,5,8.3,8.1,9.6c0.2,0.1,2.8,0.9,4,1.2c0,0.1,0,0.1,0,0.2
			c-3.5,0.3-6.9,0.3-10.4,0c-1.9-0.2-3.7-0.4-5.5-0.7c0.1-1.2,0.5-6.8-0.5-9.3s-2.7-5.2-5.2-6c-2.4-0.8-5,0.4-5.8,2.8
			c-0.1,0.2-0.1,0.3-0.1,0.5c-0.8,3.8,4,8.8,7,10.4c0.2,0.1,1.9,0.8,3.2,1.4c-0.8-0.1-1.6-0.3-2.4-0.4c-2.8-0.6-5.4-1.3-7.7-1.9
			c-1.3-0.4-2.4-0.7-3.5-1.1c-0.5-1.2-2.7-6.2-4.7-8s-4.8-3.4-7.4-2.9c-2.5,0.4-4.2,2.7-3.8,5.2C14.6,333.4,14.7,333.6,14.7,333.8z"
			/>
	</g>
</g>
<g id="freepik--Floor--inject-92">
	<line class="st3" x1="46" y1="421" x2="481" y2="421"/>
</g>
<g id="freepik--Calendar--inject-92">
	<rect x="300.6" y="70.7" class="st4" width="151.9" height="157.8"/>
	<rect x="300.6" y="70.7" class="st5" width="151.9" height="30.4"/>
	<rect x="309.5" y="120.4" class="st4" width="17.4" height="17.4"/>
	<rect x="333.1" y="120.4" class="st4" width="17.4" height="17.4"/>
	<rect x="356.8" y="120.4" class="st4" width="17.4" height="17.4"/>
	<rect x="380.4" y="120.4" class="st4" width="17.4" height="17.4"/>
	<rect x="404" y="120.4" class="st4" width="17.4" height="17.4"/>
	<rect x="427.7" y="120.4" class="st4" width="17.4" height="17.4"/>
	<rect x="309.5" y="144.3" class="st4" width="17.4" height="17.4"/>
	<rect x="333.1" y="144.3" class="st4" width="17.4" height="17.4"/>
	<rect x="356.8" y="144.3" class="st4" width="17.4" height="17.4"/>
	<rect x="380.4" y="144.3" class="st4" width="17.4" height="17.4"/>
	<rect x="404" y="144.3" class="st4" width="17.4" height="17.4"/>
	<rect x="427.7" y="144.3" class="st4" width="17.4" height="17.4"/>
	<rect x="309.5" y="168.2" class="st4" width="17.4" height="17.4"/>
	<rect x="333.1" y="168.2" class="st4" width="17.4" height="17.4"/>
	<rect x="356.8" y="168.2" class="st4" width="17.4" height="17.4"/>
	<rect x="380.4" y="168.2" class="st4" width="17.4" height="17.4"/>
	<rect x="404" y="168.2" class="st4" width="17.4" height="17.4"/>
	<rect x="427.7" y="168.2" class="st4" width="17.4" height="17.4"/>
	<rect x="309.5" y="192.1" class="st4" width="17.4" height="17.4"/>
	<rect x="333.1" y="192.1" class="st4" width="17.4" height="17.4"/>
	<rect x="356.8" y="192.1" class="st4" width="17.4" height="17.4"/>
	<rect x="380.4" y="192.1" class="st4" width="17.4" height="17.4"/>
	<rect x="404" y="192.1" class="st4" width="17.4" height="17.4"/>
	<rect x="427.7" y="192.1" class="st4" width="17.4" height="17.4"/>
	<path class="st4" d="M313.9,78.9L313.9,78.9c-1.2,0-2.2-1-2.2-2.2c0,0,0,0,0,0V61.1c0-1.2,1-2.2,2.2-2.2l0,0l0,0
		c1.2,0,2.2,1,2.2,2.2c0,0,0,0,0,0v15.6C316.1,77.9,315.2,78.9,313.9,78.9C313.9,78.9,313.9,78.9,313.9,78.9z"/>
	<path class="st4" d="M322.8,78.9L322.8,78.9c-1.2,0-2.2-1-2.2-2.2c0,0,0,0,0,0V61.1c0-1.2,1-2.2,2.2-2.2c0,0,0,0,0,0l0,0
		c1.2,0,2.2,1,2.2,2.2v15.6C325,77.9,324,78.9,322.8,78.9z"/>
	<path class="st4" d="M331.7,78.9L331.7,78.9c-1.2,0-2.2-1-2.2-2.2c0,0,0,0,0,0V61.1c0-1.2,1-2.2,2.2-2.2c0,0,0,0,0,0l0,0
		c1.2,0,2.2,1,2.2,2.2c0,0,0,0,0,0v15.6C333.9,77.9,332.9,78.9,331.7,78.9C331.7,78.9,331.7,78.9,331.7,78.9z"/>
	<path class="st4" d="M340.6,78.9L340.6,78.9c-1.2,0-2.2-1-2.2-2.2l0,0V61.1c0-1.2,1-2.2,2.2-2.2l0,0c1.2,0,2.2,1,2.2,2.2
		c0,0,0,0,0,0v15.6C342.8,77.9,341.8,78.9,340.6,78.9C340.6,78.9,340.6,78.9,340.6,78.9z"/>
	<path class="st4" d="M349.5,78.9L349.5,78.9c-1.2,0-2.2-1-2.2-2.2c0,0,0,0,0,0V61.1c0-1.2,1-2.2,2.2-2.2l0,0l0,0
		c1.2,0,2.2,1,2.2,2.2v15.6C351.7,77.9,350.7,78.9,349.5,78.9z"/>
	<path class="st4" d="M358.4,78.9L358.4,78.9c-1.2,0-2.2-1-2.2-2.2c0,0,0,0,0,0V61.1c0-1.2,1-2.2,2.2-2.2c0,0,0,0,0,0l0,0
		c1.2,0,2.2,1,2.2,2.2c0,0,0,0,0,0v15.6C360.6,77.9,359.6,78.9,358.4,78.9C358.4,78.9,358.4,78.9,358.4,78.9z"/>
	<path class="st4" d="M367.3,78.9L367.3,78.9c-1.2,0-2.2-1-2.2-2.2c0,0,0,0,0,0V61.1c0-1.2,1-2.2,2.2-2.2c0,0,0,0,0,0l0,0
		c1.2,0,2.2,1,2.2,2.2c0,0,0,0,0,0v15.6C369.5,77.9,368.5,78.9,367.3,78.9C367.3,78.9,367.3,78.9,367.3,78.9z"/>
	<path class="st4" d="M376.2,58.9L376.2,58.9c1.2,0,2.2,1,2.2,2.2v15.6c0,1.2-1,2.2-2.2,2.2h0c-1.2,0-2.2-1-2.2-2.2V61.1
		C373.9,59.9,374.9,58.9,376.2,58.9z"/>
	<path class="st4" d="M385.1,78.9L385.1,78.9c-1.2,0-2.2-1-2.2-2.2c0,0,0,0,0,0V61.1c0-1.2,1-2.2,2.2-2.2l0,0l0,0
		c1.2,0,2.2,1,2.2,2.2v15.6C387.3,77.9,386.3,78.9,385.1,78.9z"/>
	<path class="st4" d="M394,78.9L394,78.9c-1.2,0-2.2-1-2.2-2.2c0,0,0,0,0,0V61.1c0-1.2,1-2.2,2.2-2.2c0,0,0,0,0,0l0,0
		c1.2,0,2.2,1,2.2,2.2c0,0,0,0,0,0v15.6C396.2,77.9,395.2,78.9,394,78.9C394,78.9,394,78.9,394,78.9z"/>
	<path class="st4" d="M402.8,78.9L402.8,78.9c-1.2,0-2.2-1-2.2-2.2c0,0,0,0,0,0V61.1c0-1.2,1-2.2,2.2-2.2c0,0,0,0,0,0l0,0
		c1.2,0,2.2,1,2.2,2.2c0,0,0,0,0,0v15.6C405.1,77.9,404.1,78.9,402.8,78.9C402.9,78.9,402.8,78.9,402.8,78.9z"/>
	<path class="st4" d="M411.7,78.9L411.7,78.9c-1.2,0-2.2-1-2.2-2.2c0,0,0,0,0,0V61.1c0-1.2,1-2.2,2.2-2.2c0,0,0,0,0,0l0,0
		c1.2,0,2.2,1,2.3,2.2c0,0,0,0,0,0v15.6C414,77.9,413,78.9,411.7,78.9C411.8,78.9,411.7,78.9,411.7,78.9z"/>
	<path class="st4" d="M420.6,78.9L420.6,78.9c-1.2,0-2.2-1-2.2-2.2l0,0V61.1c0-1.2,1-2.2,2.2-2.2l0,0c1.2,0,2.2,1,2.2,2.2
		c0,0,0,0,0,0v15.6C422.9,77.9,421.9,78.9,420.6,78.9C420.6,78.9,420.6,78.9,420.6,78.9z"/>
	<path class="st4" d="M429.5,78.9L429.5,78.9c-1.2,0-2.2-1-2.2-2.2c0,0,0,0,0,0V61.1c0-1.2,1-2.2,2.2-2.2l0,0l0,0
		c1.2,0,2.2,1,2.2,2.2c0,0,0,0,0,0v15.6C431.7,77.9,430.8,78.9,429.5,78.9C429.5,78.9,429.5,78.9,429.5,78.9z"/>
	<path class="st4" d="M438.4,78.9L438.4,78.9c-1.2,0-2.2-1-2.2-2.2c0,0,0,0,0,0V61.1c0-1.2,1-2.2,2.2-2.2c0,0,0,0,0,0l0,0
		c1.2,0,2.2,1,2.2,2.2c0,0,0,0,0,0v15.6C440.6,77.9,439.7,78.9,438.4,78.9C438.4,78.9,438.4,78.9,438.4,78.9z"/>
</g>
<g id="freepik--Money--inject-92">
	<rect x="127.6" y="39.8" class="st4" width="119.5" height="223.7"/>
	<path class="st5" d="M142,63.2c-0.3,0-0.6,0-0.9,0v174.7c0.3,0,0.6,0,0.9,0c4.8,0,8.8,3.8,8.8,8.6c0,0.8-0.1,1.7-0.3,2.5h74.7
		c-1.3-4.6,1.3-9.5,6-10.8c0.8-0.2,1.6-0.3,2.4-0.3V63.2c-4.8,0-8.8-3.9-8.8-8.8h-74C150.8,59.3,146.9,63.2,142,63.2
		C142,63.2,142,63.2,142,63.2z M187.3,119.4c17.8,0,32.3,14.4,32.3,32.3s-14.4,32.3-32.3,32.3s-32.3-14.4-32.3-32.3l0,0
		C155.1,133.9,169.5,119.4,187.3,119.4C187.3,119.4,187.3,119.4,187.3,119.4L187.3,119.4z"/>
	
		<rect x="100.4" y="58.1" transform="matrix(0.9624 -0.2718 0.2718 0.9624 -40.1655 49.9206)" class="st4" width="119.5" height="223.7"/>
	<path class="st5" d="M92.5,97.1c-0.3,0.1-0.6,0.1-0.9,0.2l47.5,168.2c0.3-0.1,0.6-0.2,0.9-0.3c4.6-1.3,9.5,1.4,10.8,6
		c0.2,0.8,0.3,1.6,0.3,2.4l71.9-20.3c-0.4-0.7-0.8-1.4-1-2.2c-1.3-4.7,1.4-9.5,6.1-10.8L180.6,72.2c-4.6,1.3-9.5-1.4-10.8-6
		L98.5,86.3C99.8,90.9,97.1,95.8,92.5,97.1z M151.4,138.9c17.1-4.8,35,5.1,39.8,22.3c4.8,17.1-5.1,35-22.3,39.8
		c-17.1,4.8-35-5.1-39.8-22.3c0,0,0,0,0,0C124.3,161.6,134.2,143.8,151.4,138.9z"/>
	
		<rect x="85.6" y="73.9" transform="matrix(0.8975 -0.441 0.441 0.8975 -67.0279 83.1603)" class="st4" width="119.5" height="223.7"/>
	<path class="st5" d="M65.7,126.3c-0.3,0.1-0.5,0.3-0.8,0.4l77.1,156.8c0.2-0.1,0.5-0.3,0.8-0.4c4.3-2.1,9.6-0.3,11.7,4c0,0,0,0,0,0
		c0.4,0.7,0.6,1.5,0.8,2.3l67-32.9c-0.5-0.6-1-1.3-1.4-2c-2.1-4.3-0.3-9.6,4-11.7L147.8,86c-4.3,2.1-9.6,0.3-11.7-4l-66.4,32.6
		C71.8,118.9,70,124.2,65.7,126.3C65.7,126.3,65.7,126.3,65.7,126.3z M131.1,156.8c16-7.9,35.3-1.3,43.2,14.7s1.3,35.3-14.7,43.2
		c-16,7.9-35.3,1.3-43.2-14.7C108.6,184,115.2,164.7,131.1,156.8C131.1,156.8,131.1,156.8,131.1,156.8z"/>
	
		<rect x="71" y="98.3" transform="matrix(0.7678 -0.6406 0.6406 0.7678 -104.2896 132.54)" class="st4" width="119.5" height="223.7"/>
	<path class="st5" d="M39.2,171.2c-0.2,0.2-0.5,0.4-0.7,0.5l112,134.2c0.2-0.2,0.4-0.4,0.7-0.6c3.7-3.1,9.3-2.6,12.3,1.1
		c0.5,0.6,0.9,1.3,1.3,2l57.4-47.9c-0.7-0.4-1.3-1-1.8-1.6c-3.1-3.7-2.6-9.2,1.1-12.3c0,0,0,0,0,0L109.5,112.6
		c-3.7,3.1-9.2,2.6-12.3-1.1c0,0,0,0,0,0l-56.8,47.4C43.4,162.6,42.9,168.1,39.2,171.2z M110.1,185.4c13.7-11.4,34-9.6,45.4,4.1
		c11.4,13.7,9.6,34-4.1,45.4c-13.7,11.4-34,9.6-45.4-4.1C94.5,217.1,96.4,196.8,110.1,185.4C110.1,185.4,110.1,185.4,110.1,185.4z"
		/>
</g>
<g id="freepik--Calculator--inject-92">
	<path class="st6" d="M102.9,189.6L63,224.4l-6,5.2l-39.9,34.8c-5.5,5.1-5.9,13.7-0.9,19.3l36.2,37.9l92.2,105.8
		c4.2,4.8,11.5,5.3,16.3,1.1l36.9-32.1l10.2-8.9l36.9-32.1c4.8-4.6,5.3-12,1.2-17.2l-92.2-105.8l-32.6-41
		c-4.3-5.5-12.3-6.4-17.9-2.1C103.2,189.4,103,189.5,102.9,189.6z"/>
	<path class="st7" d="M148.1,235.2L117.6,197c-2.7-3.4-7.6-3.9-11-1.2c-0.1,0.1-0.2,0.1-0.3,0.2l-83.6,72.7c-3.2,2.8-3.6,7.7-0.8,11
		c0.1,0.1,0.2,0.2,0.2,0.3l33.8,35.4L148.1,235.2z"/>
	
		<rect x="28.9" y="237.4" transform="matrix(0.7539 -0.657 0.657 0.7539 -147.5013 119.1473)" class="st8" width="112.8" height="38.1"/>
	
		<rect x="34.5" y="242.9" transform="matrix(0.7539 -0.657 0.657 0.7539 -147.4965 119.1459)" class="st9" width="101.7" height="27"/>
	<path class="st10" d="M73.4,320.8l35.4-30.9c2.1-1.8,5.2-1.6,7,0.5l4.4,5.1c1.8,2.1,1.6,5.2-0.5,7l-35.4,30.9
		c-2.1,1.8-5.2,1.6-7-0.5l-4.4-5.1C71.1,325.8,71.4,322.6,73.4,320.8z"/>
	<line class="st11" x1="78.8" y1="316.4" x2="89.7" y2="328.8"/>
	<line class="st11" x1="87.5" y1="308.8" x2="98.3" y2="321.3"/>
	<line class="st11" x1="96.2" y1="301.3" x2="107" y2="313.7"/>
	<line class="st11" x1="104.8" y1="293.7" x2="115.6" y2="306.2"/>
	<path class="st12" d="M133,281l8.3-7.2c1.9-1.7,4.9-1.5,6.5,0.4l0,0l2.5,2.9c1.7,1.9,1.5,4.9-0.4,6.5c0,0,0,0,0,0l-8.3,7.2
		c-1.9,1.7-4.8,1.5-6.5-0.4l-2.5-2.9C130.9,285.6,131.1,282.7,133,281C133,281,133,281,133,281L133,281z"/>
	<path class="st12" d="M91.3,341.4l8.3-7.2c1.9-1.7,4.8-1.5,6.5,0.4l4.1,4.7c1.7,1.9,1.5,4.8-0.4,6.5l-8.3,7.2
		c-1.9,1.7-4.8,1.5-6.5-0.4l-4.1-4.7C89.2,346,89.4,343.1,91.3,341.4z"/>
	<path class="st12" d="M109.3,325.8l8.3-7.2c1.9-1.7,4.9-1.5,6.5,0.4l0,0l4.1,4.7c1.7,1.9,1.5,4.9-0.4,6.5l0,0l-8.3,7.2
		c-1.9,1.7-4.8,1.5-6.5-0.4l-4.1-4.7C107.2,330.4,107.4,327.5,109.3,325.8L109.3,325.8z"/>
	<path class="st12" d="M127.1,310.2l8.3-7.2c1.9-1.7,4.9-1.5,6.5,0.4l0,0l4.1,4.7c1.7,1.9,1.5,4.9-0.4,6.5c0,0,0,0,0,0l-8.3,7.2
		c-1.9,1.7-4.9,1.5-6.5-0.4l0,0l-4.1-4.7C125,314.8,125.2,311.9,127.1,310.2L127.1,310.2z"/>
	<path class="st12" d="M145,294.6l8.3-7.2c1.9-1.7,4.8-1.5,6.5,0.4l4.1,4.7c1.7,1.9,1.5,4.8-0.4,6.5l-8.3,7.2
		c-1.9,1.7-4.9,1.5-6.5-0.4l0,0l-4.1-4.7C142.9,299.2,143.1,296.3,145,294.6C145,294.6,145,294.6,145,294.6L145,294.6z"/>
	<path class="st12" d="M162.9,279l8.3-7.2c1.9-1.7,4.8-1.5,6.5,0.4l4.1,4.7c1.7,1.9,1.5,4.9-0.4,6.5c0,0,0,0,0,0l-8.3,7.2
		c-1.9,1.7-4.8,1.5-6.5-0.4l-4.1-4.7C160.8,283.6,161,280.7,162.9,279C162.9,279,162.9,279,162.9,279z"/>
	<path class="st12" d="M105,357l8.3-7.2c1.9-1.7,4.8-1.5,6.5,0.4l4.1,4.7c1.7,1.9,1.5,4.9-0.4,6.5l0,0l-8.3,7.2
		c-1.9,1.7-4.8,1.5-6.5-0.4l-4.1-4.7C102.8,361.6,103,358.7,105,357L105,357z"/>
	<path class="st10" d="M122.9,341.4l8.3-7.2c1.9-1.7,4.8-1.5,6.5,0.4l4.1,4.7c1.7,1.9,1.5,4.9-0.4,6.5c0,0,0,0,0,0l-8.3,7.2
		c-1.9,1.7-4.8,1.5-6.5-0.4l-4.1-4.7C120.7,346,120.9,343.1,122.9,341.4C122.9,341.4,122.9,341.4,122.9,341.4z"/>
	<path class="st10" d="M140.8,325.8l8.3-7.2c1.9-1.7,4.9-1.5,6.5,0.4l0,0l4.1,4.7c1.7,1.9,1.5,4.8-0.4,6.5l-8.3,7.2
		c-1.9,1.7-4.9,1.5-6.5-0.4l0,0l-4.1-4.7C138.6,330.4,138.8,327.5,140.8,325.8z"/>
	<path class="st10" d="M158.7,310.2l8.3-7.2c1.9-1.7,4.8-1.5,6.5,0.4l4.1,4.7c1.7,1.9,1.5,4.8-0.4,6.5l-8.3,7.2
		c-1.9,1.7-4.8,1.5-6.5-0.4l-4.1-4.7C156.5,314.8,156.7,311.9,158.7,310.2z"/>
	<path class="st12" d="M176.6,294.6l8.3-7.2c1.9-1.7,4.9-1.5,6.5,0.4l4.1,4.7c1.7,1.9,1.5,4.9-0.4,6.5l-8.3,7.2
		c-1.9,1.7-4.9,1.5-6.5-0.4l-4.1-4.7C174.4,299.2,174.6,296.3,176.6,294.6z"/>
	<path class="st12" d="M118.6,372.7l8.3-7.2c1.9-1.7,4.8-1.5,6.5,0.4l4.1,4.7c1.7,1.9,1.5,4.8-0.4,6.5l-8.3,7.2
		c-1.9,1.7-4.9,1.5-6.5-0.4l0,0l-4.1-4.7C116.5,377.3,116.7,374.3,118.6,372.7L118.6,372.7z"/>
	<path class="st10" d="M136.5,357.1l8.3-7.2c1.9-1.7,4.8-1.5,6.5,0.4l4.1,4.7c1.7,1.9,1.5,4.8-0.4,6.5l-8.3,7.2
		c-1.9,1.7-4.9,1.5-6.5-0.4l0,0l-4.1-4.7C134.4,361.7,134.6,358.7,136.5,357.1L136.5,357.1z"/>
	<path class="st10" d="M154.4,341.5l8.3-7.2c1.9-1.7,4.8-1.5,6.5,0.4l4.1,4.7c1.7,1.9,1.5,4.8-0.4,6.5l-8.3,7.2
		c-1.9,1.7-4.9,1.5-6.5-0.4l0,0l-4.1-4.7C152.3,346.1,152.5,343.1,154.4,341.5C154.4,341.5,154.4,341.5,154.4,341.5L154.4,341.5z"/>
	<path class="st10" d="M172.3,325.9l8.3-7.2c1.9-1.7,4.9-1.5,6.5,0.4l0,0l4.1,4.7c1.7,1.9,1.5,4.9-0.4,6.5c0,0,0,0,0,0l-8.3,7.2
		c-1.9,1.7-4.8,1.5-6.5-0.4l-4.1-4.7C170.2,330.5,170.3,327.6,172.3,325.9C172.3,325.9,172.3,325.9,172.3,325.9z"/>
	<path class="st12" d="M190.2,310.3l8.3-7.2c1.9-1.7,4.8-1.5,6.5,0.4l4.1,4.7c1.7,1.9,1.5,4.9-0.4,6.5c0,0,0,0,0,0l-8.3,7.2
		c-1.9,1.7-4.9,1.5-6.5-0.4l0,0l-4.1-4.7C188,314.9,188.2,312,190.2,310.3L190.2,310.3z"/>
	<path class="st5" d="M132.3,388.3l8.3-7.2c1.9-1.7,4.8-1.5,6.5,0.4l4.1,4.7c1.7,1.9,1.5,4.9-0.4,6.5c0,0,0,0,0,0l-8.3,7.2
		c-1.9,1.7-4.9,1.5-6.5-0.4l0,0l-4.1-4.7C130.1,392.9,130.3,390,132.3,388.3C132.3,388.3,132.3,388.3,132.3,388.3z"/>
	<path class="st10" d="M150.1,372.7l8.3-7.2c1.9-1.7,4.9-1.5,6.5,0.4l0,0l4.1,4.7c1.7,1.9,1.5,4.9-0.4,6.5c0,0,0,0,0,0l-8.3,7.2
		c-1.9,1.7-4.8,1.5-6.5-0.4l-4.1-4.7C148,377.3,148.2,374.4,150.1,372.7C150.1,372.7,150.1,372.7,150.1,372.7z"/>
	<path class="st13" d="M168.4,355.2l8.2-7.3c1.9-1.7,4.8-1.5,6.5,0.4l4.1,4.6c1.7,1.9,1.5,4.8-0.4,6.5l-8.2,7.3
		c-1.9,1.7-4.8,1.5-6.5-0.4l-4.1-4.6C166.3,359.8,166.5,356.9,168.4,355.2z"/>
	<path class="st10" d="M185.9,341.5l8.3-7.2c1.9-1.7,4.8-1.5,6.5,0.4l4.1,4.7c1.7,1.9,1.5,4.8-0.4,6.5l-8.3,7.2
		c-1.9,1.7-4.8,1.5-6.5-0.4l-4.1-4.7C183.8,346.1,184,343.2,185.9,341.5z"/>
	<path class="st5" d="M145.9,404l8.3-7.2c1.9-1.7,4.8-1.5,6.5,0.4l4.1,4.7c1.7,1.9,1.5,4.8-0.4,6.5l-8.3,7.2
		c-1.9,1.7-4.9,1.5-6.5-0.4l0,0l-4.1-4.7C143.7,408.5,143.9,405.6,145.9,404C145.8,403.9,145.8,403.9,145.9,404L145.9,404z"/>
	<path class="st10" d="M163.8,388.4l8.3-7.2c1.9-1.7,4.9-1.5,6.5,0.4l0,0l4.1,4.7c1.7,1.9,1.5,4.9-0.4,6.5c0,0,0,0,0,0l-8.3,7.2
		c-1.9,1.7-4.9,1.5-6.5-0.4l0,0l-4.1-4.7C161.6,393,161.8,390,163.8,388.4C163.7,388.4,163.8,388.4,163.8,388.4z"/>
	<path class="st10" d="M181.7,372.8l8.3-7.2c1.9-1.7,4.9-1.5,6.5,0.4l0,0l4,4.6c1.7,1.9,1.5,4.9-0.4,6.5c0,0,0,0,0,0l-8.3,7.2
		c-1.9,1.7-4.9,1.5-6.5-0.4l0,0l-4.1-4.7C179.5,377.3,179.7,374.4,181.7,372.8z"/>
	<path class="st12" d="M199.6,357.2l8.3-7.2c1.9-1.7,4.8-1.5,6.5,0.4l4.1,4.7c1.7,1.9,1.5,4.9-0.4,6.5c0,0,0,0,0,0l-8.3,7.2
		c-1.9,1.7-4.8,1.5-6.5-0.4l-4.1-4.7C197.4,361.8,197.6,358.9,199.6,357.2L199.6,357.2z"/>
	<path class="st12" d="M213.3,317.7l-10.6,9.3c-1.3,1.1-1.4,3.1-0.3,4.3l2.8,3.3l3.3,3.8l13.6,15.6c1.1,1.3,3.1,1.4,4.3,0.3
		l10.6-9.3c1.3-1.1,1.4-3.1,0.3-4.3L223.7,325l-3.3-3.8l-2.8-3.2C216.5,316.7,214.6,316.6,213.3,317.7
		C213.3,317.7,213.3,317.7,213.3,317.7z"/>
	<path class="st5" d="M151,265.4l8.3-7.2c1.9-1.7,4.9-1.5,6.5,0.4l0,0l2.5,2.9c1.7,1.9,1.5,4.8-0.4,6.5l-8.3,7.2
		c-1.9,1.7-4.8,1.5-6.5-0.4l-2.5-2.9C148.9,270,149.1,267,151,265.4z"/>
	<path class="st14" d="M156.9,273.2c-2-0.4-3.5-2.1-3.6-4.1c0-1,0.5-1.9,1.2-2.5c0.7-0.7,1.6-1,2.6-0.9c2,0.4,3.5,2.1,3.6,4.2
		C160.6,271.8,158.9,273.3,156.9,273.2L156.9,273.2z M159.8,269.9c-0.2-1.5-1.3-2.8-2.8-3.3c-1.3-0.2-2.5,0.8-2.6,2
		c0,0.1,0,0.2,0,0.3c0.1,0.8,0.4,1.5,0.9,2c0.5,0.6,1.1,1,1.9,1.2c0.7,0.1,1.4-0.1,1.8-0.6C159.5,271.2,159.8,270.6,159.8,269.9
		L159.8,269.9z"/>
	<path class="st14" d="M163.2,268.7c-0.1,0-0.3-0.1-0.3-0.2l-4.1-4.7c-0.1-0.1-0.2-0.3-0.2-0.5c0-0.2,0.1-0.3,0.2-0.4
		c0.1-0.1,0.2-0.1,0.4-0.2c0.1,0,0.3,0,0.4,0l6.4,1.7l-3.5-4.1c-0.1-0.1-0.1-0.2-0.1-0.3c0-0.1,0.1-0.2,0.2-0.3
		c0.1-0.1,0.2-0.1,0.3-0.1c0.1,0,0.3,0.1,0.3,0.2l4.1,4.7c0.1,0.1,0.2,0.3,0.2,0.5c0,0.2-0.1,0.3-0.2,0.4c-0.1,0.1-0.2,0.1-0.3,0.2
		c-0.1,0-0.3,0-0.4,0l-6.4-1.6l3.5,4c0.1,0.1,0.1,0.2,0.1,0.4c0,0.1-0.1,0.2-0.2,0.3C163.5,268.7,163.4,268.7,163.2,268.7z"/>
	<path class="st14" d="M100.5,349.3c-0.1,0-0.3,0-0.4-0.1l-5.3-2.5l3.7,4.2c0.1,0.1,0.1,0.2,0.1,0.3c0,0.1-0.1,0.2-0.2,0.3
		c-0.1,0.1-0.2,0.1-0.3,0.1c-0.1,0-0.2,0-0.3-0.1l-4-4.6c-0.1-0.1-0.2-0.3-0.2-0.5c0-0.2,0.1-0.4,0.3-0.5c0.1-0.1,0.3-0.2,0.5-0.2
		c0.2,0,0.4,0,0.6,0.1l5.2,2.4l-1.6-5.4c-0.1-0.3,0-0.7,0.2-1c0.2-0.1,0.3-0.2,0.6-0.2c0.2,0,0.4,0.1,0.5,0.2l4,4.6
		c0.1,0.1,0.1,0.2,0.1,0.3c0,0.1-0.1,0.2-0.2,0.3c-0.1,0.1-0.2,0.1-0.3,0.1c-0.1,0-0.2,0-0.3-0.1l-3.7-4.2l1.7,5.6
		c0,0.1,0,0.3,0,0.4c0,0.1-0.1,0.2-0.2,0.3C100.7,349.2,100.6,349.2,100.5,349.3z"/>
	<path class="st14" d="M106,344.3c-0.6,0.1-1.2,0-1.8-0.2c-0.6-0.3-1.1-0.7-1.6-1.2c-0.3-0.4-0.6-0.8-0.8-1.3
		c-0.2-0.4-0.3-0.9-0.3-1.4c0-0.5,0.1-0.9,0.3-1.3c0.2-0.5,0.5-0.9,0.9-1.2c0.5-0.4,1.1-0.7,1.7-0.9c0.1,0,0.3,0,0.4,0.1
		c0.1,0.1,0.1,0.2,0.1,0.3c0,0.1,0,0.2-0.1,0.3c0,0-0.1,0.1-0.2,0.1h-0.1l-0.2,0.1l-0.2,0.1l-0.2,0.1l-0.3,0.2l-0.3,0.2
		c-0.2,0.2-0.4,0.4-0.6,0.7c-0.1,0.2-0.2,0.5-0.2,0.8c0,0.3,0,0.5,0.1,0.8c0.1,0.3,0.2,0.6,0.3,0.8c0.2,0.3,0.3,0.5,0.5,0.8
		c0.2,0.2,0.4,0.4,0.7,0.6c0.2,0.2,0.5,0.3,0.7,0.4c0.2,0.1,0.5,0.2,0.8,0.2c0.3,0,0.5,0,0.8-0.1c0.3-0.1,0.6-0.3,0.8-0.5
		c0.2-0.2,0.4-0.4,0.5-0.6c0.1-0.2,0.2-0.5,0.3-0.8c0-0.1,0.1-0.1,0.1-0.2c0.2-0.1,0.4-0.1,0.5,0c0,0,0,0,0,0
		c0.1,0.1,0.1,0.3,0.1,0.5c-0.2,0.7-0.6,1.3-1.2,1.8C107.2,343.9,106.6,344.2,106,344.3z"/>
	<path class="st14" d="M155.2,408.7l-2.7,2.3l0.6,1.6c0.1,0.2,0,0.4-0.1,0.6c-0.1,0.1-0.2,0.1-0.4,0.1c-0.1,0-0.2,0-0.3-0.1
		c0-0.1-0.1-0.1-0.1-0.2l-2.1-6.2c-0.1-0.2-0.1-0.4-0.1-0.7c0-0.2,0.1-0.3,0.3-0.4c0.1-0.1,0.3-0.2,0.5-0.2c0.2,0,0.5,0.1,0.7,0.2
		l5.8,3c0.1,0,0.1,0.1,0.2,0.1c0.1,0.1,0.1,0.2,0.1,0.4c0,0.1-0.1,0.2-0.2,0.3c-0.2,0.1-0.4,0.2-0.6,0.1L155.2,408.7z M150.9,406.5
		l1.4,3.8l2.2-1.9L150.9,406.5z"/>
	<path class="st14" d="M159.3,407.2c-0.6,0.1-1.2,0-1.8-0.2c-0.6-0.3-1.1-0.7-1.5-1.2c-0.3-0.4-0.6-0.8-0.8-1.3
		c-0.2-0.4-0.3-0.9-0.3-1.4c0-0.5,0.1-0.9,0.3-1.3c0.2-0.5,0.5-0.9,0.9-1.2c0.5-0.4,1.1-0.7,1.7-0.9c0.1,0,0.3,0,0.4,0.1
		c0.1,0.1,0.1,0.2,0.1,0.3c0,0.1-0.1,0.2-0.1,0.3c0,0-0.1,0.1-0.1,0.1h-0.1l-0.2,0l-0.2,0.1l-0.2,0.1c-0.1,0.1-0.2,0.1-0.3,0.2
		l-0.3,0.2c-0.2,0.2-0.4,0.4-0.6,0.7c-0.1,0.2-0.2,0.5-0.2,0.8c0,0.3,0,0.5,0.1,0.8c0.1,0.3,0.2,0.5,0.3,0.8
		c0.2,0.3,0.3,0.5,0.5,0.8c0.2,0.2,0.4,0.4,0.7,0.6c0.2,0.2,0.5,0.3,0.7,0.4c0.2,0.1,0.5,0.2,0.8,0.2c0.3,0,0.5,0,0.8-0.1
		c0.3-0.1,0.6-0.3,0.8-0.5c0.2-0.2,0.4-0.4,0.5-0.6c0.1-0.2,0.2-0.5,0.3-0.8c0-0.1,0.1-0.1,0.1-0.2c0.1-0.1,0.2-0.1,0.3-0.1
		c0.1,0,0.2,0.1,0.3,0.1c0.1,0.1,0.1,0.3,0.1,0.5c-0.2,0.7-0.6,1.3-1.2,1.8C160.5,406.8,159.9,407.1,159.3,407.2z"/>
	<path class="st14" d="M142.5,394c-0.6,0.1-1.2,0-1.8-0.2c-0.6-0.3-1.1-0.7-1.5-1.2c-0.3-0.4-0.6-0.8-0.8-1.3
		c-0.2-0.4-0.3-0.9-0.3-1.4c0-0.5,0.1-0.9,0.3-1.3c0.2-0.5,0.5-0.9,0.9-1.2c0.5-0.4,1.1-0.7,1.7-0.9c0.1,0,0.3,0,0.4,0.1
		c0.1,0.1,0.1,0.2,0.1,0.3c0,0.1,0,0.2-0.1,0.3c0,0-0.1,0.1-0.2,0.1h-0.1c-0.1,0-0.1,0-0.2,0l-0.2,0.1l-0.3,0.1l-0.3,0.2
		c-0.1,0.1-0.2,0.2-0.3,0.2c-0.2,0.2-0.4,0.4-0.6,0.7c-0.1,0.2-0.2,0.5-0.2,0.8c0,0.3,0,0.5,0.1,0.8c0.1,0.3,0.2,0.5,0.3,0.8
		c0.2,0.3,0.3,0.5,0.5,0.8c0.2,0.2,0.4,0.4,0.7,0.6c0.2,0.2,0.5,0.3,0.7,0.4c0.2,0.1,0.5,0.2,0.8,0.2c0.3,0,0.5,0,0.8-0.1
		c0.3-0.1,0.6-0.3,0.8-0.5c0.2-0.2,0.4-0.4,0.5-0.6c0.1-0.2,0.2-0.5,0.3-0.8c0-0.1,0.1-0.1,0.1-0.2c0.1-0.1,0.2-0.1,0.3-0.1
		c0.1,0,0.2,0.1,0.3,0.1c0.1,0.1,0.1,0.3,0.1,0.5c-0.2,0.7-0.6,1.3-1.2,1.8C143.7,393.6,143.1,393.9,142.5,394z"/>
	<path class="st14" d="M111.2,362.2c-1-0.2-1.8-1.1-1.9-2.2c0-0.5,0.2-1,0.6-1.3c0.2-0.2,0.4-0.3,0.7-0.4c0.2-0.1,0.5-0.1,0.7,0
		c0.2,0.1,0.4,0.2,0.7,0.3c0.2,0.1,0.4,0.3,0.6,0.5c0.4,0.4,0.6,0.9,0.6,1.4c0,0.5-0.2,1-0.6,1.3
		C112.2,362.1,111.7,362.3,111.2,362.2z M112.5,360.8c0-0.2,0-0.4-0.1-0.6c-0.1-0.2-0.2-0.4-0.4-0.6c-0.1-0.2-0.3-0.3-0.5-0.5
		c-0.2-0.1-0.4-0.2-0.6-0.2c-0.2,0-0.4,0.1-0.6,0.2c-0.2,0.1-0.3,0.3-0.3,0.5c0,0.2,0,0.4,0.1,0.6c0.1,0.2,0.2,0.4,0.4,0.6
		c0.2,0.2,0.3,0.3,0.5,0.5c0.2,0.1,0.4,0.2,0.6,0.2C112.1,361.5,112.4,361.2,112.5,360.8z M114.9,364.4c-0.1,0-0.2,0-0.2-0.1
		c0-0.1-0.1-0.1-0.1-0.2l-1.6-8c0-0.1,0-0.3,0.1-0.4c0.1,0,0.1-0.1,0.2-0.1c0.1,0,0.1,0,0.2,0.1c0,0.1,0.1,0.1,0.1,0.2l1.6,8
		c0,0.1,0,0.2-0.1,0.3C115.1,364.3,115,364.4,114.9,364.4z M117.2,361.5c-0.5-0.1-1-0.4-1.3-0.8c-0.4-0.4-0.6-0.9-0.6-1.4
		c0-0.5,0.2-1,0.6-1.3c0.2-0.2,0.4-0.3,0.7-0.4c0.2-0.1,0.5-0.1,0.7,0c0.2,0.1,0.5,0.2,0.7,0.3c0.2,0.1,0.4,0.3,0.6,0.5
		c0.2,0.3,0.4,0.6,0.5,0.9c0.1,0.3,0.1,0.6,0,0.9c-0.1,0.3-0.3,0.6-0.5,0.8C118.2,361.4,117.7,361.6,117.2,361.5z M118.4,360.1
		c0-0.2,0-0.4-0.1-0.6c-0.1-0.2-0.2-0.4-0.4-0.6c-0.1-0.1-0.3-0.3-0.4-0.4c-0.1-0.1-0.3-0.2-0.4-0.2c-0.1,0-0.3,0-0.4,0
		c-0.2,0-0.3,0.1-0.4,0.2c-0.2,0.1-0.3,0.3-0.3,0.5c0,0.2,0,0.4,0.1,0.6c0.1,0.2,0.2,0.4,0.4,0.6c0.2,0.2,0.3,0.3,0.5,0.5
		c0.2,0.1,0.4,0.2,0.6,0.2c0.2,0,0.4-0.1,0.6-0.2C118.3,360.5,118.4,360.3,118.4,360.1L118.4,360.1z"/>
	<path class="st14" d="M134,347.2c-0.1,0-0.3,0-0.4-0.1c0-0.1-0.1-0.1-0.1-0.2l-1.9-6l-2.6,2.2c-0.1,0.1-0.2,0.1-0.3,0.1
		c-0.1,0-0.2-0.1-0.3-0.1c-0.1-0.1-0.1-0.2-0.1-0.3c0-0.1,0.1-0.2,0.1-0.3l3-2.6c0.1-0.1,0.3-0.2,0.4-0.2c0.1,0,0.3,0.1,0.3,0.2
		c0.1,0.1,0.2,0.2,0.2,0.4l2,6.3c0.1,0.2,0,0.4-0.1,0.5C134.3,347.2,134.1,347.2,134,347.2z"/>
	<path class="st14" d="M151.8,331.7c-0.4,0.1-0.8,0.1-1.1,0.1c-0.4-0.1-0.7-0.3-1-0.6c-0.3-0.3-0.5-0.7-0.5-1.1
		c0-0.4,0.1-0.9,0.4-1.2c-0.3,0.2-0.8,0.3-1.2,0.2c-0.4-0.1-0.7-0.3-1-0.6c-0.3-0.3-0.4-0.6-0.5-1c0-0.4,0-0.7,0.2-1.1
		c0.2-0.4,0.5-0.7,0.8-1c0.2-0.2,0.5-0.4,0.8-0.5c0.3-0.1,0.5-0.2,0.8-0.2c0.3,0,0.5,0,0.8,0.1c0.3,0.1,0.5,0.3,0.7,0.5
		c0.3,0.3,0.4,0.6,0.4,1c0,0.4-0.1,0.8-0.4,1.1c0.4-0.2,0.8-0.3,1.2-0.2c0.4,0.1,0.8,0.3,1.1,0.6c0.3,0.3,0.4,0.7,0.5,1.1
		c0,0.4,0,0.8-0.2,1.1c-0.2,0.4-0.5,0.7-0.8,1C152.5,331.3,152.2,331.6,151.8,331.7z M153,329.5c0.1-0.4-0.1-0.7-0.3-1
		c-0.2-0.3-0.6-0.5-1-0.5c-0.8,0-1.5,0.6-1.6,1.4c-0.1,0.4,0.1,0.8,0.4,1.1c0.2,0.2,0.4,0.3,0.6,0.4c0.2,0.1,0.5,0.1,0.7,0
		c0.2-0.1,0.5-0.2,0.7-0.4C152.7,330.3,152.9,329.9,153,329.5L153,329.5z M150.6,326.8c0-0.3-0.1-0.7-0.3-0.9
		c-0.2-0.3-0.5-0.4-0.9-0.4c-0.4,0-0.7,0.2-1,0.5c-0.1,0.1-0.3,0.3-0.4,0.4c-0.1,0.1-0.2,0.3-0.2,0.5c0,0.2,0,0.3,0,0.5
		c0.1,0.2,0.1,0.4,0.3,0.5c0.2,0.3,0.5,0.4,0.9,0.4c0.4,0,0.7-0.2,1-0.5C150.3,327.5,150.5,327.2,150.6,326.8L150.6,326.8z"/>
	<path class="st14" d="M168.6,316.9c-0.1,0-0.3,0-0.4-0.1c-0.1-0.1-0.1-0.2-0.1-0.3c0-0.1,0-0.2,0.1-0.3l0.1-0.1
		c0.4-0.1,0.8-0.3,1.2-0.6c0.2-0.1,0.3-0.3,0.4-0.5c0.1-0.1,0.2-0.3,0.2-0.5c0-0.2,0-0.3,0-0.5c0-0.2-0.1-0.3-0.1-0.5
		c-0.1-0.2-0.2-0.4-0.3-0.5c-0.1-0.2-0.2-0.4-0.4-0.5s-0.3-0.3-0.5-0.5c0.1,0.3,0.1,0.7,0,1c-0.1,0.4-0.3,0.7-0.7,1
		c-0.5,0.4-1.1,0.7-1.7,0.6c-0.6-0.1-1.2-0.4-1.6-0.9c-0.4-0.5-0.7-1.1-0.6-1.8c0.1-0.7,0.4-1.3,0.9-1.7c0.3-0.3,0.6-0.4,0.9-0.6
		c0.3-0.1,0.6-0.2,0.9-0.1c0.3,0,0.6,0.1,0.9,0.2c0.3,0.1,0.6,0.3,0.8,0.5c0.3,0.2,0.5,0.5,0.7,0.7c0.2,0.2,0.4,0.4,0.5,0.6
		c0.2,0.2,0.3,0.5,0.5,0.7c0.1,0.2,0.3,0.5,0.4,0.7c0.1,0.2,0.2,0.5,0.2,0.8c0,0.3,0,0.5,0,0.8c-0.1,0.3-0.2,0.5-0.3,0.8
		c-0.2,0.3-0.4,0.5-0.6,0.8C169.6,316.5,169.1,316.8,168.6,316.9z M168.5,312.2c0-0.5-0.2-0.9-0.5-1.2c-0.3-0.3-0.6-0.5-1-0.6
		c-0.4-0.1-0.8,0.1-1.1,0.4c-0.3,0.3-0.5,0.6-0.6,1.1c0,0.4,0.2,0.8,0.5,1.1c0.3,0.3,0.6,0.5,1,0.6c0.4,0.1,0.8-0.1,1.1-0.4
		C168.2,313,168.4,312.6,168.5,312.2z"/>
	<path class="st14" d="M148.9,361.1c-0.1,0-0.3-0.1-0.3-0.2l-0.7-0.9l-2.2,1.9c-0.1,0.1-0.2,0.1-0.4,0.1c-0.1,0-0.3-0.1-0.4-0.2
		c-0.1-0.1-0.1-0.2-0.1-0.3l-0.8-5.2c-0.1-0.3,0.1-0.7,0.3-0.9c0.1-0.1,0.3-0.2,0.5-0.2c0.2,0,0.4,0.1,0.5,0.3l2.8,3.2l0.6-0.5
		c0.1-0.1,0.2-0.1,0.3-0.1c0.1,0,0.2,0.1,0.2,0.1c0.1,0.1,0.1,0.2,0.1,0.3c0,0.1-0.1,0.2-0.1,0.3l-0.6,0.5l0.7,0.9
		c0.1,0.1,0.1,0.2,0.1,0.4c0,0.1-0.1,0.2-0.2,0.3C149.1,361.1,149,361.1,148.9,361.1z M147.3,359.6l-2.6-3l0.7,4.6L147.3,359.6z"/>
	<path class="st14" d="M165.2,346.9c-0.4,0.1-0.8,0.2-1.1,0.2c-0.1,0-0.2,0-0.2-0.1c-0.1-0.1-0.1-0.2-0.1-0.3c0-0.1,0-0.2,0.1-0.3
		c0,0,0.1-0.1,0.2-0.1c0.6,0,1.2-0.2,1.6-0.6c0.3-0.3,0.6-0.6,0.6-1.1c0-0.8-0.7-1.5-1.5-1.7c-0.4,0-0.7,0.1-1,0.4
		c-0.2,0.2-0.4,0.4-0.5,0.7c-0.1,0.2-0.2,0.5-0.2,0.8c0,0.1,0,0.1-0.1,0.2c-0.1,0.1-0.2,0.2-0.4,0.2c-0.1,0-0.2,0-0.3-0.1l-2.2-2.5
		c-0.2-0.2-0.2-0.4,0-0.6c0,0,0.1-0.1,0.1-0.1l2.5-2.2c0.1-0.1,0.2-0.1,0.3-0.1c0.1,0,0.2,0.1,0.3,0.1c0.1,0.1,0.1,0.2,0.1,0.3
		c0,0.1-0.1,0.2-0.1,0.3l-2.3,2l1.6,1.9V344c0-0.1,0-0.2,0-0.2c0-0.1,0.1-0.2,0.1-0.3c0.1-0.2,0.2-0.3,0.3-0.4
		c0.1-0.2,0.3-0.3,0.4-0.4c0.4-0.4,1-0.6,1.6-0.6c0.6,0.1,1.2,0.4,1.6,0.9c0.4,0.5,0.7,1.1,0.6,1.8c-0.1,0.7-0.4,1.3-0.9,1.7
		C166,346.6,165.6,346.8,165.2,346.9z"/>
	<path class="st14" d="M182.8,331.6c-0.3,0.1-0.6,0.2-0.9,0.1c-0.3,0-0.6-0.1-0.9-0.2c-0.3-0.1-0.6-0.3-0.8-0.5
		c-0.3-0.2-0.5-0.5-0.7-0.7c-0.2-0.2-0.4-0.4-0.5-0.6c-0.2-0.2-0.3-0.5-0.5-0.7c-0.1-0.2-0.3-0.5-0.4-0.7c-0.1-0.2-0.2-0.5-0.2-0.8
		c0-0.3,0-0.5,0-0.8c0.1-0.3,0.2-0.5,0.3-0.8c0.2-0.3,0.4-0.5,0.7-0.8c0.4-0.4,0.9-0.6,1.4-0.8c0.1,0,0.3,0,0.4,0.1
		c0.1,0.1,0.1,0.2,0.1,0.3c0,0.1,0,0.2-0.1,0.3c0,0-0.1,0.1-0.1,0.1c-0.4,0.1-0.8,0.3-1.2,0.6c-0.2,0.1-0.3,0.3-0.4,0.5
		c-0.1,0.1-0.2,0.3-0.2,0.5c0,0.2,0,0.3,0,0.5c0,0.2,0.1,0.3,0.1,0.5c0.1,0.2,0.2,0.4,0.3,0.5c0.1,0.2,0.2,0.4,0.4,0.5
		c0.1,0.2,0.3,0.4,0.5,0.5c-0.1-0.3-0.1-0.7,0-1c0.1-0.4,0.4-0.7,0.7-1c0.5-0.4,1.1-0.7,1.7-0.6c0.6,0.1,1.2,0.4,1.6,0.9
		c0.9,0.9,0.8,2.4-0.1,3.3c-0.1,0.1-0.1,0.1-0.2,0.2C183.5,331.3,183.2,331.5,182.8,331.6z M180.5,329.1c0,0.4,0.2,0.9,0.5,1.2
		c0.2,0.3,0.6,0.5,1,0.6c0.4,0.1,0.8-0.1,1.1-0.4c0.3-0.3,0.5-0.6,0.6-1.1c0-0.4-0.2-0.8-0.5-1.1c-0.3-0.3-0.6-0.5-1-0.6
		c-0.4-0.1-0.8,0.1-1.1,0.4C180.8,328.3,180.6,328.7,180.5,329.1L180.5,329.1z"/>
	<path class="st14" d="M162.1,377.8c-0.1,0-0.3-0.1-0.4-0.2l-3.8-4.4l-0.4,1.3c0,0.1-0.1,0.1-0.1,0.2c-0.1,0.1-0.2,0.1-0.3,0.1
		c-0.2,0-0.4-0.2-0.3-0.4c0,0,0-0.1,0-0.1l0.6-2c0-0.1,0.1-0.2,0.2-0.2c0.1-0.1,0.2-0.1,0.3-0.1c0.1,0,0.3,0.1,0.4,0.2l4.2,4.8
		c0.1,0.1,0.2,0.2,0.1,0.4c0,0.1-0.1,0.2-0.2,0.3C162.4,377.7,162.2,377.8,162.1,377.8z"/>
	<path class="st14" d="M178.9,357.8c0.1,0.5,0.1,1,0,1.5l-0.3,3.3l2.3-2c0.1-0.2,0.4-0.2,0.5,0c0,0,0,0,0,0c0.1,0.1,0.1,0.2,0.1,0.3
		c0,0.1-0.1,0.2-0.1,0.3l-2.7,2.3c-0.1,0.1-0.3,0.2-0.5,0.2c-0.1,0-0.3,0-0.4-0.2c-0.1-0.1-0.2-0.3-0.1-0.5l0.2-3.8c0-0.3,0-0.7,0-1
		c-0.1-0.2-0.2-0.5-0.3-0.7c-0.2-0.3-0.6-0.5-0.9-0.5c-0.4,0-0.7,0.1-1,0.4c-0.2,0.1-0.3,0.3-0.4,0.5c-0.1,0.1-0.2,0.2-0.2,0.4
		c-0.1,0.1-0.1,0.2-0.1,0.4c-0.1,0.2-0.1,0.3-0.1,0.3c0,0,0,0.1-0.1,0.1c-0.2,0.1-0.4,0.1-0.6,0c-0.1-0.1-0.1-0.2-0.1-0.4
		c0.1-0.3,0.2-0.7,0.4-1c0.2-0.3,0.5-0.6,0.8-0.9c0.4-0.4,1-0.6,1.6-0.6c0.6,0,1.1,0.3,1.4,0.7C178.6,357,178.8,357.4,178.9,357.8z"
		/>
	<path class="st14" d="M196,348.1c-0.2,0.1-0.3,0-0.5-0.1c-0.1-0.1-0.1-0.2-0.1-0.3c0-0.1,0-0.2,0.1-0.3l0.1-0.1
		c0.5-0.1,0.9-0.4,1.3-0.7c0.3-0.3,0.5-0.6,0.6-1c0.1-0.4,0-0.7-0.3-1c-0.3-0.3-0.7-0.5-1.1-0.5c-0.4,0-0.9,0.2-1.2,0.5l-0.3,0.2
		c-0.1,0.1-0.2,0.1-0.3,0.1c-0.1,0-0.2-0.1-0.2-0.1c-0.1-0.1-0.1-0.2-0.1-0.3c0-0.1,0-0.2,0.1-0.3l0.3-0.2c0.3-0.3,0.5-0.6,0.6-1
		c0.1-0.4,0-0.7-0.3-1c-0.2-0.3-0.5-0.4-0.9-0.4c-0.3,0-0.7,0.2-0.9,0.4c-0.4,0.3-0.7,0.8-0.9,1.2c0,0,0,0.1-0.1,0.1
		c-0.1,0.1-0.2,0.1-0.3,0.1c-0.1,0-0.2-0.1-0.3-0.2c-0.1-0.1-0.1-0.2-0.1-0.3c0.1-0.3,0.2-0.5,0.4-0.7c0.2-0.3,0.4-0.6,0.7-0.8
		c0.3-0.3,0.6-0.5,1-0.6c0.3-0.1,0.7-0.2,1.1-0.1c0.4,0.1,0.7,0.3,1,0.6c0.3,0.3,0.4,0.6,0.4,1c0,0.4-0.1,0.7-0.3,1
		c0.4-0.2,0.8-0.3,1.2-0.2c0.4,0.1,0.8,0.3,1.1,0.7c0.2,0.2,0.4,0.5,0.4,0.8c0.1,0.3,0.1,0.6,0,0.9c-0.1,0.3-0.2,0.5-0.4,0.8
		c-0.2,0.3-0.4,0.5-0.6,0.7C197.1,347.6,196.6,347.9,196,348.1z"/>
	<path class="st14" d="M174.5,393.5c-0.3,0.1-0.6,0.1-0.9,0.1c-0.3-0.1-0.6-0.2-0.9-0.3c-0.3-0.2-0.6-0.4-0.9-0.6
		c-0.3-0.3-0.6-0.5-0.8-0.8c-1.7-1.9-1.8-3.4-0.5-4.5c1.3-1.1,2.8-0.7,4.4,1.2c0.3,0.3,0.5,0.6,0.7,0.9c0.2,0.3,0.4,0.6,0.5,0.9
		c0.1,0.3,0.2,0.6,0.2,0.9c0,0.3-0.1,0.6-0.2,0.9C175.7,392.8,175.2,393.3,174.5,393.5L174.5,393.5z M175.2,392
		c0.1-0.1,0.1-0.3,0.1-0.5c0-0.2,0-0.3-0.1-0.5c0-0.2-0.1-0.3-0.2-0.5c-0.1-0.2-0.2-0.3-0.3-0.5c-0.1-0.2-0.2-0.3-0.3-0.5l-0.4-0.4
		l-0.4-0.4l-0.4-0.4c-0.1-0.1-0.3-0.2-0.4-0.4c-0.1-0.1-0.3-0.2-0.5-0.2c-0.1-0.1-0.3-0.1-0.5-0.1c-0.2,0-0.3,0-0.5,0.1
		c-0.2,0.1-0.3,0.1-0.4,0.3c-0.1,0.1-0.2,0.2-0.3,0.4c-0.1,0.1-0.1,0.3-0.1,0.4c0,0.2,0,0.3,0.1,0.5c0,0.2,0.1,0.3,0.2,0.5
		c0.1,0.2,0.2,0.3,0.3,0.5c0.1,0.2,0.2,0.3,0.3,0.5l0.4,0.5l0.4,0.4l0.4,0.4c0.1,0.1,0.3,0.2,0.4,0.4c0.1,0.1,0.3,0.2,0.4,0.2
		c0.1,0.1,0.3,0.1,0.5,0.1c0.2,0,0.3,0,0.5-0.1c0.2-0.1,0.3-0.1,0.4-0.3C175,392.3,175.1,392.2,175.2,392L175.2,392z"/>
	<path class="st14" d="M190.9,376.1c-0.3,0-0.6-0.2-0.8-0.4c-0.2-0.2-0.3-0.5-0.3-0.9c0-0.4,0.2-0.7,0.5-0.9
		c0.2-0.2,0.6-0.4,0.9-0.4c0.6,0,1.1,0.6,1.1,1.2c0,0,0,0,0,0c0,0.3-0.2,0.7-0.5,0.9C191.6,376,191.2,376.1,190.9,376.1z"/>
	<path class="st14" d="M170.1,279.9c-0.3,0-0.6-0.2-0.8-0.4c-0.2-0.2-0.3-0.5-0.3-0.8c0-0.3,0.2-0.7,0.5-0.9
		c0.2-0.2,0.6-0.3,0.9-0.3c0.6,0,1.1,0.6,1.1,1.2c0,0,0,0,0,0.1c0,0.3-0.2,0.6-0.5,0.9C170.7,279.8,170.4,279.9,170.1,279.9z"/>
	<path class="st14" d="M174.6,285.1c-0.3,0-0.6-0.2-0.8-0.4c-0.2-0.2-0.3-0.5-0.3-0.8c0-0.3,0.2-0.6,0.5-0.8
		c0.2-0.2,0.6-0.4,0.9-0.3c0.3,0,0.6,0.1,0.8,0.4c0.2,0.2,0.3,0.5,0.3,0.9C175.9,284.6,175.3,285.1,174.6,285.1L174.6,285.1z"/>
	<path class="st14" d="M205.4,361.5c-0.2,0-0.3-0.1-0.4-0.2c-0.1-0.1-0.2-0.3-0.1-0.5c0-0.2,0.1-0.3,0.2-0.4l5.5-4.8
		c0.1-0.1,0.3-0.2,0.5-0.2c0.2,0,0.3,0.1,0.4,0.2c0.1,0.1,0.2,0.3,0.1,0.5c0,0.2-0.1,0.3-0.2,0.4l-5.5,4.8
		C205.8,361.4,205.6,361.5,205.4,361.5z M207.7,364c-0.2,0-0.3-0.1-0.4-0.2c-0.1-0.1-0.2-0.3-0.1-0.5c0-0.2,0.1-0.3,0.2-0.5l5.5-4.8
		c0.1-0.1,0.3-0.2,0.4-0.2c0.2,0,0.3,0.1,0.4,0.2c0.1,0.1,0.2,0.3,0.1,0.5c0,0.2-0.1,0.3-0.2,0.4l-5.5,4.8
		C208,364,207.8,364,207.7,364L207.7,364z"/>
	<path class="st14" d="M186.2,297.9l0.3,3.4c0,0.2,0,0.3-0.1,0.5c-0.1,0.1-0.2,0.1-0.3,0.1c-0.1,0-0.2-0.1-0.3-0.1
		c-0.1-0.1-0.1-0.2-0.1-0.3l-0.2-3.7l-3.5-0.8c-0.1,0-0.2-0.1-0.2-0.1c-0.1-0.1-0.1-0.2-0.1-0.4c0-0.1,0.1-0.3,0.2-0.4
		c0.1-0.1,0.3-0.1,0.4-0.1l3.2,0.7l-0.2-3.3c0-0.2,0-0.3,0.2-0.5c0.1-0.1,0.2-0.1,0.3-0.1c0.1,0,0.2,0,0.3,0.1
		c0.1,0.1,0.1,0.2,0.1,0.3l0.3,3.7l3.6,0.8c0.1,0,0.2,0.1,0.2,0.1c0.1,0.1,0.1,0.2,0.1,0.4c0,0.1-0.1,0.3-0.2,0.3
		c-0.1,0.1-0.3,0.1-0.4,0.1L186.2,297.9z"/>
	<path class="st14" d="M223.6,341.1c-0.2,0-0.4-0.1-0.5-0.3l-2.2-2.5l-2.7,2.3c-0.2,0.1-0.3,0.2-0.6,0.2c-0.4,0-0.7-0.4-0.6-0.7
		c0,0,0,0,0,0c0-0.2,0.1-0.4,0.3-0.5l2.7-2.3l-2.2-2.6c-0.1-0.1-0.2-0.3-0.2-0.5c0-0.2,0.1-0.4,0.2-0.5c0.1-0.1,0.3-0.2,0.5-0.2
		c0.2,0,0.4,0.1,0.5,0.3l2.2,2.6l2.7-2.3c0.1-0.1,0.3-0.2,0.5-0.2c0.2,0,0.4,0.1,0.5,0.2c0.1,0.1,0.2,0.3,0.2,0.5
		c0,0.2-0.1,0.4-0.3,0.5l-2.7,2.3l2.2,2.6c0.1,0.1,0.2,0.3,0.2,0.5c0,0.2-0.1,0.4-0.2,0.5C224,341,223.8,341.1,223.6,341.1z"/>
	<path class="st14" d="M126.9,379.4c-0.1,0-0.3-0.1-0.4-0.2l-1.6-1.9l-1.9,1.7c-0.1,0.1-0.2,0.2-0.4,0.1c-0.1,0-0.3-0.1-0.4-0.2
		c-0.1-0.1-0.1-0.2-0.1-0.4c0-0.1,0.1-0.3,0.2-0.4l1.9-1.7l-1.6-1.9c-0.1-0.1-0.2-0.2-0.1-0.4c0-0.1,0.1-0.3,0.2-0.4
		c0.1-0.1,0.2-0.1,0.4-0.1c0.1,0,0.3,0.1,0.4,0.2l1.6,1.9l1.9-1.7c0.1-0.1,0.2-0.2,0.4-0.1c0.1,0,0.3,0.1,0.4,0.2
		c0.1,0.1,0.1,0.2,0.1,0.4c0,0.1-0.1,0.3-0.2,0.4l-1.9,1.7l1.6,1.9c0.1,0.1,0.1,0.2,0.1,0.4c0,0.1-0.1,0.3-0.2,0.4
		C127.1,379.3,127,379.4,126.9,379.4z"/>
	<path class="st14" d="M196.8,315.6c-0.1,0-0.2,0-0.3-0.1c-0.1-0.1-0.1-0.2-0.1-0.3c0-0.2,0.1-0.3,0.3-0.4l5.3-4.6
		c0.1-0.1,0.3-0.2,0.4-0.2c0.1,0,0.2,0,0.3,0.1c0.1,0.1,0.1,0.2,0.1,0.3c0,0.1-0.1,0.3-0.3,0.4l-5.3,4.6
		C197.1,315.5,197,315.6,196.8,315.6z"/>
	<path class="st14" d="M131.7,377c-0.1,0-0.2-0.1-0.3-0.1c-0.1-0.1-0.1-0.2-0.1-0.3c0-0.1,0.1-0.2,0.1-0.3l3.6-3.1
		c0.1-0.1,0.2-0.1,0.3-0.1c0.1,0,0.2,0.1,0.3,0.1c0.1,0.1,0.1,0.2,0.1,0.3c0,0.1-0.1,0.2-0.1,0.3l-3.6,3.1
		C131.9,377,131.8,377,131.7,377z"/>
	<path class="st14" d="M130.5,379.9c0,0.2-0.1,0.3-0.2,0.3s-0.2,0-0.3-0.2c-0.1-0.2-0.2-0.4-0.2-0.6l-2-10.3c0-0.2,0-0.4,0-0.7
		c0-0.2,0.1-0.3,0.2-0.3c0.1,0,0.2,0,0.3,0.2c0.1,0.2,0.2,0.4,0.2,0.6l2,10.3C130.6,379.4,130.6,379.7,130.5,379.9z"/>
	<path class="st14" d="M169.5,284.3c-0.1,0-0.2,0-0.3-0.1c-0.1-0.1-0.1-0.2-0.1-0.3c0-0.2,0.1-0.3,0.2-0.4l5.3-4.6
		c0.1-0.1,0.3-0.2,0.4-0.2c0.1,0,0.2,0,0.3,0.1c0.1,0.1,0.1,0.2,0.1,0.3c0,0.1-0.1,0.3-0.2,0.4l-5.3,4.6
		C169.8,284.2,169.7,284.3,169.5,284.3z"/>
	<path class="st14" d="M118.5,333.5c-0.1,0-0.3,0-0.4-0.1l-5.3-2.5l3.7,4.2c0.1,0.1,0.1,0.2,0.1,0.3c0,0.1-0.1,0.2-0.2,0.3
		c-0.1,0.1-0.2,0.1-0.3,0.1c-0.1,0-0.2,0-0.3-0.1l-4-4.6c-0.1-0.1-0.2-0.3-0.2-0.5c0.1-0.4,0.4-0.7,0.8-0.7c0.2,0,0.4,0,0.6,0.1
		l5.2,2.4l-1.7-5.4c-0.1-0.2-0.1-0.4,0-0.6c0-0.2,0.1-0.3,0.3-0.4c0.2-0.1,0.3-0.2,0.6-0.2c0.2,0,0.4,0.1,0.5,0.2l4,4.6
		c0.1,0.1,0.1,0.2,0.1,0.3c0,0.1-0.1,0.2-0.2,0.3c-0.1,0.1-0.2,0.1-0.3,0.1c-0.1,0-0.2,0-0.3-0.1l-3.7-4.2l1.7,5.6
		c0,0.1,0,0.3,0,0.4c0,0.1-0.1,0.2-0.2,0.3C118.8,333.4,118.7,333.5,118.5,333.5z"/>
	<path class="st14" d="M123.4,329.5c-0.1,0-0.3-0.1-0.3-0.2l-4.2-4.8c-0.1-0.1-0.1-0.2-0.1-0.4c0-0.1,0.1-0.3,0.2-0.4l1.7-1.5
		c0.2-0.2,0.4-0.3,0.6-0.5c0.2-0.1,0.4-0.2,0.6-0.3c0.2-0.1,0.4-0.1,0.7-0.1c0.2,0,0.4,0.1,0.7,0.1c0.2,0.1,0.5,0.3,0.6,0.5
		c0.3,0.3,0.4,0.7,0.4,1.1c0,0.4-0.2,0.9-0.5,1.2l0,0c0.7-0.4,1.6-0.3,2.1,0.4l1.2,1.1v0c0.1,0.1,0.1,0.2,0.1,0.4
		c0,0.1-0.1,0.2-0.2,0.3c-0.1,0.1-0.2,0.1-0.4,0.1c-0.1,0-0.3,0-0.4-0.1l-1.1-1c-0.2-0.2-0.4-0.3-0.6-0.5c-0.1-0.1-0.3-0.2-0.5-0.2
		c-0.2,0-0.3,0-0.4,0.1c-0.2,0.1-0.4,0.2-0.5,0.4l-1.3,1.1l1.9,2.1c0.1,0.1,0.1,0.2,0.1,0.4c0,0.1-0.1,0.3-0.2,0.3
		C123.6,329.4,123.5,329.5,123.4,329.5z M122.6,324.9c0.2-0.1,0.3-0.3,0.4-0.4c0.1-0.1,0.2-0.3,0.3-0.4c0.1-0.1,0.1-0.3,0.2-0.4
		c0-0.1,0-0.3,0-0.4c-0.1-0.2-0.1-0.3-0.3-0.5c-0.1-0.1-0.2-0.2-0.3-0.3c-0.1-0.1-0.2-0.1-0.4-0.1c-0.1,0-0.2,0-0.3,0
		c-0.1,0-0.2,0.1-0.3,0.1l-0.3,0.2l-0.3,0.2l-1.2,1.1l1.6,1.8L122.6,324.9z"/>
	<path class="st14" d="M136.6,317.7c-0.1,0-0.3,0-0.4-0.1l-5.3-2.5l3.7,4.2c0.1,0.1,0.1,0.2,0.1,0.3c0,0.1-0.1,0.2-0.2,0.3
		c-0.1,0.1-0.2,0.1-0.3,0.1c-0.1,0-0.2,0-0.3-0.1l-4-4.6c-0.1-0.1-0.2-0.3-0.1-0.5c0-0.2,0.1-0.4,0.3-0.5c0.1-0.1,0.3-0.2,0.5-0.2
		c0.2,0,0.4,0,0.6,0.1l5.2,2.4l-1.6-5.4c-0.1-0.2-0.1-0.4,0-0.6c0-0.2,0.1-0.3,0.3-0.4c0.2-0.1,0.3-0.2,0.6-0.2
		c0.2,0,0.4,0.1,0.5,0.2l4,4.6c0.1,0.1,0.1,0.2,0.1,0.3c0,0.1-0.1,0.2-0.2,0.3c-0.1,0.1-0.2,0.1-0.3,0.1c-0.1,0-0.2,0-0.3-0.1
		l-3.7-4.2l1.7,5.6c0,0.1,0,0.3,0,0.4c0,0.1-0.1,0.2-0.2,0.3C136.9,317.7,136.8,317.7,136.6,317.7z"/>
	<path class="st14" d="M139.4,312.5c-0.1,0-0.2,0-0.2-0.1c-0.1-0.1-0.1-0.2-0.1-0.3c0-0.1,0.1-0.2,0.2-0.3l1.7-1.5
		c0.1-0.1,0.2-0.1,0.3-0.1c0.1,0,0.2,0,0.3,0.1c0.1,0.1,0.1,0.2,0.1,0.3c0,0.1-0.1,0.2-0.2,0.3l-1.7,1.5
		C139.6,312.4,139.5,312.5,139.4,312.5z"/>
	<path class="st14" d="M154.7,302c-0.1,0-0.3,0-0.4-0.1l-5.3-2.5l3.7,4.2c0.1,0.1,0.1,0.2,0.1,0.3c0,0.1-0.1,0.2-0.2,0.3
		c-0.1,0.1-0.2,0.1-0.3,0.1c-0.1,0-0.2,0-0.3-0.1l-4-4.6c-0.1-0.1-0.2-0.3-0.2-0.5c0-0.2,0.1-0.4,0.3-0.5c0.1-0.1,0.3-0.2,0.5-0.2
		c0.2,0,0.4,0,0.6,0.1l5.2,2.4l-1.6-5.4c0-0.2,0-0.4,0-0.6c0-0.2,0.1-0.3,0.3-0.4c0.2-0.1,0.3-0.2,0.6-0.2c0.2,0,0.4,0.1,0.5,0.2
		l4,4.6c0.1,0.1,0.1,0.2,0.1,0.3c0,0.1-0.1,0.2-0.2,0.3c-0.1,0.1-0.2,0.1-0.3,0.1c-0.1,0-0.2,0-0.3-0.1l-3.7-4.2l1.7,5.6
		c0,0.1,0,0.3,0,0.4c0,0.1-0.1,0.2-0.2,0.3C155,301.9,154.9,302,154.7,302z"/>
	<path class="st14" d="M161.2,296.6c-0.1,0-0.2-0.1-0.3-0.1l-1.2-1.3l-1.4,1.2c-0.1,0.1-0.2,0.1-0.3,0.1c-0.1,0-0.2,0-0.3-0.1
		c-0.1-0.1-0.1-0.2-0.1-0.3c0-0.1,0.1-0.2,0.1-0.3l1.4-1.2l-1.2-1.4c-0.1-0.1-0.1-0.2-0.1-0.3c0-0.2,0.2-0.4,0.4-0.4
		c0.1,0,0.2,0.1,0.3,0.1l1.2,1.4l1.4-1.2c0.1-0.1,0.2-0.1,0.3-0.1c0.1,0,0.2,0,0.3,0.1c0.1,0.1,0.1,0.2,0.1,0.3
		c0,0.1-0.1,0.2-0.1,0.3l-1.4,1.2l1.2,1.3c0.1,0.1,0.1,0.2,0.1,0.3c0,0.1-0.1,0.2-0.1,0.3C161.4,296.6,161.3,296.6,161.2,296.6z"/>
	<polyline class="st15" points="138.6,284.3 143.4,285.3 142,278.7 144.5,276.6 	"/>
</g>
<g id="freepik--Tax--inject-92">
	<rect x="173.3" y="158.6" class="st4" width="210.6" height="289.8"/>
	<rect x="173.3" y="158.6" class="st16" width="128" height="84.1"/>
	<path class="st14" d="M196.8,221.8v-42.8h-7.9v-6.6h24.6v6.6h-7.8v42.8H196.8z"/>
	<path class="st14" d="M214.4,221.8l9.9-49.4h9.6l9.9,49.4h-8.4l-1.9-11.4h-8.6l-2,11.4H214.4z M225.8,204.7h6.7l-3.4-20.8
		L225.8,204.7z"/>
	<path class="st14" d="M245.4,221.8l9.9-26.2l-9.6-23.2h8.4l6.4,15.3l5.6-15.3h7.8l-9.5,24.9l10.2,24.5h-8.4l-7-16.6l-6.1,16.6
		L245.4,221.8z"/>
	<line class="st3" x1="353.9" y1="276" x2="372.2" y2="276"/>
	<line class="st3" x1="325.5" y1="276" x2="350.8" y2="276"/>
	<line class="st3" x1="272.9" y1="276" x2="321.2" y2="276"/>
	<line class="st3" x1="203.5" y1="276" x2="269.8" y2="276"/>
	<line class="st3" x1="186" y1="276" x2="199.9" y2="276"/>
	<line class="st3" x1="331" y1="289.9" x2="372.2" y2="289.9"/>
	<line class="st3" x1="254.6" y1="289.9" x2="327.3" y2="289.9"/>
	<line class="st3" x1="220" y1="289.9" x2="249.7" y2="289.9"/>
	<line class="st3" x1="186" y1="289.9" x2="215.1" y2="289.9"/>
	<line class="st3" x1="283" y1="303.8" x2="372.2" y2="303.8"/>
	<line class="st3" x1="248.8" y1="303.8" x2="278.6" y2="303.8"/>
	<line class="st3" x1="205" y1="303.8" x2="246" y2="303.8"/>
	<line class="st3" x1="186" y1="303.8" x2="202.3" y2="303.8"/>
	<rect x="184.9" y="314.8" class="st3" width="186.2" height="119.7"/>
	<line class="st3" x1="235" y1="337.6" x2="370.5" y2="337.6"/>
	<line class="st3" x1="185.5" y1="337.6" x2="230.4" y2="337.6"/>
	<line class="st3" x1="185.5" y1="353.6" x2="370.5" y2="353.6"/>
	<line class="st3" x1="345.9" y1="369.7" x2="370.5" y2="369.7"/>
	<line class="st3" x1="185.5" y1="369.7" x2="343.8" y2="369.7"/>
	<line class="st3" x1="261.3" y1="385.8" x2="370.5" y2="385.8"/>
	<line class="st3" x1="185.5" y1="385.8" x2="258.5" y2="385.8"/>
	<line class="st3" x1="230.4" y1="401.9" x2="370.5" y2="401.9"/>
	<line class="st3" x1="185.5" y1="401.9" x2="224.6" y2="401.9"/>
	<line class="st3" x1="264.6" y1="417.9" x2="370.5" y2="417.9"/>
	<line class="st3" x1="185.5" y1="417.9" x2="261" y2="417.9"/>
	<line class="st3" x1="330.1" y1="414.4" x2="330.1" y2="434"/>
	<line class="st3" x1="330.1" y1="329.4" x2="330.1" y2="411"/>
	<line class="st3" x1="330.1" y1="316" x2="330.1" y2="324.2"/>
</g>
<g id="freepik--Character--inject-92">
	<path class="st4" d="M379.3,450l-3.6,2.7c0,0-6.3,2.5-7.2,3.1s-2.5,0.7-2.1,1.9s3.1,1.2,6.3,1.5s4.1,0,7.6-0.5s6.1,0.4,7.5-0.3
		s1.5,0,1.7-1.6c0.2-1.2,0.3-2.5,0.3-3.7L379.3,450z"/>
	<path class="st4" d="M387.7,458.3c1.3-0.7,1.5,0,1.7-1.6c0.1-0.5,0.1-1,0.2-1.5c-1.7,0.8-3.5,1.3-5.4,1.4c-2.5,0-3.6,0.7-9.5,1.1
		c-2.8,0.2-5.7,0-8.5-0.5c0,0.2,0,0.3,0,0.5c0.4,1.2,3.1,1.2,6.3,1.5s4.1,0,7.6-0.5S386.4,459,387.7,458.3z"/>
	<path class="st4" d="M442.6,450c0,0-0.8,1.9-1.5,3.5s-3.2,4.9-3.6,5.9s0.3,1.9,2.1,2c1.9,0.1,3.7,0,5.6-0.3
		c0.5-0.1,6.4-7.1,6.7-11.2s-3.4-4-3.4-4L442.6,450z"/>
	<path class="st4" d="M452,449.9c0-0.6,0-1.2-0.2-1.8c0,0.2-0.1,0.4-0.1,0.6c-0.2,1.2-3.3,6.9-4.4,8.9s-2.2,2.5-4.6,2.7
		c-1.7,0.1-3.4-0.1-5.1-0.5c-0.1,0.8,0.6,1.5,2.2,1.6c1.9,0.1,3.7,0,5.6-0.3C445.8,461,451.7,454,452,449.9z"/>
	<path class="st16" d="M397.6,368.5l-0.3,9.5c0,0-16.7,36.9-17.1,39.1s2.3,32,2.3,32h-4.1l-0.1,1.6l11.5,3.2c0,0,2.1-12.9,2.3-13.7
		s2.4-23.6,2.4-23.6l16.1-21.7c0,0,8.1,25.9,8.5,26s22.8,27.5,22.8,27.5l-0.7,1.2c0,0-0.3,1.1,1.2,1.9s2.7,1.3,4.1-0.1
		s3-3.5,3.1-4.9s-1.3-3.7-2.3-5.7s-3.1-5.2-3.1-5.2l-12.4-21.6l-1.8-35.5l-0.5-6.7L397.6,368.5z"/>
	<path class="st4" d="M384,322.4c-1.2,0.7-2.1,1.7-2.6,3c-0.7,2,0.9,5,0.9,5s4.4,11.9,6.6,15.3s6.5,6.8,10.3,6.3s3.8-3.4,3.8-3.4
		s4-6.5,0.9-11.3S387.3,320.3,384,322.4z"/>
	<path class="st4" d="M409.1,321c0,0-6,16.1-6.4,19.6s-6.4,26.4-6.7,27.5s2.6,2.3,3.5,2.6s25.1,3.5,27.6,2.5s3.3-1,3.3-2.2
		s4.8-41.1,2.5-46.2s-4.8-10.3-6.2-10.5S409.1,321,409.1,321z"/>
	<path class="st3" d="M416.9,336.5c3.1-1.1,12.9-3.1,12.9-3.1s-9.9,6.3-14.9,8.9"/>
	<line class="st3" x1="430.1" y1="335.4" x2="422.1" y2="342.7"/>
	<path class="st4" d="M408.2,287c0,0-3.2,4.4-2.6,6.1c0.4,0.9,0.5,1.8,0.3,2.7c0,0-4,4.7-3.2,5.1c0.7,0.6,1.2,1.3,1.6,2.1
		c0,0,1,6.3,1.8,7.2s3.2,0.2,3.2,0.2l1.6-0.2l1.1,7.9l12.2-6.4v-6c0,0,8.1-8.1,7.9-12.2s0.2-8-1.5-9.5s-9-4.5-12.4-5s-5.3-1-6.3-0.3
		s-2.6,1.8-2.6,1.8s0-3.9-1.9-2.3S405.9,285.7,408.2,287z"/>
	<path class="st16" d="M430.8,284.1c-1.6-1.5-9-4.5-12.4-5s-5.3-1-6.3-0.3s-2.6,1.8-2.6,1.8s0-3.9-1.9-2.3s-1.6,7.4,0.6,8.7l7.6,0.6
		c-0.6,1.1-0.9,2.2-1.1,3.4c-0.2,1.6,2.7,2.9,2.7,2.9s-0.8,4.5-0.8,5.3s1.8,1,2.1,0.3s-0.5-2.6,2.1-3.2s3.9,1.5,3.7,3.4
		c-0.1,1.5-0.9,2.8-2.3,3.5l-1,0.5c1.2,0.5,2.2,1.2,3.1,2.1c0,0,8.1-8.1,7.9-12.2S432.4,285.6,430.8,284.1z"/>
	<path class="st17" d="M409.2,296.5c0,0.8-0.3,1.4-0.6,1.4s-0.6-0.6-0.6-1.4s0.3-1.4,0.6-1.4S409.2,295.7,409.2,296.5z"/>
	<polygon class="st4" points="408,319.4 408.8,324.2 426.7,314.4 424.6,310.1 	"/>
	<path class="st16" d="M467,403.2L467,403.2c-5.1,4.4-12.7,3.9-17.1-1.2c-0.1-0.1-0.2-0.2-0.3-0.4l-90.4-112.3l9.7-8.5l99,104.8
		c4.6,4.9,4.4,12.6-0.5,17.2C467.2,403,467.1,403.1,467,403.2z"/>
	<path class="st5" d="M380.2,290.3l-12.6,11c-1.7,1.5-4.3,1.3-5.7-0.4c0,0,0,0,0,0l0,0c-1.5-1.7-1.3-4.3,0.4-5.8l12.6-11
		c1.7-1.5,4.3-1.3,5.7,0.4c0,0,0,0,0,0l0,0C382.1,286.2,381.9,288.8,380.2,290.3C380.2,290.3,380.2,290.3,380.2,290.3z"/>
	<path class="st5" d="M288.8,201.5c-23.9,20.9-26.4,57.2-5.5,81.2c20.9,23.9,57.2,26.4,81.2,5.5c23.9-20.9,26.4-57.2,5.5-81.2
		c0,0,0,0,0,0C349,183.1,312.7,180.6,288.8,201.5z M359.4,282.5c-20.8,18.2-52.4,16.1-70.6-4.7c-18.2-20.8-16.1-52.4,4.7-70.6
		c20.8-18.2,52.4-16.1,70.6,4.7c0,0,0.1,0.1,0.1,0.1C382.3,232.8,380.2,264.3,359.4,282.5L359.4,282.5z"/>
	<path class="st4" d="M418,327.2c0,0,3.8-8.3,4.9-9.3s3-0.8,4.8-0.7s15.3,12.1,15.3,12.1s10.9,8.2,10.8,9.9s-14,26.1-14,26.1
		l-5.8-3.5l3-19.9l-16.5-9.3"/>
	<path class="st4" d="M434,361.9l-1.5,1.2c0,0-2.2-0.7-3.3-0.1c-0.7,0.4-1.4,0.8-2,1.2c0,0-2.3,0-2.7,0.5s-0.8,1.2,0,1.8
		s5.3-0.3,5.7,0s-0.5,1.6-1.4,3.8s-2,3.8-1.4,4.5s1.8,1.1,2.3,0.5l0.5-0.5c0,0,3,2.5,4.1,2.2s3.5-2.3,4.4-5c0.5-2.1,0.9-4.3,1-6.5
		L434,361.9z"/>
	<path class="st4" d="M378.9,316.4c-0.1-0.9-0.4-1.7-0.7-2.6c-0.7-2.2-1.7-2.9-0.6-3.3s2.1,0.6,2.4,1.6c0.2,0.6,0.5,1.2,0.8,1.8
		l-1.5,3.5L378.9,316.4z"/>
	<path class="st4" d="M381.1,311c0,0-2.8,6.5-2.6,7.1s5.6,5.9,5.6,5.9l-1,2.3c0.3,1.1,1.1,2.1,2.1,2.7c3,1.4,4.4-1.8,4.4-1.8
		l-1.8-2.6c0,0,1.9-4.5,2-5s-6.1-7.8-6.1-7.8S383.2,309.6,381.1,311z"/>
	<line class="st3" x1="383.7" y1="311.8" x2="380.2" y2="320"/>
	<line class="st3" x1="385.6" y1="314.3" x2="382.6" y2="322.2"/>
	<line class="st3" x1="387.9" y1="317.3" x2="385" y2="323.3"/>
	<line class="st3" x1="384.1" y1="324" x2="387.4" y2="325.9"/>
</g>
</svg>
