<?xml version="1.0" encoding="utf-8"?>
<!-- Generator: Adobe Illustrator 26.5.0, SVG Export Plug-In . SVG Version: 6.00 Build 0)  -->
<svg version="1.1" id="Camada_1" xmlns="http://www.w3.org/2000/svg" xmlns:xlink="http://www.w3.org/1999/xlink" x="0px" y="0px"
	 viewBox="0 0 750 500" style="enable-background:new 0 0 750 500;" xml:space="preserve">
<style type="text/css">
	.st0{fill:#6DD1AE;}
	.st1{opacity:0.7;fill:#FFFFFF;enable-background:new    ;}
	.st2{fill:#073447;}
	.st3{fill:#FFFFFF;}
	.st4{fill:none;}
	.st5{fill:#8C8C8C;}
</style>
<g id="freepik--background-simple--inject-164">
	<path class="st0" d="M672.2,235c-20.5-36.1-45.8-69.3-75.1-98.7c-31.6-31.6-63.8-53-105.3-66.8c-28.1-9.4-57.3-14.7-86.9-15.7
		c-54.8-1.8-100,11.2-145,44.1c-48.2,35.3-93.3,75.2-140.3,112.3c-4.9,3.9-9.8,7.7-14.8,11.5C22.9,284.6-17,396.5,38.5,423.8h638.1
		c0,0,58-3.1,43.7-65.4C710.4,315.1,694.2,273.6,672.2,235z"/>
	<path class="st1" d="M672.2,235c-20.5-36.1-45.8-69.3-75.1-98.7c-31.6-31.6-63.8-53-105.3-66.8c-28.1-9.4-57.3-14.7-86.9-15.7
		c-54.8-1.8-100,11.2-145,44.1c-48.2,35.3-93.3,75.2-140.3,112.3c-4.9,3.9-9.8,7.7-14.8,11.5C22.9,284.6-17,396.5,38.5,423.8h638.1
		c0,0,58-3.1,43.7-65.4C710.4,315.1,694.2,273.6,672.2,235z"/>
</g>
<g id="freepik--Plants--inject-164">
	<path class="st2" d="M45.8,354.1c2.2,1,7.5,0.8,7.5,0.8s-1.2-3.5-1.2-3.7c-1.2-2.5-4.9-6.5-7.9-6.1c-2,0.3-3.3,2.2-3,4.1
		c0,0.1,0,0.3,0.1,0.4C41.8,351.7,43.9,353.3,45.8,354.1z"/>
	<path class="st2" d="M47.6,369.5c2.3,0.3,7-1,7.4-1.2c0.8,2.7,1.7,5.4,2.9,8c0.7,1.5,1.4,3,2.1,4.5c-0.4-0.6-0.8-1.2-0.9-1.3
		c-1.8-2-6.4-5-9.2-3.8c-1.8,0.8-2.6,3-1.8,4.8c0.1,0.1,0.1,0.2,0.2,0.3c1,1.9,3.5,2.8,5.5,3.1s6.1-0.8,7.2-1.1
		c0.3,0.6,0.6,1.1,0.8,1.7c1.4,2.7,2.8,5.5,4,8.2c0.4,1,0.9,1.9,1.3,2.9c-0.4-0.6-0.7-1-0.8-1.1c-1.8-2.1-6.4-5-9.2-3.8
		c-1.8,0.8-2.6,3-1.8,4.8c0.1,0.1,0.1,0.2,0.2,0.3c1,1.9,3.5,2.8,5.5,3.1s5.7-0.7,7-1c0.4,1,0.8,2,1.1,3c0.2,0.7,0.5,1.3,0.6,2
		s0.4,1.4,0.6,2c0.3,1.3,0.6,2.6,0.9,3.9c0.2,0.9,0.4,1.7,0.5,2.6c-0.4-1-1.3-2.8-1.4-3c-1.4-2.3-5.6-5.9-8.5-5.1
		c-1.9,0.5-3,2.5-2.5,4.4c0,0.1,0.1,0.2,0.1,0.4c0.7,2,3,3.3,5,3.9c2.1,0.6,6.9,0,7.4,0c0.3,1.4,0.5,2.8,0.8,4.1
		c0.5,2.9,0.9,5.4,1.2,7.6h2c-0.3-2.2-0.8-4.9-1.4-8c-0.3-1.4-0.6-3-1-4.5c1.4-0.6,2.8-1.3,4.2-2c1.6,1.7,5.5,3.7,6.1,3.9
		c-0.6,1.3-1.1,2.6-1.6,3.8c-1.1,2.5-2.2,4.8-3.1,6.7h2.2c0.8-1.8,1.7-3.8,2.6-6c0.6-1.4,1.1-2.8,1.7-4.3c0.6,0.1,5.2,1.1,7.4,0.6
		c2-0.5,4.4-1.6,5.3-3.5c0.9-1.8,0.2-3.9-1.6-4.8c-0.1-0.1-0.3-0.1-0.4-0.2c-2.9-1-7.3,2.3-8.9,4.5c-0.1,0.1-1,1.6-1.5,2.6
		c0.2-0.6,0.5-1.2,0.7-1.8c0.5-1.3,0.9-2.5,1.3-3.9c0.2-0.7,0.4-1.3,0.6-2c0.2-0.7,0.4-1.4,0.5-2.1c0.4-1.6,0.7-3.3,1-5
		c1.1,0.4,5,1.8,7,1.6s4.6-0.9,5.7-2.7c1.1-1.6,0.7-3.9-0.9-5c-0.1-0.1-0.2-0.1-0.3-0.2c-2.7-1.4-7.5,1.2-9.5,3.1
		c-0.1,0.1-1.3,1.6-2,2.5c0.2-1,0.3-2,0.5-3.1c0.4-3,0.7-6.1,1-9.1c0.1-0.9,0.2-1.9,0.3-2.8c0.4,0.1,5,1.9,7.3,1.7
		c2-0.1,4.6-0.9,5.7-2.7c1.1-1.6,0.7-3.9-0.9-5c-0.1-0.1-0.2-0.1-0.3-0.2c-2.7-1.4-7.5,1.2-9.5,3.1c-0.2,0.1-1.9,2.4-2.3,2.9
		c0.2-2,0.4-4.1,0.8-6.1c0.4-2.7,1-5.4,1.8-8c0.2,0.1,5,1.9,7.3,1.7c2-0.1,4.6-0.9,5.7-2.7c1.1-1.6,0.8-3.9-0.9-5
		c-0.1-0.1-0.2-0.1-0.3-0.2c-2.7-1.4-7.6,1.2-9.5,3.1c-0.2,0.1-2,2.5-2.3,3c0-0.2,0.1-0.3,0.1-0.5c0.8-2.6,1.9-5.2,3.2-7.6
		c0.7-1.4,1.4-2.6,2.2-3.8c0.9,0.4,4.8,2.4,6.9,2.4s4.6-0.4,6-2c1.3-1.5,1.2-3.8-0.3-5.1c-0.1-0.1-0.2-0.2-0.3-0.2
		c-2.5-1.7-7.6,0.3-9.8,2c-0.1,0.1-1.2,1.1-2,1.9c0.3-0.5,0.7-1.1,1-1.6c1.3-1.9,2.6-3.6,3.7-5.1c0.7-0.8,1.3-1.6,1.9-2.3
		c1.1,0,5.4-0.1,7.2-1s3.9-2.5,4.4-4.6c0.5-1.9-0.7-3.9-2.7-4.4c-0.1,0-0.2-0.1-0.3-0.1c-3-0.3-6.6,3.8-7.7,6.3
		c-0.1,0.2-1.2,3.7-1.2,3.7h0.1c-0.6,0.6-1.2,1.4-1.8,2.1c-1.2,1.5-2.5,3.1-3.8,5c-1.5,2-2.8,4.1-4,6.3c-1.3,2.4-2.4,4.9-3.3,7.6
		c0,0,0,0.1,0,0.1c0-0.9,0-3.4,0-3.6c-0.3-2.7-2.6-7.7-5.6-8.2c-2-0.3-3.8,1-4.1,3c0,0.1,0,0.3,0,0.4c-0.2,2.1,1.4,4.3,2.9,5.6
		c1.7,1.5,6.4,3,6.8,3.1c-0.9,2.7-1.5,5.5-2,8.3c-0.3,1.6-0.5,3.3-0.8,4.9c0-0.8,0-1.5,0-1.5c-0.3-2.7-2.6-7.7-5.6-8.2
		c-2-0.3-3.8,1-4.1,3c0,0.1,0,0.3,0,0.4c-0.2,2.1,1.4,4.3,2.9,5.6s5.6,2.7,6.6,3l-0.2,1.9c-0.4,3-0.7,6.1-1.2,9.1
		c-0.2,1-0.3,2.1-0.5,3.1c0-0.7,0-1.3,0-1.3c-0.3-2.7-2.6-7.7-5.6-8.2c-1.9-0.4-3.8,0.8-4.2,2.8c0,0.2-0.1,0.4-0.1,0.6
		c-0.2,2.1,1.4,4.3,2.9,5.6s5.2,2.6,6.4,3c-0.2,1-0.4,2.1-0.7,3.1c-0.2,0.7-0.3,1.4-0.6,2l-0.6,2c-0.5,1.3-0.9,2.5-1.4,3.8
		c-0.3,0.8-0.7,1.6-1,2.5c0.2-1,0.4-3.1,0.4-3.3c0-2.4-0.7-4.7-1.9-6.8c0-0.3,0-0.5-0.1-0.8c-0.2-2-2-3.4-4-3.1
		c-0.1,0-0.3,0-0.4,0.1c-2.9,0.8-4.8,5.9-4.9,8.6c0,0.2,0.1,1.9,0.2,3c-0.2-0.6-0.3-1.3-0.4-1.9c-0.3-1.3-0.7-2.6-1-4l-0.6-2
		c-0.2-0.7-0.5-1.4-0.7-2c-0.6-1.6-1.2-3.2-2-4.8c1.1-0.3,5.2-1.3,6.8-2.5s3.3-3.2,3.3-5.4c0.1-2-1.5-3.6-3.5-3.7
		c-0.1,0-0.3,0-0.4,0c-3,0.3-5.6,5.1-6.2,7.8c0,0.2-0.2,2.1-0.3,3.2c-0.4-0.9-0.9-1.9-1.3-2.8c-1.3-2.7-2.8-5.4-4.2-8.1
		c-0.4-0.8-0.9-1.7-1.3-2.5c0.4-0.1,5.2-1.2,7-2.6c1.6-1.2,3.3-3.2,3.3-5.4c0-2-1.6-3.6-3.6-3.6c-0.1,0-0.1,0-0.2,0
		c-3,0.3-5.6,5.1-6.2,7.8c0,0.2-0.3,3-0.3,3.7c-1-1.8-1.9-3.7-2.7-5.5c-1.2-2.5-2.2-5-3-7.7c0.2,0,5.2-1.2,7.1-2.6
		c1.6-1.2,3.3-3.2,3.3-5.4c0.1-2-1.5-3.6-3.5-3.7c-0.1,0-0.3,0-0.4,0c-3,0.3-5.6,5.1-6.2,7.8c0,0.2-0.3,3.2-0.3,3.8
		c0-0.1-0.1-0.3-0.2-0.5c-0.8-2.6-1.3-5.4-1.6-8.1c-0.2-1.5-0.2-3-0.3-4.4c1-0.1,5.3-0.7,7.1-1.8s3.7-2.9,3.9-5
		c0.3-2-1.1-3.8-3.1-4.1c-0.1,0-0.2,0-0.4,0c-3,0-6.2,4.5-7,7.1c0,0.1-0.3,1.6-0.5,2.7c0-0.6,0-1.3,0-1.9c0-2.3,0.2-4.4,0.3-6.3
		c0.1-1.1,0.2-2,0.3-2.9c0.9-0.6,4.4-3.1,5.5-4.9s1.9-4.3,1.1-6.3c-0.7-1.9-2.7-2.8-4.6-2.2c-0.1,0.1-0.3,0.1-0.4,0.2
		c-2.7,1.4-3.4,6.8-3,9.5c0,0.2,1.1,3.8,1.1,3.8H54c-0.1,0.9-0.2,1.8-0.3,2.8c-0.2,1.9-0.4,4-0.4,6.3c-0.1,2.5,0,5,0.2,7.5
		c0.2,2.8,0.7,5.5,1.5,8.2v0.1c-0.5-0.8-1.9-2.8-2-3c-1.8-2-6.4-5-9.2-3.8c-1.8,0.8-2.6,3-1.8,4.8c0.1,0.1,0.1,0.2,0.2,0.3
		C43.2,368.3,45.6,369.2,47.6,369.5z"/>
	<path class="st2" d="M99.7,355.2c0.1,0,1-3.5,1-3.8c0.4-2.7-0.5-8.1-3.2-9.4c-1.8-0.8-3.9,0-4.7,1.8c-0.1,0.1-0.1,0.2-0.1,0.4
		c-0.7,2,0.2,4.5,1.3,6.2C95.2,352.4,99.7,355.2,99.7,355.2z"/>
	<path class="st2" d="M667.3,354.1c2.2,1,7.5,0.8,7.5,0.8s-1.2-3.5-1.2-3.7c-1.2-2.5-4.9-6.5-7.9-6.1c-2,0.3-3.3,2.2-3,4.2
		c0,0.1,0,0.2,0.1,0.4C663.3,351.7,665.5,353.3,667.3,354.1z"/>
	<path class="st2" d="M669.2,369.5c2.3,0.3,7-1,7.4-1.2c0.8,2.7,1.7,5.4,2.9,8c0.7,1.5,1.4,3,2.1,4.5c-0.4-0.6-0.8-1.2-0.9-1.3
		c-1.8-2-6.4-5-9.2-3.8c-1.8,0.8-2.6,3-1.8,4.8c0.1,0.1,0.1,0.2,0.2,0.4c1,1.9,3.5,2.8,5.5,3.1s6.1-0.8,7.2-1.1
		c0.3,0.6,0.6,1.1,0.8,1.7c1.4,2.7,2.8,5.5,4,8.2c0.5,1,0.9,1.9,1.3,2.9c-0.4-0.6-0.7-1-0.8-1.1c-1.8-2.1-6.4-5-9.2-3.8
		c-1.8,0.8-2.6,3-1.8,4.8c0.1,0.1,0.1,0.2,0.2,0.3c1,1.9,3.5,2.8,5.5,3.1s5.7-0.7,7-1c0.4,1,0.8,2,1.1,3c0.2,0.7,0.5,1.3,0.6,2
		l0.6,2c0.3,1.3,0.6,2.6,0.9,3.9c0.2,0.9,0.4,1.7,0.5,2.6c-0.4-1-1.3-2.8-1.4-3c-1.4-2.3-5.6-5.9-8.5-5.1c-1.9,0.5-3,2.5-2.5,4.4
		c0,0.1,0.1,0.2,0.1,0.4c0.7,2,3,3.3,5,3.9c2.1,0.6,6.9,0,7.5,0c0.3,1.4,0.5,2.8,0.8,4.1c0.5,2.9,0.9,5.4,1.2,7.6h2
		c-0.3-2.2-0.8-4.9-1.4-8c-0.3-1.4-0.6-3-1-4.5c1.4-0.6,2.8-1.3,4.2-2c1.6,1.7,5.5,3.7,6.1,3.9c-0.5,1.3-1.1,2.6-1.6,3.8
		c-1.1,2.5-2.1,4.8-3.1,6.7h2.2c0.8-1.8,1.7-3.8,2.6-6c0.6-1.4,1.1-2.8,1.7-4.3c0.6,0.1,5.2,1.1,7.4,0.6c2-0.5,4.4-1.6,5.3-3.5
		c0.9-1.8,0.2-3.9-1.6-4.8c-0.1-0.1-0.3-0.1-0.4-0.2c-2.9-1-7.3,2.3-8.9,4.5c-0.1,0.1-1,1.6-1.5,2.6c0.2-0.6,0.5-1.2,0.7-1.8
		c0.5-1.3,0.9-2.5,1.3-3.9c0.2-0.7,0.4-1.3,0.6-2c0.2-0.7,0.4-1.4,0.5-2.1c0.4-1.6,0.7-3.3,1-5c1.1,0.4,5,1.8,7,1.6s4.6-0.9,5.7-2.7
		c1.1-1.6,0.7-3.9-0.9-5c-0.1-0.1-0.2-0.1-0.3-0.2c-2.7-1.4-7.5,1.2-9.5,3.1c-0.1,0.1-1.3,1.6-2,2.5c0.2-1,0.3-2,0.5-3.1
		c0.4-3,0.7-6.1,1-9.1c0.1-0.9,0.2-1.9,0.3-2.8c0.4,0.1,5,1.9,7.3,1.7c2-0.1,4.6-0.9,5.7-2.7c1.1-1.6,0.7-3.9-0.9-5
		c-0.1-0.1-0.2-0.1-0.3-0.2c-2.7-1.4-7.5,1.2-9.5,3.1c-0.2,0.1-1.9,2.4-2.3,2.9c0.2-2,0.5-4.1,0.8-6.1c0.4-2.7,1-5.4,1.8-8
		c0.2,0.1,5,1.9,7.3,1.7c2-0.1,4.6-0.9,5.7-2.7c1.1-1.6,0.7-3.9-0.9-5c-0.1-0.1-0.2-0.1-0.3-0.2c-2.7-1.4-7.5,1.2-9.5,3.1
		c-0.2,0.1-2,2.5-2.3,3c0-0.2,0.1-0.3,0.1-0.5c0.8-2.6,1.9-5.2,3.2-7.6c0.7-1.4,1.4-2.6,2.2-3.8c0.9,0.4,4.8,2.4,6.9,2.4
		s4.6-0.4,6-2c1.3-1.5,1.2-3.8-0.3-5.1c-0.1-0.1-0.2-0.2-0.3-0.2c-2.5-1.7-7.6,0.3-9.8,2c-0.1,0.1-1.2,1.1-2,1.9
		c0.3-0.5,0.7-1.1,1-1.6c1.3-1.9,2.5-3.6,3.7-5.1c0.7-0.8,1.3-1.6,1.8-2.3c1.1,0,5.4-0.1,7.2-1s3.9-2.5,4.4-4.6
		c0.5-1.9-0.7-3.9-2.7-4.4c-0.1,0-0.2-0.1-0.3-0.1c-3-0.3-6.6,3.8-7.7,6.3c-0.1,0.2-1.2,3.7-1.2,3.7h0.1c-0.6,0.6-1.2,1.4-1.8,2.1
		c-1.2,1.5-2.5,3.1-3.8,5c-1.5,2-2.8,4.1-4,6.3c-1.3,2.4-2.5,5-3.4,7.6v0.1c0-0.9,0-3.4,0-3.6c-0.3-2.7-2.6-7.7-5.6-8.2
		c-2-0.3-3.8,1-4.1,3c0,0.1,0,0.3,0,0.4c-0.2,2.1,1.4,4.3,2.9,5.6c1.7,1.5,6.4,3,6.8,3.1c-0.8,2.7-1.5,5.5-2,8.3
		c-0.3,1.6-0.5,3.3-0.8,4.9c0-0.8,0-1.5,0-1.5c-0.3-2.7-2.6-7.7-5.6-8.2c-2-0.3-3.8,1-4.1,3c0,0.1,0,0.3,0,0.4
		c-0.2,2.1,1.4,4.3,2.9,5.6s5.5,2.7,6.6,3l-0.2,1.9c-0.4,3-0.7,6.1-1.2,9.1c-0.2,1-0.3,2.1-0.5,3.1c0-0.7,0-1.3,0-1.3
		c-0.3-2.7-2.6-7.7-5.6-8.2c-2-0.3-3.8,1-4.1,3c0,0.1,0,0.3,0,0.4c-0.2,2.1,1.4,4.3,2.9,5.6s5.2,2.6,6.4,3c-0.2,1-0.4,2.1-0.7,3.1
		c-0.2,0.7-0.3,1.4-0.6,2l-0.6,2c-0.5,1.3-0.9,2.5-1.4,3.8c-0.3,0.8-0.7,1.6-1,2.5c0.2-1,0.4-3.1,0.4-3.3c0-2.4-0.7-4.7-1.9-6.8
		c0-0.3,0-0.5,0-0.8c-0.2-2-2-3.4-4-3.1c-0.1,0-0.3,0-0.4,0.1c-2.9,0.8-4.8,5.9-4.9,8.6c0,0.2,0.1,1.9,0.2,3
		c-0.2-0.6-0.3-1.3-0.5-1.9c-0.3-1.3-0.7-2.6-1-4c-0.2-0.7-0.4-1.3-0.6-2c-0.2-0.7-0.5-1.4-0.7-2c-0.6-1.6-1.2-3.2-2-4.8
		c1.1-0.3,5.2-1.3,6.8-2.5s3.3-3.2,3.3-5.4c0.1-2-1.5-3.6-3.5-3.7c-0.1,0-0.3,0-0.4,0c-3,0.3-5.6,5.1-6.2,7.8c0,0.2-0.2,2.1-0.3,3.2
		c-0.4-0.9-0.9-1.9-1.3-2.8c-1.3-2.7-2.8-5.4-4.2-8.1c-0.4-0.8-0.9-1.7-1.3-2.5c0.4-0.1,5.2-1.2,7-2.6c1.6-1.2,3.3-3.2,3.3-5.4
		c0.1-2-1.5-3.6-3.5-3.7c-0.1,0-0.2,0-0.4,0c-3,0.3-5.6,5.1-6.2,7.8c0,0.2-0.3,3-0.3,3.7c-1-1.8-1.9-3.7-2.7-5.5
		c-1.2-2.5-2.2-5-3-7.7c0.2,0,5.2-1.2,7.1-2.6c1.6-1.2,3.3-3.2,3.3-5.4c0.1-2-1.5-3.6-3.5-3.7c-0.1,0-0.3,0-0.4,0
		c-3,0.3-5.6,5.1-6.2,7.8c0,0.2-0.3,3.2-0.3,3.8c0-0.1-0.1-0.3-0.2-0.5c-0.8-2.6-1.3-5.3-1.5-8.1c-0.2-1.5-0.2-3-0.3-4.4
		c1-0.1,5.3-0.7,7.1-1.8s3.7-2.9,3.9-5c0.3-2-1.1-3.8-3.1-4.1c-0.1,0-0.2,0-0.4,0c-3,0-6.2,4.5-7,7.1c0,0.1-0.3,1.6-0.5,2.7
		c0-0.6,0-1.3,0-1.9c0-2.3,0.2-4.4,0.3-6.3c0.1-1.1,0.2-2,0.3-2.9c0.9-0.6,4.4-3.1,5.5-4.9s1.9-4.2,1.1-6.2
		c-0.7-1.9-2.7-2.8-4.6-2.1c-0.1,0-0.2,0.1-0.4,0.1c-2.7,1.4-3.4,6.8-3,9.5c0,0.2,1.1,3.8,1.1,3.8l0,0c-0.1,0.9-0.2,1.8-0.3,2.8
		c-0.2,1.9-0.4,4-0.4,6.3c-0.1,2.5,0,5,0.2,7.5c0.2,2.8,0.7,5.5,1.4,8.2v0.1c-0.5-0.8-1.9-2.8-2-3c-1.8-2-6.4-5-9.2-3.8
		c-1.8,0.8-2.6,3-1.8,4.8c0.1,0.1,0.1,0.2,0.2,0.3C664.7,368.3,667.2,369.2,669.2,369.5z"/>
	<path class="st2" d="M721.3,355.2c0,0,1-3.5,1-3.8c0.4-2.7-0.5-8.1-3.2-9.4c-1.8-0.8-3.9,0-4.7,1.8c-0.1,0.1-0.1,0.2-0.1,0.4
		c-0.7,2,0.2,4.5,1.3,6.2C716.7,352.4,721.2,355.2,721.3,355.2z"/>
</g>
<g id="freepik--Table--inject-164">
	<path class="st2" d="M740.8,424.3H38.1c-0.3,0-0.5-0.2-0.5-0.5c0-0.3,0.2-0.5,0.5-0.5h702.8c0.3,0,0.5,0.2,0.5,0.5
		S741.1,424.3,740.8,424.3z"/>
</g>
<g id="freepik--Scale--inject-164">
	<path class="st2" d="M441.6,262.6H334.9c-0.3,0-0.5-0.2-0.5-0.5v-6.6c0-0.3,0.2-0.5,0.5-0.5h44.7v-7.2c0-0.3,0.2-0.5,0.5-0.5h5.5
		V72.4h-4c-0.3,0-0.5-0.2-0.5-0.5v-4.2l-7,1.3c-1.6,0-3.2-0.5-4.4-1.6l-49.4,14.7c-0.9,1.5-2.6,2.4-4.3,2.5h-12.3l34.3,89.9
		c0.3,0,1,0,1.4,0c1.5,0,1.8,0,2,0.3c0.1,0.2,0.1,0.3,0,0.5c-0.1,0.2-0.2,0.4-12.5,8.1c-0.1,0.1-0.2,0.2-56.3,0.2
		c-0.2,0-0.5-0.1-0.7-0.2l-8.3-7.3c-0.4-0.4-0.5-1-0.1-1.4c0.2-0.2,0.5-0.3,0.7-0.3h1l34-89.3v-0.4h-10c-2.8,0-5.1-2.4-5.1-5.2
		c0-0.3,0-0.7,0.1-1c0.5-2.4,2.7-4.1,5.2-4.1H316c0.8,0,1.5,0.2,2.2,0.5L367.7,60c0.9-2.8,3.5-4.6,6.4-4.7l7.1-1.3v-1.8
		c0-3.9,3.2-7.1,7.1-7.1c3.9,0,7.1,3.2,7.1,7.1v2l6.4,1.2c2.6,0,4.9,1.5,6,3.9L460,74.7c0.7-0.3,1.4-0.5,2.2-0.5h26.5
		c2.5,0,4.6,1.7,5.2,4.1c0.6,2.8-1.2,5.5-4,6.1c-0.3,0.1-0.7,0.1-1,0.1h-10.6l34.3,89.9c0.3,0,1,0,1.4,0c1.5,0,1.8,0,2,0.3
		c0.1,0.2,0.1,0.3,0,0.5c-0.1,0.2-0.2,0.4-12.5,8.1c-0.1,0.1-0.2,0.2-56.3,0.2c-0.2,0-0.5-0.1-0.7-0.2l-8.3-7.3
		c-0.3-0.3-0.4-0.7-0.3-1.1c0.1-0.4,0.5-0.6,0.9-0.6h1l34-89.3v-0.4h-11.6c-1.8,0-3.4-0.9-4.4-2.5l-51.2-15.2
		c-1.3,1.3-3,2.1-4.9,2.1l-6.3-1.3v4.2c0,0.3-0.2,0.5-0.5,0.5h-4v174.9h5.5c0.3,0,0.5,0.2,0.5,0.5v7.2h44.7c0.3,0,0.5,0.2,0.5,0.5
		v6.6C442,262.4,441.8,262.6,441.6,262.6z M335.4,261.6h105.6V256h-44.7c-0.3,0-0.5-0.2-0.5-0.5v-7.2h-5.5c-0.3,0-0.5-0.2-0.5-0.5
		V71.9c0-0.3,0.2-0.5,0.5-0.5h4v-4.3c0-0.1,0.1-0.3,0.2-0.4c0.1-0.1,0.3-0.1,0.4-0.1l6.8,1.4c1.6,0,3.2-0.8,4.2-2
		c0.1-0.1,0.3-0.2,0.5-0.2l51.7,15.3c0.1,0,0.2,0.1,0.3,0.2c0.7,1.3,2.1,2.1,3.6,2.1h12.2c0.3,0,0.5,0.2,0.5,0.5v1
		c0,0.1,0,0.1,0,0.2l-34.2,89.7c-0.1,0.2-0.3,0.3-0.5,0.3h-1.4l8.4,7.3c18.6,0,53.7-0.1,55.9-0.1c3.7-2.3,8.8-5.5,11-6.9h0
		c-1.6,0.1-2.1,0.1-2.3-0.4l0,0l-34.6-90.9c-0.1-0.2,0-0.3,0-0.5c0.1-0.1,0.3-0.2,0.4-0.2h11.2c2.3,0,4.2-1.9,4.1-4.2
		c0-0.3,0-0.5-0.1-0.8c-0.4-1.9-2.2-3.3-4.2-3.3h-26.5c-0.7,0-1.3,0.2-1.9,0.5c-0.1,0-0.3,0-0.4,0l-52.6-15.6
		c-0.1,0-0.3-0.1-0.3-0.3c-0.9-2.1-3-3.5-5.3-3.5l-6.9-1.4c-0.2,0-0.4-0.3-0.4-0.5v-2.4c0-3.4-2.7-6.1-6.1-6.1
		c-3.4,0-6.1,2.7-6.1,6.1v2.3c0,0.2-0.2,0.4-0.4,0.5l-7.6,1.5c-2.6,0-4.9,1.7-5.6,4.2c-0.1,0.2-0.2,0.3-0.3,0.3l-50,14.8
		c-0.1,0-0.3,0-0.4,0c-0.6-0.3-1.2-0.5-1.9-0.5h-26.5c-2.3,0-4.2,1.8-4.2,4.1c0,1,0.3,1.9,0.9,2.7c0.8,1,2,1.5,3.2,1.5h10.5
		c0.3,0,0.5,0.2,0.5,0.5v1c0,0.1,0,0.1,0,0.2l-34.2,89.7c-0.1,0.2-0.3,0.3-0.5,0.3h-1.4l8.4,7.3c18.6,0,53.7-0.1,55.9-0.1
		c3.7-2.3,8.8-5.5,11-6.9h-0.1c-1.6,0-2.1,0.1-2.3-0.4l-34.6-90.8c-0.1-0.2,0-0.3,0.1-0.5c0.1-0.1,0.2-0.2,0.4-0.2h13
		c1.5,0,2.9-0.8,3.6-2.1c0.1-0.1,0.2-0.2,0.3-0.2l49.9-14.8c0.2-0.1,0.3,0,0.5,0.1c1.1,1,2.5,1.5,3.9,1.5l7.5-1.4
		c0.1,0,0.3,0,0.4,0.1c0.1,0.1,0.2,0.2,0.2,0.4v4.3h4c0.3,0,0.5,0.2,0.5,0.5v175.9c0,0.3-0.2,0.5-0.5,0.5h-5.5v7.2
		c0,0.3-0.2,0.5-0.5,0.5h-44.8V261.6z M510,175.2h-33.2c-0.3,0-0.5-0.2-0.5-0.5v-87c0-0.3,0.1-0.5,0.4-0.6c0.3,0,0.5,0.1,0.6,0.4
		l33.1,87c0.1,0.2,0,0.3,0,0.5C510.3,175.1,510.2,175.2,510,175.2z M477.4,174.2h31.9l-32-83.8L477.4,174.2z M474.4,175.2h-32
		c-0.2,0-0.3-0.1-0.4-0.2c-0.1-0.1-0.1-0.3-0.1-0.5l32-84.1c0.1-0.2,0.3-0.4,0.6-0.3c0.2,0.1,0.4,0.3,0.4,0.5v84.1
		C474.8,175,474.6,175.2,474.4,175.2C474.3,175.2,474.3,175.2,474.4,175.2L474.4,175.2z M443.1,174.2h30.7V93.4L443.1,174.2z
		 M335.5,175.2h-33.2c-0.3,0-0.5-0.2-0.5-0.5v-87c0-0.2,0.2-0.4,0.4-0.5c0.2,0,0.5,0.1,0.6,0.3l33.1,87c0.1,0.2,0,0.3-0.1,0.5
		C335.7,175.1,335.6,175.2,335.5,175.2L335.5,175.2z M302.8,174.2h31.9l-32-83.8L302.8,174.2z M299.8,175.2h-32
		c-0.2,0-0.3-0.1-0.4-0.2c-0.1-0.1-0.1-0.3-0.1-0.5l32-84.1c0.1-0.2,0.3-0.4,0.6-0.3c0.2,0,0.4,0.3,0.4,0.5v84.1
		C300.3,175,300.1,175.2,299.8,175.2C299.8,175.2,299.8,175.2,299.8,175.2L299.8,175.2z M268.5,174.2h30.8V93.4L268.5,174.2z
		 M388.4,60.7c-1.6,0-2.8-1.3-2.8-2.8s1.3-2.8,2.8-2.8c1.6,0,2.8,1.3,2.8,2.8v0C391.2,59.4,389.9,60.7,388.4,60.7z M388.4,56
		c-1,0-1.8,0.8-1.8,1.8c0,1,0.8,1.8,1.8,1.8s1.8-0.8,1.8-1.8c0,0,0,0,0,0C390.2,56.9,389.4,56,388.4,56C388.4,56,388.4,56,388.4,56
		L388.4,56z"/>
</g>
<g id="freepik--Leaves--inject-164">
	<path class="st2" d="M555.3,167.1c-0.2,0-0.4-0.1-0.5-0.3c-0.1-0.1-0.1-0.2,0-0.4c2-24.6,13.4-38.5,14.3-39c0.1-0.1,0.3-0.1,0.5,0
		c0.1,0.1,0.3,0.2,0.3,0.4c4.3,28.8-13.2,38.6-14.3,39.2l0,0C555.5,167.1,555.4,167.1,555.3,167.1z M569.1,129.1
		c-2.4,3.1-11.2,15.5-13.1,36.6C559.4,163.5,572.3,153.6,569.1,129.1L569.1,129.1z"/>
	<path class="st2" d="M554.5,153.5h-0.1c-0.2,0-0.3-0.1-0.3-0.3c-6.2-12.4-9.2-26.3-8.7-40.2c0-0.4,0-0.7,0-0.8
		c0-0.2,0.1-0.4,0.3-0.5c0.2-0.1,0.4-0.1,0.6,0.1c17.9,19.1,8.9,41.2,8.8,41.4C554.9,153.3,554.7,153.5,554.5,153.5z M546.3,113.3
		c-0.5,13.3,2.3,26.5,8.1,38.5C555.8,147.7,560.7,129.5,546.3,113.3z"/>
	<path class="st2" d="M554.1,168.2c-0.1,0-0.2,0-0.3-0.1c-6.5-5-15-14.4-18.9-30.3c-0.1-0.4-0.2-0.7-0.2-0.8c-0.1-0.2-0.1-0.4,0-0.5
		c0.1-0.2,0.4-0.3,0.6-0.2c16.5,5.6,19,22.9,19.4,28.1c0.3,3.5-0.1,3.7-0.3,3.8C554.3,168.2,554.2,168.2,554.1,168.2z M554.1,167.8
		L554.1,167.8z M535.9,137.6L535.9,137.6c3.7,15.1,11.6,24.2,17.9,29.2C554,162.8,552.3,143.8,535.9,137.6L535.9,137.6z"/>
	<path class="st2" d="M553.8,190.1c-0.2,0-0.4-0.2-0.5-0.4c0-0.1,0-0.2,0-0.3c6.2-23.9,19.8-35.6,20.9-36c0.2-0.1,0.3,0,0.5,0.1
		c0.1,0.1,0.2,0.3,0.2,0.4c-0.8,28.6-18.8,35.5-20.8,36.1H554l0,0C553.8,190.1,553.8,190.1,553.8,190.1z M573.8,155
		c-3,2.6-13.8,13.3-19.3,33.8C558.3,187.2,572.8,179.6,573.8,155L573.8,155z"/>
	<path class="st2" d="M550.2,189.8c-0.1,0-0.3,0-0.3-0.1c-5.9-5.6-13.4-15.5-15.2-31.3c0-0.4-0.1-0.6-0.1-0.8
		c-0.1-0.1-0.1-0.3,0-0.5c0.1-0.2,0.4-0.3,0.6-0.2c14.2,6.3,15.9,21.2,16,27.3c0,0.5,0,5.1-0.8,5.5
		C550.4,189.8,550.3,189.8,550.2,189.8z M550.2,189.3L550.2,189.3z M535.7,158.3L535.7,158.3c1.7,15,8.6,24.6,14.3,30.1
		C550.7,184.4,551.2,165.8,535.7,158.3L535.7,158.3z"/>
	<path class="st2" d="M545.7,214.7L545.7,214.7c-0.3,0-0.4-0.2-0.5-0.5c0-0.1,0-0.2,0.1-0.3c11.1-23.4,27.2-31.2,27.3-31.2
		c0.3-0.1,0.5,0.1,0.6,0.4c0,0.1,0,0.1,0,0.2c-6.2,27.7-25.3,31.1-27.3,31.4l0,0L545.7,214.7z M572,184.1
		c-3.4,1.9-16,10.1-25.4,29.4C550.5,212.7,566.2,207.9,572,184.1z"/>
	<path class="st2" d="M542.3,213.7c-0.2,0-0.3-0.1-0.4-0.2c-4.8-6.6-10.2-17.8-9-33.6c0-0.4,0-0.6,0-0.7c0-0.2,0-0.3,0.1-0.5
		c0.2-0.2,0.4-0.2,0.6-0.1c12.6,8.7,11.6,23.5,10.6,29.4C544.2,208.1,543.3,213.4,542.3,213.7L542.3,213.7z M542.3,213.2
		L542.3,213.2z M533.9,180c-1.2,15,3.8,25.7,8.3,32.2C543.6,208.5,547.6,190.3,533.9,180z"/>
	<path class="st2" d="M533.7,237.4h-0.6h-0.2c-0.2-0.1-0.4-0.3-0.4-0.5c0-0.1,0.1-0.2,0.2-0.3c15.5-21.2,32.6-25.6,32.8-25.6l0,0
		c0.2,0,0.3,0.1,0.4,0.2c0.1,0.1,0.1,0.3,0,0.5C555.4,235.9,537.7,237.4,533.7,237.4z M564.6,212.2c-3.7,1.3-17.7,7-30.5,24.2
		C538,236.4,554.4,234.7,564.6,212.2L564.6,212.2z"/>
	<path class="st2" d="M529.9,235.8c-0.2,0-0.4-0.1-0.5-0.2c-3.4-7.5-6.6-19.5-2.4-34.9c0.1-0.4,0.2-0.6,0.2-0.7
		c0-0.2,0.1-0.3,0.2-0.4c0.2-0.1,0.5-0.1,0.6,0.1c10.5,10.8,7,24.9,4.9,30.5C533,230.1,530.9,235.7,529.9,235.8L529.9,235.8z
		 M528,200.9c-4,14.5-1.2,26.1,2,33.4c2.7-5,4.1-10.6,4.2-16.3C534.5,211.7,532.2,205.6,528,200.9z"/>
	<path class="st2" d="M521,258c-1.7,0-3.4-0.1-5.1-0.5c-0.2-0.1-0.3-0.4-0.3-0.6c0-0.1,0.1-0.2,0.2-0.3
		c18.3-16.9,35.8-19.5,37.3-19.2c0.2,0,0.3,0.1,0.4,0.3c0.1,0.2,0,0.3,0,0.5C541.7,255.4,528.2,258,521,258z M517.2,256.8
		c4,0.6,20.6,1.8,34.8-18.2C548.1,239.1,533.3,242.1,517.2,256.8z"/>
	<path class="st2" d="M513.2,255.4L513.2,255.4c-0.2,0-0.4-0.1-0.5-0.3c-1.9-8.1-2.6-20.6,4.5-35c0.2-0.3,0.3-0.6,0.3-0.7
		c0-0.2,0.1-0.3,0.3-0.4c0.2-0.1,0.5,0,0.6,0.2c7.8,11.9,2.9,24.2-0.8,30.5C516.6,251.6,514.1,255.4,513.2,255.4z M518.2,220.5
		L518.2,220.5c-6.8,13.7-6.3,25.6-4.6,33.4c3.6-4.5,6.2-9.7,7.5-15.3C522.5,232.4,521.5,225.9,518.2,220.5z"/>
	<path class="st2" d="M505.5,276.3c-3.7,0.1-7.4-0.6-10.8-2c-0.2-0.1-0.3-0.4-0.1-0.6c0.1-0.1,0.1-0.2,0.3-0.2
		c23.3-14.3,40.8-12.2,40.9-12.2c0.2,0.1,0.3,0.2,0.3,0.4c0,0.2,0,0.3-0.1,0.5C524.3,273.6,513.3,276.3,505.5,276.3z M496.2,273.8
		c3.8,1.4,20.2,5.7,38.3-11.7C530.5,262,515.3,262.3,496.2,273.8L496.2,273.8z"/>
	<path class="st2" d="M492.6,271.7L492.6,271.7c-0.2,0-0.4-0.2-0.5-0.4c0,0,0-0.1,0-0.1c-0.2-8.2,1.7-20.7,11.7-33.7
		c0.2-0.3,0.4-0.6,0.5-0.6c0.1-0.2,0.2-0.3,0.4-0.3c0.2-0.1,0.5,0.1,0.6,0.3c5.2,12.7-1.7,23.8-6.2,29.2
		C496.8,268.6,493.5,271.7,492.6,271.7z M492.6,271.2L492.6,271.2z M504.6,238L504.6,238c-9.4,12.3-11.5,24.2-11.5,32.3
		c4.6-3.7,8.3-8.5,10.7-13.9C506.5,250.6,506.8,244,504.6,238L504.6,238z"/>
	<path class="st2" d="M486.9,291.6c-10.6,0-16.9-4.5-17-4.6c-0.1-0.2-0.1-0.5,0-0.6c0.1-0.1,0.2-0.2,0.3-0.2
		c26.7-9.8,43.5-4.5,43.6-4.5c0.2,0.1,0.3,0.2,0.3,0.4c0,0.2-0.1,0.3-0.2,0.4C503.3,289.5,494.1,291.6,486.9,291.6z M471.4,286.8
		c3.6,2,19.5,9.2,41-4.5C508.5,281.4,493.6,278.9,471.4,286.8z"/>
	<path class="st2" d="M468.4,284c0,0-0.1,0-0.1,0c-0.2-0.1-0.3-0.2-0.3-0.4c0-0.1,0-0.1,0-0.2c2.4-11.8,8.8-22.2,19-31.1l0.7-0.6
		c0.1-0.2,0.2-0.3,0.4-0.3c0.3,0,0.5,0.2,0.5,0.4c2.4,12.9-6,22.3-11.3,26.8C473.6,281.5,469.5,284,468.4,284z M487.7,252.9
		l-0.1,0.1c-9.8,8.5-16,18.5-18.5,29.8c5.5-2.8,10.3-6.9,13.9-11.9C487,265.2,488.6,259.2,487.7,252.9L487.7,252.9z"/>
	<path class="st2" d="M216.3,167.1c-0.1,0-0.1,0-0.2,0l0,0c-1.1-0.6-18.7-10.3-14.3-39.2c0-0.2,0.1-0.3,0.3-0.4
		c0.1-0.1,0.3-0.1,0.5,0c0.9,0.5,12.3,14.4,14.3,39c0.1,0.1,0.1,0.2,0,0.4C216.7,167.1,216.5,167.2,216.3,167.1z M202.6,129.1
		c-3.3,24.5,9.7,34.4,13.1,36.6C213.8,144.6,205,132.2,202.6,129.1L202.6,129.1z"/>
	<path class="st2" d="M217.2,153.5c-0.2,0-0.4-0.2-0.5-0.4c-0.1-0.2-9.2-22.3,8.8-41.4c0.1-0.2,0.4-0.2,0.6-0.1
		c0.2,0.1,0.3,0.3,0.3,0.5c0,0.1,0,0.4,0,0.8c0.6,13.9-2.4,27.8-8.6,40.2c-0.1,0.1-0.2,0.3-0.4,0.3L217.2,153.5z M225.4,113.3
		c-14.4,16.2-9.5,34.3-8.1,38.5C223,139.8,225.8,126.6,225.4,113.3z"/>
	<path class="st2" d="M217.5,168.2c-0.1,0-0.2,0-0.2-0.1c-0.2-0.1-0.6-0.3-0.3-3.8c0.4-5.2,2.9-22.5,19.4-28.1
		c0.2-0.1,0.5,0,0.6,0.2c0.1,0.2,0.1,0.4,0,0.5c0,0.1-0.1,0.4-0.2,0.8c-3.9,15.9-12.4,25.3-18.9,30.3
		C217.7,168.2,217.6,168.2,217.5,168.2z M235.8,137.6c-16.4,6.2-18.1,25.2-17.9,29.3C224.2,161.8,232.1,152.7,235.8,137.6
		L235.8,137.6z"/>
	<path class="st2" d="M217.8,190.1c0,0,0,0-0.2,0l0,0h-0.1c-2.1-0.6-20.1-7.5-20.9-36.1c0-0.2,0.1-0.3,0.2-0.4
		c0.1-0.1,0.3-0.1,0.5-0.1c1.1,0.4,14.6,12,20.9,36c0,0.1,0,0.2,0,0.3C218.2,190,218,190.1,217.8,190.1z M197.8,154.9
		c1,24.6,15.6,32.3,19.3,33.9C211.7,168.9,201,157.6,197.8,154.9L197.8,154.9z"/>
	<path class="st2" d="M221.4,189.8c-0.1,0-0.1,0-0.2-0.1c-0.8-0.4-0.8-5-0.8-5.5c0.1-6.1,1.8-21,16-27.3c0.3-0.1,0.5,0,0.7,0.3
		c0.1,0.1,0.1,0.3,0,0.4c0,0.1-0.1,0.4-0.1,0.8c-1.8,15.8-9.3,25.7-15.2,31.2C221.7,189.7,221.6,189.8,221.4,189.8z M236,158.3
		c-15.5,7.5-15,26.2-14.3,30.1C227.4,182.9,234.2,173.3,236,158.3L236,158.3z"/>
	<path class="st2" d="M226,214.7h-0.1l0,0c-2.1-0.3-21.2-3.7-27.3-31.4c-0.1-0.3,0.1-0.5,0.4-0.6c0.1,0,0.1,0,0.2,0
		c0.1,0,16.2,7.8,27.3,31.2c0.1,0.1,0.1,0.2,0.1,0.3C226.5,214.5,226.3,214.7,226,214.7L226,214.7z M199.7,184.1
		c5.7,23.7,21.4,28.6,25.4,29.4C215.7,194.3,203.1,186.1,199.7,184.1L199.7,184.1z"/>
	<path class="st2" d="M229.4,213.7h-0.1c-0.9-0.2-1.8-5.6-1.8-5.6c-1-5.9-2-20.7,10.6-29.4c0.2-0.1,0.5-0.1,0.6,0.1
		c0.1,0.1,0.2,0.3,0.1,0.5c0,0.1,0,0.4,0.1,0.7c1.2,15.8-4.2,27-9,33.6C229.7,213.6,229.5,213.7,229.4,213.7z M237.8,180
		c-13.8,10.3-9.8,28.5-8.3,32.2C234,205.7,239,195,237.8,180z"/>
	<path class="st2" d="M237.9,237.4c-4,0-21.7-1.5-32.2-25.8c-0.1-0.1-0.1-0.3,0-0.5c0.1-0.2,0.2-0.2,0.4-0.2
		c0.1,0,17.2,4.4,32.8,25.6c0.1,0.1,0.1,0.2,0.1,0.3c0,0.2-0.1,0.5-0.4,0.5h-0.2L237.9,237.4z M207.1,212.2
		c10.2,22.4,26.5,24.1,30.5,24.2C224.7,219.2,210.8,213.5,207.1,212.2L207.1,212.2z"/>
	<path class="st2" d="M241.8,235.8L241.8,235.8c-1-0.1-3-5.6-3.1-5.7c-2-5.6-5.6-19.8,4.9-30.5c0.2-0.2,0.4-0.2,0.6-0.1
		c0.1,0.1,0.2,0.3,0.2,0.4c0,0.1,0.1,0.4,0.2,0.7c4.2,15.3,1,27.4-2.4,34.8C242.2,235.7,242,235.8,241.8,235.8z M243.7,200.9
		c-4.2,4.7-6.5,10.8-6.3,17.1c0.1,5.7,1.6,11.3,4.3,16.3C244.9,227,247.7,215.5,243.7,200.9L243.7,200.9z"/>
	<path class="st2" d="M250.7,258c-7.2,0-20.7-2.7-32.4-19.9c-0.1-0.1-0.1-0.3,0-0.5c0.1-0.2,0.2-0.3,0.4-0.3
		c1.4-0.2,19,2.3,37.3,19.2c0.1,0.1,0.2,0.2,0.2,0.3c0.1,0.2,0,0.5-0.3,0.6C254.1,257.9,252.4,258.1,250.7,258z M219.7,238.5
		c14.2,20.1,30.8,18.9,34.8,18.2C238.4,242.1,223.6,239.1,219.7,238.5L219.7,238.5z"/>
	<path class="st2" d="M258.4,255.4c-0.9,0-3.3-3.7-4.5-5.7c-3.6-6.3-8.6-18.6-0.8-30.5c0.1-0.2,0.4-0.3,0.6-0.2
		c0.2,0.1,0.3,0.2,0.3,0.4c0.1,0.1,0.2,0.3,0.3,0.7c7.1,14.4,6.4,26.9,4.5,34.9C258.9,255.2,258.7,255.3,258.4,255.4L258.4,255.4z
		 M253.5,220.5c-3.3,5.4-4.3,11.9-2.9,18.1c1.3,5.6,3.8,10.9,7.5,15.4C259.8,246.2,260.3,234.2,253.5,220.5L253.5,220.5z"/>
	<path class="st2" d="M266.1,276.3c-7.7,0-18.7-2.7-30.4-14.2c-0.1-0.1-0.2-0.3-0.1-0.5c0-0.2,0.2-0.3,0.3-0.4
		c0.1,0,17.6-2.1,40.9,12.2c0.1,0,0.2,0.1,0.3,0.2c0.1,0.2,0,0.5-0.1,0.6C273.5,275.7,269.8,276.4,266.1,276.3z M237.2,262.1
		c18.1,17.4,34.5,13,38.3,11.7C256.3,262.3,241.1,262,237.2,262.1L237.2,262.1z"/>
	<path class="st2" d="M279,271.7c-0.9,0-4.1-3-6.3-5.7c-4.6-5.5-11.5-16.5-6.3-29.2c0.1-0.2,0.3-0.4,0.6-0.3c0.2,0,0.3,0.2,0.4,0.3
		c0.1,0.1,0.3,0.4,0.5,0.6c9.9,13,11.8,25.5,11.7,33.7c0,0,0,0.1,0,0.1C279.4,271.5,279.3,271.6,279,271.7L279,271.7z M267,238
		c-2.2,6-1.9,12.6,0.8,18.4c2.4,5.4,6.1,10.2,10.7,13.9C278.5,262.3,276.5,250.4,267,238L267,238z"/>
	<path class="st2" d="M284.8,291.6c-7.2,0-16.4-2.1-26.9-9c-0.1-0.1-0.2-0.3-0.2-0.4c0-0.2,0.1-0.3,0.3-0.4
		c0.1-0.1,16.9-5.3,43.6,4.5c0.1,0,0.2,0.1,0.3,0.2c0.2,0.2,0.2,0.5,0,0.6C301.7,287.1,295.4,291.6,284.8,291.6z M259.3,282.3
		c21.5,13.7,37.3,6.5,41,4.5C278.1,278.9,263.2,281.4,259.3,282.3L259.3,282.3z"/>
	<path class="st2" d="M303.3,284c-1,0-5.2-2.5-8.8-5.4c-5.3-4.4-13.8-13.8-11.3-26.8c0.1-0.2,0.3-0.4,0.5-0.4c0.2,0,0.3,0.1,0.4,0.3
		l0.7,0.6c10.2,8.9,16.5,19.4,19,31.1c0,0.1,0,0.1,0,0.2c0,0.2-0.2,0.3-0.3,0.4C303.4,284,303.3,284,303.3,284z M303.3,283
		L303.3,283z M284,252.9c-0.9,6.2,0.6,12.3,4.6,17.9c3.7,5,8.4,9.1,13.9,11.9c-2.5-11.2-8.7-21.2-18.5-29.8L284,252.9z"/>
</g>
<g id="freepik--character-2--inject-164">
	<path class="st2" d="M317.6,291.2c0,0-2.1,24-2.1,25.4s-27.8,67.7-30,73.8s-6.5,17.9-5,23.1s9.3,10.2,13.9,11.7s13.6,1.4,15.3,1.1
		s10.5-0.2,10.5-0.2l8.6-20.6l-7.6-3.8l11.5-33.2l-4.7-40L317.6,291.2z"/>
	<path class="st2" d="M305.8,427c-3.5,0-8.5-0.3-11.6-1.3c-4.2-1.4-12.6-6.3-14.2-12c-1.4-5.2,2.7-16.8,4.9-23l0.2-0.4
		c0.9-2.6,6.7-16.7,12.9-31.5c7.5-18.2,16.9-40.9,17.1-42.1c0-1.4,2-24.5,2.1-25.4c0-0.3,0.2-0.5,0.5-0.5c0.3,0,0.5,0.2,0.5,0.5
		l10.3,37.4l4.8,40c0,0.1,0,0.2,0,0.2l-11.4,32.8l7.2,3.6c0.2,0.1,0.3,0.4,0.2,0.6l-8.6,20.6c-0.1,0.2-0.3,0.3-0.5,0.3
		c-3,0-9.1-0.1-10.4,0.1C308.4,426.9,307.1,427,305.8,427z M317.9,294c-0.6,6.4-1.9,21.5-1.9,22.6c0,0.8-5,13.2-17.1,42.5
		c-6.1,14.9-11.9,28.9-12.8,31.5l-0.2,0.5c-2.2,6.1-6.2,17.5-4.9,22.4s8.8,9.8,13.5,11.3s13.5,1.4,15,1.1s8.6-0.2,10.3-0.2l8.3-19.9
		l-7.2-3.6c-0.2-0.1-0.3-0.4-0.2-0.6l11.5-33.1l-4.7-39.9L317.9,294z"/>
	<path class="st3" d="M321.1,402.2c-0.1,0-0.1,0-0.2,0c-0.2-0.1-17.9-8.1-27-7.8c-0.3,0-0.5-0.2-0.5-0.5c0,0,0,0,0,0
		c0-0.3,0.2-0.5,0.5-0.5c9.4-0.3,26.7,7.5,27.5,7.9c0.3,0.1,0.4,0.4,0.2,0.7C321.5,402.2,321.3,402.2,321.1,402.2z"/>
	<path class="st2" d="M336.4,395.6l-2.3,28.2h123.4c-2.6-15.1-4.1-30.3-4.4-45.6c0,0,6.2-49.8,6.2-55.7s4.8-22.9,3.6-25.8
		s-27.1-10.8-38.4-14.8s-27.2-7.5-27.2-7.5l-29.2,3.2c0,0-34.3,6.3-41.6,7.5s-8.3,3-8.9,6.2s10.3,37.4,10.3,37.4L336.4,395.6z"/>
	<path class="st2" d="M457.5,424.3H334.1c-0.1,0-0.3-0.1-0.4-0.2c-0.1-0.1-0.1-0.2-0.1-0.4l2.3-28.1l-8.5-67
		c-1.1-3.4-10.9-34.3-10.3-37.6s1.5-5.4,9.3-6.6c7.3-1.1,41.3-7.4,41.6-7.4l29.3-3.2c0.1,0,0.1,0,0.2,0c0.2,0,16.1,3.6,27.2,7.6
		c2.7,1,6.3,2.2,10.2,3.5c16.1,5.4,27.6,9.4,28.5,11.6c0.6,1.6-0.2,6.3-1.6,13.8c-0.9,4.8-1.9,9.6-1.9,12.2c0,5.9-6,53.7-6.2,55.8
		c0.3,15.2,1.8,30.4,4.4,45.4c0,0.1,0,0.3-0.1,0.4C457.8,424.2,457.6,424.3,457.5,424.3z M334.6,423.3h122.2
		c-2.5-14.9-4-30-4.3-45.1c0.1-0.6,6.2-49.9,6.2-55.7c0-2.7,1-7.6,1.9-12.4c1.1-5.5,2.3-11.7,1.7-13.2c-0.8-2-17.1-7.4-27.9-11
		c-3.8-1.3-7.5-2.5-10.2-3.5c-10.6-3.8-25.8-7.2-27-7.5l-29.2,3.2c-0.3,0.1-34.3,6.3-41.6,7.5s-7.9,2.9-8.5,5.8
		c-0.4,2.3,5.9,23.5,10.3,37.2l8.5,67.1v0.1L334.6,423.3z"/>
	<path class="st3" d="M364.3,295.3c0,0,2.3,15.5,5.3,28.3s11.2,31.8,11.2,31.8s20-32.5,23-47.5s3.9-19.7,3.9-19.7l-43.2-0.4
		L364.3,295.3z"/>
	<path class="st2" d="M380.8,355.9L380.8,355.9c-0.2,0-0.4-0.1-0.4-0.3c-0.1-0.2-8.3-19.2-11.3-31.9s-5.2-28.2-5.3-28.4
		c0,0,0-0.1,0-0.1l0.2-7.6c0-0.3,0.2-0.5,0.5-0.5l0,0l43.2,0.4c0.1,0,0.3,0.1,0.4,0.2c0.1,0.1,0.1,0.3,0.1,0.4l-3.9,19.7
		c-3,15-22.3,46.4-23.1,47.7C381.1,355.8,381,355.9,380.8,355.9z M364.8,295.2c0.1,0.9,2.4,16,5.2,28.2c2.6,11,9.2,26.9,10.8,30.8
		c3.1-5.1,19.8-33.1,22.5-46.5l3.8-19.1l-42.1-0.4L364.8,295.2z"/>
	<path class="st3" d="M368.9,267.5c0,0-4.1,10.3-6.2,14.3s-14,21-13.4,22.3s6.7-0.5,8.3-1.2s9-3.5,9-3.5s-1.6,3.5-0.9,4.6
		s11.7,11.3,11.7,11.3l8.7,0.1c0.9-1.1,1.9-2.1,3-3.1c1.6-1.4,12.4-8.3,15.2-10.2s3-7,3-7s14.2,7.7,14.9,5s-3-6.1-6.6-15.6
		s-5-15.7-8-20.2s-4.1-4.7-4.1-4.7L368.9,267.5z"/>
	<path class="st2" d="M386.1,315.9L386.1,315.9l-8.7-0.1c-0.1,0-0.2-0.1-0.3-0.1c-1.1-1-11.1-10.2-11.8-11.4c-0.6-0.9,0-2.8,0.4-4
		c-2.1,0.8-6.6,2.6-7.9,3.1c-0.1,0-7.8,3.2-8.9,1c-0.5-1,1.6-4.5,8.2-14.6c2.2-3.5,4.4-6.7,5.1-8.1c2-3.9,6.2-14.1,6.2-14.2
		c0.1-0.2,0.2-0.3,0.4-0.3l34.5-8c0.1,0,0.1,0,0.2,0c0.3,0,1.6,0.6,4.5,4.9c2,3,3.3,6.8,5,11.6c0.9,2.5,1.9,5.4,3.1,8.6
		c1.3,3.3,2.8,6.5,4.6,9.6c1.6,2.9,2.5,4.6,2.1,6.3c-0.1,0.4-0.4,0.7-0.7,0.8c-2.4,1-11.3-3.5-14.3-5.1c-0.2,1.5-0.9,5-3.1,6.6
		c-1,0.7-3.1,2.1-5.6,3.7c-3.8,2.5-8.6,5.6-9.6,6.5c-1,1-2,2-2.9,3C386.4,315.8,386.3,315.9,386.1,315.9z M377.6,314.8l8.3,0.1
		c0.9-1.1,1.9-2.1,2.9-3c1-0.9,5.6-3.9,9.7-6.6c2.3-1.5,4.5-3,5.5-3.7c2.5-1.8,2.8-6.6,2.8-6.6c0-0.2,0.1-0.3,0.2-0.4
		c0.1-0.1,0.3-0.1,0.5,0c4.6,2.5,12.4,6.1,14.1,5.4c0.1,0,0.1-0.1,0.1-0.1c0.3-1.3-0.5-2.9-2-5.6c-1.8-3.1-3.3-6.4-4.6-9.7
		c-1.3-3.3-2.2-6.1-3.1-8.7c-1.7-4.9-2.9-8.5-4.9-11.4c-2.3-3.5-3.5-4.3-3.8-4.4l-34.1,7.9c-0.6,1.6-4.3,10.4-6.1,14.1
		c-0.8,1.5-2.8,4.6-5.2,8.2c-3.3,5-8.2,12.6-8.2,13.7c0.3,0.6,5.2-0.4,7.6-1.5c1.6-0.8,8.7-3.5,9-3.6c0.2-0.1,0.4,0,0.5,0.1
		c0.1,0.1,0.2,0.4,0.1,0.5c-0.6,1.3-1.3,3.5-1,4.2C366.5,304.5,373.1,310.7,377.6,314.8z"/>
	<path class="st3" d="M371.9,273.4c0,0,0.9,25.2,1.1,29.6s9.2,24,10.8,21.4s12-22.1,15.2-29.3s4.4-21.8,4.9-24.8s0.9-16.6,0.9-16.6
		s-12,18.1-16.8,20.9S371.9,273.4,371.9,273.4z"/>
	<path class="st2" d="M383.4,325.2c-0.1,0-0.2,0-0.3,0c-2.9-0.8-10.5-18.3-10.6-22.1c-0.2-4.3-1.1-29.4-1.1-29.6
		c0-0.2,0.1-0.3,0.2-0.4c0.1-0.1,0.3-0.1,0.5-0.1c0.1,0,11.1,3.8,15.7,1.3s16.5-20.5,16.6-20.7c0.1-0.2,0.4-0.3,0.6-0.2
		c0.2,0.1,0.4,0.3,0.4,0.5c0,0.6-0.5,13.7-0.9,16.7c-0.1,0.5-0.2,1.4-0.3,2.6c-0.6,5.3-1.9,16.3-4.6,22.3
		c-3.3,7.4-13.7,26.8-15.2,29.4C384,325,383.7,325.2,383.4,325.2z M372.4,274.1c0.1,4.1,0.9,25,1.1,28.9c0.2,4.2,8.1,21,9.9,21.2
		c1.5-2.5,11.9-21.9,15.1-29.2c2.6-5.9,3.9-16.8,4.5-22c0.1-1.2,0.2-2.1,0.3-2.6c0.4-2.3,0.7-11,0.9-14.8c-3,4.4-11.9,17.2-16,19.6
		C383.9,277.5,375,274.9,372.4,274.1L372.4,274.1z"/>
	<polygon class="st2" points="386.9,280.1 372.5,289 371.9,273.4 	"/>
	<path class="st2" d="M372.5,289.5c-0.1,0-0.2,0-0.2-0.1c-0.2-0.1-0.3-0.3-0.2-0.5l-0.6-15.6c0-0.2,0.1-0.3,0.2-0.4
		c0.2-0.1,0.3-0.1,0.5,0l15,6.8c0.2,0.1,0.3,0.2,0.3,0.4c0,0.2-0.1,0.4-0.2,0.5l-14.4,8.9C372.7,289.5,372.6,289.5,372.5,289.5z
		 M372.4,274.2l0.5,14l12.9-7.9L372.4,274.2z"/>
	<path class="st3" d="M328.8,405.5c0,0,27.2,3.5,29.2,3.5s10.5,4.9,13.6,7.1s9.2,7.5,9.2,7.5l-31.7,0.7c-1.8-0.4-3.6-0.7-5.5-0.8
		c-1.9,0.1-4.5,1.6-10,1.6s-11.7-2.7-11.7-2.7L328.8,405.5z"/>
	<path class="st2" d="M333.7,425.7h-0.2c-5.5,0-11.6-2.6-11.9-2.7c-0.3-0.1-0.4-0.4-0.3-0.6l7-17c0.1-0.2,0.3-0.3,0.5-0.3
		c9.3,1.2,27.2,3.4,29,3.4h0.2c2.3,0,11,5.1,13.9,7.2c3.1,2.3,9.1,7.5,9.2,7.6c0.2,0.2,0.2,0.5,0.1,0.7c-0.1,0.1-0.2,0.2-0.4,0.2
		l-31.7,0.7H349c-1.8-0.4-3.6-0.7-5.4-0.7c-0.8,0.1-1.5,0.2-2.3,0.5C338.9,425.3,336.3,425.7,333.7,425.7z M322.5,422.2
		c3.5,1.4,7.3,2.2,11.1,2.4c2.5,0,5.1-0.4,7.5-1.1c0.8-0.3,1.6-0.4,2.5-0.5c1.9,0.1,3.7,0.3,5.6,0.8l30.3-0.7
		c-1.8-1.6-5.9-5-8.2-6.7c-3.4-2.5-11.5-7-13.3-7h-0.1c-2.3,0-25.4-3-28.8-3.4L322.5,422.2z"/>
	<path class="st2" d="M356.1,424.3c-0.1,0-0.2,0-0.2-0.1c-0.1,0-7.5-4.4-9.3-5.2c-1.4-0.7-5.9,0.1-7.4,0.5c-0.3,0.1-0.5-0.1-0.6-0.4
		c-0.1-0.3,0.1-0.5,0.4-0.6l0,0c0.6-0.1,6.1-1.3,8.1-0.4s9.1,5.1,9.4,5.2c0.2,0.1,0.3,0.4,0.2,0.7
		C356.4,424.1,356.2,424.2,356.1,424.3L356.1,424.3z"/>
	<path class="st2" d="M364.9,424.2c-0.1,0-0.2,0-0.3-0.1c-3.6-3.1-9.6-8.1-10.6-8.5s-6.7-0.4-10.3-0.4c-0.3,0-0.5-0.2-0.5-0.5
		c0-0.3,0.2-0.5,0.5-0.5c0.9,0,9.1-0.1,10.6,0.4s10,7.8,10.9,8.7c0.2,0.2,0.2,0.5,0,0.7c0,0,0,0,0,0
		C365.1,424.1,365,424.2,364.9,424.2z"/>
	<path class="st2" d="M373.1,423.8c-0.2,0-0.3-0.1-0.4-0.2c-0.5-0.6-4.8-4.2-8-6.8c-2.2-1.8-4-3.3-4.5-3.7c-0.6-0.6-4.5-0.9-8-0.9
		c-0.3,0-0.5-0.2-0.5-0.5s0.2-0.5,0.5-0.5l0,0c1.2,0,7.5,0.1,8.6,1.2c0.4,0.4,2.2,1.9,4.4,3.7c4.5,3.7,7.7,6.3,8.1,6.9
		c0.2,0.2,0.1,0.5-0.1,0.7C373.2,423.7,373.2,423.8,373.1,423.8z"/>
	<path class="st3" d="M422.9,413.9l-4.7-10.5l11.1-1.2C429.3,402.2,430.3,410.9,422.9,413.9z"/>
	<path class="st2" d="M422.9,414.4c-0.2,0-0.4-0.1-0.5-0.3l-4.6-10.4c-0.1-0.3,0-0.5,0.3-0.7c0,0,0.1,0,0.1,0l11.1-1.3
		c0.1,0,0.3,0,0.4,0.1c0.1,0.1,0.2,0.2,0.2,0.3c0,0.1,0.9,9.1-6.7,12.2C423,414.4,422.9,414.4,422.9,414.4z M419,403.9l4.2,9.4
		c5.6-2.6,5.8-8.7,5.7-10.5L419,403.9z"/>
	<path class="st2" d="M442.5,317.8c0,0-15.1,19.2-15.4,23.9s6.5,43.8,6.5,43.8l-13.3,3.1c0,0,3.5,9.3,3.5,14.6
		c0,3.6-0.3,7.1-0.9,10.7c0,0,26.3,5.2,33.4,4.4s9.2-3.6,13.6-10s-0.9-17.1-3.2-22.9s-1.5-8.8-1.5-8.8l-6.7-60.5"/>
	<path class="st2" d="M454.3,418.9c-8.9,0-30.5-4.3-31.5-4.5c-0.3-0.1-0.4-0.3-0.4-0.6c0.5-3.5,0.8-7,0.9-10.6
		c0-5.2-3.5-14.4-3.5-14.5c-0.1-0.1-0.1-0.3,0-0.4c0.1-0.1,0.2-0.2,0.3-0.2l12.9-3c-0.8-4.6-6.7-38.9-6.4-43.4
		c0.3-4.8,14.9-23.4,15.5-24.2c0.2-0.2,0.5-0.3,0.7-0.1c0.2,0.2,0.2,0.5,0.1,0.7c-5.2,6.6-15,20-15.3,23.6
		c-0.3,4.6,6.4,43.2,6.4,43.6c0,0.3-0.1,0.5-0.4,0.6l-12.7,3c0.8,2.1,3.4,9.6,3.4,14.3c0,3.4-0.3,6.9-0.8,10.3
		c3.6,0.7,26.3,5,32.7,4.3c6.7-0.8,8.6-3.1,13.2-9.8c3.8-5.5,0-14.5-2.5-20.5c-0.3-0.7-0.5-1.3-0.8-1.9c-2.2-5.4-1.6-8.4-1.5-9
		l-6.7-60.5c0-0.3,0.2-0.5,0.4-0.5c0,0,0,0,0,0c0.3,0,0.5,0.2,0.5,0.4l6.7,60.6c0,0.1,0,0.1,0,0.2c0,0-0.8,2.9,1.5,8.5
		c0.2,0.6,0.5,1.2,0.8,1.9c2.6,6.2,6.5,15.5,2.4,21.5c-4.6,6.6-6.7,9.3-13.9,10.2C455.7,418.8,455,418.9,454.3,418.9z"/>
	<path class="st3" d="M433.5,385.5c0,0,16-3.6,25.7-3.9"/>
	<path class="st2" d="M433.5,386c-0.3,0-0.5-0.2-0.6-0.4s0.2-0.5,0.4-0.6c0.2,0,16.1-3.6,25.8-3.9c0.3,0,0.5,0.2,0.5,0.5
		s-0.2,0.5-0.5,0.5C449.6,382.4,433.8,385.9,433.5,386L433.5,386z"/>
	<path class="st3" d="M383.7,366.5l-4.4-24.3c0,0-25.5,1.2-36.8,1.8s-45-0.4-45-0.4s19.4,51.2,21.1,55.3s3.1,7.6,3.1,7.6
		c13,2.1,26.2,3.1,39.3,2.9c19.7-0.5,28.5-5.3,28.5-5.3L383.7,366.5z"/>
	<path class="st2" d="M356.9,409.9c-11.8-0.1-23.6-1.1-35.2-3c-0.2,0-0.3-0.1-0.4-0.3c0,0-1.5-3.5-3.1-7.6s-20.9-54.8-21.1-55.3
		c-0.1-0.2,0-0.3,0.1-0.5c0.1-0.1,0.3-0.2,0.4-0.2c0.3,0,33.8,1,44.9,0.4s36.6-1.8,36.8-1.8c0.3,0,0.5,0.2,0.5,0.4l4.4,24.3l0,0
		l5.8,37.6c0,0.2-0.1,0.4-0.3,0.5c-0.4,0.2-9.1,4.8-28.7,5.3C359.7,409.9,358.3,409.9,356.9,409.9z M322.1,406
		c12.9,2.1,25.9,3,39,2.9c17.3-0.5,26.2-4.2,27.9-5l-5.8-37.3l-4.3-23.9c-3.4,0.1-26,1.2-36.4,1.8s-39.2-0.2-44.3-0.4
		c2.3,6.2,19.3,50.8,20.8,54.6C320.5,402.1,321.8,405.1,322.1,406z"/>
	<path class="st3" d="M420.2,388.6l-9.3-3.7c0,0-15.9-12.2-17.4-13.6s-9.8-4.9-9.8-4.9l1.9,9.8c0,0-28.5,12.8-30.4,14.3
		s2.1,2.9,2.1,2.9s-3.8,2.4-1.9,3.6s8.4,1,8.4,1c2.6,1.3,5.3,2.2,8.1,2.6c4.2,0.5,13.8,0.9,13.8,0.9c-1,1.3-2.5,2.3-4.2,2.7
		c-3.1,1-12.6,4-11.3,5.7s10.2,0,10.2,0s17.2-3.8,17.8-3.8s6.1,1.2,8.8,1.1s9-1.2,9-1.2l7.5-0.1C423.7,406,423.5,393.4,420.2,388.6z
		"/>
	<path class="st2" d="M373.7,411.1c-1.8,0-3.3-0.2-3.8-0.9c-0.2-0.3-0.3-0.7-0.2-1c0.6-1.9,7.6-4.2,11.7-5.5
		c1.2-0.3,2.3-0.9,3.3-1.7c-2.6-0.1-9.5-0.5-12.8-0.9c-2.9-0.4-5.6-1.3-8.2-2.6c-1.1,0-6.7,0.1-8.5-1c-0.5-0.3-0.7-0.7-0.8-1.2
		c0-1,1.1-2,1.9-2.7c-0.8-0.4-1.9-1-2-1.9c-0.1-0.6,0.2-1.2,0.7-1.5c1.8-1.5,26.6-12.7,30.1-14.2l-1.8-9.4c0-0.2,0-0.4,0.2-0.5
		c0.1-0.1,0.3-0.1,0.5-0.1c0.4,0.1,8.5,3.5,10,5s16.2,12.7,17.2,13.5l9.3,3.7c0.1,0,0.2,0.1,0.2,0.2c3.3,4.8,3.5,17.1,3.5,17.6
		c0,0.1-0.1,0.3-0.1,0.4c-0.1,0.1-0.2,0.1-0.4,0.1l-7.5,0.1c-0.2,0-6.3,1.1-9,1.2c-2.4-0.1-4.7-0.4-7-0.9c-0.8-0.1-1.6-0.3-1.8-0.3
		c-0.6,0.1-10.9,2.3-17.7,3.8C378.4,410.8,376.1,411,373.7,411.1z M363.8,397.5c0.1,0,0.2,0,0.2,0.1c2.5,1.3,5.2,2.2,8,2.6
		c4.1,0.5,13.7,0.9,13.8,0.9c0.2,0,0.3,0.1,0.4,0.3c0.1,0.2,0.1,0.3,0,0.5c-1.1,1.4-2.7,2.5-4.5,2.9c-7.6,2.3-11.1,4.2-11.1,4.9
		c0.7,0.9,5.6,0.6,9.8-0.1c2.9-0.6,17.2-3.8,17.9-3.8c0.7,0.1,1.3,0.2,2,0.3c2.2,0.5,4.5,0.8,6.8,0.8c2.7-0.1,8.9-1.2,8.9-1.2
		l7.1-0.1c-0.1-2.4-0.5-12.3-3.2-16.5l-9.2-3.6c0,0-0.1,0-0.1-0.1c-0.6-0.5-15.9-12.2-17.4-13.6c-1-1-6.1-3.2-8.8-4.4l1.7,8.9
		c0,0.2-0.1,0.5-0.3,0.5c-7.9,3.5-28.7,13-30.2,14.2c-0.2,0.2-0.3,0.4-0.3,0.5c0.1,0.5,1.4,1.2,2.2,1.5c0.2,0.1,0.3,0.2,0.3,0.4
		c0,0.2-0.1,0.4-0.2,0.5c-0.9,0.6-2.2,1.7-2.2,2.4c0,0.1,0,0.2,0.3,0.4C357.2,397.5,362.1,397.5,363.8,397.5L363.8,397.5z"/>
	<path class="st2" d="M385.6,376.7c-0.3,0.1-0.5-0.1-0.6-0.4c-0.1-0.3,0.1-0.5,0.4-0.6l5.2-2.5c0.2-0.1,0.5-0.1,0.7,0.2
		c0.1,0.2,0.1,0.5-0.2,0.7c0,0,0,0-0.1,0l-5.2,2.5C385.8,376.7,385.7,376.7,385.6,376.7z"/>
	<path class="st2" d="M357.4,393.9c-0.3,0-0.5-0.1-0.6-0.4c0-0.3,0.1-0.5,0.4-0.6l28.7-9.4c0.3-0.1,0.5,0.1,0.6,0.3
		c0.1,0.3,0,0.5-0.3,0.6c0,0,0,0,0,0l-28.7,9.5C357.5,393.9,357.4,393.9,357.4,393.9z"/>
	<path class="st2" d="M363.8,398.5c-0.3,0-0.5-0.2-0.5-0.5c0-0.3,0.2-0.5,0.5-0.5l26.8-4.8c0.3,0,0.5,0.1,0.6,0.4
		c0.1,0.3-0.1,0.5-0.4,0.6c0,0,0,0,0,0L363.8,398.5L363.8,398.5z"/>
	<path class="st2" d="M385.8,402c-0.3,0-0.5-0.2-0.5-0.5s0.2-0.5,0.5-0.5l7.5-0.5c0.3,0,0.5,0.2,0.5,0.5c0,0,0,0,0,0
		c0,0.3-0.2,0.5-0.5,0.5c0,0,0,0,0,0L385.8,402L385.8,402z"/>
	<path class="st2" d="M389.7,189.6c0,0,1.7-9.3,4.6-9.9s21.2,0.8,24.6,6.2s4.7,24.2,3,26.2s-12.1,3.9-13.4,3.9s-5.3-13.4-11.9-18.5
		S389.7,189.6,389.7,189.6z"/>
	<path class="st2" d="M408.6,216.6c-0.7,0-1.2-1-2.8-4.3c-2.1-4.4-5.2-11-9.4-14.3c-6.6-5.1-7.2-8.2-7.2-8.3c0-0.1,0-0.1,0-0.2
		c0.2-1,1.9-9.6,5-10.3c2.9-0.6,21.6,0.7,25.1,6.4c3.3,5.3,5,24.4,3,26.8S409.5,216.5,408.6,216.6L408.6,216.6z M390.2,189.6
		c0.1,0.5,1.1,3.2,6.8,7.6c4.3,3.4,7.5,10.1,9.7,14.6c0.5,1.3,1.2,2.6,2,3.7c1.8-0.1,11.4-2,12.9-3.7c1.4-1.6,0.4-20.1-3-25.7
		c-3.2-5.2-21.5-6.5-24.1-6C392.5,180.6,390.8,186.2,390.2,189.6L390.2,189.6z"/>
	<path class="st2" d="M357.6,192.6c0,0-8,3.9-9.5,8.6c-0.9,3.2-1.5,6.5-1.7,9.8c0,0-10.2,3.5-9,11.3s9.7,12.5,10.4,13s8,12.3,8,12.3
		l0.7-10c0,0-0.5-1.7,10.7-2.6s18.9,0.3,22.1-0.6s4.4-1.1,4.4-1.1s0.7,0.9,4.1,2.8s8,5.8,9.7,4.5s3.9-12.3,3.9-12.3
		s1.5-18.8,1.5-22.2s-7.5-10.2-9.5-11.8s-17.9-8.3-21.6-9.4s-14.3,0.3-18.5,2.9C361.3,189,359.3,190.6,357.6,192.6z"/>
	<path class="st2" d="M355.9,248c-0.2,0-0.3-0.1-0.4-0.2c-2.7-4.4-7.2-11.7-7.9-12.2l-0.1-0.1c-3.5-2.1-9.5-6.7-10.5-13.2
		c-1.1-7.2,7.2-11,9-11.7c0.2-3.2,0.8-6.5,1.7-9.6c1.4-4.6,8.6-8.4,9.6-8.9c1.7-1.9,3.7-3.6,5.9-4.9c4.3-2.7,15-4.1,18.9-2.9
		c3.4,1,19.7,7.7,21.8,9.5c0.4,0.3,9.6,8.1,9.6,12.2c0,3.4-1.4,21.4-1.5,22.2c-0.4,1.9-2.3,11.3-4.1,12.6c-1.5,1.1-4.2-0.7-7.1-2.5
		c-1-0.7-2.1-1.4-3.1-1.9c-1.4-0.7-2.8-1.6-4-2.6c-0.5,0.1-1.8,0.4-4.1,1.1c-1.6,0.4-4.1,0.4-7.6,0.3c-4.9-0.2-9.7-0.1-14.6,0.3
		c-8.9,0.7-10.1,1.9-10.2,2.1l0,0l-0.7,10c0,0.2-0.2,0.4-0.4,0.4L355.9,248z M378.4,185c-4.6,0-11.5,1.2-14.6,3.2
		c-2.1,1.2-4.1,2.8-5.7,4.7c0,0.1-0.1,0.1-0.2,0.1c-0.1,0-7.8,3.9-9.2,8.3c-0.9,3.1-1.5,6.4-1.6,9.7c0,0.2-0.1,0.4-0.3,0.4
		c-0.1,0-9.8,3.5-8.7,10.7c1,6.4,7.4,10.9,10,12.5l0.2,0.1c0.7,0.4,4.9,7.2,7.3,11.2l0.6-8.4c0-0.2,0.1-0.4,0.2-0.6
		c0.8-1.2,4.5-2,11-2.6c4.9-0.4,9.8-0.5,14.7-0.3c3.4,0.1,5.9,0.1,7.3-0.3c3.2-0.9,4.4-1.1,4.4-1.1c0.2,0,0.4,0,0.5,0.2
		c0,0,0.8,0.9,4,2.6c1,0.5,2.1,1.2,3.2,1.9c2.2,1.5,5.1,3.3,6,2.6c1.1-0.8,2.9-7.8,3.7-12c0-0.1,1.5-18.7,1.5-22.1
		c0-3-6.7-9.2-9.3-11.4c-1.8-1.5-17.6-8.2-21.4-9.3C380.7,185.1,379.5,184.9,378.4,185z M357.6,192.5L357.6,192.5z"/>
	<path class="st3" d="M352,233.1c0,0,6.8,23.3,7.5,28.1c0.6,4.2,5.7,8.3,8.5,11.1s13,13.8,17.2,9.8c2.7-2.5,12.8-12.4,15.7-16.4
		s3.5-9.9,4.5-13.5l1-3.7c0,0,4.9-3.1,5.6-7.2s3.2-13.5-0.5-13.1s-3.9,6.2-4.1,7.9s-2.2,0.1-3.4-1.1s-4.4-1.3-5.8-2.9
		s2-14.4,0.2-13.4s-2.9,10.1-13.8,10.7c-6.2,0.4-12.4,0.1-18.4-1C366.1,228.4,361.2,236.3,352,233.1z"/>
	<path class="st2" d="M382.9,283.4c-4.6,0-11.3-6.7-14.4-9.9l-0.9-0.9l-1.3-1.3c-2.8-2.7-6.7-6.4-7.3-10.1
		c-0.7-4.7-7.4-27.8-7.5-28.1c-0.1-0.2,0-0.4,0.1-0.5c0.1-0.1,0.3-0.2,0.5-0.1c8.7,3.1,13.4-4.4,13.5-4.4c0.1-0.2,0.3-0.3,0.5-0.2
		c6,1.1,12.2,1.4,18.3,1c7.9-0.5,10.5-5.5,12.1-8.4c0.3-0.8,0.8-1.6,1.5-2.2c0.2-0.2,0.6-0.2,0.8,0c0.7,0.4,0.5,1.8-0.1,6
		c-0.4,2.7-1,6.8-0.4,7.5c0.9,0.8,2,1.3,3.1,1.6c1,0.2,1.9,0.7,2.6,1.3c1.9,1.8,2.4,1.7,2.5,1.7s0.1-0.1,0.1-0.3s0-0.4,0.1-0.6
		c0.3-2.4,0.8-7.3,4.5-7.7c0.6-0.1,1.2,0.1,1.7,0.6c1.5,1.6,0.7,6-0.3,11.1c-0.1,0.7-0.3,1.4-0.4,2c-0.7,3.9-4.8,6.9-5.6,7.5
		l-0.9,3.5c-0.2,0.9-0.4,1.9-0.7,2.9c-0.7,3.4-1.6,7.6-3.9,10.8c-3,4-13.2,14-15.8,16.4C384.8,283.1,383.9,283.4,382.9,283.4z
		 M352.8,233.8c1.3,4.4,6.6,23,7.2,27.3c0.5,3.4,4.2,7,7,9.5l1.3,1.3c0.2,0.2,0.5,0.5,0.9,0.9c3.3,3.3,12.1,12.2,15.6,8.9
		c2.6-2.4,12.8-12.3,15.6-16.3c2.2-3,3-7.1,3.7-10.4c0.2-1.1,0.4-2.1,0.7-3l1-3.7c0-0.1,0.1-0.2,0.2-0.3c0,0,4.7-3,5.4-6.9
		c0.1-0.6,0.2-1.3,0.4-2c0.6-3.3,1.8-8.8,0.5-10.2c-0.2-0.2-0.5-0.3-0.8-0.3c-2.9,0.3-3.4,4.7-3.6,6.8c0,0.3-0.1,0.5-0.1,0.7
		c0,0.5-0.3,0.9-0.8,1.1c-0.8,0.3-1.8-0.3-3.5-1.9c-0.7-0.5-1.5-0.9-2.3-1.1c-1.3-0.3-2.6-1-3.6-1.9c-0.8-0.9-0.5-3.9,0.1-8.3
		c0.3-1.6,0.4-3.1,0.5-4.7c-0.3,0.5-0.6,1-0.9,1.5c-1.5,3-4.4,8.5-12.9,9c-6.1,0.4-12.2,0.1-18.2-1
		C365.3,230.3,360.6,236.1,352.8,233.8z"/>
	<path class="st2" d="M364.3,254.8c-3.2,0-6.3-0.5-7.4-1.9c-1.7-2.2-4.1-10.1-3.1-11.1c0.2-0.2,0.8-0.8,22.2,0
		c0.1,0,0.3,0.1,0.4,0.2c0.1,0.1,0.1,0.3,0.1,0.4c-0.2,1-2.1,10-5.1,11.3C369.1,254.5,366.7,254.8,364.3,254.8z M354.5,242.5
		c-0.2,1,1.6,7.6,3.2,9.8c1.5,2,10.4,1.8,13.2,0.5c2-0.9,3.7-7.1,4.4-10C367.7,242.5,356,242.2,354.5,242.5z"/>
	<path class="st2" d="M393.4,255c-2.9,0-6.2-0.4-7.9-1.3c-2.3-1.2-5.8-10.4-6.2-11.4c-0.1-0.1,0-0.3,0-0.4c0.1-0.1,0.2-0.2,0.4-0.2
		l23.8-1.1c0.1,0,0.3,0,0.4,0.2c0.1,0.1,0.1,0.2,0.1,0.4c-0.2,1.6-1,9.6-1.5,10.4c-0.5,1-2.9,2.8-6,3.3
		C395.5,254.9,394.4,255,393.4,255z M380.5,242.6c1.5,3.9,4.1,9.5,5.5,10.2c2.1,1.1,7.6,1.4,10.5,1s5-2.2,5.2-2.7s0.8-5.2,1.3-9.5
		L380.5,242.6z"/>
	<path class="st2" d="M376,242.8c-0.3,0-0.5-0.2-0.5-0.5c0-0.3,0.2-0.5,0.5-0.5c0,0,0,0,0,0l3.8-0.1c0.3,0,0.5,0.2,0.5,0.5
		c0,0,0,0,0,0c0,0.3-0.2,0.5-0.5,0.5c0,0,0,0,0,0L376,242.8L376,242.8z"/>
	<path class="st2" d="M403.5,241.5c-0.1,0-0.1,0-0.2,0c-0.3-0.1-0.4-0.4-0.2-0.7c0,0,0,0,0,0l3.8-7.9c0.1-0.2,0.4-0.4,0.6-0.2
		c0,0,0,0,0,0c0.3,0.1,0.4,0.4,0.2,0.7c0,0,0,0,0,0l-3.8,7.9C403.9,241.4,403.7,241.6,403.5,241.5z"/>
	<path class="st2" d="M367,250.2c-1.6-0.1-3.2-0.6-4.5-1.6c-0.2-0.2-0.2-0.5-0.1-0.7c0,0,0,0,0,0c0.2-0.2,0.5-0.2,0.7-0.1
		c0.2,0.1,4.1,3.3,7.5-0.3c0.2-0.2,0.5-0.2,0.7,0c0,0,0,0,0,0c0.2,0.2,0.2,0.5,0,0.7c0,0,0,0,0,0C370.2,249.5,368.7,250.2,367,250.2
		z"/>
	<path class="st2" d="M391.2,249.5c-1.6-0.1-3.2-0.4-4.7-1c-0.3-0.1-0.4-0.4-0.3-0.6s0.4-0.4,0.6-0.3c0,0,0,0,0,0
		c0,0,5.3,2.2,7.8-0.4c0.2-0.2,0.5-0.2,0.7,0c0,0,0,0,0,0c0.2,0.2,0.2,0.5,0,0.7c0,0,0,0,0,0C394.3,249,392.8,249.6,391.2,249.5z"/>
	<path class="st2" d="M372,242.1c-0.1,0-0.1,0-0.2,0c-0.1,0-6.9-2.6-12.1-1.1c-0.3,0.1-0.5,0-0.7-0.3c-0.1-0.3,0-0.5,0.3-0.7
		c0,0,0.1,0,0.1,0c5.5-1.6,12.4,1,12.7,1.1c0.3,0,0.5,0.3,0.4,0.6S372.3,242.2,372,242.1L372,242.1z"/>
	<path class="st2" d="M383.1,241.1c-0.2,0-0.4-0.2-0.5-0.4c0-0.3,0.1-0.5,0.4-0.6c0.4-0.1,9-1.7,14-0.7c0.3,0,0.4,0.3,0.4,0.6
		c0,0,0,0,0,0c-0.1,0.3-0.3,0.4-0.6,0.4c0,0,0,0,0,0c-4.8-1-13.5,0.7-13.6,0.7L383.1,241.1z"/>
	<path class="st2" d="M378.4,265.3c-1.7,0-3.2-1.7-3.7-2.3s-0.4-3.2-0.3-4.7c0-0.3,0.2-0.5,0.5-0.5c0,0,0,0,0,0
		c0.3,0,0.5,0.3,0.5,0.5c0,0,0,0,0,0c-0.1,1.4-0.1,2.7,0.1,4.1c0.3,0.4,1.7,2.1,3.1,1.8c1.6-0.5,3.2-1.3,4.6-2.3
		c0.2-0.2,0.5-0.1,0.7,0.1c0.2,0.2,0.1,0.5-0.1,0.7c-0.1,0.1-3.3,2.2-5,2.5C378.7,265.3,378.5,265.3,378.4,265.3z"/>
	<path class="st2" d="M378.6,269.1c-2,0-4-0.5-5.7-1.6c-0.2-0.2-0.3-0.5-0.1-0.7c0.1-0.2,0.5-0.3,0.7-0.1c0,0,0,0,0,0
		c3.5,2.1,8,1.9,11.2-0.6c0.2-0.2,0.5-0.1,0.7,0.1c0,0,0,0,0,0c0.2,0.2,0.1,0.5-0.1,0.7c0,0,0,0,0,0
		C383.3,268.4,381,269.1,378.6,269.1z"/>
</g>
<g id="freepik--character-3--inject-164">
	<path class="st3" d="M555.6,196.4c0,0,11.5-22.2,16-22.1s4.5,7.9,4.5,7.9s8.7-6.6,9.9-4l1.2,2.6c0,0,20.7,5.2,28.8,15.1
		s12,20.4,8.3,28.2s-10.4,33.4-10.4,33.4l2.8,10.6l-31.1,18.4l-7.3-13.4c0,0-16,4.7-18,2.8s-10.5-27.9-10.5-27.9l-9.7-6.7
		c0,0,8.5-18.8,9.2-23.8S553,202.6,555.6,196.4z"/>
	<path class="st2" d="M585.6,286.9h-0.1c-0.1,0-0.2-0.1-0.3-0.2l-7.1-13c-3.4,1-16,4.5-18.1,2.5s-9.5-24.6-10.5-28l-9.6-6.6
		c-0.2-0.1-0.3-0.4-0.2-0.6c0.1-0.2,8.5-18.7,9.2-23.6c0.8-5.2,3.9-15.2,6.3-21.2l0,0c1.2-2.3,11.7-22.4,16.4-22.4h0
		c3.9,0.1,4.8,5.2,5,7.4c1.9-1.4,6.8-4.7,8.9-4.1c0.4,0.1,0.8,0.4,1,0.8l1,2.4c2.4,0.6,21.1,5.8,28.8,15.2
		c8.7,10.6,11.9,21.3,8.4,28.7s-9.8,31.2-10.4,33.1l2.7,10.5c0.1,0.2,0,0.4-0.2,0.6l-31.1,18.4C585.8,286.9,585.7,286.9,585.6,286.9
		z M578.3,272.5c0.2,0,0.4,0.1,0.4,0.3l7,12.9l30.3-18l-2.7-10.3c0-0.1,0-0.2,0-0.2c0.3-1,6.8-25.8,10.5-33.4
		c3.3-7,0.2-17.4-8.3-27.6c-7.9-9.6-28.4-14.9-28.6-14.9c-0.1,0-0.3-0.1-0.3-0.3l-1.1-2.6c-0.1-0.1-0.2-0.2-0.3-0.3
		c-1.5-0.4-6.2,2.6-8.8,4.5c-0.2,0.1-0.4,0.1-0.5,0.1c-0.2-0.1-0.3-0.3-0.3-0.4c0-0.1-0.1-7.3-4.1-7.4l0,0c-3,0-11.1,13.3-15.5,21.8
		c-2.4,6-5.5,15.8-6.3,20.9c-0.7,4.7-7.8,20.8-9.1,23.5l9.4,6.5c0.1,0.1,0.2,0.1,0.2,0.2c3.4,10.4,8.9,26.3,10.3,27.7
		c1.3,1.2,11-0.9,17.5-2.9L578.3,272.5z"/>
	<path class="st2" d="M554.7,254.6c-0.4,0-0.8-0.1-1.2-0.3c-0.2-0.2-0.3-0.5-0.1-0.7c0.2-0.2,0.5-0.3,0.7-0.1c0,0,0,0,0,0
		c0.3,0.2,0.7,0.2,1,0.1c0.8-0.2,2-1,3.5-3.8c0.1-0.2,0.4-0.3,0.7-0.2c0.2,0.1,0.3,0.4,0.2,0.7l0,0c-1.4,2.5-2.8,3.9-4.2,4.2
		C555.1,254.6,554.9,254.6,554.7,254.6z"/>
	<path class="st2" d="M555.6,196.4c0,0,11.5-22.2,16-22.1s4.5,7.9,4.5,7.9s8.7-6.6,9.9-4l1.2,2.6c0,0,20.7,5.2,28.8,15.1
		s12,20.4,8.3,28.2c-2.8,6-7.5,22.6-9.5,29.9c-2.2,1-4.5,1.6-6.9,1.9c-10,1.1-19.7-7.8-19.7-7.8s5.8-3.9,3.7-12.5s-8.1-8.7-8.1-8.7
		s-3.2,6.8-7.9,5.7s3.1-8.3,3.4-12.1s-4.5-7.5-5.8-9.7s6-3.6,8.3-5.8s-14.3-4.6-18-5.8s3.2-1.7,6.3-4.8S555.6,196.4,555.6,196.4z"/>
	<path class="st2" d="M606.1,256.4c-9.4,0-17.8-7.7-18.2-8.1c-0.2-0.2-0.2-0.5,0-0.7c0,0,0.1-0.1,0.1-0.1c0.2-0.1,5.5-3.9,3.5-12
		c-1.8-7.1-6.1-8.1-7.3-8.3c-0.7,1.4-3.8,6.7-8.3,5.6c-0.8-0.1-1.4-0.6-1.8-1.3c-0.6-1.6,0.8-3.9,2.4-6.3c1.1-1.8,2.3-3.7,2.5-5
		c0.2-2.5-2.1-5.1-3.9-7.2c-0.7-0.7-1.3-1.4-1.8-2.2c-0.2-0.4-0.3-0.8-0.2-1.2c0.4-1.2,2.3-2,4.5-3c1.4-0.5,2.8-1.3,4-2.2l0.1-0.1
		c-0.3-1.1-8.6-2.8-12.5-3.6c-2.3-0.5-4.3-0.9-5.3-1.2c-0.7-0.2-1.4-0.5-1.4-1.1s0.8-1.1,2.4-1.7c1.9-0.6,3.6-1.6,5.1-2.9
		c0,0,0.1-0.1,0.1-0.1c-1.4-0.3-8.2,1.3-14.2,3.1c-0.2,0.1-0.4,0-0.5-0.2c-0.1-0.2-0.1-0.4-0.1-0.6c1.2-2.3,11.8-22.6,16.4-22.4
		c3.9,0.1,4.8,5.2,5,7.4c1.9-1.4,6.8-4.7,8.9-4.1c0.4,0.1,0.8,0.4,1,0.8l1,2.4c2.4,0.6,21.1,5.8,28.8,15.2
		c8.7,10.6,11.9,21.3,8.4,28.7c-2.7,5.9-7.5,22.8-9.4,29.8c0,0.1-0.1,0.3-0.3,0.3c-2.3,1-4.6,1.7-7.1,2
		C607.4,256.4,606.8,256.4,606.1,256.4z M589,248c2,1.7,10.4,8.3,18.8,7.3c2.3-0.3,4.5-0.9,6.6-1.8c2-7.1,6.7-23.8,9.5-29.7
		c3.3-7,0.2-17.4-8.3-27.6c-7.9-9.6-28.4-14.9-28.6-14.9c-0.1,0-0.3-0.1-0.3-0.3l-1.1-2.6c-0.1-0.1-0.2-0.2-0.3-0.3
		c-1.5-0.4-6.2,2.6-8.8,4.5c-0.2,0.1-0.4,0.1-0.5,0.1c-0.2-0.1-0.3-0.3-0.3-0.4c0-0.1-0.1-7.3-4.1-7.4l0,0
		c-2.9,0-10.5,12.3-14.9,20.8c6.3-1.8,13.5-3.6,14.3-2.3c0.2,0.4,0.1,0.8-0.4,1.4c-1.6,1.4-3.5,2.4-5.5,3.1
		c-0.5,0.2-1.1,0.4-1.6,0.7c0.2,0.1,0.3,0.1,0.5,0.2c1,0.3,2.9,0.7,5.2,1.2c8.7,1.8,12.9,2.9,13.3,4.4c0.1,0.4,0,0.8-0.3,1
		c-1.3,1-2.8,1.8-4.3,2.4c-1.7,0.8-3.7,1.6-3.9,2.4c0,0.1,0,0.3,0.1,0.4c0.5,0.7,1.1,1.4,1.7,2.1c2,2.2,4.5,5,4.2,7.9
		c-0.2,1.6-1.4,3.5-2.6,5.4s-2.7,4.3-2.3,5.4c0.1,0.4,0.5,0.6,1.1,0.7c4.3,1.1,7.3-5.3,7.3-5.4c0.1-0.2,0.3-0.3,0.5-0.3
		c0.3,0,6.3,0.2,8.6,9.1C594.2,242.6,590.4,246.7,589,248z"/>
	<path class="st2" d="M553.8,224.9c-0.1,2,0.5,3.8,1.4,3.8s1.7-1.6,1.8-3.6s-0.5-3.7-1.4-3.8S554,222.9,553.8,224.9z"/>
	<path class="st2" d="M560,217.7c-0.2,0-0.4-0.1-0.5-0.3c0,0-2.1-4.5-4.9-4.9c-1.1-0.1-2.3,0.4-3.4,1.8c-0.2,0.2-0.5,0.2-0.7,0.1
		c0,0,0,0,0,0c-0.2-0.2-0.2-0.5-0.1-0.7c1.3-1.6,2.8-2.3,4.3-2.1c3.3,0.4,5.5,5.2,5.6,5.4c0.1,0.2,0,0.5-0.2,0.7
		C560.2,217.7,560.1,217.7,560,217.7L560,217.7z"/>
	<path class="st2" d="M581.1,254.3L581.1,254.3c-0.3,0-0.5-0.2-0.5-0.5c0,0,0,0,0,0l0.2-5.6c0-0.3,0.2-0.5,0.5-0.5l7-0.2l0,0
		c0.3,0,0.5,0.2,0.5,0.5c0,0.3-0.2,0.5-0.5,0.5c0,0,0,0,0,0l-6.5,0.2l-0.2,5.1C581.7,254.1,581.4,254.3,581.1,254.3
		C581.1,254.3,581.1,254.3,581.1,254.3z"/>
	<path class="st2" d="M574.5,291.1c0,0-5.7,5.4-6.4,8.6s-1.1,6.1-1.1,6.1s-10.4,14.3-11.4,22.1s2.1,25,2.1,25l20.7-61.4L574.5,291.1
		z"/>
	<path class="st2" d="M557.7,353.4L557.7,353.4c-0.2,0-0.4-0.2-0.5-0.4c-0.1-0.7-3.2-17.3-2.1-25.2c1-7.6,10.4-20.9,11.4-22.3
		c0.1-0.6,0.4-3.2,1.1-6c0.7-3.3,6.3-8.6,6.6-8.8c0.1-0.1,0.2-0.1,0.4-0.1l3.9,0.4c0.3,0,0.5,0.3,0.5,0.5c0,0,0,0.1,0,0.1L558.2,353
		C558.1,353.3,557.9,353.4,557.7,353.4z M574.7,291.6c-0.9,0.9-5.5,5.4-6.1,8.2c-0.7,3.1-1.1,6-1.1,6c0,0.1,0,0.2-0.1,0.2
		c-0.1,0.1-10.3,14.3-11.3,21.9c-0.8,6.1,1,18.2,1.8,22.9l19.9-59L574.7,291.6z M567,305.8L567,305.8z"/>
	<path class="st3" d="M617.4,256c0,0-42.7,30.5-43,31.4s-0.5,9.7-0.5,9.7l49.3-32.6L617.4,256z"/>
	<path class="st2" d="M574,297.6c-0.1,0-0.2,0-0.2-0.1c-0.2-0.1-0.3-0.3-0.3-0.5c0-0.9,0.2-8.9,0.5-9.8c0.2-0.7,14.7-11.4,43.2-31.7
		c0.2-0.2,0.5-0.1,0.7,0.1l5.9,8.5c0.1,0.1,0.1,0.2,0.1,0.4c0,0.1-0.1,0.2-0.2,0.3l-49.3,32.6C574.2,297.6,574.1,297.6,574,297.6z
		 M574.9,287.6c-0.1,0.9-0.3,5.3-0.4,8.6l48.1-31.8l-5.3-7.7C600.8,268.5,576.4,286.1,574.9,287.6L574.9,287.6z"/>
	<path class="st0" d="M574,297.1c0,0-11.8,20.6-12.4,23.7s-7.7,47.9-7.7,47.9l-8.9,55h111.1c0,0-2.4-22.5-3.8-40.8s-2-45.3-8.7-69.3
		c-3.8-13.5-20.3-49.1-20.3-49.1L574,297.1z"/>
	<path class="st2" d="M656.1,424.3H545c-0.1,0-0.3-0.1-0.4-0.2c-0.1-0.1-0.1-0.3-0.1-0.4l8.8-55c0.3-1.8,7-44.8,7.7-48
		s12-23,12.5-23.9c0-0.1,0.1-0.1,0.2-0.2l49.3-32.5c0.2-0.2,0.5-0.1,0.7,0.1c0,0,0,0,0,0.1c0.2,0.4,16.7,35.8,20.4,49.2
		c5.6,20,6.9,41.9,8,59.5c0.2,3.5,0.4,6.9,0.7,9.9c1.3,18.1,3.8,40.5,3.8,40.8c0,0.1,0,0.3-0.1,0.4
		C656.3,424.2,656.2,424.3,656.1,424.3z M545.6,423.3h109.9c-0.4-3.6-2.5-23.7-3.7-40.2c-0.2-3.1-0.4-6.4-0.7-9.9
		c-1.1-17.5-2.5-39.4-8-59.2c-3.5-12.4-18-44.1-20.1-48.5l-48.7,32.2c-4.1,7.1-11.8,21.1-12.3,23.5c-0.7,3.1-7.6,47.5-7.7,47.9
		L545.6,423.3z"/>
	<path class="st3" d="M520.4,363.9c0,0-5.8-10.3-7-11.7s-7-3.5-8.6-4.1s-15.2-5.1-16-5.1s-1.9,1.9-1.6,3.9s3.7,4.5,4.5,4.7
		s-10.5,0.2-14.4,0.6s-11.3,1.9-11.9,3.5s0,3.3,2.3,3.5c2.2,0.1,4.4-0.1,6.6-0.4l10.7,1c0,0-13.8,2-15.8,2.5s-3.3,3.1-2.3,4.5
		s7,0.6,7,0.6l10.1-0.6c0,0-13.1,4.1-13.8,4.9c-0.6,1.3,0,2.9,1.3,3.6c0.1,0,0.2,0.1,0.3,0.1c1.9,0.4,10.5-0.6,10.5-0.6l4.3,0.6
		c0,0-6.2,0.8-6.2,1.6s0,2.1,1.4,2.1s10.9-0.2,10.9-0.2s4.3,2.5,8,2.3s18.9-2,18.9-2L520.4,363.9z"/>
	<path class="st2" d="M500.2,381.6c-2.7-0.2-5.3-1-7.7-2.3c-1.2,0-9.4,0.2-10.8,0.2c-1.9,0-1.9-1.8-1.9-2.6c0-0.3,0-0.9,3.4-1.6
		l-1-0.1c-0.9,0.1-8.7,1-10.6,0.6c-1.7-0.5-2.7-2.2-2.2-3.9c0.1-0.2,0.1-0.4,0.2-0.6c0.5-0.6,5.8-2.5,10.2-3.9l-6,0.4
		c-1,0.1-6.3,0.8-7.4-0.8c-0.6-0.9-0.6-1.9-0.2-2.9c0.5-1.2,1.5-2.1,2.8-2.4c1.4-0.3,7.6-1.2,11.8-1.9l-6.6-0.6
		c-2.2,0.3-4.4,0.5-6.6,0.4c-1,0-2-0.5-2.5-1.4c-0.5-0.9-0.5-1.9-0.1-2.8c0.9-2.5,12.2-3.8,12.3-3.8c2.1-0.2,6.4-0.3,9.8-0.4l3-0.1
		c-1.4-1-3.2-2.7-3.4-4.3c-0.2-1.4,0.2-2.8,1.1-3.9c0.3-0.3,0.7-0.5,1.1-0.6c1,0,14.9,4.7,16.2,5.2l0.4,0.2c3.5,1.3,7.3,2.8,8.4,4.1
		c1.2,1.5,6.8,11.4,7,11.8c0,0.1,0.1,0.2,0.1,0.3l-0.8,15.2c0,0.2-0.2,0.4-0.4,0.5c-0.6,0.1-15.3,1.9-18.9,2.1L500.2,381.6z
		 M492.6,378.4c0.1,0,0.2,0,0.2,0.1c0,0,4.2,2.4,7.7,2.2c3.3-0.2,16-1.7,18.5-2l0.8-14.6c-2-3.6-5.9-10.4-6.9-11.5s-6.3-3.2-8-3.8
		l-0.4-0.2c-2.1-0.8-15-5-15.9-5.1c-0.1,0-0.2,0.1-0.3,0.2c-0.7,0.9-0.9,2-0.8,3.1c0.2,1.8,3.4,4.1,4.1,4.3c0.3,0.1,0.4,0.3,0.4,0.6
		c-0.1,0.5-0.1,0.5-5.1,0.6c-3.4,0.1-7.6,0.2-9.7,0.4c-4.9,0.5-11.1,2-11.5,3.2c-0.3,0.6-0.3,1.3,0.1,1.9c0.4,0.6,1.1,0.9,1.8,0.9
		c2.2,0,4.3-0.1,6.5-0.4h0.1l10.7,1c0.3,0,0.4,0.2,0.5,0.5c0,0.3-0.2,0.5-0.4,0.5c-0.1,0-13.8,2.1-15.8,2.5c-0.9,0.2-1.7,0.9-2,1.8
		c-0.3,0.6-0.3,1.3,0.1,1.9c0.6,0.8,4.2,0.7,6.5,0.4l10.1-0.6c0.3,0,0.5,0.2,0.5,0.4c0,0.2-0.1,0.5-0.3,0.6
		c-6.1,1.9-12.9,4.2-13.5,4.8c-0.2,0.5-0.2,1.1,0,1.6c0.2,0.6,0.7,1.1,1.4,1.3c1.5,0.3,7.9-0.3,10.3-0.6h0.1l4.3,0.6
		c0.2,0,0.4,0.3,0.4,0.5c0,0.2-0.2,0.5-0.4,0.5c-2,0.2-3.9,0.6-5.7,1.3c0,1,0.2,1.4,0.9,1.4C483.2,378.5,492.5,378.3,492.6,378.4
		L492.6,378.4z"/>
	<path class="st2" d="M503.8,365.5c-0.1,0-0.2,0-0.3-0.1c-3.4-2.4-5.6-6.2-5.9-10.4l-6.2-3c-0.2-0.1-0.4-0.4-0.2-0.7
		c0.1-0.2,0.4-0.4,0.7-0.2l6.5,3.2c0.2,0.1,0.3,0.3,0.3,0.5c0.3,4,2.3,7.6,5.5,9.9c0.2,0.2,0.3,0.5,0.1,0.7
		C504.2,365.4,504,365.5,503.8,365.5z"/>
	<path class="st2" d="M487.1,374.3c-0.2,0-0.4-0.1-0.5-0.4c-1-3.1-2.4-15.4-2.4-15.9c0-0.3,0.2-0.5,0.4-0.5c0,0,0,0,0,0
		c0.3,0,0.5,0.2,0.5,0.4c0,0.1,1.4,12.7,2.4,15.7c0.1,0.3-0.1,0.5-0.3,0.6c0,0,0,0,0,0L487.1,374.3z"/>
	<polygon class="st0" points="557.8,366.3 529.5,364.8 529.5,380.4 554.2,383.8 	"/>
	<path class="st2" d="M554.2,384.3L554.2,384.3l-24.7-3.4c-0.3,0-0.4-0.2-0.4-0.5v-15.6c0-0.1,0.1-0.3,0.2-0.4
		c0.1-0.1,0.2-0.1,0.4-0.1l28.2,1.5c0.1,0,0.3,0.1,0.4,0.2c0.1,0.1,0.1,0.3,0.1,0.4l-3.6,17.5C554.6,384.1,554.4,384.3,554.2,384.3z
		 M530,380l23.8,3.2l3.4-16.5l-27.1-1.4V380z"/>
	<polygon class="st3" points="529.5,364.8 520.4,363.5 519.5,379.2 529.5,380.4 	"/>
	<path class="st2" d="M529.5,380.9L529.5,380.9l-10.1-1.3c-0.3,0-0.4-0.3-0.4-0.5l0.9-15.6c0-0.1,0.1-0.3,0.2-0.4
		c0.1-0.1,0.3-0.1,0.4-0.1l9.2,1.3c0.2,0,0.4,0.3,0.4,0.5v15.6c0,0.1-0.1,0.3-0.2,0.4C529.8,380.9,529.7,380.9,529.5,380.9z
		 M520,378.7l9,1.1v-14.6l-8.2-1.1L520,378.7z"/>
	<path class="st0" d="M610.5,299.6c0,0-8.5-6.1-13.6-5.1s-20,6.1-23.4,12.9S549.4,376,549.4,376l-78.7-5.8l-2.9,28.4
		c0,0,84.7,17.8,91.5,18.8s14.3,1,17.7-2.4s39-80.1,39-80.1"/>
	<path class="st2" d="M566.5,418.5c-2.5,0-4.9-0.2-7.3-0.6c-6.7-1-90.6-18.6-91.5-18.8c-0.3-0.1-0.4-0.3-0.4-0.5l2.9-28.5
		c0-0.3,0.3-0.5,0.5-0.4c0,0,0,0,0,0l78.3,5.8c1.9-5.6,20.7-61.7,24-68.3c3.5-7,18.9-12.2,23.8-13.2c5.2-1.1,13.6,4.9,14,5.2
		c0.2,0.2,0.3,0.5,0.1,0.7s-0.5,0.3-0.7,0.1c-0.1-0.1-8.4-6-13.2-5s-19.7,5.9-23.1,12.6s-23.9,67.9-24.1,68.5
		c-0.1,0.2-0.3,0.4-0.5,0.3l-78.2-5.8l-2.8,27.5c6.6,1.4,84.6,17.7,91,18.7c8.4,1.3,14.5,0.5,17.2-2.2s26.6-53.5,39-80
		c0.1-0.3,0.4-0.4,0.6-0.3s0.4,0.4,0.3,0.6c0,0,0,0.1,0,0.1c-1.5,3.1-35.7,76.9-39.1,80.3C574.8,417.7,570.7,418.5,566.5,418.5z"/>
	<polygon class="st3" points="470.6,370.1 457.9,368.3 456.8,392.6 468,394.3 	"/>
	<path class="st2" d="M468,394.8L468,394.8l-11.3-1.7c-0.3,0-0.4-0.3-0.4-0.5l1.1-24.3c0-0.3,0.2-0.5,0.5-0.5c0,0,0,0,0,0l12.8,1.8
		c0.3,0,0.5,0.3,0.4,0.5l-2.7,24.2c0,0.1-0.1,0.3-0.2,0.3C468.2,394.8,468.1,394.8,468,394.8z M457.3,392.2l10.2,1.5l2.6-23.2
		l-11.7-1.6L457.3,392.2z"/>
	<path class="st3" d="M457.9,368.3c0,0-6.5-8.3-7.8-11.6s-8.3-3.8-11.4-4.7s-7.6-2.7-8.1-1.1s-0.7,4.9,1.1,6.3s6,2.2,7.2,3.1
		l2.2,1.8l-20.4,2c0,0-9.4-1.4-13.7,0s-7.6,1.3-7.8,3.1s0.2,4.3,1.3,4.5s4.7-0.2,5.4-0.2c0,0-2.5,2.5-2.2,3.4s1.8,3.4,2.7,3.4
		s6.5,0.5,7.4,0.7s4.9,4.3,5.8,4.7s7.2,2.7,7.2,2.7c2,1.4,4.3,2.4,6.7,2.9c4.5,1.1,23.3,3.5,23.3,3.5L457.9,368.3z"/>
	<path class="st2" d="M456.8,393.1L456.8,393.1c-0.8-0.1-19-2.4-23.4-3.5c-2.5-0.6-4.8-1.6-6.8-3c-0.8-0.3-6.3-2.2-7.1-2.7
		c-0.9-0.6-1.8-1.3-2.6-2.1c-1-0.9-2-1.8-3.2-2.6c-0.8-0.2-6.3-0.7-7.3-0.7c-1.3,0-3-2.8-3.2-3.7c-0.2-0.8,0.7-2,1.5-2.9
		c-1.4,0.2-2.8,0.2-4.2,0.1c-1.6-0.3-2-3.2-1.7-5c0.2-1.6,2-2,4.6-2.6c1.1-0.2,2.3-0.5,3.6-1c4.2-1.3,12.9-0.1,13.8,0l19.1-1.9
		l-1.3-1c-0.9-0.5-1.8-0.9-2.8-1.2c-1.5-0.4-3-1.1-4.3-1.9c-2-1.5-1.8-5-1.3-6.8c0.1-0.3,0.3-0.6,0.6-0.8c1.1-0.6,3.2,0,6.2,1
		c0.6,0.2,1.2,0.4,1.8,0.6s1.6,0.4,2.6,0.6c3.6,0.7,8,1.6,9.1,4.4c1.3,3.3,7.7,11.4,7.8,11.5c0.1,0.1,0.1,0.2,0.1,0.3l-1.1,24.3
		c0,0.1-0.1,0.3-0.2,0.4C457,393.1,456.9,393.1,456.8,393.1z M405.9,371c0.3,0,0.5,0.2,0.5,0.5c0,0.1-0.1,0.3-0.1,0.3
		c-1.1,1.2-2.1,2.5-2.1,2.9c0.2,1,1.7,3,2.2,3c0.9,0,6.6,0.5,7.5,0.7c0.6,0.1,1.7,1.1,3.6,2.8c0.7,0.7,1.5,1.4,2.4,2
		c0.7,0.3,5,1.9,7.1,2.7l0.1,0.1c2,1.4,4.2,2.3,6.5,2.8c4,1,19.6,3,22.7,3.4l1.1-23.6c-0.9-1.2-6.5-8.5-7.8-11.6
		c-0.9-2.3-5.2-3.2-8.4-3.8c-1-0.2-2-0.4-2.7-0.6c-0.6-0.2-1.2-0.4-1.9-0.6c-2-0.6-4.7-1.5-5.5-1c-0.1,0-0.1,0.1-0.1,0.1
		c-0.4,1.4-0.7,4.5,0.9,5.7c1.3,0.8,2.6,1.4,4.1,1.8c1.1,0.3,2.1,0.8,3.1,1.4l2.2,1.8c0.2,0.1,0.2,0.3,0.2,0.5
		c-0.1,0.2-0.2,0.3-0.4,0.4l-20.4,2h-0.1c-0.1,0-9.3-1.3-13.4,0c-1.3,0.4-2.6,0.7-3.7,1c-2.1,0.5-3.7,0.9-3.8,1.8
		c-0.2,1.7,0.3,3.8,1,3.9c1.3,0.1,2.7,0,4-0.1C405.2,371,405.7,371,405.9,371z"/>
	<path class="st2" d="M431.7,387L431.7,387c-2.5-0.4-4.8-0.8-4.9-0.8c-0.3-0.1-0.5-0.3-0.4-0.6s0.3-0.5,0.6-0.4l0,0
		c0,0,2.3,0.4,4.7,0.8c0.3,0,0.5,0.3,0.4,0.6c0,0,0,0,0,0C432.2,386.8,431.9,387,431.7,387z"/>
	<path class="st2" d="M427.6,372.6L427.6,372.6l-10.8-1.1l-10.9,0.5c-0.3,0-0.5-0.2-0.5-0.5c0-0.3,0.2-0.5,0.5-0.5c0,0,0,0,0,0
		l11-0.5l10.8,1.1c0.3,0,0.5,0.3,0.4,0.5C428.1,372.5,427.9,372.7,427.6,372.6z"/>
	<path class="st2" d="M429.2,380.3L429.2,380.3l-9.4-0.5l-6.1-0.5c-0.3,0-0.5-0.3-0.5-0.5c0,0,0,0,0,0c0-0.3,0.2-0.5,0.5-0.5
		c0,0,0,0,0,0l6,0.5l9.4,0.5c0.3,0,0.5,0.2,0.5,0.5S429.5,380.3,429.2,380.3L429.2,380.3z"/>
	<path class="st2" d="M677.6,424l6.2-62.5c0.8-8.4-5.3-15.9-13.7-16.8c-0.3,0-0.7-0.1-1-0.1l0,0c-7.8-0.3-14.6,5.4-15.7,13.2
		l-9.4,66.1H677.6z"/>
	<path class="st2" d="M677.6,424.5h-33.5c-0.1,0-0.3-0.1-0.4-0.2c-0.1-0.1-0.1-0.3-0.1-0.4l9.4-66.1c1.2-8.7,9.1-14.8,17.8-13.6
		c8.5,1.1,14.6,8.9,13.7,17.4l-6.2,62.4C678.1,424.3,677.9,424.5,677.6,424.5z M644.6,423.5h32.5l6.2-62c1-8.1-4.8-15.5-13-16.5
		s-15.5,4.8-16.5,13L644.6,423.5z"/>
</g>
<g id="freepik--character-1--inject-164">
	<path class="st0" d="M188.5,252.4c0,0-41,22-42.7,23.8s-11.9,132.7-11.9,132.7l124.3-16.8c0,0,12.9-57.5,15.2-80.7s1.7-40.3,1-42.3
		s-19.3-11.5-23.6-13.6s-10.8-4.5-10.8-4.5L188.5,252.4z"/>
	<path class="st2" d="M133.9,409.4c-0.1,0-0.2-0.1-0.3-0.1c-0.1-0.1-0.2-0.2-0.2-0.4c1.7-21.9,10.3-131.1,12.1-133
		s38.7-21.6,42.9-23.9c0.1,0,0.1-0.1,0.2-0.1l51.4-1.3c0.1,0,0.1,0,0.2,0c0.1,0,6.6,2.5,10.9,4.5c2.2,1,23,11.5,23.8,13.9
		c0.8,2.2,1.3,19.8-1,42.5c-2.3,23-15.1,80.1-15.2,80.7c-0.1,0.2-0.2,0.4-0.4,0.4L133.9,409.4L133.9,409.4z M188.7,252.9
		c-16.4,8.8-41.3,22.4-42.5,23.6c-1.4,2.8-8.9,95.5-11.7,131.8l123.3-16.7c1.1-4.8,12.9-58.3,15.1-80.3c2.4-23.9,1.6-40.4,1-42.1
		S257,259,250.6,256c-4-1.9-9.9-4.1-10.7-4.4L188.7,252.9z"/>
	<path class="st2" d="M192.1,383.9c-0.2,0-0.4-0.1-0.4-0.3c-0.1-0.2,0-0.5,0.2-0.7c20.6-10.4,44-33.3,53.1-42.7
		c0.2-0.2,0.5-0.2,0.7,0c0.2,0.2,0.2,0.5,0,0.7l0,0c-11.4,11.7-33.4,32.8-53.4,42.9C192.2,383.8,192.2,383.9,192.1,383.9z"/>
	<path class="st2" d="M247.1,339.2c-0.1,0-0.3,0-0.3-0.1c-0.2-0.2-0.2-0.5,0-0.7c0,0,0,0,0,0c2.2-2.4,3.5-3.8,3.6-3.8
		c0.2-0.2,0.5-0.2,0.7,0c0.2,0.2,0.2,0.5,0,0.7c0,0-1.3,1.5-3.6,3.8C247.4,339.2,247.3,339.2,247.1,339.2z"/>
	<path class="st2" d="M177.8,381.3c-0.3,0-0.5-0.2-0.5-0.5c0-0.3,0.2-0.5,0.5-0.5c2.6-0.6,5.1-1.5,7.4-2.7c0.2-0.1,0.5-0.1,0.7,0.2
		c0.1,0.2,0.1,0.5-0.2,0.7c0,0-0.1,0-0.1,0C183.2,379.8,180.6,380.7,177.8,381.3L177.8,381.3z"/>
	<path class="st2" d="M190.2,376.2c-0.3,0-0.5-0.2-0.5-0.5c0-0.2,0.1-0.4,0.3-0.5c10.5-5.5,22.6-13.6,22.8-13.7
		c0.2-0.2,0.5-0.1,0.7,0.1c0.2,0.2,0.1,0.5-0.1,0.7c-0.1,0.1-12.3,8.2-22.9,13.8C190.3,376.2,190.2,376.2,190.2,376.2z"/>
	<path class="st3" d="M192.9,393.3c0,0-28.5-14.1-32-15.4s-17.7,14.7-17.7,14.7l57.2,13.3L192.9,393.3z"/>
	<path class="st2" d="M200.4,406.3h-0.1L143.1,393c-0.2,0-0.3-0.2-0.4-0.3c0-0.2,0-0.3,0.1-0.5c2.4-2.7,14.6-16.2,18.3-14.9
		c3.5,1.3,30.9,14.9,32,15.5c0.1,0,0.2,0.1,0.2,0.2l7.5,12.6c0.1,0.2,0.1,0.4,0,0.5C200.7,406.2,200.5,406.3,200.4,406.3z
		 M144.1,392.2l55.2,12.9l-6.8-11.4c-2.1-1-28.5-14.1-31.8-15.4C158.5,377.4,149.6,386.1,144.1,392.2z"/>
	<path class="st2" d="M149.4,394.7c-0.1,0-0.2,0-0.3-0.1c-0.2-0.2-0.3-0.5-0.1-0.7c0.4-0.5,9.1-12.5,13.6-14.2
		c0.3-0.1,0.5,0,0.6,0.3c0,0,0,0,0,0c0.1,0.3,0,0.5-0.3,0.6c0,0,0,0,0,0c-4.2,1.6-13.1,13.7-13.2,13.9
		C149.7,394.7,149.6,394.7,149.4,394.7z"/>
	<path class="st2" d="M158,396.1c-0.3,0-0.5-0.2-0.5-0.5c0-0.1,0-0.2,0.1-0.3c0.3-0.5,7.7-11.1,10.5-13.2c0.2-0.2,0.5-0.1,0.7,0.1
		c0.1,0.2,0.1,0.5-0.1,0.7c-2.6,2-10.2,12.9-10.2,13C158.3,396,158.2,396.1,158,396.1z"/>
	<path class="st2" d="M164.9,397.5c-0.1,0-0.2,0-0.2-0.1c-0.2-0.1-0.3-0.4-0.2-0.7c0.2-0.4,5.7-10.1,9-12c0.2-0.1,0.5-0.1,0.7,0.2
		c0.1,0.2,0.1,0.5-0.2,0.7c-3.1,1.8-8.6,11.5-8.6,11.6C165.3,397.4,165.1,397.5,164.9,397.5z"/>
	<path class="st2" d="M182.2,401.5c-0.1,0-0.2,0-0.3-0.1l-0.6-0.4c-2.3-1.7-4.8-3.2-7.2-4.6c-0.6-0.2-2.6,0.9-4.2,2.1
		c-0.2,0.2-0.5,0.1-0.7-0.1c-0.2-0.2-0.1-0.5,0.1-0.7c0.6-0.5,3.7-2.8,5.1-2.3c2.6,1.4,5.1,3,7.5,4.7l0.6,0.4
		c0.2,0.2,0.3,0.5,0.1,0.7c0,0,0,0,0,0C182.6,401.4,182.4,401.5,182.2,401.5z"/>
	<path class="st0" d="M274.4,269.1c0,0-1.9,7.5-6.9,21.9s-8.6,21.2-8.6,21.2l-11.3,68.8l-54.8,12.2l7.5,12.6c0,0,31.5,2.8,47.3-1.1
		s22.7-6,23.5-7.8s8-40.6,7.6-66.7S277.8,267.2,274.4,269.1z"/>
	<path class="st2" d="M223.4,407.3c-12.1,0-22.8-0.9-23-1c-0.2,0-0.3-0.1-0.4-0.2l-7.5-12.6c-0.1-0.1-0.1-0.3,0-0.5
		c0.1-0.1,0.2-0.3,0.4-0.3l54.4-12.1l11.2-68.5c0-0.1,0-0.1,0-0.1c0-0.1,3.7-7,8.6-21.2s6.8-21.8,6.8-21.9c0-0.1,0.1-0.3,0.2-0.3
		c0.3-0.2,0.7-0.2,1,0c2.9,1.7,3.7,25.8,4.2,61.6c0.3,26.2-6.8,64.9-7.7,66.9c-0.8,1.9-6.2,3.7-23.8,8
		C241.3,406.8,232,407.3,223.4,407.3z M200.7,405.4c3,0.2,32.1,2.5,46.9-1.1c11.7-2.9,22.3-5.7,23.1-7.5c0.6-1.4,7.9-40.2,7.6-66.5
		c-0.2-16-0.7-58.2-3.5-60.6c-0.5,1.7-2.5,9.1-6.8,21.6c-2.4,7.3-5.2,14.4-8.6,21.3l-11.3,68.7c0,0.2-0.2,0.4-0.4,0.4l-54.1,12
		L200.7,405.4z M247.6,381.1L247.6,381.1z"/>
	<path class="st2" d="M258.9,312.8c-0.1,0-0.2,0-0.3-0.1c-0.2-0.2-0.3-0.5-0.1-0.7l16.5-24.6c0.1-0.2,0.5-0.3,0.7-0.1c0,0,0,0,0,0
		c0.2,0.2,0.3,0.5,0.1,0.7l-16.5,24.6C259.2,312.7,259.1,312.8,258.9,312.8z"/>
	<path class="st2" d="M263,311.9c-0.3,0-0.5-0.2-0.5-0.5c0-0.1,0-0.2,0.1-0.3l11.2-14.7c0.2-0.2,0.5-0.3,0.7-0.1
		c0.2,0.2,0.3,0.5,0.1,0.7l-11.2,14.7C263.3,311.8,263.2,311.9,263,311.9z"/>
	<path class="st2" d="M267.7,386.4c-0.1,0-0.3-0.1-0.4-0.2c-5.2-6.2-16.5-5.5-16.6-5.5c-0.3,0-0.5-0.2-0.5-0.5s0.2-0.5,0.5-0.5
		c0.5,0,11.9-0.7,17.4,5.9c0.2,0.2,0.1,0.5-0.1,0.7C267.9,386.4,267.8,386.4,267.7,386.4z"/>
	<line class="st4" x1="198.8" y1="392" x2="207.4" y2="405.8"/>
	<path class="st2" d="M207.4,406.3c-0.2,0-0.3-0.1-0.4-0.3l-8.6-13.8c-0.1-0.2-0.1-0.5,0.1-0.7c0,0,0,0,0,0c0.2-0.1,0.5-0.1,0.7,0.1
		c0,0,0,0,0,0l8.6,13.8c0.1,0.2,0.1,0.5-0.1,0.7c0,0,0,0,0,0C207.6,406.2,207.5,406.3,207.4,406.3z"/>
	<path class="st2" d="M250.2,377.8c-0.2,0-0.3-0.1-0.4-0.2c-0.2-0.2-0.1-0.5,0.1-0.7h0c0.2-0.2,5.9-4.4,15.8-1.8
		c0.3,0.1,0.4,0.3,0.4,0.6s-0.3,0.4-0.6,0.4c-9.4-2.5-14.9,1.6-14.9,1.6C250.4,377.7,250.3,377.8,250.2,377.8z"/>
	<polygon class="st3" points="227.9,405.1 242.6,406.7 239.8,428.4 224.5,427.6 	"/>
	<path class="st2" d="M239.8,428.9L239.8,428.9l-15.3-0.8c-0.1,0-0.3-0.1-0.4-0.2c-0.1-0.1-0.1-0.3-0.1-0.4l3.4-22.5
		c0-0.3,0.3-0.5,0.6-0.4l14.7,1.6c0.1,0,0.3,0.1,0.3,0.2c0.1,0.1,0.1,0.2,0.1,0.4l-2.8,21.7C240.3,428.7,240.1,428.9,239.8,428.9z
		 M225.1,427.1l14.3,0.7l2.6-20.8l-13.7-1.5L225.1,427.1z"/>
	<path class="st0" d="M156.1,270.5c0,0-23.2,10-24.5,15s-14.7,59-20.2,87.4s-7.5,48-5.7,49.2s31.3,6,66.8,7.4s50.3,2,51.8,0.4
		s4.3-23.5,3.4-24.8s-80.3-14.8-80.3-14.8s20.5-69,20.4-71.7s-10.5-21.1-14.6-26.2"/>
	<path class="st2" d="M215,431.3c-7.8,0-20.9-0.5-42.3-1.3c-35.2-1.4-65-6.2-67.1-7.5c-2.6-1.6,1-26.9,5.4-49.7
		c3.3-16.7,9.8-45,19.4-84c0.4-1.6,0.7-2.8,0.8-3.3c1.2-5.1,22.3-14.3,24.8-15.4c0.3-0.1,0.5,0,0.6,0.3c0.1,0.2,0,0.5-0.3,0.6
		c-6.4,2.8-23.2,10.8-24.2,14.7c-0.1,0.5-0.4,1.7-0.8,3.3c-9.6,39-16.1,67.3-19.3,84c-5.8,30-7.2,47.5-5.9,48.7
		c1.6,1,30.6,5.9,66.6,7.3c33.3,1.3,50.1,1.9,51.5,0.5c1.2-1.2,4.1-21.6,3.4-24c-2.9-1.2-49.2-9.4-80-14.6c-0.1,0-0.3-0.1-0.3-0.2
		c-0.1-0.1-0.1-0.3,0-0.4c5.7-19.2,20.4-69.4,20.4-71.6c0-2.5-10.2-20.6-14.5-25.9c-0.2-0.2-0.1-0.5,0.1-0.7c0,0,0,0,0,0
		c0.2-0.2,0.5-0.1,0.7,0.1c0,0,0,0,0,0c4.1,5.1,14.7,23.6,14.7,26.5c0,2.7-18.3,64.4-20.3,71.3c29.8,5.1,79.3,13.7,80.1,14.9
		c1.1,1.5-2,23.9-3.5,25.4C224.1,430.9,221.4,431.3,215,431.3z"/>
	<path class="st2" d="M124.3,399.1c-0.1,0-0.2-0.1-0.3-0.1c-0.2-0.2-0.2-0.5,0-0.7c0,0,0,0,0,0c9.8-10.3,23.6-8.5,23.7-8.5
		c0.3,0,0.5,0.3,0.4,0.6c0,0.3-0.3,0.5-0.6,0.4c-0.1,0-13.4-1.7-22.8,8.1C124.6,399.1,124.5,399.2,124.3,399.1z"/>
	<path class="st2" d="M116.7,405.3h-0.1c-0.3-0.1-0.4-0.4-0.3-0.6c1.6-5.7,7.5-11.7,7.8-11.9c0.2-0.2,0.5-0.2,0.7,0
		c0.2,0.2,0.2,0.5,0,0.7c0,0,0,0,0,0c-0.1,0.1-6,6.1-7.5,11.5C117.1,405.1,116.9,405.3,116.7,405.3z"/>
	<path class="st3" d="M242.6,406.7c0,0,30.7-10.3,32.8-8.9s14,11.5,14.1,13s-0.2,5.2-1.4,5.8c-1.1,0.5-2.2,0.8-3.3,1.1
		c0,0-3.3,11.1-4.6,12.1s-5.4,2-7.3,2.3s-33-3.7-33-3.7L242.6,406.7z"/>
	<path class="st2" d="M272.6,432.6c-4,0-29.7-3.3-32.8-3.7c-0.3,0-0.5-0.3-0.4-0.6c0,0,0,0,0,0l2.8-21.7c0-0.2,0.2-0.3,0.3-0.4
		c7.3-2.4,31.1-10.3,33.2-8.9c1.5,1,14.1,11.5,14.3,13.4c0.1,1.1-0.1,5.5-1.7,6.3c-1,0.4-2,0.8-3.1,1.1c-0.7,2.4-3.4,11.1-4.7,12.1
		s-5.5,2.1-7.5,2.4C272.8,432.6,272.7,432.6,272.6,432.6z M240.4,428c12.5,1.6,31,3.9,32.4,3.7c2.2-0.4,5.9-1.3,7.1-2.2
		c0.8-0.7,3.1-7.4,4.5-11.9c0-0.2,0.2-0.3,0.3-0.3c1.1-0.3,2.2-0.7,3.2-1.1c0.8-0.4,1.3-3.6,1.1-5.3c-0.3-1.4-11.5-11-13.9-12.7
		c-1.5-0.7-17.5,4-32.1,8.9L240.4,428z"/>
	<path class="st2" d="M284.8,418.2c-0.2,0-0.3-0.1-0.4-0.2c-1-1.6-2.8-4.4-3.7-4.9c-1.2-0.7-8.4-3.3-8.5-3.3
		c-0.3-0.1-0.4-0.4-0.3-0.6c0.1-0.2,0.4-0.4,0.6-0.3c0.3,0.1,7.3,2.7,8.6,3.4s3.8,4.8,4.1,5.2c0.1,0.2,0.1,0.5-0.2,0.7
		C285,418.1,284.9,418.2,284.8,418.2z"/>
	<path class="st2" d="M282.6,422.7c-0.1,0-0.3-0.1-0.4-0.2c-2.6-2.9-11-4.5-11.1-4.5c-0.3,0-0.4-0.3-0.4-0.5c0,0,0,0,0,0
		c0.1-0.3,0.3-0.4,0.6-0.4c0.4,0.1,8.8,1.7,11.6,4.9c0.2,0.2,0.2,0.5,0,0.7C282.9,422.7,282.7,422.8,282.6,422.7z"/>
	<path class="st2" d="M279.6,427.9c-3.2-0.2-6.3-0.8-9.2-1.9c-0.3-0.1-0.4-0.4-0.3-0.6c0.1-0.2,0.4-0.4,0.6-0.3
		c0.1,0,7.1,2.5,10.7,1.6c0.3-0.1,0.6,0.1,0.6,0.4c0.1,0.3-0.1,0.6-0.4,0.6C281,427.8,280.3,427.9,279.6,427.9z"/>
	<polygon class="st3" points="205.4,291.6 213.5,305.4 200.8,400.4 209.8,415.9 226.8,398.4 217.1,305.5 226.6,287.9 216.1,279.7 	
		"/>
	<path class="st2" d="M209.8,416.3L209.8,416.3c-0.2,0-0.4-0.1-0.4-0.2l-9-15.5c0-0.1-0.1-0.2-0.1-0.3l12.7-94.8l-8-13.6
		c-0.1-0.2-0.1-0.4,0.1-0.6l10.7-11.9c0.2-0.2,0.5-0.2,0.7-0.1l10.5,8.2c0.2,0.2,0.2,0.4,0.1,0.6l-9.4,17.4l9.7,92.8
		c0,0.1,0,0.3-0.1,0.4l-17,17.4C210.1,416.3,210,416.4,209.8,416.3z M201.3,400.2l8.6,14.8l16.4-16.8l-9.7-92.7c0-0.1,0-0.2,0.1-0.3
		l9.2-17.2l-9.8-7.7L206,291.7l7.9,13.5c0.1,0.1,0.1,0.2,0.1,0.3L201.3,400.2z"/>
	<path class="st0" d="M193.8,246.4l-7.4,4.1c0,0-0.1,14.4,3.8,27.1s7.4,21.3,7.4,21.3l19.1-10.3l18.8,11.8c0,0,2.6-13.5,1.4-25.9
		s-6.4-26-6.4-26S203.9,241.5,193.8,246.4z"/>
	<path class="st2" d="M235.5,300.9c-0.1,0-0.2,0-0.3-0.1l-18.6-11.7l-18.9,10.2c-0.1,0.1-0.3,0.1-0.4,0c-0.1,0-0.2-0.1-0.3-0.3
		c0-0.1-3.5-8.7-7.4-21.3s-3.8-27.1-3.8-27.3c0-0.2,0.1-0.3,0.3-0.4l7.4-4.1l0,0c10.2-5,36,1.7,37.1,2c0.2,0,0.3,0.2,0.3,0.3
		c0.1,0.1,5.2,13.9,6.4,26.2s-1.4,25.9-1.4,26c0,0.2-0.1,0.3-0.3,0.4C235.6,300.8,235.6,300.9,235.5,300.9z M216.7,288.1
		c0.1,0,0.2,0,0.3,0.1l18.2,11.4c0.5-3,2.3-14.5,1.2-25c-1.1-11.3-5.6-23.8-6.3-25.7c-2.7-0.7-26.8-6.6-36.1-2l-7.1,3.9
		c0,2.1,0.3,15.2,3.8,26.7c3.3,10.8,6.4,18.7,7.1,20.7l18.6-10C216.5,288.2,216.6,288.1,216.7,288.1z"/>
	<path class="st2" d="M200.9,265.5c0,0,3.4,7.8,5.7,11.7s10.1,11.5,10.1,11.5s7.8-11.8,9.3-13.8l1.5-2.1c0,0-10.1,1-12.3,0.3
		S200.9,265.5,200.9,265.5z"/>
	<path class="st2" d="M216.7,289.1c-0.1,0-0.3,0-0.4-0.1c-0.3-0.3-7.8-7.7-10.1-11.6s-5.7-11.6-5.8-11.7c-0.1-0.2,0-0.4,0.1-0.6
		c0.2-0.1,0.4-0.2,0.6-0.1c4.1,2.4,12.4,7,14.2,7.5s9.4-0.1,12.1-0.3c0.2,0,0.4,0.1,0.5,0.2c0.1,0.2,0.1,0.4,0,0.5l-1.5,2
		c-1.5,2-9.2,13.7-9.3,13.8C217.1,289,216.9,289.1,216.7,289.1L216.7,289.1z M202,266.7c1.1,2.4,3.4,7.4,5.1,10.2
		c1.9,3.2,7.9,9.3,9.6,10.9c1.5-2.3,7.7-11.5,9-13.4l0.8-1.2c-2.7,0.2-9.5,0.7-11.4,0.2S205.2,268.5,202,266.7z"/>
	<path class="st3" d="M246.9,219.1c0,0-3.9,20.5-3.9,23.2s1.8,11.1,0.6,14.2s-14.8,16.9-19,20.2s-10.4,3-13.7,0.2
		s-14.6-14.8-16.4-18.2s-3.9-12.5-3.9-12.5c-3.5-1.9-6.5-4.6-8.6-8c-3.2-5.3-4.9-9-0.5-11.5l-2-22.6c0,0,7.5-7.6,25.1-6.2
		S246.9,219.1,246.9,219.1z"/>
	<path class="st2" d="M217.5,279.7c-2.5,0.1-4.9-0.8-6.9-2.3c-3.2-2.7-14.6-14.8-16.5-18.4c-1.7-3.2-3.5-11-3.9-12.4
		c-3.5-1.9-6.4-4.7-8.6-8.1c-2.1-3.4-3.7-6.5-3.1-9c0.4-1.3,1.3-2.4,2.4-3l-2-22.3c0-0.1,0-0.3,0.1-0.4c0.3-0.3,7.8-7.7,25.5-6.4
		s42.2,21.1,42.5,21.2c0.1,0.1,0.2,0.3,0.2,0.5c0,0.2-3.9,20.5-3.9,23.1c0,0.8,0.2,2,0.4,3.5c0.5,3.8,1.1,8.5,0.2,10.9
		c-1.2,3.3-14.9,17.1-19.2,20.4C222.8,278.8,220.2,279.7,217.5,279.7z M180.1,204.4l2,22.3c0,0.2-0.1,0.4-0.2,0.5
		c-1.1,0.5-1.9,1.4-2.2,2.6c-0.6,2.1,1,5,3,8.2c2.1,3.3,5,6,8.4,7.8c0.1,0.1,0.2,0.2,0.3,0.3c0,0.1,2,9.1,3.8,12.4
		s13.2,15.5,16.3,18.1c3,2.5,8.8,3.1,13.1-0.2c4.5-3.5,17.7-17.1,18.9-20c0.8-2.1,0.2-6.9-0.3-10.4c-0.2-1.5-0.4-2.8-0.4-3.6
		c-0.1-2.6,3.3-20.4,3.8-23c-2.6-2-25.3-19.6-41.7-20.9C188.8,197.2,181.2,203.3,180.1,204.4L180.1,204.4z"/>
	<path class="st2" d="M189,231.3l4.2,10l2.5,0.3l-1.3-7.6c0,0,10-5.3,10.5-5.8s-2.2-13-2.3-14.2s0.6-5.3,14.8-1.1
		s14.6,9.3,21.6,10.6s7.7-1.5,7.7-1.5s7.6,1.8,11.8-3.9c4.2-5.7-8.2-12.3-8.2-12.3s2-10.6-3-15.3s-9.5,0-9.5,0.6
		s-18.1-12.3-27.1-12.8s-29.4,13.2-32.9,20.2s3.9,28.2,3.9,28.2S186.1,225,189,231.3z"/>
	<path class="st2" d="M195.7,242.1L195.7,242.1l-2.6-0.3c-0.2,0-0.3-0.1-0.4-0.3l-4.2-10c-2.6-5.8-6.7-4.3-6.9-4.3
		c-0.1,0.1-0.3,0.1-0.4,0c-0.1-0.1-0.2-0.2-0.3-0.3c-0.3-0.9-7.4-21.4-3.8-28.6c3.5-6.9,23.8-21.1,33.4-20.5
		c6.9,0.4,18.7,7.7,24.4,11.2c1,0.6,1.9,1.2,2.4,1.5c0.6-0.8,1.4-1.4,2.3-1.9c1.5-0.7,4.5-1.5,7.8,1.5c4.7,4.4,3.5,13.5,3.2,15.4
		c1.5,0.9,8,4.7,8.9,9c0.3,1.3,0,2.8-0.9,3.9c-3.8,5.1-10.3,4.4-11.9,4.1c-0.5,0.8-2.3,2.5-8,1.4c-3.2-0.6-5.1-1.9-7.4-3.6
		c-4.3-3.2-9.1-5.6-14.2-7c-9.3-2.8-12.4-1.8-13.4-1c-0.5,0.4-0.7,0.9-0.7,1.5c0,0.3,0.3,1.8,0.7,3.5c2,10.2,1.9,10.7,1.5,11.1
		s-8,4.4-10.2,5.6l1.2,7.2c0,0.2,0,0.3-0.1,0.4C196,241.9,195.9,242,195.7,242.1z M193.5,240.8l1.6,0.2l-1.2-6.9
		c0-0.2,0.1-0.4,0.2-0.5c3.7-2,9.3-5,10.3-5.6c0.1-1.1-1.1-7-1.7-10.2c-0.4-2.1-0.6-3.2-0.7-3.6c-0.1-0.9,0.3-1.8,1-2.4
		c2.1-1.7,6.9-1.4,14.4,0.8c5.3,1.4,10.2,3.8,14.6,7.1c2.2,1.6,4,2.9,7,3.4c6.3,1.1,7.1-1.1,7.1-1.2c0.1-0.3,0.3-0.4,0.6-0.4
		c0.1,0,7.3,1.6,11.3-3.7c0.7-0.9,0.9-2,0.7-3.1c-1-4.3-8.7-8.5-8.7-8.5c-0.2-0.1-0.3-0.3-0.3-0.5c0-0.1,1.9-10.4-2.8-14.8
		c-1.4-1.5-3.4-2.2-5.4-1.8c-1.3,0.3-2.4,1-3.2,2.1c0,0.2-0.1,0.3-0.2,0.4c-0.4,0.2-0.4,0.2-3.5-1.7c-5.2-3.2-17.3-10.7-24-11.1
		c-8.5-0.6-28.8,12.8-32.4,20c-3.1,6.2,2.7,24.3,3.7,27.3c1.4-0.3,5.1-0.5,7.6,4.9l0,0L193.5,240.8z"/>
	<path class="st2" d="M232,259.2L232,259.2l-7.8-1c-0.3,0-0.5-0.3-0.4-0.5c0,0,0,0,0,0c0-0.3,0.3-0.5,0.6-0.4l7.1,1l-0.3-14.8
		c0-0.3,0.2-0.5,0.5-0.5c0,0,0,0,0,0c0.3,0,0.5,0.2,0.5,0.4c0,0,0,0,0,0.1l0.3,15.4c0,0.1-0.1,0.3-0.2,0.4
		C232.2,259.2,232.1,259.2,232,259.2z"/>
	<path class="st2" d="M225.2,264.9c-3.2-0.1-6.4-1.2-9-3.1c-0.2-0.2-0.3-0.5-0.1-0.7s0.5-0.3,0.7-0.1c0,0,0,0,0,0
		c0.1,0,6.2,4.8,12.7,2.1c0.3-0.1,0.6,0,0.7,0.3c0.1,0.3,0,0.6-0.3,0.7C228.4,264.5,226.8,264.9,225.2,264.9z"/>
	<path class="st2" d="M216.3,244.1c-1.7,0-3.3-0.4-4.9-1.1c-0.3-0.1-0.4-0.4-0.3-0.6c0.1-0.3,0.4-0.4,0.6-0.3c0,0,0,0,0,0
		c7,2.8,9.1-1,9.1-1.2c0.1-0.2,0.4-0.3,0.7-0.2s0.3,0.4,0.2,0.7C221.8,241.4,220.4,244.1,216.3,244.1z"/>
	<path class="st2" d="M237.1,241.4c-1.2,0-2.3-0.3-3.4-0.9c-0.2-0.1-0.3-0.5-0.1-0.7c0,0,0,0,0,0c0.2-0.2,0.5-0.3,0.7-0.1
		c2,1.2,4.5,1,6.2-0.5c0.2-0.2,0.5-0.1,0.7,0.1c0.2,0.2,0.1,0.5-0.1,0.7C240,240.8,238.6,241.3,237.1,241.4z"/>
	<path class="st2" d="M214.6,253.1c-4.6,0-8.4-1.8-9.3-4c-1-2.3-2.3-9.7-2.3-10c0-0.2,0.1-0.5,0.4-0.6c0.1,0,9.3-2.8,25.9-2.9
		c0.2,0,0.3,0.1,0.4,0.2c0.1,0.1,0.1,0.3,0.1,0.5c0,0-1.5,4.4-3,8.2l-0.5,1.1c-1.2,3.2-2.3,6-8.1,7.1
		C217,253,215.8,253.1,214.6,253.1z M204,239.4c0.3,1.6,1.4,7.4,2.2,9.3c0.9,2.1,5.8,4.3,11.8,3.1c5.2-1.1,6.1-3.4,7.4-6.5l0.5-1.2
		c1.2-2.9,2.3-6.1,2.8-7.4C214.5,236.8,206,238.9,204,239.4z"/>
	<path class="st2" d="M236.7,249.2c-1.6,0-3-0.4-3.8-1.6s-4-10.8-4.1-11.2c-0.1-0.1-0.1-0.3,0-0.4c0.1-0.1,0.2-0.2,0.3-0.2
		c0.2,0,15.9-3.5,20.6-4.3c0.1,0,0.3,0,0.4,0.1c0.1,0.1,0.2,0.2,0.2,0.4c0,2.8-0.4,5.6-1.2,8.2c-1.3,3.6-4,6.9-6.4,7.8
		C240.8,248.6,238.8,249.1,236.7,249.2z M229.9,236.5c1.1,3.1,3.4,9.6,3.9,10.5c1.1,2.1,6.1,0.9,8.6-0.1c2.2-0.8,4.6-3.9,5.8-7.2
		c0.7-2.4,1.1-4.8,1.1-7.3C244.6,233.3,232.6,235.9,229.9,236.5L229.9,236.5z"/>
	<path class="st2" d="M249.8,232.4c-0.1,0-0.2,0-0.3-0.1l-4.8-4.3c-0.2-0.2-0.2-0.5,0-0.7c0.2-0.2,0.5-0.2,0.7,0l4.8,4.3
		c0.2,0.2,0.2,0.5,0.1,0.7C250.1,232.3,250,232.4,249.8,232.4L249.8,232.4z"/>
	<path class="st2" d="M203.5,239.6c-0.1,0-0.2,0-0.2-0.1l-14.5-7.8c-0.2-0.1-0.3-0.4-0.2-0.7c0,0,0,0,0,0c0.1-0.2,0.4-0.3,0.7-0.2
		c0,0,0,0,0,0l14.5,7.8c0.2,0.1,0.3,0.4,0.2,0.7C203.8,239.4,203.6,239.5,203.5,239.6z"/>
	<path class="st2" d="M209.2,236.2c-0.2,0-0.4-0.1-0.5-0.3c-0.1-0.2,0-0.5,0.2-0.6c0,0,0,0,0,0c4.5-1.7,9.4-2.3,14.2-1.6
		c0.3,0,0.5,0.3,0.4,0.6c0,0.3-0.3,0.5-0.5,0.4c0,0,0,0,0,0c-4.6-0.6-9.3,0-13.7,1.6C209.4,236.1,209.3,236.2,209.2,236.2z"/>
	<path class="st2" d="M233.6,233.9c-0.1,0-0.2,0-0.3-0.1c-0.2-0.2-0.3-0.5-0.1-0.7c0.1-0.2,2.6-3.9,9.8-2.8c0.3,0,0.5,0.3,0.4,0.6
		c0,0,0,0,0,0c0,0.3-0.3,0.5-0.6,0.4c-6.5-1-8.7,2.2-8.8,2.3C233.9,233.8,233.7,233.9,233.6,233.9z"/>
</g>
<g id="freepik--Device--inject-164">
	<polygon class="st3" points="504.1,447.9 479.9,435.7 587.4,435.7 618.6,447.9 	"/>
	<path class="st2" d="M621.2,448.4H504l-26.2-13.2h109.8L621.2,448.4z M504.2,447.4h111.7l-28.6-11.2H482L504.2,447.4z"/>
	<polygon class="st3" points="515.8,447.4 495.1,437 587.1,437 613.8,447.4 	"/>
	<path class="st2" d="M616.5,447.9H515.7L493,436.5h94.3L616.5,447.9z M515.9,446.9h95.2l-24.2-9.5h-89.8L515.9,446.9z"/>
	<polygon class="st3" points="504.1,447.9 618.6,447.9 634.2,374.2 519.7,374.2 	"/>
	<path class="st2" d="M619,448.4H503.5l15.8-74.7h115.5L619,448.4z M504.7,447.4h113.4l15.4-72.7H520.1L504.7,447.4z"/>
	<path class="st3" d="M564.2,408.8c-2.9,2.9-3.1,7.3-0.5,10s7.1,2.4,10-0.4s3.1-7.3,0.5-10S567.1,405.9,564.2,408.8z"/>
	<path class="st2" d="M568.3,421.1c-3.7,0.1-6.8-2.9-6.9-6.7c0-0.2,0-0.4,0-0.6c0.1-2,1-4,2.5-5.4c3.1-3.1,7.9-3.2,10.7-0.4
		s2.6,7.6-0.5,10.7C572.5,420.2,570.5,421.1,568.3,421.1z M569.6,407c-3.8,0.1-7,3.1-7.2,6.9c-0.1,1.7,0.5,3.3,1.7,4.5
		c2.4,2.4,6.6,2.2,9.2-0.4s2.9-6.8,0.5-9.2C572.7,407.6,571.2,407,569.6,407z"/>
</g>
<g id="freepik--Sheets--inject-164">
	<polygon class="st3" points="347.1,427.6 297.7,449.8 387.2,454.8 428.1,429 	"/>
	<path class="st2" d="M387.2,455.3L387.2,455.3l-89.5-5c-0.3,0-0.5-0.1-0.6-0.4s0.1-0.5,0.4-0.6l49.4-22.2c0.1,0,0.1,0,0.2,0
		l80.9,1.4c0.2,0,0.4,0.2,0.5,0.4c0.1,0.2,0,0.4-0.2,0.5l-40.8,25.8C387.5,455.3,387.4,455.3,387.2,455.3z M299.8,449.4l87.3,4.9
		l39.3-24.8l-79.1-1.4L299.8,449.4z"/>
	<polygon class="st3" points="354.3,428.1 311.4,456.2 402.7,464.1 417,428.6 	"/>
	<path class="st2" d="M402.7,464.6L402.7,464.6l-91.3-7.8c-0.2,0-0.4-0.2-0.4-0.4c-0.1-0.2,0-0.4,0.2-0.5l42.9-28.1
		c0.1-0.1,0.2-0.1,0.3-0.1l62.7,0.5c0.2,0,0.3,0.1,0.4,0.2c0.1,0.1,0.1,0.3,0,0.5l-14.3,35.5C403.1,464.5,402.9,464.6,402.7,464.6z
		 M312.9,455.9l89.5,7.7l13.9-34.5l-61.9-0.5L312.9,455.9z"/>
</g>
<g id="freepik--Books--inject-164">
	<path class="st3" d="M206.7,411.7c0-3.6,0.9-7.1,2.6-10.1h-84.8c-5.4-0.2-10,4.1-10.2,9.5c-0.2,5.4,4.1,10,9.5,10.2
		c0.2,0,0.4,0,0.6,0H209C207.5,418.3,206.7,415,206.7,411.7z"/>
	<path class="st2" d="M209.9,421.8h-85.3c-5.7,0.2-10.5-4.3-10.7-10s4.3-10.5,10-10.7c0.2,0,0.4,0,0.6,0h85.6l-0.4,0.8
		c-3.3,6-3.4,13.2-0.3,19.2L209.9,421.8z M124.6,402.1c-5.2-0.2-9.5,3.9-9.7,9s3.9,9.5,9,9.7c0.2,0,0.4,0,0.6,0h83.6
		c-2.8-6-2.7-12.8,0.3-18.7H124.6z"/>
	<path class="st5" d="M209,423h-84.4c-6.4,0-11.6-5.2-11.6-11.6c0-6.4,5.2-11.6,11.6-11.6h84.8c1-0.1,1.8,0.6,1.9,1.6
		c0.1,1-0.6,1.8-1.6,1.9c-0.1,0-0.2,0-0.3,0h-84.8c-4.5,0-8.1,3.6-8.1,8.1c0,4.5,3.6,8.1,8.1,8.1c0,0,0,0,0,0H209
		c1-0.1,1.8,0.6,1.9,1.6c0.1,1-0.6,1.8-1.6,1.9C209.2,423,209.1,423,209,423z"/>
	<path class="st2" d="M209,423.5h-84.4c-6.7,0-12.1-5.4-12.1-12.1c0-6.7,5.4-12.1,12.1-12.1h84.8c1.2-0.1,2.3,0.9,2.4,2.1
		c0.1,1.2-0.9,2.3-2.1,2.4c-0.1,0-0.2,0-0.3,0h-84.8c-4.2,0-7.6,3.4-7.6,7.6c0,4.2,3.4,7.6,7.6,7.6c0,0,0,0,0,0H209
		c1.2-0.1,2.3,0.9,2.4,2.1c0.1,1.2-0.9,2.3-2.1,2.4C209.2,423.5,209.1,423.5,209,423.5z M124.6,400.3c-6.1,0-11.1,5-11.1,11.1
		c0,6.1,5,11.1,11.1,11.1H209c0.7,0.1,1.3-0.4,1.3-1.1c0.1-0.7-0.4-1.3-1.1-1.3c-0.1,0-0.1,0-0.2,0h-84.4c-4.8,0-8.6-3.9-8.6-8.6
		c0-4.8,3.9-8.6,8.6-8.6c0,0,0,0,0,0h84.8c0.7,0.1,1.3-0.4,1.3-1.1c0.1-0.7-0.4-1.3-1.1-1.3c-0.1,0-0.1,0-0.2,0H124.6z"/>
	<path class="st3" d="M197.5,401.6c-3.4,6.1-3.5,13.5-0.3,19.7H209c-3.2-6.2-3.1-13.6,0.3-19.7H197.5z"/>
	<path class="st2" d="M209.9,421.8h-12.9l-0.1-0.3c-3.3-6.4-3.1-13.9,0.3-20.2l0.1-0.2h13l-0.4,0.8c-3.3,6-3.4,13.2-0.3,19.2
		L209.9,421.8z M197.5,420.8h10.7c-2.8-6-2.7-12.8,0.3-18.7h-10.6C194.7,407.9,194.6,414.8,197.5,420.8z"/>
	<path class="st3" d="M209.1,434.7c0-3.6,0.9-7.1,2.6-10.1H127c-5.4,0.2-9.7,4.7-9.5,10.2c0.2,5.2,4.3,9.4,9.5,9.5h84.4
		C209.9,441.3,209.1,438,209.1,434.7z"/>
	<path class="st2" d="M212.2,444.8H127c-5.7-0.2-10.2-5-10-10.7c0.2-5.5,4.6-9.9,10-10h85.6l-0.4,0.8c-3.3,6-3.4,13.2-0.3,19.2
		L212.2,444.8z M127,425.1c-5.2,0.2-9.2,4.5-9,9.7c0.2,4.9,4.1,8.9,9,9h83.6c-2.8-6-2.7-12.8,0.3-18.7H127z"/>
	<path class="st0" d="M211.4,446H127c-6.4-0.2-11.4-5.5-11.3-11.9c0.2-6.1,5.1-11.1,11.3-11.3h84.8c1-0.1,1.8,0.6,1.9,1.6
		c0.1,1-0.6,1.8-1.6,1.9c-0.1,0-0.2,0-0.3,0H127c-4.5,0-8.1,3.6-8.1,8.1c0,4.5,3.6,8.1,8.1,8.1h84.4c1,0,1.7,0.8,1.7,1.7
		C213.2,445.2,212.4,446,211.4,446L211.4,446z"/>
	<path class="st2" d="M211.4,446.5H127c-6.7,0-12.1-5.4-12.1-12.1c0-6.7,5.4-12.1,12.1-12.1h84.8c1.2-0.1,2.3,0.9,2.4,2.1
		c0.1,1.2-0.9,2.3-2.1,2.4c-0.1,0-0.2,0-0.3,0H127c-4.2,0.3-7.4,3.9-7.1,8.1c0.2,3.8,3.3,6.9,7.1,7.1h84.4c1.2-0.1,2.3,0.9,2.4,2.1
		c0.1,1.2-0.9,2.3-2.1,2.4C211.6,446.5,211.5,446.5,211.4,446.5L211.4,446.5z M127,423.3c-6.1,0-11.1,5-11.1,11.1
		c0,6.1,5,11.1,11.1,11.1h84.4c0.7,0.1,1.3-0.4,1.3-1.1c0.1-0.7-0.4-1.3-1.1-1.3c-0.1,0-0.1,0-0.2,0H127c-4.8,0-8.6-3.9-8.6-8.6
		c0-4.8,3.9-8.6,8.6-8.6h84.8c0.7,0.1,1.3-0.4,1.3-1.1c0.1-0.7-0.4-1.3-1.1-1.3c-0.1,0-0.1,0-0.2,0H127z"/>
	<path class="st3" d="M199.9,424.6c-1.8,3.1-2.7,6.6-2.6,10.1c0,3.3,0.8,6.6,2.3,9.6h11.8c-3.2-6.2-3.1-13.6,0.3-19.7L199.9,424.6z"
		/>
	<path class="st2" d="M212.2,444.8h-12.9l-0.1-0.3c-3.3-6.4-3.1-14,0.3-20.2l0.1-0.2h12.9l-0.4,0.8c-3.3,6-3.4,13.2-0.3,19.2
		L212.2,444.8z M199.9,443.8h10.7c-2.8-6-2.7-12.8,0.3-18.7h-10.6C197.1,430.9,197,437.8,199.9,443.8z"/>
</g>
</svg>
