<svg width="165" height="165" viewBox="0 0 165 165" fill="none" xmlns="http://www.w3.org/2000/svg">
<g clip-path="url(#clip0_66_69)">
<path d="M136.8 87.8149C129.758 87.8149 123.323 90.4598 118.426 94.8018L111.642 88.0179C117.744 80.94 121.444 71.7318 121.444 61.6526C121.444 39.3374 103.354 21.2478 81.0388 21.2478C58.7236 21.2478 40.634 39.3374 40.634 61.6526C40.634 71.7219 44.3265 80.9247 50.4193 87.9992L44.7511 93.6664C40.0482 90.0035 34.1453 87.8139 27.7355 87.8139C12.4433 87.8149 0 100.264 0 115.565C0 122.723 2.71179 129.508 7.63513 134.669C8.8901 136.001 10.2921 137.21 11.7983 138.259C16.4693 141.558 21.9806 143.301 27.7366 143.301C33.4629 143.301 38.9644 141.567 43.6475 138.287C45.1822 137.216 46.5929 136.003 47.8358 134.684C52.7691 129.512 55.4863 122.722 55.4863 115.565C55.4863 108.015 52.452 101.163 47.5429 96.1555L52.9841 90.7154C60.2528 97.734 70.1379 102.058 81.0399 102.058C91.9331 102.058 101.812 97.7395 109.078 90.7319L115.807 97.462C111.611 102.326 109.065 108.651 109.065 115.566C109.065 122.724 111.777 129.509 116.7 134.67C117.955 136.002 119.357 137.211 120.863 138.261C125.534 141.559 131.046 143.302 136.802 143.302C142.528 143.302 148.029 141.568 152.712 138.288C154.246 137.218 155.656 136.005 156.901 134.685C161.834 129.513 164.551 122.723 164.551 115.566C164.55 100.264 152.101 87.8149 136.8 87.8149ZM140.529 120.152C138.277 122.405 135.32 122.4 133.076 120.157C132.491 119.56 131.974 118.849 131.533 118.038C130.244 115.717 129.533 112.567 129.533 109.169C129.533 102.759 134.085 101.803 136.799 101.803C139.513 101.803 144.067 102.759 144.067 109.169C144.067 112.567 143.357 115.716 142.064 118.043C141.627 118.85 141.108 119.561 140.529 120.152ZM129.94 122.569C131.856 124.664 134.218 125.769 136.8 125.769C139.383 125.769 141.745 124.665 143.662 122.569C146.235 123.975 152.585 127.955 153.13 133.161C148.668 137.295 142.881 139.569 136.8 139.569C130.717 139.569 124.931 137.293 120.475 133.151C121.046 127.937 127.374 123.972 129.94 122.569ZM148 109.169C148 100.848 142.215 97.8832 136.8 97.8832C131.386 97.8832 125.601 100.848 125.601 109.169C125.601 112.96 126.332 116.431 127.719 119.254C124.895 120.829 119.472 124.412 117.368 129.639C114.373 125.533 112.797 120.691 112.797 115.566C112.797 102.323 123.565 91.5491 136.8 91.5491C150.043 91.5491 160.817 102.323 160.817 115.566C160.817 120.611 159.197 125.568 156.235 129.648C154.147 124.442 148.713 120.841 145.883 119.256C147.269 116.432 148 112.96 148 109.169ZM31.4653 120.152C29.2131 122.405 26.2545 122.4 24.0123 120.157C23.4276 119.56 22.9087 118.849 22.4688 118.038C21.1798 115.717 20.469 112.567 20.469 109.169C20.469 102.759 25.0215 101.803 27.7355 101.803C30.4495 101.803 35.0031 102.759 35.0031 109.169C35.0031 112.567 34.2934 115.716 33 118.044C32.5634 118.85 32.0456 119.561 31.4653 120.152ZM20.8759 122.568C22.7924 124.664 25.1542 125.768 27.7366 125.768C30.3189 125.768 32.6808 124.664 34.5972 122.568C37.1697 123.974 43.5213 127.954 44.0665 133.16C39.6039 137.294 33.8173 139.568 27.7366 139.568C21.6537 139.568 15.867 137.292 11.4099 133.15C11.9825 127.937 18.3101 123.972 20.8759 122.568ZM38.9359 109.169C38.9359 100.848 33.1514 97.8832 27.7366 97.8832C22.3218 97.8832 16.5373 100.847 16.5373 109.169C16.5373 112.962 17.2679 116.432 18.6556 119.254C15.8308 120.829 10.4083 124.412 8.3043 129.639C5.30949 125.533 3.7331 120.691 3.7331 115.566C3.7331 102.323 14.5013 91.5491 27.7366 91.5491C40.9796 91.5491 51.7532 102.323 51.7532 115.566C51.7532 120.611 50.133 125.568 47.1711 129.648C45.0835 124.441 39.6489 120.841 36.8187 119.256C38.2053 116.432 38.9359 112.96 38.9359 109.169ZM81.0388 98.3253C60.8178 98.3253 44.3671 81.8747 44.3671 61.6537C44.3671 41.4326 60.8178 24.982 81.0388 24.982C101.26 24.982 117.71 41.4326 117.71 61.6537C117.712 81.8747 101.26 98.3253 81.0388 98.3253Z" fill="#6DD1AE"/>
<path d="M93.7004 38.6331C88.2768 38.6331 83.5378 41.6246 81.0443 46.0455C78.5486 41.6235 73.8062 38.6331 68.3772 38.6331C60.3625 38.6331 53.843 45.1536 53.843 53.1672C53.843 55.4698 54.3674 57.6715 55.4424 59.7865C55.7156 60.2681 55.9898 60.7497 56.3277 61.2916C56.353 61.33 56.3935 61.3904 56.4506 61.4628C63.9815 73.4848 79.3494 83.9162 80.0021 84.355C80.317 84.5667 80.6812 84.6731 81.0443 84.6731C81.4074 84.6731 81.7716 84.5667 82.0864 84.355C82.7391 83.9151 98.1202 73.4771 105.635 61.4474C105.683 61.3838 105.732 61.3136 105.786 61.2313C106.086 60.7497 106.36 60.2681 106.675 59.7086C107.708 57.6704 108.232 55.4687 108.232 53.1661C108.235 45.1525 101.714 38.6331 93.7004 38.6331ZM103.388 57.9447C103.147 58.3692 102.906 58.7938 102.669 59.1788C102.618 59.2402 102.572 59.306 102.53 59.3741C96.5416 69.0244 84.6293 77.9649 81.0454 80.5275C77.4615 77.966 65.5546 69.0354 59.5485 59.373C59.5068 59.306 59.4608 59.2413 59.4114 59.1799C59.158 58.7674 58.9276 58.3604 58.7324 58.0204C57.9666 56.5098 57.5783 54.8764 57.5783 53.1661C57.5783 47.2105 62.4238 42.3651 68.3794 42.3651C74.335 42.3651 79.1805 47.2105 79.1805 53.1661C79.1805 54.1973 80.0164 55.0321 81.0465 55.0321C82.0765 55.0321 82.9125 54.1962 82.9125 53.1661C82.9125 47.2105 87.7524 42.3651 93.7015 42.3651C99.6571 42.3651 104.503 47.2105 104.503 53.1661C104.501 54.8775 104.113 56.512 103.388 57.9447Z" fill="#6DD1AE"/>
</g>
<defs>
<clipPath id="clip0_66_69">
<rect width="164.55" height="164.55" fill="white"/>
</clipPath>
</defs>
</svg>
