<?xml version="1.0" encoding="utf-8"?>
<!-- Generator: Adobe Illustrator 26.5.0, SVG Export Plug-In . SVG Version: 6.00 Build 0)  -->
<svg version="1.1" id="Camada_1" xmlns="http://www.w3.org/2000/svg" xmlns:xlink="http://www.w3.org/1999/xlink" x="0px" y="0px"
	 viewBox="0 0 500 500" style="enable-background:new 0 0 500 500;" xml:space="preserve">
<style type="text/css">
	.st0{fill:#6DD1AE;}
	.st1{opacity:0.7;fill:#FFFFFF;enable-background:new    ;}
	.st2{opacity:0.5;}
	.st3{fill:#FFFFFF;}
	.st4{fill:#073447;stroke:#073447;stroke-linecap:round;stroke-linejoin:round;}
	.st5{fill:#6DD1AE;stroke:#073447;stroke-linecap:round;stroke-linejoin:round;}
	.st6{fill:#FFFFFF;stroke:#073447;stroke-linecap:round;stroke-linejoin:round;}
	.st7{fill:none;stroke:#073447;stroke-linecap:round;stroke-linejoin:round;}
	.st8{fill:#073447;}
</style>
<g id="freepik--background-simple--inject-196">
	<path class="st0" d="M412.4,217.6c-2.6-13.9-6-27.6-10.1-41.2c-12.3-39.1-36.7-78.8-78.6-92.1c-30.9-9.8-64.4-3-90.5,17
		c-41,31.4-70.9,74.2-115.8,101.4C79.9,225.5,60.3,262.1,72.9,314s54.7,82.1,100.7,78.4c38.3-3.1,78.3,0.2,111.4,18.8
		c29.6,16.6,81.8,2.2,125.1-43.2c25.2-26.4,22.8-60,14.5-91.5C419.6,257.1,416.3,237.3,412.4,217.6z"/>
	<path class="st1" d="M412.4,217.6c-2.6-13.9-6-27.6-10.1-41.2c-12.3-39.1-36.7-78.8-78.6-92.1c-30.9-9.8-64.4-3-90.5,17
		c-41,31.4-70.9,74.2-115.8,101.4C79.9,225.5,60.3,262.1,72.9,314s54.7,82.1,100.7,78.4c38.3-3.1,78.3,0.2,111.4,18.8
		c29.6,16.6,81.8,2.2,125.1-43.2c25.2-26.4,22.8-60,14.5-91.5C419.6,257.1,416.3,237.3,412.4,217.6z"/>
</g>
<g id="freepik--Plants--inject-196">
	<path class="st0" d="M142.8,95.2c0,0,4.7-3.7,5.9-6.1c1-2,1.8-4.9,0.7-7c-0.9-2-3.3-2.9-5.3-2c-0.1,0.1-0.3,0.1-0.4,0.2
		c-2.9,1.8-3.2,7.9-2.4,10.8C141.3,91.3,142.8,95.2,142.8,95.2z"/>
	<path class="st0" d="M99.6,125.9c0.2,0.2,3.5,2.6,3.6,2.5s1.9-5.7,1.6-8.3c-0.3-2.2-1.2-5-3.3-6.2c-1.9-1.2-4.3-0.6-5.5,1.2
		c-0.1,0.1-0.2,0.3-0.2,0.4C94.2,118.6,97.3,123.9,99.6,125.9z"/>
	<path class="st0" d="M197.6,100.8c0,0-17.1,17.7-17,39.4s17.4,39.2,17.4,39.2s17.1-17.7,17-39.4S197.6,100.8,197.6,100.8z"/>
	<path class="st0" d="M173.1,153.1c0.2-0.2,0.4-0.5,0.6-0.8c1.2-1.9,2.3-4.6,1.5-6.9c-0.7-2.1-2.9-3.3-5-2.6c-0.1,0-0.3,0.1-0.4,0.2
		c-2.3,1.1-3.5,4.8-3.7,7.9c-0.9-0.2-1.8-0.4-2.5-0.5c-0.3-0.7-0.6-1.4-0.9-2.1s-0.6-1.4-0.9-2.2c-0.4-1.1-0.8-2.2-1.1-3.4
		c1.4-0.6,5.3-2.4,6.8-4.1s3-4.2,2.5-6.6c-0.3-2.2-2.4-3.7-4.6-3.4c-0.1,0-0.3,0.1-0.4,0.1c-3.3,1-5.2,6.8-5.2,9.8
		c0,0.1,0,0.7,0.1,1.5c-0.3-1.1-0.7-2.2-0.9-3.4c-0.8-3.2-1.6-6.6-2.4-9.9c-0.2-0.7-0.3-1.4-0.5-2.1c1.1-0.5,5.4-2.5,7-4.2
		s3-4.2,2.5-6.6c-0.3-2.2-2.4-3.7-4.6-3.4c-0.1,0-0.3,0.1-0.4,0.1c-3.2,1-5.2,6.8-5.2,9.8c0,0.1,0.1,0.9,0.1,1.7
		c-0.4-1.8-0.9-3.6-1.4-5.4c-0.9-3-1.9-6-3.2-8.9c0.4-0.2,5.5-2.4,7.2-4.3c1.5-1.7,3-4.2,2.5-6.6c-0.3-2.2-2.4-3.7-4.6-3.4
		c-0.1,0-0.3,0.1-0.4,0.1c-3.2,1-5.2,6.8-5.2,9.8c0,0.2,0.2,3,0.4,4c0,0,0-0.1,0-0.1c-1.3-2.8-2.9-5.5-4.7-8.1
		c-1.6-2.3-3.3-4.5-5.1-6.5c-1.7-2-3.4-3.6-4.8-5.1c-0.8-0.8-1.6-1.5-2.3-2.2h0.1c0.1,0-1.6-3.8-1.7-4c-1.5-2.6-6-6.8-9.3-6.1
		c-2.2,0.5-3.5,2.6-3,4.8c0,0.1,0.1,0.3,0.1,0.4c0.7,2.3,3.3,3.8,5.4,4.6s7,0.4,8.2,0.3c0.7,0.7,1.5,1.4,2.3,2.3
		c1.4,1.5,3.1,3.2,4.7,5.2c0.4,0.5,0.9,1.1,1.3,1.7c-0.9-0.8-2.3-1.8-2.4-1.9c-2.6-1.6-8.4-3.3-11.1-1.1c-1.7,1.4-1.9,4-0.4,5.6
		c0.1,0.1,0.2,0.2,0.4,0.4c1.7,1.7,4.6,1.9,6.9,1.6s6.5-3,7.4-3.5c1,1.2,1.9,2.6,2.9,4c1.7,2.5,3.2,5.2,4.4,8
		c0.1,0.2,0.1,0.3,0.2,0.5c-0.4-0.5-2.8-2.9-3-3c-2.4-1.9-8-4.2-10.9-2.3c-1.8,1.3-2.3,3.8-1,5.6c0.1,0.1,0.2,0.2,0.3,0.4
		c1.5,1.9,4.4,2.4,6.7,2.3c2.6-0.1,7.7-2.7,7.9-2.8c1.2,2.8,2.1,5.7,2.9,8.7c0.6,2.2,1.1,4.4,1.6,6.7c-0.5-0.6-2.8-2.8-2.9-3
		c-2.4-1.9-8-4.2-10.9-2.3c-1.8,1.3-2.3,3.8-1,5.6c0.1,0.1,0.2,0.2,0.3,0.4c1.5,1.8,4.4,2.4,6.7,2.3c2.6-0.1,7.5-2.6,7.9-2.8
		l0.7,3.1c0.7,3.4,1.4,6.7,2.1,10c0.3,1.1,0.6,2.3,0.9,3.4c-0.8-0.9-2.4-2.4-2.5-2.5c-2.4-1.9-8-4.2-10.9-2.3
		c-1.8,1.3-2.3,3.8-1,5.6c0.1,0.1,0.2,0.2,0.3,0.4c1.5,1.9,4.4,2.4,6.7,2.3s6.5-2.1,7.6-2.6c0.5,1.9,1.1,3.7,1.7,5.5
		c0.3,0.8,0.5,1.6,0.9,2.3l0.5,1.1L161,150c0,0-0.1,1.1,0.1,2.8c-2.5-1.8-6.1-3.3-8.4-2.2c-2,1-2.8,3.4-1.8,5.4
		c0.1,0.1,0.1,0.3,0.2,0.4c0.1,0.3,0.3,0.5,0.5,0.7c0.4,2.6,1.5,5.1,3.2,7.2c0.1,0.1,1.8,1.7,2.7,2.5c-0.9-0.5-1.7-0.9-2.6-1.4
		c-1.3-0.7-2.6-1.5-3.9-2.2l-2-1.3c-0.7-0.4-1.3-0.9-1.9-1.3c-0.9-0.7-1.9-1.4-2.8-2.2c0.8-1.3,3.1-5,3.4-7.1s0.1-5.2-1.5-6.9
		c-1.5-1.7-4-1.8-5.6-0.4c-0.1,0.1-0.2,0.2-0.4,0.4c-2.2,2.6-0.6,8.5,1.1,11.1c0,0.1,0.4,0.6,0.9,1.2c-0.9-0.8-1.8-1.5-2.7-2.3
		c-2.5-2.2-5-4.6-7.4-7l-1.6-1.5c0.7-1.1,3.2-5.1,3.5-7.3s0.1-5.2-1.5-6.9c-1.5-1.7-4-1.8-5.6-0.4c-0.1,0.1-0.2,0.2-0.4,0.4
		c-2.2,2.6-0.6,8.5,1,11.1c0.1,0.1,0.5,0.7,1.1,1.4c-1.4-1.3-2.8-2.5-4.2-3.7c-2.4-2.1-4.9-4-7.6-5.7c0.2-0.4,3.3-5,3.7-7.5
		c0.3-2.2,0.2-5.2-1.5-6.9c-1.5-1.7-4-1.8-5.6-0.4c-0.1,0.1-0.2,0.2-0.4,0.4c-2.2,2.6-0.6,8.5,1,11.1c0.1,0.2,1.8,2.4,2.5,3.1
		l-0.1-0.1c-2.6-1.6-5.4-3-8.3-4.1c-2.6-1-5.2-1.9-7.9-2.6c-2.5-0.7-4.8-1.2-6.8-1.6c-1.1-0.2-2.1-0.4-3.1-0.5l0,0
		c0,0-3.4-2.3-3.6-2.4c-2.7-1.3-8.8-2.4-11.1,0.1c-1.5,1.6-1.5,4.1,0.1,5.7c0.1,0.1,0.3,0.2,0.4,0.3c1.9,1.5,4.8,1.4,7,0.8
		s6-3.5,7-4.3c1,0.2,2,0.4,3.2,0.6c2,0.5,4.3,1,6.8,1.7c0.7,0.2,1.3,0.4,2,0.7c-1.2-0.1-2.9-0.3-3.1-0.3c-3,0.1-8.8,1.9-9.8,5.2
		c-0.6,2.1,0.7,4.3,2.8,4.9c0.1,0,0.3,0.1,0.4,0.1c2.3,0.5,4.9-1,6.6-2.5s3.8-6.1,4.2-7c1.5,0.5,3,1.1,4.6,1.7
		c2.8,1.2,5.6,2.6,8.1,4.3c0.1,0.1,0.3,0.2,0.4,0.3c-0.6-0.2-3.9-0.9-4.1-0.9c-3-0.3-9,1-10.3,4.1c-0.8,2.1,0.2,4.4,2.2,5.2
		c0.1,0.1,0.3,0.1,0.4,0.1c2.3,0.7,5-0.4,6.8-1.8c2.1-1.5,5-6.5,5.1-6.7c2.5,1.7,4.9,3.6,7.2,5.7c1.7,1.5,3.3,3.1,5,4.7
		c-0.8-0.2-3.9-0.9-4.1-0.9c-3-0.3-9,1-10.3,4.1c-0.8,2.1,0.2,4.4,2.2,5.2c0.1,0.1,0.3,0.1,0.4,0.1c2.3,0.7,5-0.4,6.8-1.8
		c2.1-1.5,4.8-6.2,5.1-6.6c0.8,0.7,1.5,1.5,2.2,2.2c2.4,2.4,4.9,4.9,7.3,7.2c0.9,0.8,1.7,1.6,2.6,2.3c-1.2-0.3-3.3-0.7-3.5-0.7
		c-3-0.3-9,1-10.3,4.1c-0.8,2.1,0.2,4.4,2.2,5.2c0.1,0.1,0.3,0.1,0.4,0.1c2.3,0.7,5-0.4,6.8-1.8s4.2-5.3,4.9-6.4
		c1.5,1.3,2.9,2.5,4.4,3.6c0.7,0.5,1.3,1,2,1.4l1.9,1.3c1.4,0.9,2.6,1.6,3.9,2.4c0.6,0.4,1.3,0.7,1.9,1.1c-1.1-0.4-3-1.1-3.1-1.2
		c-2.9-0.7-9.1-0.4-10.8,2.5c-1.1,1.9-0.5,4.4,1.4,5.5c0.1,0.1,0.3,0.2,0.4,0.2c2.1,1.1,5,0.3,7-0.7c2.2-1.1,5.6-5.3,6-5.8
		c1.6,0.9,3.1,1.7,4.5,2.5c3.8,2.1,7.2,3.7,9.8,4.9c8.5,7.3,20.4,8.1,20.4,8.1s0.6-14.3-7.8-23.6C180.5,157.2,177,154.8,173.1,153.1
		z M158,167.1c0.3-0.6,2.3-5.1,2.4-7.7l1.4-0.3c0.9,4.5,2.6,8.8,5.2,12.6c-1.5-0.7-3.2-1.5-5-2.4C160.8,168.5,159.5,167.8,158,167.1
		L158,167.1z"/>
	<path class="st0" d="M235.5,150.4c0,0-14.3,0.4-23,9.5s-8.6,23.3-8.6,23.3s14.3-0.4,23-9.5S235.5,150.4,235.5,150.4z"/>
	<g class="st2">
		<path class="st3" d="M142.8,95.2c0,0,4.7-3.7,5.9-6.1c1-2,1.8-4.9,0.7-7c-0.9-2-3.3-2.9-5.3-2c-0.1,0.1-0.3,0.1-0.4,0.2
			c-2.9,1.8-3.2,7.9-2.4,10.8C141.3,91.3,142.8,95.2,142.8,95.2z"/>
		<path class="st3" d="M99.6,125.9c0.2,0.2,3.5,2.6,3.6,2.5s1.9-5.7,1.6-8.3c-0.3-2.2-1.2-5-3.3-6.2c-1.9-1.2-4.3-0.6-5.5,1.2
			c-0.1,0.1-0.2,0.3-0.2,0.4C94.2,118.6,97.3,123.9,99.6,125.9z"/>
		<path class="st3" d="M197.6,100.8c0,0-17.1,17.7-17,39.4s17.4,39.2,17.4,39.2s17.1-17.7,17-39.4S197.6,100.8,197.6,100.8z"/>
		<path class="st3" d="M173.1,153.1c0.2-0.2,0.4-0.5,0.6-0.8c1.2-1.9,2.3-4.6,1.5-6.9c-0.7-2.1-2.9-3.3-5-2.6
			c-0.1,0-0.3,0.1-0.4,0.2c-2.3,1.1-3.5,4.8-3.7,7.9c-0.9-0.2-1.8-0.4-2.5-0.5c-0.3-0.7-0.6-1.4-0.9-2.1s-0.6-1.4-0.9-2.2
			c-0.4-1.1-0.8-2.2-1.1-3.4c1.4-0.6,5.3-2.4,6.8-4.1s3-4.2,2.5-6.6c-0.3-2.2-2.4-3.7-4.6-3.4c-0.1,0-0.3,0.1-0.4,0.1
			c-3.3,1-5.2,6.8-5.2,9.8c0,0.1,0,0.7,0.1,1.5c-0.3-1.1-0.7-2.2-0.9-3.4c-0.8-3.2-1.6-6.6-2.4-9.9c-0.2-0.7-0.3-1.4-0.5-2.1
			c1.1-0.5,5.4-2.5,7-4.2s3-4.2,2.5-6.6c-0.3-2.2-2.4-3.7-4.6-3.4c-0.1,0-0.3,0.1-0.4,0.1c-3.2,1-5.2,6.8-5.2,9.8
			c0,0.1,0.1,0.9,0.1,1.7c-0.4-1.8-0.9-3.6-1.4-5.4c-0.9-3-1.9-6-3.2-8.9c0.4-0.2,5.5-2.4,7.2-4.3c1.5-1.7,3-4.2,2.5-6.6
			c-0.3-2.2-2.4-3.7-4.6-3.4c-0.1,0-0.3,0.1-0.4,0.1c-3.2,1-5.2,6.8-5.2,9.8c0,0.2,0.2,3,0.4,4c0,0,0-0.1,0-0.1
			c-1.3-2.8-2.9-5.5-4.7-8.1c-1.6-2.3-3.3-4.5-5.1-6.5c-1.7-2-3.4-3.6-4.8-5.1c-0.8-0.8-1.6-1.5-2.3-2.2h0.1c0.1,0-1.6-3.8-1.7-4
			c-1.5-2.6-6-6.8-9.3-6.1c-2.2,0.5-3.5,2.6-3,4.8c0,0.1,0.1,0.3,0.1,0.4c0.7,2.3,3.3,3.8,5.4,4.6s7,0.4,8.2,0.3
			c0.7,0.7,1.5,1.4,2.3,2.3c1.4,1.5,3.1,3.2,4.7,5.2c0.4,0.5,0.9,1.1,1.3,1.7c-0.9-0.8-2.3-1.8-2.4-1.9c-2.6-1.6-8.4-3.3-11.1-1.1
			c-1.7,1.4-1.9,4-0.4,5.6c0.1,0.1,0.2,0.2,0.4,0.4c1.7,1.7,4.6,1.9,6.9,1.6s6.5-3,7.4-3.5c1,1.2,1.9,2.6,2.9,4
			c1.7,2.5,3.2,5.2,4.4,8c0.1,0.2,0.1,0.3,0.2,0.5c-0.4-0.5-2.8-2.9-3-3c-2.4-1.9-8-4.2-10.9-2.3c-1.8,1.3-2.3,3.8-1,5.6
			c0.1,0.1,0.2,0.2,0.3,0.4c1.5,1.9,4.4,2.4,6.7,2.3c2.6-0.1,7.7-2.7,7.9-2.8c1.2,2.8,2.1,5.7,2.9,8.7c0.6,2.2,1.1,4.4,1.6,6.7
			c-0.5-0.6-2.8-2.8-2.9-3c-2.4-1.9-8-4.2-10.9-2.3c-1.8,1.3-2.3,3.8-1,5.6c0.1,0.1,0.2,0.2,0.3,0.4c1.5,1.8,4.4,2.4,6.7,2.3
			c2.6-0.1,7.5-2.6,7.9-2.8l0.7,3.1c0.7,3.4,1.4,6.7,2.1,10c0.3,1.1,0.6,2.3,0.9,3.4c-0.8-0.9-2.4-2.4-2.5-2.5
			c-2.4-1.9-8-4.2-10.9-2.3c-1.8,1.3-2.3,3.8-1,5.6c0.1,0.1,0.2,0.2,0.3,0.4c1.5,1.9,4.4,2.4,6.7,2.3s6.5-2.1,7.6-2.6
			c0.5,1.9,1.1,3.7,1.7,5.5c0.3,0.8,0.5,1.6,0.9,2.3l0.5,1.1L161,150c0,0-0.1,1.1,0.1,2.8c-2.5-1.8-6.1-3.3-8.4-2.2
			c-2,1-2.8,3.4-1.8,5.4c0.1,0.1,0.1,0.3,0.2,0.4c0.1,0.3,0.3,0.5,0.5,0.7c0.4,2.6,1.5,5.1,3.2,7.2c0.1,0.1,1.8,1.7,2.7,2.5
			c-0.9-0.5-1.7-0.9-2.6-1.4c-1.3-0.7-2.6-1.5-3.9-2.2l-2-1.3c-0.7-0.4-1.3-0.9-1.9-1.3c-0.9-0.7-1.9-1.4-2.8-2.2
			c0.8-1.3,3.1-5,3.4-7.1s0.1-5.2-1.5-6.9c-1.5-1.7-4-1.8-5.6-0.4c-0.1,0.1-0.2,0.2-0.4,0.4c-2.2,2.6-0.6,8.5,1.1,11.1
			c0,0.1,0.4,0.6,0.9,1.2c-0.9-0.8-1.8-1.5-2.7-2.3c-2.5-2.2-5-4.6-7.4-7l-1.6-1.5c0.7-1.1,3.2-5.1,3.5-7.3s0.1-5.2-1.5-6.9
			c-1.5-1.7-4-1.8-5.6-0.4c-0.1,0.1-0.2,0.2-0.4,0.4c-2.2,2.6-0.6,8.5,1,11.1c0.1,0.1,0.5,0.7,1.1,1.4c-1.4-1.3-2.8-2.5-4.2-3.7
			c-2.4-2.1-4.9-4-7.6-5.7c0.2-0.4,3.3-5,3.7-7.5c0.3-2.2,0.2-5.2-1.5-6.9c-1.5-1.7-4-1.8-5.6-0.4c-0.1,0.1-0.2,0.2-0.4,0.4
			c-2.2,2.6-0.6,8.5,1,11.1c0.1,0.2,1.8,2.4,2.5,3.1l-0.1-0.1c-2.6-1.6-5.4-3-8.3-4.1c-2.6-1-5.2-1.9-7.9-2.6
			c-2.5-0.7-4.8-1.2-6.8-1.6c-1.1-0.2-2.1-0.4-3.1-0.5l0,0c0,0-3.4-2.3-3.6-2.4c-2.7-1.3-8.8-2.4-11.1,0.1c-1.5,1.6-1.5,4.1,0.1,5.7
			c0.1,0.1,0.3,0.2,0.4,0.3c1.9,1.5,4.8,1.4,7,0.8s6-3.5,7-4.3c1,0.2,2,0.4,3.2,0.6c2,0.5,4.3,1,6.8,1.7c0.7,0.2,1.3,0.4,2,0.7
			c-1.2-0.1-2.9-0.3-3.1-0.3c-3,0.1-8.8,1.9-9.8,5.2c-0.6,2.1,0.7,4.3,2.8,4.9c0.1,0,0.3,0.1,0.4,0.1c2.3,0.5,4.9-1,6.6-2.5
			s3.8-6.1,4.2-7c1.5,0.5,3,1.1,4.6,1.7c2.8,1.2,5.6,2.6,8.1,4.3c0.1,0.1,0.3,0.2,0.4,0.3c-0.6-0.2-3.9-0.9-4.1-0.9
			c-3-0.3-9,1-10.3,4.1c-0.8,2.1,0.2,4.4,2.2,5.2c0.1,0.1,0.3,0.1,0.4,0.1c2.3,0.7,5-0.4,6.8-1.8c2.1-1.5,5-6.5,5.1-6.7
			c2.5,1.7,4.9,3.6,7.2,5.7c1.7,1.5,3.3,3.1,5,4.7c-0.8-0.2-3.9-0.9-4.1-0.9c-3-0.3-9,1-10.3,4.1c-0.8,2.1,0.2,4.4,2.2,5.2
			c0.1,0.1,0.3,0.1,0.4,0.1c2.3,0.7,5-0.4,6.8-1.8c2.1-1.5,4.8-6.2,5.1-6.6c0.8,0.7,1.5,1.5,2.2,2.2c2.4,2.4,4.9,4.9,7.3,7.2
			c0.9,0.8,1.7,1.6,2.6,2.3c-1.2-0.3-3.3-0.7-3.5-0.7c-3-0.3-9,1-10.3,4.1c-0.8,2.1,0.2,4.4,2.2,5.2c0.1,0.1,0.3,0.1,0.4,0.1
			c2.3,0.7,5-0.4,6.8-1.8s4.2-5.3,4.9-6.4c1.5,1.3,2.9,2.5,4.4,3.6c0.7,0.5,1.3,1,2,1.4l1.9,1.3c1.4,0.9,2.6,1.6,3.9,2.4
			c0.6,0.4,1.3,0.7,1.9,1.1c-1.1-0.4-3-1.1-3.1-1.2c-2.9-0.7-9.1-0.4-10.8,2.5c-1.1,1.9-0.5,4.4,1.4,5.5c0.1,0.1,0.3,0.2,0.4,0.2
			c2.1,1.1,5,0.3,7-0.7c2.2-1.1,5.6-5.3,6-5.8c1.6,0.9,3.1,1.7,4.5,2.5c3.8,2.1,7.2,3.7,9.8,4.9c8.5,7.3,20.4,8.1,20.4,8.1
			s0.6-14.3-7.8-23.6C180.5,157.2,177,154.8,173.1,153.1z M158,167.1c0.3-0.6,2.3-5.1,2.4-7.7l1.4-0.3c0.9,4.5,2.6,8.8,5.2,12.6
			c-1.5-0.7-3.2-1.5-5-2.4C160.8,168.5,159.5,167.8,158,167.1L158,167.1z"/>
		<path class="st3" d="M235.5,150.4c0,0-14.3,0.4-23,9.5s-8.6,23.3-8.6,23.3s14.3-0.4,23-9.5S235.5,150.4,235.5,150.4z"/>
	</g>
	<polygon class="st3" points="198.3,159.6 212.3,147 211.7,146.3 198.3,158.4 198.2,141.9 198.3,141.9 210.1,124.6 209.4,124.1 
		198.2,140.5 198,100.8 197.1,100.8 197.2,127.7 188.3,120 187.7,120.7 197.2,128.9 197.3,148.2 183.8,136.2 183.2,136.9 
		197.3,149.4 197.4,166.9 187.2,159 186.7,159.7 197.4,168.1 197.4,179.4 198.4,179.4 198.3,159.6 	"/>
	<polygon class="st3" points="185.4,164.5 184.5,164.4 183.3,174.3 177.3,167.6 177.3,167.6 175.8,155.5 174.9,155.7 176.3,166.5 
		161.3,149.7 160.7,150.3 170.8,161.7 164.4,161.8 164.4,162.7 171.6,162.6 178.7,170.5 168.7,170.5 168.7,171.4 179.5,171.4 
		186,178.6 178.9,179.1 179,180 186.8,179.5 191.1,184.3 191.7,183.7 184.1,175.2 	"/>
	<polygon class="st3" points="219.2,168 231.1,165.6 231,164.7 220.3,166.9 235.9,150.7 235.2,150.1 224.6,161.1 224.1,154.7 
		223.2,154.8 223.8,161.9 216.4,169.6 215.7,159.6 214.8,159.7 215.6,170.5 208.9,177.5 207.9,170.4 207,170.6 208.1,178.3 
		203.6,183 204.2,183.6 212.1,175.4 223,175.8 223,174.9 213,174.5 219.2,168 	"/>
</g>
<g id="freepik--Characters--inject-196">
	<ellipse class="st4" cx="225.3" cy="124.7" rx="8.5" ry="8.6"/>
	<path class="st4" d="M248.8,148.1c0,0,4-0.2,5,6.9s5.2,25.6,5.5,28.2s-1.2,5.7-5,6.9s-5.9-2.4-6.2-4.1s-3.7-22.8-3.7-22.8
		L248.8,148.1z"/>
	<path class="st5" d="M209.9,165.4c0,0-17.5,7.4-17.5,10.1s10.8,29,10.8,29l46.5-12.1l-5.2-29.1
		C244.4,163.2,237.5,154.6,209.9,165.4z"/>
	<path class="st4" d="M225.9,149.4c0,0-5,3.1-9,5.4s-10,5.4-10,11.6s4.5,30.9,4.5,33.5c-0.1,1.2,0,2.3,0.2,3.5
		c0-0.5,30.4-10.6,30.4-10.6c0.9-4,2.1-7.9,3.5-11.8c1.6-3.8,0-7.1,1.7-13.3s5-10.4,3.6-15s-1.7-4.5-6.7-4.7
		S230.7,147.9,225.9,149.4z"/>
	<path class="st6" d="M223.6,146.7c0,0-2.2,1.2-3.1,6.7c-0.6,4.4-0.9,8.9-0.9,13.3c0,0,9.3-5.2,10.7-5.4s11.4,4,11.4,4
		c-0.8-4.6-2-9.1-3.5-13.5C236.2,146.4,225.7,144.3,223.6,146.7z"/>
	<path class="st6" d="M221.9,145.4l0.2,0.6c0.7,2.3,3.2,11,4.7,15.3c1.7,5,4.3,7.1,4.3,7.1l2.6-10.3
		C233.6,158,223.4,148.1,221.9,145.4z"/>
	<path class="st6" d="M231,123.2c0,0-8.5-1.4-11.4,9.7s6.6,20.6,9.3,24.2s6.8,4.8,9,1.2c3.5-5.5,4.5-8.3,5-15.6s-0.4-12.1-3.6-15.9
		C237.1,124.5,234.1,123.2,231,123.2z"/>
	<path class="st4" d="M239.3,126.8c-2.1-2.3-5.2-3.6-8.3-3.6c0,0-8.5-1.4-11.4,9.7c-0.8,3.1-0.7,6.4,0.2,9.5
		c0.3-0.8,0.8-1.4,1.5-1.4c2.1,0,2.2,2.9,2.9,2.8s3.4-2.6,2.9-4.8s0.2-3.3,3.8-3.3s4.5,1.6,5.7,1.2s2.1-2.8,3.3-2.8
		c1.1,0,2.1,0.5,2.9,1.3C242.6,132.3,241.4,129.3,239.3,126.8z"/>
	<path class="st6" d="M224.3,144.8c0,0-1.4-3.5-2.9-3.8s-2.4,0.7-1.6,3.6s2.1,4.1,2.8,4.1s1-1,1-1"/>
	<path class="st7" d="M211.7,180.3c0,0,0.9,5.5,4.7,8s9,1.2,9,1.2"/>
	<path class="st7" d="M231,168.3c0,0,2.4,9.2,1.9,13.1"/>
	<path class="st6" d="M179.4,166c0,0,2.1,0.9,3.7,6.3s5.8,15.4,6.8,19.2s0.7,8.8-3.9,10s-9.4-11.2-10.1-12.2s-2.4-10.9-1.6-16.1
		S177.4,165.3,179.4,166z"/>
	<path class="st5" d="M154.4,184.2c0,0-27.3,26.7-27.3,30.7s16.1,37.1,20.6,36.3s24.8-22.3,24.8-22.3L154.4,184.2z"/>
	<path class="st6" d="M155.2,170.2c-5.2,4.6-10.1,9.5-14.7,14.7c-6.1,7.2-5.6,19.2-3.7,27.5s5.4,31.5,9.8,32.4s7.9-8.4,15.6-15
		s13.8-12.2,14.4-16.6s-0.2-18.4,0.2-19.4c0.8-5.2,1.3-10.4,1.4-15.6c0-5.1-3.9-10.7-7.7-11.9S156.8,169,155.2,170.2z"/>
	<path class="st6" d="M190.7,334.8c0,0-5.7,11.6-13.8,19.1s-20.8,16.6-20.8,16.6s13.4,4.2,16.2,4.6s2.1,1.8-1.1,3.2
		s-7.1,2.5-15.9,2.5s-14.5,0-14.8-2.1s5.3-7.4,9.5-11.6s20.5-30.7,21.9-32.1S183.2,328.8,190.7,334.8z"/>
	<path class="st4" d="M172.3,375c-2.3-0.3-11.8-3.2-15.1-4.2l-2.5,5.6c-3.9,0.6-7.8-0.6-10.7-3.3c-2.1,2.3-3.6,4.3-3.4,5.5
		c0.4,2.1,6,2.1,14.8,2.1s12.7-1.1,15.9-2.5S175.1,375.4,172.3,375z"/>
	<path class="st6" d="M291.9,334.8c0,0,5.6,11.6,13.8,19s20.8,16.6,20.8,16.6s-13.4,4.2-16.2,4.6s-2.1,1.8,1.1,3.2s7,2.5,15.9,2.5
		s14.5,0,14.8-2.1s-5.3-7.4-9.5-11.6s-20.5-30.7-21.9-32.1S299.3,328.8,291.9,334.8z"/>
	<path class="st4" d="M310.2,375c2.3-0.3,11.8-3.2,15.1-4.2l2.5,5.6c3.9,0.6,7.8-0.6,10.7-3.3c2.1,2.3,3.6,4.3,3.4,5.5
		c-0.4,2.1-6,2.1-14.8,2.1s-12.7-1.1-15.9-2.5S307.4,375.4,310.2,375z"/>
	<path class="st4" d="M109.2,339.8c0,0,4.9,9.2,4.6,12.4c-0.3,2.6-6.5,22.4-8.7,29.5c-0.3,0.9,0.2,2,1.2,2.3
		c0.2,0.1,0.5,0.1,0.7,0.1l0,0c0.7-0.1,1.3-0.6,1.6-1.2l9.9-30.3c0,0,1.8-2.1,7.4-3.2c4.3-0.8,25.8-1.8,35.7-2.3
		c3.8-0.2,7,2.6,7.4,6.4c0,0,0,0.1,0,0.1c0.3,4.1,7,25.1,8.5,29.8c0.2,0.5,0.7,0.9,1.2,0.8l0,0c0.6-0.1,1-0.7,0.9-1.3c0,0,0,0,0-0.1
		c-1.2-5.5-6.4-29-8.2-40.8c0,0-37.4,1.8-45.9-0.4c-5.1-1.3-10-3.3-14.5-6C110.9,335.5,108.8,335.5,109.2,339.8z"/>
	<path class="st5" d="M106,277.7c0,0-12.7,39.9-10.6,46.9s12.3,16.9,16.2,16.9s7.1-38.8,7.1-42.3s-6.7-16.2-8.8-21.5
		S106,277.7,106,277.7z"/>
	<path class="st5" d="M175.4,337.3c-0.1,4-0.8,7.1-2.4,7.1c-3.2,0-37.8,3.5-45.9,3.2s-14.1-4.5-14.1-10.5s0.3-32.5,6.3-36
		s37.7-3.9,45.2-3.9c9.1,0,9.5,17.6,9.9,23.6C174.6,322.4,175.6,331,175.4,337.3z"/>
	<path class="st6" d="M166.3,337.6c0,0,22.6,0.7,24.3-2.8s0-10.9-4.6-12.4s-23.6-0.4-23.6-0.4L166.3,337.6z"/>
	<path class="st4" d="M111.6,304.5c-1.3,4.7-1.9,9.6-1.8,14.5c0.3,7.8,2.5,15.5,13,21.9s45.2-1.1,45.2-1.1l-2.5-46.2
		c0,0-22.9-2.8-35.6-0.4S112,303.1,111.6,304.5z"/>
	<path class="st6" d="M277,141.9c-2.5,2.7-4.5,5.8-5.9,9.3c-1.9,5.3-8.1,21.2-7.9,24.2s2.8,6.8,5.5,4.7s9.1-13.2,9.5-13.8
		s0.8-8.5,0.8-13.4S279.2,141.7,277,141.9z"/>
	<path class="st5" d="M283.1,158.9c2.1-0.4,49.3,10,49.3,15.3s-10.7,34.7-10.7,34.7l-45.3-12C276.4,196.9,277.4,160,283.1,158.9z"/>
	<path class="st6" d="M299.1,135.8c0,0-10.2-1.1-17.4,2.5s-7.2,9.6-6.8,15.5s2.3,37.5,2.9,39.7s13.5,1.7,21.1,3.2s12.9-4.7,14-7.2
		s14.4-26.5,14.4-31.6s-5.5-14.8-13.2-19.3C309.5,136,304.2,135,299.1,135.8z"/>
	<polygon class="st4" points="291.9,155.3 294,159.8 285.8,188.2 287.7,193.7 293.2,189.5 296.2,160.4 300.4,155.9 298.3,150.8 	"/>
	<path class="st6" d="M292.5,143.6c-1.1,2.1-2.1,4.3-2.8,6.6c-0.5,2.5-0.8,5-0.8,7.6c0,0,6-2.8,7.8-2.8s5.1,7.8,5.1,7.8
		s5.1-7.6,5.9-13s-5.1-9.4-9.3-9.4C295.9,140.2,293.7,141.5,292.5,143.6z"/>
	<path class="st6" d="M314,138.1c0,0,1.9-2.8,2.3-0.2s-1.9,4.7-3.2,5.5c-0.7,0.5-1.6,0.5-2.3,0"/>
	<path class="st6" d="M294.7,127.1c0,0-1.9-1.5-3,1.5s0.8,6.8,0.8,6.8l1.9-4"/>
	<path class="st6" d="M294.7,152.5c-0.3,1,0.3,2.1,1.3,2.4c0.2,0.1,0.4,0.1,0.6,0.1c2.5,0.2,7.6-5.1,7.9-6.2
		S294.7,152.5,294.7,152.5z"/>
	<path class="st6" d="M303.6,115.6c0,0-6.6,3-8.1,7.8s-4,14.4-4,18s1.1,11,3.6,12.1s10.6-4.2,12.9-5.7s4.9-7.4,7.8-10.8
		s5.1-9.6,4-14.7S310.2,111.1,303.6,115.6z"/>
	<path class="st4" d="M319.7,122.2c-1.1-5.1-9.5-11.2-16.1-6.6c0,0-6.6,3-8.1,7.8c-0.7,2.2-1.6,5.6-2.4,8.9c1.3-2,3.4-5.4,3.6-6.2
		c0.2-1.1,0.2-1.3,1.5-1.3s3.8,3.8,7.2,4.5s7.9,0.2,7.9,2.1s-2.6,4.9-1,5.9c1.3,0.7,0.1,3.3,0.3,4.4c0.9-1.6,2-3.1,3.1-4.6
		C318.5,133.6,320.8,127.3,319.7,122.2z"/>
	<path class="st6" d="M294.9,133.9c0,0,6.6,3.2,9.8,4.4s6.4,2.4,5.3,4.5s-4.9,3-7.2,2.1s-1.7-5.7-3-5.9s-2.3,2.3-4.7,2.3
		s-5.1-3.8-4.7-6.4S294.9,133.9,294.9,133.9z"/>
	<line class="st7" x1="310.6" y1="140.9" x2="315" y2="136.6"/>
	<line class="st7" x1="291.5" y1="133.7" x2="293.8" y2="128.6"/>
	<path class="st4" d="M344.3,173.8c0,0-12.5,11.2-15.8,14.4s-3.4,9.4-0.3,10.8s12.9-4.3,14.4-5.6S348.3,174.6,344.3,173.8z"/>
	<path class="st5" d="M375.7,201.7c0,0,16.9,16.8,13.5,22.2s-35.7,22.2-35.7,22.2l-6.1-26.3L375.7,201.7z"/>
	<path class="st4" d="M354,172.8c0,0-7.1-0.6-9.7,1.1s-4.5,17.5-5,26.9s-1.7,17-1.1,18.9s16.7,22.1,19,24.9s21-25.7,23.7-31.4
		s0.9-11-2.5-18.9s-10.7-15.2-15-19.2C360.9,172.7,357.4,171.9,354,172.8z"/>
	<path class="st6" d="M353.9,191.5l-0.1,0.6c-0.2,1.1-0.6,3.6-1,6.5c-0.5,3.9-0.3,9,0.9,9s17.5-11.8,17.8-22.4
		S355.1,187,353.9,191.5z"/>
	<path class="st6" d="M353.1,170.4c0,0-1.5,5.7-1.5,6.6c0.1,1.1,0.3,2.2,0.6,3.2c0,0-2.6,4.2-2.3,4.6c0.4,0.5,0.8,0.9,1.2,1.2
		c0,0-0.3,5.9,0.9,7.1s6.4,0.5,6.4,0.5s-2.5,3.1,0.3,3.2s10.2-6,12.4-9.6s2-10.1,0-13.3S357.1,166.4,353.1,170.4z"/>
	<path class="st4" d="M366.6,159.3c0,0-11.9,1.6-14.1,6.2s2.8,10.4,6.3,11.1c1.9,0.5,3.9,0.7,5.9,0.6c0,0-3.7,3.2-1.4,4
		s3.4,0.3,3.4,1.1s-2.3,3.2-0.3,3.4s2.6-3.4,3.9-2.6s-0.5,3.9,0.2,4s6.5-6,9-12.5s-0.9-10.5-3.4-12.7S369.5,158.5,366.6,159.3z"/>
	<path class="st6" d="M366.6,186.4c0,0,2.2-5,3.6-3.9s0.9,4.6-0.6,5.9s-4.5-0.2-4.5-0.2"/>
	<polyline class="st6" points="352.8,200 357.8,197.5 357,204.9 	"/>
	<path class="st4" d="M392.2,331.4c0,0-8.9,17.5-8.5,20.7c0.3,2.6,6.5,22.4,8.7,29.5c0.3,1-0.2,2-1.2,2.3c-0.2,0.1-0.5,0.1-0.7,0.1
		l0,0c-0.7-0.1-1.3-0.6-1.5-1.2l-9.9-30.3c0,0-1.8-2.1-7.4-3.2c-4.3-0.8-25.8-1.8-35.7-2.3c-3.8-0.2-7,2.6-7.4,6.4c0,0,0,0.1,0,0.1
		c-0.3,4.1-7,25.1-8.5,29.8c-0.2,0.5-0.7,0.9-1.2,0.8l0,0c-0.6-0.1-1-0.7-0.9-1.3c0,0,0,0,0-0.1c1.2-5.5,6.4-29,8.2-40.8
		c0,0,37.4,1.8,45.9-0.4s18.4-14.4,18.4-14.4S392.5,327.2,392.2,331.4z"/>
	<path class="st5" d="M398.2,273.3c0,0,9.7,40.7,7.1,47.6s-13.5,16-17.4,15.7s-4.2-39.2-3.9-42.7s7.9-15.7,10.4-20.9
		S398.2,273.3,398.2,273.3z"/>
	<path class="st5" d="M322,337.3c0.1,4,0.8,7.1,2.4,7.1c3.2,0,37.8,3.5,45.9,3.2s14.1-4.5,14.1-10.5s-0.4-32.5-6.4-36
		s-37.8-3.9-45.2-3.9c-9.1,0-9.5,17.6-9.9,23.6C322.8,322.4,321.8,331,322,337.3z"/>
	<path class="st4" d="M381.8,304.5c0,0-2.9,7.1-2.9,12.8s-2.7,16.8-8.4,20.1s-12,5.1-21.4,3.8s-29.8-4.6-29.8-4.6s21-15,26.3-22.5
		s7.1-13.7,11.3-17.9S381.5,287.9,381.8,304.5z"/>
	<ellipse class="st4" cx="256.2" cy="274.4" rx="112.2" ry="86.8"/>
	<ellipse class="st5" cx="256.2" cy="271.8" rx="112.2" ry="86.8"/>
	<polygon class="st6" points="311.8,218.6 326,234.2 300.8,252.3 286.3,234.6 	"/>
	<polygon class="st6" points="234.8,219.9 211.5,231.9 232.1,257.2 256.1,241.2 	"/>
	<polygon class="st6" points="270.1,245.2 246.8,257.2 267.5,282.5 291.4,266.5 	"/>
	<polygon class="st6" points="267.5,247.1 242.4,254.6 258.1,283.2 284.5,271.9 	"/>
	<path class="st6" d="M237.6,205.7c0,0,4.5-1.7,4.5-0.6s0,2.3-2,2.8s-8.8-0.9-7.1-1.7C234.5,205.7,236,205.5,237.6,205.7z"/>
	<path class="st4" d="M212.5,157.1c0,0-5.9,2.1-8.8,5.7s-4.3,13.1-5,17.3s-3.8,19.9-2.1,21.8s20.2,8.3,23.9,9.3s8,2.6,10.4,2.4
		c1.7-0.2,3.4-0.9,4.8-1.9c0,0,4.1,1.9,5.2,1.9s2.4-1.9,1.2-3.8s-4.6-4.7-6.5-4.7s-8.9,1.1-8.9,1.1s-11.9-6.1-15.4-8.5
		c-2.2-1.5-4.2-3.3-6.1-5.2l7.1-22.1"/>
	<path class="st6" d="M235.6,205.1c-1.9,0-8.9,1.1-8.9,1.1s-1.3-0.7-3.2-1.6c-1.5,1-2.6,2.4-3.2,4.1c-0.2,0.8-0.3,1.6-0.4,2.4
		l0.5,0.2c3.6,1,8,2.6,10.4,2.4c1.7-0.2,3.4-0.9,4.8-1.9c0,0,4.1,1.9,5.2,1.9s2.4-1.9,1.2-3.8S237.5,205.1,235.6,205.1z"/>
	<path class="st6" d="M156.4,174.2c-0.5,0.2-4.6,4.6-4.9,9.6s3.5,13.5,4.2,14.9s-0.2,3.9,1.6,3.9s7.2-8.1,7.2-8.1s6.1,0.4,6.8-1.2
		s-4.9-10.3-6.1-14S159.4,173.4,156.4,174.2z"/>
	<path class="st6" d="M156.1,171.6c0,2.4-0.2,4.8-0.7,7.2c-0.7,2.4-0.9,3.7,1.8,7.5c2.6,3.5,5.5,6.7,8.6,9.8c0,0,0.4-4,0.5-6.3
		s3.7-3.7,4.4-4.7s-3.9-1.8-5.6-4.9s-1.8-8.6-4.2-9.1S157,169.2,156.1,171.6z"/>
	<path class="st4" d="M179.5,160.9c0,0,4.9-1.4,4-6.3s-9.8-8.6-19.4-7.7s-14,7.2-14.9,13.5s5.8,12.4,6.5,13.5s-0.2,2.1,1.9,2.8
		c1.4,0.4,2.9,0.4,4.4,0c1.1,1.5,2.9,2.3,4.7,1.9c3-0.7,2.1-6.6,3.3-7.4s2.1-3,5.8-5.1S179.5,160.9,179.5,160.9z"/>
	<path class="st6" d="M164.7,175.5c0,0,0.4-2.8-3.1-3.1s-2.6,3-1.9,4.6s3.1,2.8,3.1,2.8s0.9,4,2.1,4.4s8.6,3.5,10,3s2.8-7,2.8-7
		s2.4-1.2,2.4-2.4s-1.1-4.8-1.1-5.6s1.9-3.3,2.3-5.2s-1.8-5.8-1.8-5.8s-0.9,3.1-3.7,3.1c-1.9,0-3.8-0.3-5.6-0.9c0,0,1.4,3.7,0.4,5.2
		s-2.8,1.2-3.1,1.9s-0.2,3.9-0.4,4.6S165.7,178.1,164.7,175.5z"/>
	<path class="st6" d="M181.6,194.5c0,0,0.9,7,2.6,9.8s9.1,13.6,9.1,13.6s-0.5,3.7,0,4.7c1,2.2,1.9,4.5,2.6,6.8
		c0,0.7,1.4,1.2,1.6,0.2c0.1-0.8,0.2-1.6,0.2-2.4l3,4.6c0,0,1.6,1.2,2.1,0.2s0.2-6.6,0.5-8.9s-1.4-5.4-2.8-6.8s-3.1-3.9-3.7-4.4
		s-2.8-8.8-3.9-14.4s-3.9-9.1-5.9-9.4"/>
	<path class="st6" d="M202.8,232c0.5-1,0.2-6.6,0.5-8.9s-1.4-5.4-2.8-6.8c-1-1.1-2-2.2-2.9-3.4c-2.1,0.6-4,1.8-5.5,3.4l1.1,1.7
		c0,0-0.5,3.7,0,4.7c1,2.2,1.9,4.5,2.6,6.8c0,0.7,1.4,1.2,1.6,0.2c0.1-0.8,0.2-1.6,0.2-2.4l3,4.6C200.7,231.8,202.3,233,202.8,232z"
		/>
	<path class="st6" d="M139.6,187.5c-2.3,1.8-3.9,4.3-4.6,7.2c-1.2,4.9,2.8,24.9,3.9,30.6s6.3,25,7.9,26.2s19.9-1.1,26.6-2.3
		s21-6.3,24-7.2s4.6-5.4,5.4-6.3s2.8-3.9,1.8-4.9s-4,0-5.2,0s-3.5-0.2-5.9-0.2c-2.5,0.1-4.6,1.8-5.2,4.2c-0.3,1.3-0.9,2.6-1.8,3.7
		c0,0-18,2.4-21.9,2.4c-2.5,0-5-0.2-7.5-0.5c0,0-2.1-12.1-3.7-19.6s-3-13.3-4.2-15.2"/>
	<path class="st6" d="M199.3,230.9c-1.2,0-3.5-0.2-5.9-0.2c-2.5,0.1-4.6,1.8-5.2,4.2c-0.3,1.3-0.9,2.6-1.8,3.7l-1.3,0.2
		c0.5,1,0.8,2.2,0.9,3.3c0.1,1.3,0,2.5-0.2,3.8c5.2-1.6,10-3.3,11.6-3.8c3-0.9,4.6-5.4,5.4-6.3s2.8-3.9,1.8-4.9
		S200.5,230.9,199.3,230.9z"/>
	<path class="st6" d="M187.5,263.9c0,0,4.5,0.4,6,0.4s11.8-1.1,10.3-2.8s-12.8-3.2-12.8-3.2L187.5,263.9z"/>
	<polygon class="st6" points="210,253.8 177.1,269 189.9,294.9 222.2,278.6 	"/>
	<path class="st6" d="M188,262.4c0,0,3.9,0,4.9,0.6s4.9,4.1,5.4,3.2s-1.7-3.2-2.6-4.1s-1.9-1.7-1.9-1.7"/>
	<path class="st6" d="M157.1,249.4l33.9,8.8l-5.3,7.8l-35.6-4.2C150.1,261.8,141.6,250.2,157.1,249.4z"/>
	<path class="st6" d="M133.2,250.9c0,0-8.2,7-11,15.5s-4.5,25.5-4.5,25.5s-8.8,12.5-8.8,13.8s7.2,0,7.2,0l-7,12c0,0,0,10,5.5,15.2
		c5.1,4.9,12.2,7.2,19.2,6.2c6-1,17-14.5,18.2-15.2s-3-12.2-4-16.5s1-7.2,2.2-8s8.5-5.2,10-8.5s1.2-8.8,0.8-13s-6.8-19-12.2-23.5
		S138.4,246.9,133.2,250.9z"/>
	<path class="st6" d="M138.2,249.7c0,0-3.8,5.5-3.8,9.5s3.2,10.5,5.8,13.5c1.5,1.8,3.1,3.4,4.8,5l5.5-1.2l0.2,4.2
		c0,0,1.2-2.2,4.8-0.8s5.8,0.5,5.8-0.2c1.2-4.8,1.2-9.9,0-14.8c-2-8.8-4.2-10.2-7.5-13.5S142.9,246.9,138.2,249.7z"/>
	<path class="st6" d="M140.7,250.9c0,0-2.8,4.8-1.2,8.5s6.2,8.2,10,11.5s8.5,6.8,8.5,6.8c1.7-5.6,1.1-11.6-1.8-16.8
		C151.4,251.9,142.9,249.2,140.7,250.9z"/>
	<path class="st6" d="M162.4,228.2c0.7,1.6,1.3,3.3,1.8,5v1.8c0,0,3.5,2,3,2.8s-2.5,4-2.5,4c0.3,2.7,0.2,5.5-0.2,8.2
		c-0.8,3.2,0.2,4.8-2.5,4.8h-7c0,0-0.8,10.5-2.5,10.5s-9.8-3.8-11.2-5.8s-2-4-1.5-5.5c1.6-4,2.9-8.1,4-12.2c1-4.5,8.5-8,10.2-8.8
		S162.4,228.2,162.4,228.2z"/>
	<path class="st4" d="M134.7,245.9c0,0-6-1-9-0.5s-6.8,4.8-6.8,9s3.2,6.8,8.5,7.2s8.8-4,8.8-6.5C136.2,252,135.7,248.9,134.7,245.9z
		"/>
	<path class="st4" d="M149.9,244.7c0,0,9.5-10.2,12.5-16.5s2-12.8-2.8-12.8s-10-1.5-19,1.8s-12.8,13.8-12.2,19.2s8.8,16.8,13,17.5
		s4.2-6.8,4.2-6.8L149.9,244.7z"/>
	<path class="st6" d="M151.2,246.4c0,0-2.2-5-5-3.5s-0.2,7,1.5,8.2s4.5-0.8,4.5-0.8"/>
	<path class="st7" d="M164.2,234.9c0,0-1,3.2-2.2,3.8"/>
	<path class="st6" d="M183.4,280.2c0,0-1.9-1.3-2.2,0.4s1.7,3.5,1.7,3.5s-2.4-2.7-2.6-1.1s1.4,3.2,1.4,3.2s-1.9-0.9-1.9-0.1
		s2.7,3.5,2.8,4.7s2.6-2.7,3.1-5.7C185.9,283,185,281.2,183.4,280.2z"/>
	<path class="st6" d="M179.7,299.2c0.6-2.2,1-4.5,1.2-6.8c0-2,2.2-5.5,3.2-7.5s-3.2-5.5-1.2-6.5s3.5,1,5.2,3.2s2.2,7,0.8,10.2
		c-1.4,3-3.3,5.8-5.5,8.2c-0.7,0.8-1.6,1.5-2.5,2L179.7,299.2z"/>
	<path class="st6" d="M181.6,294.4v-6.3c0-3.2,1.8-7.9,1.8-7.9c1-0.1,1.9,0.6,2,1.5c0,0.2,0,0.5-0.1,0.7c-0.2,2.1,0,4.1,0.4,6.1"/>
	<path class="st6" d="M126.2,290.7c0,0-3.5,5-1.8,10.5s26.8,38.8,30.2,38.8s28.8-32.8,30.2-34.8s-5-7-5-7l-25.2,23
		c0,0-6.8-27-9.5-32s-9.2-5.5-9.2-5.5"/>
	<path class="st4" d="M247.1,184.8c0,0,3.4-3.8,7.1-4.5c3.6-0.7,5.5,1.7,4.5,6.1s-4.3,5.4-6.2,5.2s-5-1-5.9-3.3
		C246,187.1,246.2,185.7,247.1,184.8z"/>
	<path class="st6" d="M249.2,183.7c0,0-7.4,1-9.2,2.2s-5.7,7.9-5.7,8.8s2.4,1.7,3.6,1.7s4.3-4.1,4.3-4.1l-1.6,4.3
		c0,0,1.6-0.2,1.7-0.9s2.6-5.4,2.6-5.4s4.5,0.2,5.7-1.9S252.8,185.1,249.2,183.7z"/>
	<path class="st6" d="M264.1,172.3c0,0-2.1,7-2.1,11.3s3,18.4,3,18.4c-0.4,2.4-1.4,4.6-3,6.4c-2.5,2.6-1.7,6.2-0.6,7.4
		s3.4,3.2,4.2,1.9s0.2-3.8,1-4.7s3.6-2.5,4-5.3s-0.2-11.5-0.2-16.3s2.5-11.7-0.2-16.6"/>
	<path class="st6" d="M270.5,199.8c-3.1-0.6-4.8,0.4-5.7,1.6c0.1,0.4,0.1,0.7,0.1,0.7c-0.4,2.4-1.4,4.6-3,6.4
		c-2.5,2.6-1.7,6.2-0.6,7.4s3.4,3.2,4.2,1.9s0.2-3.8,1-4.7s3.6-2.5,4-5.3C270.7,205,270.7,202.4,270.5,199.8z"/>
	<polygon class="st6" points="275.8,199.5 257.7,220.1 276,233.2 293.6,210.9 	"/>
	<path class="st6" d="M267.9,208c0,0,0.2,6.4,0.2,7.4s2.1,2.1,2.3-0.2c0-1.3,0.2-2.5,0.4-3.8c0.2-0.6,1.3-4.2-0.2-6.8"/>
	<path class="st6" d="M318.9,157.9c0,0-5.1,5.7-7.6,11s-4.4,18.9-4.4,18.9s-9.8,16.1-11.2,17.4s-0.6,1.1-3.8,2.6s-7.4,2.3-7.9,3.2
		s-2.6,5.5-3.2,6.1s0.8,1.7,1.5,0.9s3.4-3.8,3.4-3.8l-3.2,7.6c0,0.6,0.5,1,1,1c0,0,0.1,0,0.1,0c1.4-0.3,2.7-0.7,4-1.3
		c0,0,3.2-0.8,4.4-2.3s5.3-9.6,5.3-9.6s11-7,14.9-11.7c3.1-3.7,5.5-7.9,7.2-12.5c0.6-1.9,7.6-22.9,7.4-26.3s-1.9-4-1.9-4"/>
	<path class="st6" d="M295.3,205.8c-0.6,0.7-0.6,0.8-3.2,2c-3.2,1.5-7.4,2.3-7.9,3.2s-2.6,5.5-3.2,6.1s0.8,1.7,1.5,0.9
		s3.4-3.8,3.4-3.8l-3.2,7.6c0,0.6,0.5,1,1,1c0,0,0.1,0,0.1,0c1.4-0.3,2.7-0.7,4-1.3c0,0,3.2-0.8,4.4-2.3s5.3-9.6,5.3-9.6
		s0.7-0.4,1.8-1.2C298.2,207.1,296.8,206.2,295.3,205.8z"/>
	<path class="st4" d="M370.3,211.8c0,0-4.2,7.9-5,11s-2,6.5-2,6.5s-7.7-1.2-14.4-2s-16.1-2.5-18.4-2.9s-6.6-1.7-7.6-0.9
		s-0.3,0.6,0.8,1.1c0.9,0.3,1.9,0.3,2.8,0.2c0,0-1.5,0.5-3.2,1.1s-4.8,1.7-5.3,2.3s0.6,2.8,2.3,2.8c1.3-0.1,2.6-0.1,3.9,0
		c0.9,0.1,1.4,1.1,4.5,1.1s7.4-2.5,7.4-2.5s14.5,6.7,22.8,8.1s9.4-0.5,12.9-3.1s13.3-18.9,12.5-22.1c-0.5-2-1.3-4-2.5-5.7"/>
	<path class="st6" d="M339.4,225.9c-4-0.7-7.6-1.3-8.9-1.6c-2.3-0.5-6.6-1.7-7.6-0.9s-0.3,0.6,0.8,1.1c0.9,0.3,1.9,0.3,2.8,0.2
		c0,0-1.5,0.5-3.2,1.1s-4.8,1.7-5.3,2.3s0.6,2.8,2.3,2.8c1.3-0.1,2.6-0.1,3.9,0c0.9,0.1,1.4,1.1,4.5,1.1s7.4-2.5,7.4-2.5
		s1.1,0.5,3,1.3L339.4,225.9z"/>
	<path class="st4" d="M329.5,187.9c0,0-7.3,3.6-10.1,6s-9.8,18.1-9.9,19.2s5.3,1.7,5.9,1.4s11.6-13,14.4-15.2c1.6-1,2.2-3,1.5-4.8"
		/>
	<path class="st6" d="M312.1,209.9c-2.3,0.5-4.6,1.1-6.8,1.9c-1.9,0.8-6.2,6.4-5.1,6.7s4-3.2,4-3.2c-1,1.5-1.9,3-2.6,4.6
		c-0.3,1.2-0.6,4,0.6,3.6s3.7-3.9,3.7-3.9s3.1-1.9,5.6-1.9s4.2-4.6,4.2-4.6s2-2,1.2-4.2S312.1,209.9,312.1,209.9z"/>
	<path class="st6" d="M316.3,208.7c-1.2,0.1-2.4-0.5-3.2-1.4c-1.2-1.5-2,0-2,1.6c0,0.9,0.7,1.7,1.5,2c0,0-2.6,2.5-1.1,3.2
		c1,0.4,2.2,0.2,3.1-0.5"/>
	<path class="st6" d="M370.7,249c0,0-7.7-1.5-10.4-2s-11.7,3.1-14.2,4s0,1.6,2.7,2.2s8.2-0.5,8.2-0.5s-6,2.6-4.6,2.9
		s4.4-0.4,6.9-0.6s5.1-2.6,5.1-2.6s12.2,6,13.7,6s3.6-4.4,0.5-6.2C376.2,250.9,373.5,249.8,370.7,249z"/>
	<path class="st6" d="M373.4,255.7c-4.8,3.6-9,7.9-12.6,12.8c-5.3,7.5-6.2,22.6-5.1,27s1.8,9.5,7.1,13s9.1,4.9,18.3,0
		s13.9-21.4,13-34s-8.6-21.4-12.6-22.5S373.4,255.7,373.4,255.7z"/>
	<path class="st6" d="M374,258.1c0,0-3.3,0.4-4.9,2.6s-1.1,2.9,0,3.5c0.7,0.4,1.2,1.2,1.3,2c0,0-3.8,6.2-1.8,7.5s11-2.9,13.3-6
		s1.3-8.2-0.2-9.7S374,258.1,374,258.1z"/>
	<path class="st6" d="M371.8,234.4c-1.1,1.3-2.3,2.4-3.6,3.3c-1.5,0.7-3.3,1.5-1.8,2.6c0.8,0.6,1.6,1.3,2.4,2c0,0-1.8,6-1.1,9.5
		c0.2,1.7,1.8,2.9,3.6,2.7c0.1,0,0.3-0.1,0.4-0.1c0,0-0.5,9.1-1.3,11.9s2.7,2.5,5.5,0.9s3.1-8.4,4.2-13.3s7.7-10.8,3.1-16.2
		S371.8,234.4,371.8,234.4z"/>
	<path class="st4" d="M401.6,228.2c-6.8-6.9-17-5.3-18.4-4.9c0,0-5.7-1.4-9-0.8s-4.5,10-2.5,15.3c0.7,1.9,2.1,3.5,3.8,4.5
		c-0.3-0.3-2.3-2.1-0.4-3.6c1.1-0.9,2.4-1.5,3.9-1.8c0,0-1.6,5.2-0.9,6.1c2.8,3.7-9.7,21.2-10.2,20.9c0,0,3.6,2.1,8.2,4.2
		c10.1,4.9,22-5.5,25.7-14.2C404.7,246.8,407.6,234.3,401.6,228.2z"/>
	<polygon class="st6" points="303.2,254.2 294,292.8 312.9,301.3 320,265.1 	"/>
	<polygon class="st4" points="303.9,258.2 296.2,290.2 311.9,297.4 317.8,267.2 	"/>
	<polygon class="st6" points="320,265.1 345.8,266.3 340.8,303.4 312.9,301.3 	"/>
	<polygon class="st8" points="327.6,281.6 329.5,281.6 329.7,280.4 327.8,280.3 	"/>
	<polygon class="st8" points="331.9,290 332.2,288.1 329.6,288 329.4,289.8 	"/>
	<polygon class="st8" points="327.3,276.3 327.6,275 325.2,274.9 325,276.2 	"/>
	<polygon class="st8" points="328.5,276.4 330.3,276.5 330.5,275.2 328.7,275.1 	"/>
	<polygon class="st8" points="327.1,284.4 329,284.5 329.3,282.8 327.4,282.7 	"/>
	<polygon class="st8" points="333.6,279.6 334,277.8 331.3,277.6 331,279.4 	"/>
	<polygon class="st8" points="325.9,271 328.2,271.1 328.6,269.1 326.3,269 	"/>
	<polygon class="st8" points="331.1,271.3 331.4,269.3 329.7,269.2 329.4,271.2 	"/>
	<polygon class="st8" points="325.7,272.2 325.4,273.7 327.8,273.9 328,272.3 	"/>
	<polygon class="st8" points="330.1,277.6 328.3,277.5 328,279.2 329.8,279.3 	"/>
	<polygon class="st8" points="330.9,272.4 329.2,272.3 328.9,274 330.6,274.1 	"/>
	<polygon class="st8" points="332.8,284.8 333.1,283 330.5,282.8 330.2,284.6 	"/>
	<polygon class="st8" points="322.2,285.2 320.3,285 320.1,286.4 322,286.5 	"/>
	<polygon class="st8" points="321.8,287.7 319.9,287.6 319.6,289.1 321.5,289.2 	"/>
	<polygon class="st8" points="321.3,290.4 319.4,290.2 319.2,291.6 321.1,291.7 	"/>
	<polygon class="st8" points="320.9,292.9 319,292.8 318.7,294.3 320.6,294.5 	"/>
	<polygon class="st8" points="322.7,282.5 320.8,282.4 320.5,283.9 322.4,284 	"/>
	<polygon class="st8" points="323.6,277.3 321.7,277.2 321.4,278.7 323.4,278.8 	"/>
	<polygon class="st8" points="324.6,272.1 322.6,272 322.3,273.5 324.3,273.6 	"/>
	<polygon class="st8" points="323.1,280 321.2,279.9 321,281.2 322.9,281.3 	"/>
	<polygon class="st8" points="324.1,274.8 322.1,274.6 321.9,276.1 323.8,276.1 	"/>
	<polygon class="st8" points="334.8,272.6 332.1,272.5 331.8,274.2 334.5,274.4 	"/>
	<polygon class="st8" points="320.4,295.6 318.5,295.5 318.1,297.6 320,297.8 	"/>
	<polygon class="st8" points="330.6,281.7 333.3,281.8 333.5,280.7 330.8,280.5 	"/>
	<polygon class="st8" points="329,292.1 331.6,292.2 331.8,291.1 329.2,290.9 	"/>
	<polygon class="st8" points="329.8,286.9 332.4,287 332.6,285.9 330,285.7 	"/>
	<polygon class="st8" points="328.9,285.6 326.9,285.5 326.7,286.8 328.7,286.8 	"/>
	<polygon class="st8" points="331.4,293.3 328.8,293.2 328.5,295 331.1,295.2 	"/>
	<polygon class="st8" points="328.4,296.1 328,298.6 330.5,298.8 330.9,296.3 	"/>
	<polygon class="st8" points="324.5,278.9 326.9,279.1 327.1,277.5 324.8,277.4 	"/>
	<polygon class="st8" points="324.8,271 325.1,269 323.1,268.9 322.8,270.9 	"/>
	<polygon class="st8" points="331.4,276.5 334.1,276.6 334.3,275.5 331.6,275.3 	"/>
	<polygon class="st8" points="332.2,271.3 335,271.4 335.3,269.5 332.5,269.3 	"/>
	<polygon class="st8" points="328.5,288 326.5,287.9 326.2,289.6 328.2,289.7 	"/>
	<polygon class="st8" points="325.4,287.8 322.9,287.7 322.7,289.3 325.1,289.5 	"/>
	<polygon class="st8" points="326,290.7 325.8,291.9 327.9,292 328,290.9 	"/>
	<polygon class="st8" points="327.7,293.2 325.6,293.1 325.3,294.8 327.4,294.9 	"/>
	<polygon class="st8" points="321.7,294.5 324.2,294.7 324.5,293 322,292.9 	"/>
	<polygon class="st8" points="324.9,290.6 322.5,290.5 322.2,291.8 324.6,291.9 	"/>
	<polygon class="st8" points="323.1,286.6 325.5,286.7 325.8,285.4 323.4,285.3 	"/>
	<polygon class="st8" points="321.5,295.7 321.1,297.9 323.6,298.1 324,295.8 	"/>
	<polygon class="st8" points="327.2,296.1 325.1,295.9 324.7,298.2 326.9,298.5 	"/>
	<polygon class="st8" points="326.7,280.2 324.3,280.1 324.1,281.4 326.5,281.5 	"/>
	<polygon class="st8" points="326.2,282.6 323.9,282.5 323.6,284.1 326,284.3 	"/>
	<path class="st6" d="M374.4,288.8c0,0-2.4,0.2-6.4,3.5s-19.9,31-19.9,31s-14.4-9-18.1-11.5s-6.6-7.1-8.6-9.9s-2.4-3.1-5.1-3.3
		s-4.7-2-5.1-0.7s0.7,1.8,1.5,2.2c0.6,0.2,1.3,0.4,2,0.4c-1.7,0.3-3.5-0.1-4.9-1.1c-2.7-1.6-3.5-2-3.5-0.2s2,4.8,3.5,6.6
		s9.9,2.6,9.9,2.6c3,5.9,6.5,11.6,10.2,17c5.5,7.7,17.2,15.9,20.5,14.8s20.6-22.8,25.4-28.9s11-13.1,9.5-17.2"/>
	<path class="st6" d="M325.1,306.9c-1.4-1.8-2.7-3.6-3.7-5c-2-2.7-2.4-3.1-5.1-3.3s-4.7-2-5.1-0.7s0.7,1.8,1.5,2.2
		c0.6,0.2,1.3,0.4,2,0.4c-1.7,0.3-3.5-0.1-4.9-1.1c-2.7-1.6-3.5-2-3.5-0.2s2,4.8,3.5,6.6s9.9,2.6,9.9,2.6s0.4,0.7,1,1.9
		C321.7,308.7,323.3,307.6,325.1,306.9z"/>
</g>
</svg>
