<svg width="114" height="50" viewBox="0 0 114 50" fill="none" xmlns="http://www.w3.org/2000/svg">
<path d="M10.7245 47.7656L11.0596 47.0181C11.4764 47.3503 12.1425 47.5873 12.7841 47.5873C13.5972 47.5873 13.9405 47.2976 13.9405 46.9127C13.9405 45.7945 10.8349 46.5278 10.8349 44.6034C10.8349 43.7667 11.5071 43.0557 12.9414 43.0557C13.5686 43.0557 14.2265 43.2177 14.6801 43.5155L14.3736 44.263C13.9037 43.9895 13.3888 43.8558 12.9332 43.8558C12.1262 43.8558 11.7992 44.1678 11.7992 44.5588C11.7992 45.6608 14.8987 44.9437 14.8987 46.8459C14.8987 47.6744 14.2183 48.3855 12.7861 48.3855C11.9729 48.3855 11.1577 48.1343 10.7245 47.7635" fill="#073447"/>
<path d="M16.0408 46.3374C16.0408 45.1523 16.9378 44.3157 18.1616 44.3157C19.3855 44.3157 20.2886 45.1523 20.2886 46.3374C20.2886 47.5225 19.3998 48.3652 18.1616 48.3652C16.9235 48.3652 16.0408 47.5204 16.0408 46.3374ZM19.3487 46.3374C19.3487 45.5818 18.84 45.1017 18.1616 45.1017C17.4833 45.1017 16.9827 45.5838 16.9827 46.3374C16.9827 47.091 17.4915 47.5731 18.1616 47.5731C18.8318 47.5731 19.3487 47.091 19.3487 46.3374Z" fill="#073447"/>
<path d="M22.7178 42.8207H21.7841V48.3146H22.7178V42.8207Z" fill="#073447"/>
<path d="M28.3999 44.3602V48.3145H27.5111V47.8101C27.2128 48.1727 26.7429 48.3652 26.228 48.3652C25.2044 48.3652 24.5097 47.8101 24.5097 46.619V44.3602H25.4434V46.4913C25.4434 47.2085 25.7867 47.5508 26.3772 47.5508C27.0269 47.5508 27.4682 47.1517 27.4682 46.3597V44.3602H28.4019H28.3999Z" fill="#073447"/>
<path d="M33.0358 47.0262L33.753 47.4414C33.4547 48.0188 32.856 48.351 32.1103 48.3672L32.0286 48.6792C32.4699 48.7319 32.6783 48.9831 32.6783 49.3011C32.6783 49.7306 32.2758 50.004 31.6628 50.004C31.3931 50.004 31.1623 49.9534 30.9763 49.8481L31.148 49.4105C31.3053 49.4915 31.4687 49.528 31.6547 49.528C31.9305 49.528 32.051 49.4247 32.051 49.2606C32.051 49.1208 31.9387 49.0155 31.6547 49.0155H31.4238L31.6097 48.3267C30.5861 48.1565 29.8914 47.3786 29.8914 46.3354C29.8914 45.1503 30.7884 44.3137 32.049 44.3137C32.8254 44.3137 33.4445 44.6317 33.7509 45.2313L33.0338 45.6466C32.7947 45.2698 32.4372 45.0997 32.0408 45.0997C31.3543 45.0997 30.8313 45.5737 30.8313 46.3354C30.8313 47.0971 31.3543 47.5711 32.0408 47.5711C32.4372 47.5711 32.7947 47.4009 33.0338 47.0241" fill="#073447"/>
<path d="M34.7684 46.3374C34.7684 45.1523 35.6654 44.3157 36.8892 44.3157C38.1131 44.3157 39.0162 45.1523 39.0162 46.3374C39.0162 47.5225 38.1274 48.3652 36.8892 48.3652C35.6511 48.3652 34.7684 47.5204 34.7684 46.3374ZM36.403 43.3311C36.1946 43.3311 36.0515 43.4932 36.0372 43.7748H35.5367C35.551 43.1671 35.8656 42.7822 36.3437 42.7822C36.8218 42.7822 37.0895 43.2704 37.3592 43.2704C37.5676 43.2704 37.7106 43.1144 37.7249 42.849H38.2255C38.2112 43.4264 37.8965 43.8194 37.4184 43.8194C36.9403 43.8194 36.6727 43.3311 36.403 43.3311ZM38.0763 46.3374C38.0763 45.5818 37.5676 45.1017 36.8892 45.1017C36.2109 45.1017 35.7103 45.5838 35.7103 46.3374C35.7103 47.091 36.217 47.5731 36.8892 47.5731C37.5614 47.5731 38.0763 47.091 38.0763 46.3374Z" fill="#073447"/>
<path d="M44.2445 46.6332H41.1165C41.2288 47.2105 41.7131 47.5812 42.4077 47.5812C42.8552 47.5812 43.2066 47.4414 43.4906 47.1517L43.9912 47.721C43.6336 48.1423 43.0738 48.3652 42.3853 48.3652C41.049 48.3652 40.1827 47.5144 40.1827 46.3374C40.1827 45.1604 41.0552 44.3157 42.2443 44.3157C43.4334 44.3157 44.2609 45.1219 44.2609 46.3597C44.2609 46.4346 44.2527 46.544 44.2466 46.6332M41.1103 46.0193H43.3721C43.2965 45.4501 42.8572 45.0571 42.2443 45.0571C41.6313 45.0571 41.1982 45.442 41.1103 46.0193Z" fill="#073447"/>
<path d="M45.2968 47.9215L45.6544 47.2186C46.0058 47.4475 46.5431 47.6116 47.0437 47.6116C47.6342 47.6116 47.8794 47.4495 47.8794 47.174C47.8794 46.4184 45.4153 47.1295 45.4153 45.5534C45.4153 44.8059 46.0957 44.3177 47.1704 44.3177C47.6996 44.3177 48.3043 44.4433 48.6639 44.658L48.3064 45.361C47.9264 45.1381 47.5443 45.0652 47.1643 45.0652C46.5963 45.0652 46.3286 45.2495 46.3286 45.5088C46.3286 46.309 48.7927 45.598 48.7927 47.1457C48.7927 47.8851 48.1062 48.3672 46.9865 48.3672C46.3225 48.3672 45.6564 48.1748 45.2989 47.9236" fill="#073447"/>
<path d="M52.5684 45.7236C52.5684 44.1759 53.7636 43.0577 55.3675 43.0577C56.2195 43.0577 56.951 43.3615 57.4352 43.9247L56.8079 44.5102C56.4279 44.103 55.9559 43.9024 55.4125 43.9024C54.3296 43.9024 53.545 44.658 53.545 45.7236C53.545 46.7891 54.3296 47.5448 55.4125 47.5448C55.958 47.5448 56.4279 47.3442 56.8079 46.9309L57.4352 47.5225C56.9489 48.0856 56.2175 48.3875 55.3593 48.3875C53.7616 48.3875 52.5663 47.2693 52.5663 45.7216" fill="#073447"/>
<path d="M58.3995 46.3374C58.3995 45.1523 59.2965 44.3157 60.5203 44.3157C61.7442 44.3157 62.6473 45.1523 62.6473 46.3374C62.6473 47.5225 61.7585 48.3652 60.5203 48.3652C59.2822 48.3652 58.3995 47.5204 58.3995 46.3374ZM61.7074 46.3374C61.7074 45.5818 61.1987 45.1017 60.5203 45.1017C59.842 45.1017 59.3414 45.5838 59.3414 46.3374C59.3414 47.091 59.8481 47.5731 60.5203 47.5731C61.1925 47.5731 61.7074 47.091 61.7074 46.3374Z" fill="#073447"/>
<path d="M68.0698 46.0477V48.3125H67.1361V46.1652C67.1361 45.4623 66.7847 45.1219 66.1881 45.1219C65.524 45.1219 65.0745 45.521 65.0745 46.3131V48.3125H64.1408V44.3602H65.0296V44.8707C65.3361 44.5081 65.8203 44.3157 66.4026 44.3157C67.3588 44.3157 68.0678 44.8566 68.0678 46.0477" fill="#073447"/>
<path d="M72.2501 48.0998C72.0254 48.2781 71.6903 48.3672 71.3532 48.3672C70.4807 48.3672 69.9802 47.9094 69.9802 47.0342V45.132H69.3223V44.3906H69.9802V43.4871H70.9139V44.3906H71.9825V45.132H70.9139V47.012C70.9139 47.3969 71.108 47.6035 71.4655 47.6035C71.6596 47.6035 71.8456 47.5508 71.9886 47.4414L72.2501 48.0998Z" fill="#073447"/>
<path d="M76.9555 45.997V48.3145H76.0749V47.8324C75.8501 48.1727 75.417 48.3652 74.8204 48.3652C73.9092 48.3652 73.335 47.8688 73.335 47.1801C73.335 46.4913 73.7825 46.0031 74.992 46.0031H76.0218V45.9444C76.0218 45.4035 75.6928 45.0854 75.0288 45.0854C74.5813 45.0854 74.1176 45.2333 73.8192 45.4784L73.4535 44.8039C73.8785 44.4777 74.4996 44.3157 75.1412 44.3157C76.2915 44.3157 76.9555 44.8565 76.9555 45.997ZM76.0218 47.0788V46.619H75.0594C74.424 46.619 74.2524 46.856 74.2524 47.1457C74.2524 47.4779 74.5364 47.6926 75.0145 47.6926C75.4926 47.6926 75.8665 47.486 76.0218 47.0788ZM75.4027 43.8214H74.5957L75.6029 42.8065H76.7001L75.4007 43.8214H75.4027Z" fill="#073447"/>
<path d="M82.9808 46.3374C82.9808 47.5671 82.1227 48.3652 80.9581 48.3652C80.4125 48.3652 79.9508 48.1809 79.6361 47.8021V48.3125H78.7474V42.8187H79.6811V44.8404C80.0019 44.4859 80.4514 44.3137 80.9581 44.3137C82.1227 44.3137 82.9808 45.1058 82.9808 46.3354M82.0328 46.3354C82.0328 45.5798 81.5261 45.0997 80.8539 45.0997C80.1817 45.0997 79.6668 45.5818 79.6668 46.3354C79.6668 47.089 80.1817 47.5711 80.8539 47.5711C81.5261 47.5711 82.0328 47.089 82.0328 46.3354Z" fill="#073447"/>
<path d="M88.2011 46.6332H85.073C85.1854 47.2105 85.6696 47.5812 86.3643 47.5812C86.8117 47.5812 87.1632 47.4414 87.4472 47.1517L87.9477 47.721C87.5902 48.1423 87.0303 48.3652 86.3418 48.3652C85.0056 48.3652 84.1393 47.5144 84.1393 46.3374C84.1393 45.1604 85.0117 44.3157 86.2008 44.3157C87.3899 44.3157 88.2174 45.1219 88.2174 46.3597C88.2174 46.4346 88.2093 46.544 88.2031 46.6332M85.0669 46.0193H87.3287C87.2531 45.4501 86.8138 45.0571 86.2008 45.0571C85.5879 45.0571 85.1547 45.442 85.0669 46.0193Z" fill="#073447"/>
<path d="M89.5822 43.1549C89.5822 42.8429 89.8356 42.5999 90.1788 42.5999C90.5221 42.5999 90.7754 42.8288 90.7754 43.1326C90.7754 43.4588 90.5282 43.71 90.1788 43.71C89.8294 43.71 89.5822 43.4649 89.5822 43.1549ZM89.7089 44.3623H90.6426V48.3145H89.7089V44.3623Z" fill="#073447"/>
<path d="M92.0074 47.9215L92.365 47.2186C92.7164 47.4475 93.2538 47.6116 93.7543 47.6116C94.3448 47.6116 94.59 47.4495 94.59 47.174C94.59 46.4184 92.1259 47.1295 92.1259 45.5534C92.1259 44.8059 92.8063 44.3177 93.881 44.3177C94.4102 44.3177 95.015 44.4433 95.3746 44.658L95.017 45.361C94.637 45.1381 94.2549 45.0652 93.8749 45.0652C93.3069 45.0652 93.0392 45.2495 93.0392 45.5088C93.0392 46.309 95.5033 45.598 95.5033 47.1457C95.5033 47.8851 94.8168 48.3672 93.6971 48.3672C93.0331 48.3672 92.367 48.1748 92.0095 47.9236" fill="#073447"/>
<path d="M0 32.8336L1.98391 28.9401C3.92695 30.2102 6.90178 31.1117 9.67231 31.1117C12.9373 31.1117 14.3021 30.2102 14.3021 28.6929C14.3021 24.5138 0.661983 28.4478 0.661983 19.7188C0.661983 15.5801 4.42343 12.8737 10.3752 12.8737C13.3091 12.8737 16.6579 13.5706 18.6418 14.7597L16.6579 18.6532C14.5493 17.4236 12.4408 17.0144 10.3343 17.0144C7.19396 17.0144 5.70449 18.0394 5.70449 19.4737C5.70449 23.9 19.3446 19.9659 19.3446 28.5309C19.3446 32.629 15.5423 35.2929 9.34131 35.2929C5.66159 35.2929 1.98391 34.2273 0 32.8336Z" fill="#073447"/>
<path d="M59.2311 33.8182C57.9909 34.8027 56.1316 35.2929 54.2703 35.2929C49.4342 35.2929 46.6657 32.7526 46.6657 27.9171V17.3851H43.0289V13.287H46.6657V8.28741H51.8328V13.287H57.7437V17.3851H51.8328V27.7956C51.8328 29.9267 52.9075 31.0732 54.8914 31.0732C55.9661 31.0732 57 30.7856 57.7845 30.1718L59.2311 33.8182Z" fill="#073447"/>
<path d="M82.9972 22.5042V35.0437H77.83V23.1586C77.83 19.265 75.887 17.3811 72.5811 17.3811C68.9035 17.3811 66.4231 19.5952 66.4231 23.979V35.0437H61.2559V4.63495H66.4231V15.6997C68.1168 13.8968 70.7219 12.9122 73.7805 12.9122C79.0702 12.9122 82.9972 15.9043 82.9972 22.5022" fill="#073447"/>
<path d="M103.457 28.5613C101.886 30.1596 99.9431 30.9375 97.4647 30.9375C96.6005 30.9375 95.7975 30.8321 95.0599 30.6356V30.6316C95.0599 30.6316 95.0722 30.6356 95.0783 30.6356L105.031 16.4958L104.99 16.4188C102.989 14.1581 100.025 12.8636 96.5555 12.8636C89.9827 12.8636 85.1465 17.535 85.1465 24.0519C85.1465 30.5688 89.9418 35.2807 97.3401 35.2807C101.142 35.2807 104.242 34.0511 106.226 31.7154L103.457 28.5592V28.5613ZM90.0133 23.7359C90.0133 22.5933 90.2871 21.5177 90.7693 20.5716C91.699 18.4527 93.6645 17.0914 96.1939 16.9718C96.198 16.9718 96.2 16.9718 96.2041 16.9718C96.292 16.9678 96.3819 16.9658 96.4718 16.9637C96.4942 16.9637 96.5147 16.9637 96.5371 16.9637C96.5392 16.9637 96.5433 16.9637 96.5453 16.9637C96.5494 16.9637 96.5535 16.9637 96.5576 16.9637C97.3054 16.9637 98.0041 17.0711 98.6477 17.2696L91.18 27.8786V27.8806H91.1759C90.8204 27.3174 90.5548 26.6874 90.3872 25.9987C90.1462 25.2917 90.0133 24.53 90.0133 23.7359Z" fill="#073447"/>
<path d="M38.5237 28.5613C36.9525 30.1596 35.0095 30.9375 32.5311 30.9375C31.6669 30.9375 30.8639 30.8321 30.1263 30.6356V30.6316C30.1263 30.6316 30.1386 30.6356 30.1447 30.6356L40.097 16.4958L40.0561 16.4188C38.0558 14.1581 35.0912 12.8636 31.6219 12.8636C25.0491 12.8636 20.213 17.535 20.213 24.0519C20.213 30.5688 25.0082 35.2807 32.4065 35.2807C36.2088 35.2807 39.3083 34.0511 41.2922 31.7154L38.5237 28.5592V28.5613ZM25.0798 23.7359C25.0798 22.5933 25.3535 21.5177 25.8357 20.5716C26.7654 18.4527 28.7309 17.0914 31.2603 16.9718C31.2644 16.9718 31.2664 16.9718 31.2705 16.9718C31.3584 16.9678 31.4483 16.9658 31.5382 16.9637C31.5606 16.9637 31.5811 16.9637 31.6036 16.9637C31.6056 16.9637 31.6097 16.9637 31.6117 16.9637C31.6158 16.9637 31.6199 16.9637 31.624 16.9637C32.3718 16.9637 33.0705 17.0711 33.7141 17.2696L26.2464 27.8786V27.8806H26.2423C25.8868 27.3174 25.6212 26.6874 25.4537 25.9987C25.2126 25.2917 25.0798 24.53 25.0798 23.7359Z" fill="#073447"/>
<path d="M100.344 48.6184H106.228V48.0107H100.344V48.6184ZM0 48.6184H5.88429V48.0107H0V48.6184Z" fill="#FFFFFF"/>
<path d="M107.817 4.28247L106.514 6.07123L101.612 13.0358C103.045 13.915 104.205 15.0798 105.041 16.4634L114 3.73552L112.037 0H94.9741V4.75245H107.104L107.819 4.28247H107.817Z" fill="#FFFFFF"/>
</svg>
