<svg width="145" height="145" viewBox="0 0 145 145" fill="none" xmlns="http://www.w3.org/2000/svg">
<g clip-path="url(#clip0_66_68)">
<path d="M128.949 90.2676C130.917 86.3638 131.955 81.505 131.955 76.1682C131.955 64.82 124.062 60.7765 116.675 60.7765C109.289 60.7765 101.395 64.82 101.395 76.1682C101.395 81.4828 102.433 86.3407 104.402 90.2647C101.422 91.8991 97.4394 94.5078 94.1639 98.1379C91.7759 96.1971 89.015 94.3671 86.1134 92.803C88.5206 88.2112 89.7898 82.4504 89.7898 76.094C89.7898 63.0854 80.7458 58.4502 72.2819 58.4502C63.8189 58.4502 54.7749 63.0854 54.7749 76.094C54.7749 82.4504 56.044 88.2102 58.4513 92.803C55.5497 94.3671 52.7878 96.198 50.4008 98.1379C47.1417 94.527 43.1453 91.9049 40.1503 90.2532C42.119 86.3291 43.1569 81.4742 43.1569 76.1682C43.1569 64.82 35.2703 60.7765 27.8895 60.7765C20.503 60.7765 12.6096 64.82 12.6096 76.1682C12.6096 81.505 13.6465 86.3628 15.6153 90.2667C11.3144 92.6421 0 99.9034 0 110.44C0 122.913 16.6782 127.44 27.8886 127.44C32.9546 127.44 38.3598 126.541 42.8032 124.965C48.3983 132.508 61.561 135.891 72.2819 135.891C83.0046 135.891 96.1654 132.509 101.749 124.965C106.192 126.541 111.601 127.44 116.675 127.44C127.88 127.44 144.55 122.913 144.55 110.44C144.55 99.9091 133.243 92.644 128.949 90.2676ZM97.8085 101.515C100.135 98.9599 103.444 96.4737 107.224 94.4403C109.839 97.3824 113.097 98.9339 116.675 98.9339C120.264 98.9339 123.522 97.3834 126.126 94.4413C129.804 96.4303 139.601 102.48 139.601 110.44C139.601 119.219 125.538 122.492 116.674 122.492C112.471 122.492 107.785 121.758 104.003 120.518C104.398 119.207 104.598 117.809 104.598 116.355C104.598 111.24 102.316 106.25 97.8085 101.515ZM124.203 88.5831C123.872 89.1681 123.548 89.675 123.215 90.1318L123.111 90.2821C122.789 90.7119 122.422 91.1359 121.999 91.5705C118.863 94.7313 114.479 94.7256 111.351 91.5744C110.93 91.1417 110.568 90.7234 110.252 90.3043L110.133 90.1308C109.798 89.675 109.477 89.1681 109.148 88.588C107.338 85.3163 106.343 80.9056 106.343 76.1692C106.343 67.0837 112.816 65.7269 116.674 65.7269C120.532 65.7269 127.005 67.0837 127.005 76.1692C127.006 80.9056 126.009 85.3173 124.203 88.5831ZM81.3413 91.1369C81.0397 91.6833 80.714 92.1853 80.3343 92.6941C79.9642 93.2309 79.5797 93.7089 79.1528 94.1589C77.1474 96.3204 74.771 97.4633 72.2819 97.4633C69.7917 97.4633 67.4163 96.3214 65.4061 94.1551C64.984 93.7089 64.5985 93.2309 64.215 92.6749C63.8469 92.1834 63.5231 91.6813 63.2176 91.1292C60.9645 87.208 59.7243 81.8693 59.7243 76.095C59.7243 64.6379 68.5062 63.4006 72.2828 63.4006C76.0594 63.4006 84.8413 64.6379 84.8413 76.095C84.8404 81.8683 83.5992 87.207 81.3413 91.1369ZM53.0075 102.562C55.408 100.54 58.2586 98.6381 61.2768 97.0393C64.3142 100.556 68.1092 102.411 72.2809 102.411C76.4526 102.411 80.2485 100.556 83.285 97.0393C86.3032 98.6371 89.1538 100.539 91.56 102.566C92.0438 102.965 92.5035 103.376 92.9574 103.805C93.417 104.228 93.8651 104.664 94.2901 105.113C97.846 108.845 99.6491 112.628 99.6491 116.354C99.6491 117.334 99.4968 118.307 99.1961 119.245L99.1952 119.25C99.0304 119.774 98.8078 120.292 98.5129 120.833C98.244 121.327 97.9164 121.823 97.5434 122.305C92.8562 128.239 81.163 130.941 72.2819 130.941C63.393 130.941 51.696 128.239 47.0241 122.31C46.6473 121.823 46.3197 121.326 46.0508 120.832C45.7559 120.293 45.5324 119.774 45.3666 119.244C45.0659 118.307 44.9137 117.335 44.9137 116.353C44.9137 112.626 46.7167 108.843 50.2746 105.111C50.6976 104.663 51.1457 104.227 51.6112 103.798C52.0593 103.376 52.5189 102.966 53.0075 102.562ZM40.5589 120.518C36.7774 121.758 32.0911 122.492 27.8876 122.492C19.019 122.492 4.94844 119.22 4.94844 110.44C4.94844 102.48 14.748 96.4293 18.4253 94.4403C21.0407 97.3814 24.3027 98.9329 27.8876 98.9329C31.4657 98.9329 34.7239 97.3814 37.3383 94.4394C41.1168 96.4717 44.427 98.959 46.7543 101.514C42.2482 106.249 39.9643 111.24 39.9643 116.354C39.9643 117.809 40.1638 119.207 40.5589 120.518ZM35.4158 88.5831C35.0852 89.1681 34.7624 89.675 34.429 90.1308L34.323 90.2859C34.003 90.7109 33.6378 91.134 33.2147 91.5695C30.0713 94.7362 25.676 94.7178 22.5537 91.5734C22.0786 91.0848 21.6806 90.6174 21.3414 90.151C20.9713 89.6268 20.6427 89.1026 20.3623 88.588C18.5525 85.3163 17.5571 80.9056 17.5571 76.1692C17.5571 67.0837 24.03 65.7269 27.8886 65.7269C31.7423 65.7269 38.2075 67.0837 38.2075 76.1692C38.2066 80.8979 37.2149 85.3096 35.4158 88.5831Z" fill="#6DD1AE"/>
<path d="M124.657 21.0484H117.758C117.73 21.0484 117.707 21.0253 117.707 20.9974V14.0985C117.707 12.4554 116.528 10.9396 114.89 10.7979C113.058 10.6389 111.52 12.0796 111.52 13.8787V20.9964C111.52 21.0243 111.497 21.0475 111.469 21.0475H104.571C102.927 21.0475 101.412 22.227 101.27 23.8643C101.111 25.6972 102.552 27.2342 104.351 27.2342H111.469C111.497 27.2342 111.52 27.2574 111.52 27.2853V34.1842C111.52 35.8273 112.7 37.3431 114.337 37.4848C116.17 37.6438 117.707 36.2031 117.707 34.4039V27.2853C117.707 27.2574 117.73 27.2342 117.758 27.2342H124.876C126.676 27.2342 128.116 25.6981 127.957 23.8643C127.816 22.2289 126.3 21.0484 124.657 21.0484Z" fill="#6DD1AE"/>
<path d="M19.0353 14.0193H23.1955C23.2234 14.0193 23.2465 14.0424 23.2465 14.0703V38.1871C23.2465 39.543 24.3461 40.6425 25.702 40.6425H26.6483C28.0042 40.6425 29.1037 39.543 29.1037 38.1871V11.5638C29.1037 10.2079 28.0042 9.1084 26.6483 9.1084H19.0353C17.6794 9.1084 16.5799 10.2079 16.5799 11.5638C16.5799 12.9197 17.6794 14.0193 19.0353 14.0193Z" fill="#6DD1AE"/>
<path d="M55.276 10.5501C53.2937 9.28965 51.0416 8.65845 48.5188 8.65845C46.0257 8.65845 43.7814 9.28869 41.7837 10.5501C39.786 11.8116 38.2171 13.6522 37.0762 16.0691C35.9352 18.4869 35.3647 21.4222 35.3647 24.8751C35.3647 28.3288 35.9352 31.2651 37.0762 33.682C38.2171 36.0999 39.786 37.9385 41.7837 39.2C43.7814 40.4614 46.0257 41.0917 48.5188 41.0917C51.0416 41.0917 53.2937 40.4614 55.276 39.2C57.2583 37.9385 58.8261 36.0999 59.9835 33.682C61.139 31.2651 61.7172 28.3288 61.7172 24.8751C61.7172 21.4222 61.139 18.4859 59.9835 16.0691C58.8261 13.6522 57.2583 11.8116 55.276 10.5501ZM54.8925 31.137C54.2767 32.7887 53.4277 34.0126 52.3474 34.8085C51.2662 35.6045 49.9893 36.0025 48.5188 36.0025C47.107 36.0025 45.8532 35.6045 44.7576 34.8085C43.6609 34.0126 42.8052 32.7887 42.1894 31.137C41.5736 29.4852 41.2662 27.3979 41.2662 24.8751C41.2662 22.3233 41.5736 20.2282 42.1894 18.591C42.8052 16.9547 43.6609 15.7385 44.7576 14.9425C45.8532 14.1465 47.107 13.7485 48.5188 13.7485C49.9903 13.7485 51.2662 14.1465 52.3474 14.9425C53.4286 15.7385 54.2767 16.9547 54.8925 18.591C55.5073 20.2282 55.8156 22.3233 55.8156 24.8751C55.8156 27.3979 55.5073 29.4852 54.8925 31.137Z" fill="#6DD1AE"/>
<path d="M90.2996 16.0691C89.1422 13.6522 87.5743 11.8116 85.592 10.5501C83.6098 9.28965 81.3577 8.65845 78.8348 8.65845C76.3418 8.65845 74.0974 9.28869 72.0997 10.5501C70.102 11.8116 68.5332 13.6522 67.3922 16.0691C66.2512 18.4869 65.6807 21.4222 65.6807 24.8751C65.6807 28.3288 66.2512 31.2651 67.3922 33.682C68.5332 36.0999 70.102 37.9385 72.0997 39.2C74.0974 40.4614 76.3418 41.0917 78.8348 41.0917C81.3577 41.0917 83.6098 40.4614 85.592 39.2C87.5743 37.9385 89.1422 36.0999 90.2996 33.682C91.455 31.2651 92.0332 28.3288 92.0332 24.8751C92.0332 21.4222 91.456 18.4869 90.2996 16.0691ZM85.2095 31.137C84.5937 32.7887 83.7447 34.0126 82.6644 34.8085C81.5832 35.6045 80.3063 36.0025 78.8358 36.0025C77.424 36.0025 76.1702 35.6045 75.0746 34.8085C73.9779 34.0126 73.1222 32.7887 72.5064 31.137C71.8906 29.4852 71.5832 27.3979 71.5832 24.8751C71.5832 22.3233 71.8906 20.2282 72.5064 18.591C73.1222 16.9547 73.9779 15.7385 75.0746 14.9425C76.1702 14.1465 77.424 13.7485 78.8358 13.7485C80.3073 13.7485 81.5832 14.1465 82.6644 14.9425C83.7456 15.7385 84.5937 16.9547 85.2095 18.591C85.8243 20.2282 86.1327 22.3233 86.1327 24.8751C86.1327 27.3979 85.8243 29.4852 85.2095 31.137Z" fill="#6DD1AE"/>
</g>
<defs>
<clipPath id="clip0_66_68">
<rect width="144.55" height="144.55" fill="white"/>
</clipPath>
</defs>
</svg>
