<svg width="145" height="145" viewBox="0 0 145 145" fill="none" xmlns="http://www.w3.org/2000/svg">
<g clip-path="url(#clip0_66_28)">
<path d="M85.9168 100.906C88.5129 96.1749 89.8833 90.152 89.8833 83.4593C89.8833 80.3544 89.361 77.5732 88.3318 75.1939C87.3893 73.017 86.019 71.1639 84.2593 69.6856C81.2083 67.1232 76.9547 65.7124 72.2819 65.7124C67.6033 65.7124 63.3458 67.1232 60.2938 69.6856C58.5332 71.1639 57.1629 73.017 56.2204 75.1939C55.1903 77.5732 54.6679 80.3534 54.6679 83.4593C54.6679 90.152 56.0383 96.1749 58.6344 100.906C54.9648 102.874 49.8525 106.129 45.7184 110.693C41.5572 115.286 39.4468 120.049 39.4468 124.846C39.4468 139.303 59.0835 144.55 72.2819 144.55C85.4755 144.55 105.104 139.303 105.104 124.846C105.104 120.049 102.994 115.287 98.8329 110.693C94.6987 106.129 89.5874 102.874 85.9168 100.906ZM81.853 99.2625C81.2209 100.362 80.5049 101.352 79.7233 102.205C77.5695 104.573 74.9965 105.826 72.2819 105.826C69.5595 105.826 66.9827 104.574 64.8279 102.204C64.0473 101.352 63.3313 100.362 62.6972 99.2596C60.2958 95.164 58.9727 89.5526 58.9727 83.4593C58.9727 71.3287 68.2798 70.019 72.2819 70.019C76.2801 70.019 85.5786 71.3287 85.5786 83.4593C85.5786 89.5526 84.2555 95.164 81.853 99.2625ZM72.2819 110.132C76.5432 110.132 80.4143 108.184 83.4961 104.493C87.8827 106.813 100.8 114.53 100.8 124.846C100.8 131.077 95.3415 134.732 90.7631 136.701C85.6017 138.92 78.6932 140.245 72.2828 140.245C65.8667 140.245 58.9543 138.92 53.791 136.701C49.2117 134.732 43.7525 131.078 43.7525 124.846C43.7525 114.53 56.6695 106.813 61.0561 104.493C64.137 108.183 68.0128 110.132 72.2819 110.132Z" fill="#6DD1AE"/>
<path d="M50.0645 20.1627L40.5926 18.7866L36.3573 10.2051C35.993 9.46406 35.2539 9.00439 34.4271 9.00439C33.6012 9.00439 32.8611 9.46406 32.4968 10.2042L28.2596 18.7866L18.7877 20.1637C17.9715 20.2822 17.3056 20.844 17.0492 21.6294C16.7948 22.4148 17.0039 23.2609 17.5947 23.8362L24.4492 30.5173L22.8312 39.9507C22.6915 40.764 23.0192 41.5706 23.6879 42.0563C24.0647 42.3309 24.5071 42.4697 24.9513 42.4697C25.2934 42.4697 25.6374 42.3868 25.9555 42.2201L34.4271 37.767L42.8987 42.2201C43.207 42.382 43.553 42.4668 43.8999 42.4668C44.3567 42.4668 44.7942 42.3242 45.1652 42.0553C45.833 41.5706 46.1616 40.763 46.0219 39.9497L44.4039 30.5164L51.2575 23.8362C51.8483 23.2609 52.0574 22.4148 51.803 21.6294C51.5476 20.8431 50.8817 20.2812 50.0645 20.1627ZM39.9701 30.128L41.0417 36.3783L35.4293 33.4276C35.1209 33.2657 34.7749 33.1799 34.4271 33.1799C34.0801 33.1799 33.7332 33.2657 33.4248 33.4276L27.8124 36.3783L28.884 30.128C29.0035 29.4293 28.7713 28.7172 28.2644 28.2228L23.7236 23.7967L29.998 22.8851C30.6996 22.7829 31.3057 22.3435 31.618 21.7075L34.4251 16.0209L37.2313 21.7065C37.5445 22.3425 38.1497 22.7829 38.8522 22.8851L45.1286 23.7967L40.5878 28.2228C40.0819 28.7172 39.8506 29.4293 39.9701 30.128Z" fill="#6DD1AE"/>
<path d="M87.9135 20.1627L78.4416 18.7866L74.2063 10.2051C73.842 9.46406 73.1029 9.00439 72.2761 9.00439C71.4502 9.00439 70.7101 9.46406 70.3459 10.2042L66.1086 18.7866L56.6367 20.1637C55.8205 20.2822 55.1546 20.844 54.8983 21.6294C54.6439 22.4148 54.853 23.2609 55.4437 23.8362L62.2983 30.5173L60.6803 39.9507C60.5405 40.764 60.8682 41.5706 61.537 42.0563C61.9138 42.3309 62.3561 42.4697 62.8003 42.4697C63.1424 42.4697 63.4865 42.3868 63.8045 42.2201L72.2761 37.767L80.7477 42.2201C81.0561 42.382 81.402 42.4668 81.7489 42.4668C82.2057 42.4668 82.6432 42.3242 83.0142 42.0553C83.6821 41.5706 84.0107 40.764 83.8709 39.9497L82.2529 30.5164L89.1065 23.8362C89.6973 23.2609 89.9054 22.4148 89.652 21.6294C89.3957 20.8431 88.7298 20.2812 87.9135 20.1627ZM77.8181 30.128L78.8897 36.3783L73.2773 33.4276C72.969 33.2657 72.623 33.1799 72.2751 33.1799C71.9282 33.1799 71.5813 33.2657 71.2729 33.4276L65.6605 36.3783L66.7321 30.128C66.8516 29.4293 66.6194 28.7172 66.1125 28.2228L61.5717 23.7967L67.8461 22.8851C68.5477 22.7829 69.1538 22.3435 69.466 21.7075L72.2732 16.0209L75.0794 21.7065C75.3916 22.3425 75.9978 22.7829 76.7003 22.8851L82.9767 23.7967L78.4359 28.2228C77.9309 28.7172 77.6987 29.4293 77.8181 30.128Z" fill="#6DD1AE"/>
<path d="M125.762 20.1627L116.29 18.7866L112.054 10.2051C111.69 9.46406 110.951 9.00439 110.124 9.00439C109.298 9.00439 108.558 9.46406 108.194 10.2042L103.957 18.7866L94.4848 20.1637C93.6686 20.2822 93.0027 20.844 92.7473 21.6294C92.4929 22.4148 92.702 23.2609 93.2927 23.8362L100.147 30.5173L98.5293 39.9507C98.3896 40.764 98.7172 41.5706 99.386 42.0563C99.7628 42.3309 100.205 42.4697 100.649 42.4697C100.991 42.4697 101.336 42.3868 101.654 42.2201L110.125 37.767L118.597 42.2201C118.905 42.382 119.252 42.4668 119.598 42.4668C120.055 42.4668 120.492 42.3242 120.863 42.0553C121.531 41.5706 121.86 40.763 121.72 39.9497L120.102 30.5164L126.955 23.8362C127.545 23.2609 127.754 22.4148 127.5 21.6294C127.244 20.8431 126.578 20.2812 125.762 20.1627ZM115.666 30.128L116.738 36.3783L111.125 33.4276C110.509 33.1038 109.739 33.1038 109.122 33.4276L103.51 36.3783L104.581 30.128C104.701 29.4293 104.468 28.7172 103.962 28.2228L99.4207 23.7967L105.695 22.8851C106.397 22.7829 107.003 22.3435 107.315 21.7075L110.122 16.0209L112.928 21.7065C113.242 22.3425 113.847 22.7829 114.549 22.8851L120.826 23.7967L116.285 28.2228C115.779 28.7172 115.548 29.4293 115.666 30.128Z" fill="#6DD1AE"/>
<path d="M119.548 0H25.0014C15.2693 0 7.35184 7.91268 7.35184 17.638V33.8325C7.35184 43.5578 15.2693 51.4705 25.0014 51.4705H62.4929L70.7092 60.1772C71.1139 60.607 71.6844 60.8527 72.2751 60.8527C72.8649 60.8527 73.4363 60.6061 73.8411 60.1772L82.0573 51.4705H119.548C129.281 51.4705 137.198 43.5578 137.198 33.8325V17.638C137.198 7.91268 129.28 0 119.548 0ZM132.893 17.638V33.8325C132.893 41.1843 126.906 47.1648 119.548 47.1648H81.1293C80.5395 47.1648 79.969 47.4115 79.5633 47.8403L72.2751 55.5632L64.9869 47.8403C64.5822 47.4105 64.0117 47.1648 63.4209 47.1648H25.0014C17.6438 47.1648 11.6575 41.1833 11.6575 33.8325V17.638C11.6575 10.2862 17.6438 4.30567 25.0014 4.30567H119.548C126.906 4.30567 132.893 10.2862 132.893 17.638Z" fill="#6DD1AE"/>
</g>
<defs>
<clipPath id="clip0_66_28">
<rect width="144.55" height="144.55" fill="white"/>
</clipPath>
</defs>
</svg>
