<?xml version="1.0" encoding="utf-8"?>
<!-- Generator: Adobe Illustrator 26.5.0, SVG Export Plug-In . SVG Version: 6.00 Build 0)  -->
<svg version="1.1" id="Camada_1" xmlns="http://www.w3.org/2000/svg" xmlns:xlink="http://www.w3.org/1999/xlink" x="0px" y="0px"
	 viewBox="0 0 1200 900" style="enable-background:new 0 0 1200 900;" xml:space="preserve">
<style type="text/css">
	.st0{fill:#6DD1AE;}
	.st1{fill:#073447;}
	.st2{fill:#FFFFFF;}
	.st3{fill:#063447;}
</style>
<rect y="0" class="st0" width="1200" height="900"/>
<g>
	<path class="st1" d="M373.5,562.4l1.6-3.7c2,1.6,5.3,2.8,8.4,2.8c4,0,5.7-1.4,5.7-3.3c0-5.5-15.2-1.9-15.2-11.4
		c0-4.1,3.3-7.6,10.3-7.6c3.1,0,6.3,0.8,8.5,2.3l-1.5,3.7c-2.3-1.4-4.8-2-7.1-2c-3.9,0-5.6,1.5-5.6,3.5c0,5.4,15.2,1.9,15.2,11.3
		c0,4.1-3.3,7.6-10.3,7.6C379.6,565.4,375.6,564.2,373.5,562.4"/>
	<path class="st1" d="M399.5,555.3c0-5.8,4.4-10,10.4-10c6.1,0,10.4,4.1,10.4,10c0,5.8-4.3,10-10.4,10
		C403.9,565.3,399.5,561.2,399.5,555.3 M415.7,555.3c0-3.7-2.5-6.1-5.8-6.1c-3.3,0-5.8,2.4-5.8,6.1c0,3.7,2.5,6.1,5.8,6.1
		C413.2,561.4,415.7,559,415.7,555.3"/>
	<rect x="427.6" y="538" class="st1" width="4.6" height="27.1"/>
	<path class="st1" d="M460,545.6v19.5h-4.4v-2.5c-1.5,1.8-3.8,2.7-6.3,2.7c-5,0-8.4-2.7-8.4-8.6v-11.1h4.6v10.5
		c0,3.5,1.7,5.2,4.6,5.2c3.2,0,5.3-2,5.3-5.9v-9.9H460z"/>
	<path class="st1" d="M482.7,558.7l3.5,2c-1.5,2.9-4.4,4.5-8,4.6l-0.4,1.5c2.2,0.3,3.2,1.5,3.2,3.1c0,2.1-2,3.5-5,3.5
		c-1.3,0-2.4-0.3-3.4-0.8l0.8-2.2c0.8,0.4,1.6,0.6,2.5,0.6c1.4,0,1.9-0.5,1.9-1.3c0-0.7-0.5-1.2-1.9-1.2h-1.1l0.9-3.4
		c-5-0.8-8.4-4.7-8.4-9.8c0-5.8,4.4-10,10.6-10c3.8,0,6.8,1.6,8.3,4.5l-3.5,2c-1.2-1.9-2.9-2.7-4.9-2.7c-3.4,0-5.9,2.3-5.9,6.1
		c0,3.8,2.6,6.1,5.9,6.1C479.8,561.4,481.5,560.6,482.7,558.7"/>
	<path class="st1" d="M491.2,555.3c0-5.8,4.4-10,10.4-10c6.1,0,10.4,4.1,10.4,10c0,5.8-4.3,10-10.4,10
		C495.6,565.3,491.2,561.2,491.2,555.3 M499.2,540.5c-1,0-1.7,0.8-1.8,2.2H495c0.1-3,1.6-4.9,3.9-4.9c2.4,0,3.7,2.4,5,2.4
		c1,0,1.7-0.8,1.8-2.1h2.4c-0.1,2.9-1.6,4.8-3.9,4.8C501.8,542.9,500.5,540.5,499.2,540.5 M507.4,555.3c0-3.7-2.5-6.1-5.8-6.1
		c-3.3,0-5.8,2.4-5.8,6.1c0,3.7,2.5,6.1,5.8,6.1C504.9,561.4,507.4,559,507.4,555.3"/>
	<path class="st1" d="M537.6,556.8h-15.3c0.5,2.9,2.9,4.7,6.3,4.7c2.2,0,3.9-0.7,5.3-2.1l2.4,2.8c-1.8,2.1-4.5,3.2-7.9,3.2
		c-6.5,0-10.8-4.2-10.8-10c0-5.8,4.3-10,10.1-10c5.7,0,9.9,4,9.9,10.1C537.6,555.8,537.6,556.3,537.6,556.8 M522.2,553.7h11.1
		c-0.4-2.8-2.5-4.8-5.5-4.8C524.8,549,522.7,550.9,522.2,553.7"/>
	<path class="st1" d="M542.7,563.1l1.8-3.5c1.7,1.1,4.3,1.9,6.8,1.9c2.9,0,4.1-0.8,4.1-2.2c0-3.7-12.1-0.2-12.1-8
		c0-3.7,3.3-6.1,8.6-6.1c2.6,0,5.6,0.6,7.3,1.7l-1.8,3.5c-1.9-1.1-3.7-1.5-5.6-1.5c-2.8,0-4.1,0.9-4.1,2.2c0,3.9,12.1,0.4,12.1,8.1
		c0,3.7-3.4,6-8.8,6C547.7,565.3,544.5,564.4,542.7,563.1"/>
	<path class="st1" d="M578.3,552.3c0-7.6,5.8-13.2,13.7-13.2c4.2,0,7.7,1.5,10.1,4.3l-3.1,2.9c-1.9-2-4.2-3-6.8-3
		c-5.3,0-9.1,3.7-9.1,9c0,5.3,3.8,9,9.1,9c2.7,0,5-1,6.8-3l3.1,2.9c-2.4,2.8-6,4.3-10.2,4.3C584.2,565.4,578.3,559.9,578.3,552.3"/>
	<path class="st1" d="M606.9,555.3c0-5.8,4.4-10,10.4-10c6.1,0,10.4,4.1,10.4,10c0,5.8-4.3,10-10.4,10
		C611.2,565.3,606.9,561.2,606.9,555.3 M623,555.3c0-3.7-2.5-6.1-5.8-6.1c-3.3,0-5.8,2.4-5.8,6.1c0,3.7,2.5,6.1,5.8,6.1
		C620.6,561.4,623,559,623,555.3"/>
	<path class="st1" d="M654.2,553.9v11.2h-4.6v-10.6c0-3.5-1.7-5.2-4.6-5.2c-3.3,0-5.4,2-5.4,5.9v9.9H635v-19.5h4.3v2.5
		c1.5-1.8,3.9-2.7,6.7-2.7C650.7,545.3,654.2,548,654.2,553.9"/>
	<path class="st1" d="M674.6,564c-1.1,0.9-2.7,1.3-4.4,1.3c-4.3,0-6.7-2.3-6.7-6.6v-9.4h-3.2v-3.7h3.2v-4.5h4.6v4.5h5.2v3.7h-5.2
		v9.3c0,1.9,0.9,2.9,2.7,2.9c1,0,1.9-0.3,2.6-0.8L674.6,564z"/>
	<path class="st1" d="M697.7,553.6v11.4h-4.3v-2.4c-1.1,1.7-3.2,2.6-6.1,2.6c-4.5,0-7.3-2.4-7.3-5.8c0-3.3,2.2-5.8,8.1-5.8h5v-0.3
		c0-2.7-1.6-4.2-4.9-4.2c-2.2,0-4.5,0.7-5.9,1.9l-1.8-3.3c2.1-1.6,5.1-2.4,8.3-2.4C694.4,545.3,697.7,548,697.7,553.6 M693.1,559
		v-2.3h-4.7c-3.1,0-3.9,1.2-3.9,2.6c0,1.6,1.4,2.7,3.7,2.7C690.4,562,692.3,561,693.1,559 M690.1,542.9h-3.9l4.9-5h5.4L690.1,542.9z
		"/>
	<path class="st1" d="M727.2,555.3c0,6.1-4.2,10-9.9,10c-2.7,0-4.9-0.9-6.5-2.8v2.5h-4.3V538h4.6v10c1.6-1.8,3.8-2.6,6.2-2.6
		C723,545.3,727.2,549.3,727.2,555.3 M722.5,555.3c0-3.7-2.5-6.1-5.8-6.1c-3.3,0-5.8,2.4-5.8,6.1c0,3.7,2.5,6.1,5.8,6.1
		C720,561.4,722.5,559,722.5,555.3"/>
	<path class="st1" d="M752.7,556.8h-15.3c0.5,2.9,2.9,4.7,6.3,4.7c2.2,0,3.9-0.7,5.3-2.1l2.4,2.8c-1.8,2.1-4.5,3.2-7.9,3.2
		c-6.5,0-10.8-4.2-10.8-10c0-5.8,4.3-10,10.1-10c5.7,0,9.9,4,9.9,10.1C752.8,555.8,752.7,556.3,752.7,556.8 M737.4,553.7h11.1
		c-0.4-2.8-2.5-4.8-5.5-4.8C740,549,737.8,550.9,737.4,553.7"/>
	<path class="st1" d="M759.5,539.6c0-1.5,1.2-2.7,2.9-2.7c1.7,0,2.9,1.1,2.9,2.6c0,1.6-1.2,2.9-2.9,2.9
		C760.7,542.3,759.5,541.1,759.5,539.6 M760.1,545.6h4.6v19.5h-4.6V545.6z"/>
	<path class="st1" d="M771.3,563.1l1.8-3.5c1.7,1.1,4.3,1.9,6.8,1.9c2.9,0,4.1-0.8,4.1-2.2c0-3.7-12.1-0.2-12.1-8
		c0-3.7,3.3-6.1,8.6-6.1c2.6,0,5.6,0.6,7.3,1.7l-1.8,3.5c-1.9-1.1-3.7-1.5-5.6-1.5c-2.8,0-4.1,0.9-4.1,2.2c0,3.9,12.1,0.4,12.1,8.1
		c0,3.7-3.4,6-8.8,6C776.3,565.3,773.1,564.4,771.3,563.1"/>
	<path class="st1" d="M321,488.7l9.7-19.2c9.5,6.3,24.1,10.7,37.6,10.7c16,0,22.7-4.5,22.7-11.9c0-20.6-66.8-1.2-66.8-44.3
		c0-20.4,18.4-33.8,47.5-33.8c14.4,0,30.8,3.4,40.5,9.3l-9.7,19.2c-10.3-6.1-20.6-8.1-31-8.1c-15.4,0-22.7,5.1-22.7,12.1
		c0,21.8,66.8,2.4,66.8,44.7c0,20.2-18.6,33.4-49,33.4C348.7,500.8,330.7,495.5,321,488.7"/>
	<path class="st1" d="M610.9,493.5c-6.1,4.9-15.2,7.3-24.3,7.3c-23.7,0-37.2-12.5-37.2-36.4v-52h-17.8v-20.2h17.8v-24.7h25.3v24.7
		h28.9v20.2h-28.9v51.4c0,10.5,5.3,16.2,15,16.2c5.3,0,10.3-1.4,14.2-4.5L610.9,493.5z"/>
	<path class="st1" d="M727.2,437.7v61.9H702v-58.7c0-19.2-9.5-28.5-25.7-28.5c-18,0-30.1,10.9-30.1,32.6v54.6h-25.3V349.5h25.3v54.6
		c8.3-8.9,21-13.8,36-13.8C708,390.3,727.2,405.1,727.2,437.7"/>
	<path class="st1" d="M827.4,467.6c-7.7,7.9-17.2,11.7-29.3,11.7c-4.2,0-8.2-0.5-11.8-1.5v0c0,0,0.1,0,0.1,0l48.7-69.8l-0.2-0.4
		c-9.8-11.2-24.3-17.5-41.3-17.5c-32.2,0-55.8,23.1-55.8,55.2s23.5,55.4,59.7,55.4c18.6,0,33.8-6.1,43.5-17.6L827.4,467.6z
		 M761.6,443.8c0-5.6,1.3-11,3.7-15.6c4.5-10.5,14.2-17.2,26.5-17.8c0,0,0,0,0,0c0.4,0,0.9,0,1.3,0c0.1,0,0.2,0,0.3,0c0,0,0,0,0,0
		c0,0,0,0,0.1,0c3.7,0,7.1,0.5,10.2,1.5l-36.6,52.4c0,0,0,0,0,0l0,0c-1.7-2.8-3-5.9-3.9-9.3C762.2,451.4,761.6,447.7,761.6,443.8"/>
	<path class="st1" d="M509.6,467.6c-7.7,7.9-17.2,11.7-29.3,11.7c-4.2,0-8.2-0.5-11.8-1.5l0,0c0,0,0.1,0,0.1,0l48.7-69.8l-0.2-0.4
		c-9.8-11.2-24.3-17.5-41.3-17.5c-32.2,0-55.8,23.1-55.8,55.2s23.5,55.4,59.7,55.4c18.6,0,33.8-6.1,43.5-17.6L509.6,467.6z
		 M443.8,443.8c0-5.6,1.3-11,3.7-15.6c4.5-10.5,14.2-17.2,26.5-17.8c0,0,0,0,0,0c0.4,0,0.9,0,1.3,0c0.1,0,0.2,0,0.3,0c0,0,0,0,0,0
		c0,0,0,0,0.1,0c3.7,0,7.1,0.5,10.2,1.5l-36.6,52.4c0,0,0,0,0,0l0,0c-1.7-2.8-3-5.9-3.9-9.3C444.4,451.4,443.8,447.7,443.8,443.8"/>
	<path class="st2" d="M812.1,566.6h28.8v-3h-28.8V566.6z M321,566.6h28.8v-3H321V566.6z"/>
	<path class="st2" d="M848.7,347.7l-6.4,8.8l-24,34.4c7,4.3,12.7,10.1,16.8,16.9L879,345l-9.6-18.4h-83.5V350h59.4L848.7,347.7z"/>
</g>
<g>
	<g>
		<path class="st2" d="M114.8,809.2l-3.3,4.5l-12.6,17.5c3.7,2.2,6.7,5.1,8.8,8.6l23-31.9l-5-9.4H81.8v11.9H113L114.8,809.2z"/>
		<path class="st3" d="M1085.2,829l3.3-4.5l12.6-17.5c-3.7-2.2-6.7-5.1-8.8-8.6l-23,31.9l5,9.4h43.8v-11.9H1087L1085.2,829z"/>
		<path class="st3" d="M441.7,796.8h-12.6v16.4h-16.8V825h16.8v16.4h12.6V825h16.8v-11.8h-16.8V796.8z"/>
		<path class="st2" d="M784.9,806.9l-8.1-8.4l-12.2,12.3l-12.2-12.3l-8.1,8.4l12.1,12.2l-12.1,12.2l8.1,8.4l12.2-12.3l12.2,12.3
			l8.1-8.4l-12.1-12.2L784.9,806.9z"/>
	</g>
	<g>
		<path class="st2" d="M1102.3,61l-3.3,4.5L1086.4,83c3.7,2.2,6.7,5.1,8.8,8.6l23-31.9l-5-9.4h-43.8v11.9h31.1L1102.3,61z"/>
		<path class="st3" d="M97.7,80.8l3.3-4.5l12.6-17.5c-3.7-2.2-6.7-5.1-8.8-8.6l-23,31.9l5,9.4h43.8V79.7H99.5L97.7,80.8z"/>
		<path class="st3" d="M770.9,48.7h-12.6V65h-16.8v11.8h16.8v16.4h12.6V76.8h16.8V65h-16.8V48.7z"/>
		<path class="st2" d="M455.8,58.7l-8.1-8.4l-12.2,12.3l-12.2-12.3l-8.1,8.4l12.1,12.2l-12.1,12.2l8.1,8.4l12.2-12.3l12.2,12.3
			l8.1-8.4l-12.1-12.2L455.8,58.7z"/>
	</g>
</g>
</svg>
