<svg width="378" height="26" viewBox="0 0 378 26" fill="none" xmlns="http://www.w3.org/2000/svg">
<path d="M18.3701 7.43725L16.5048 9.9373L9.49267 19.6711C11.5395 20.899 13.2004 22.5282 14.3972 24.4627L27.2127 6.67375L24.4029 1.45459H0V8.09333H17.3483L18.3701 7.43725Z" fill="white"/>
<path d="M359.63 18.4802L361.495 15.9802L368.507 6.24638C366.461 5.01847 364.8 3.38932 363.603 1.45478L350.787 19.2437L353.597 24.4629L378 24.4629L378 17.8242L360.652 17.8242L359.63 18.4802Z" fill="#063447"/>
<path d="M134.899 0.558594H127.881V9.68323H118.539V16.2349H127.881V25.3595H134.899V16.2349H144.24V9.68323H134.899V0.558594Z" fill="#063447"/>
<path d="M258.927 6.15267L254.389 1.45508L247.589 8.32152L240.785 1.45508L236.25 6.15267L242.994 12.9591L236.25 19.7656L240.785 24.4632L247.589 17.5967L254.389 24.4632L258.927 19.7656L252.183 12.9591L258.927 6.15267Z" fill="white"/>
</svg>
