<svg width="155" height="30" viewBox="0 0 155 30" fill="none" xmlns="http://www.w3.org/2000/svg">
<path d="M21.9 8.29859L19.6763 11.3145L11.3167 23.0569C13.7569 24.5382 15.7369 26.5035 17.1637 28.8372L32.4419 7.37755L29.0921 1.08142H0V9.09006H20.6819L21.9 8.29859Z" fill="#6DD1AE"/>
<path d="M133.1 21.62L135.324 18.6041L143.683 6.86175C141.243 5.38046 139.263 3.41514 137.836 1.08141L122.558 22.5411L125.908 28.8372L155 28.8372L155 20.8286L134.318 20.8286L133.1 21.62Z" fill="#063447"/>
<path d="M62.7592 0H54.392V11.0075H43.2558V18.9111H54.392V29.9186H62.7592V18.9111H73.8953V11.0075H62.7592V0Z" fill="#063447"/>
<path d="M111.744 6.74836L106.334 1.08142L98.2267 9.36475L90.1155 1.08142L84.7093 6.74836L92.749 14.9593L84.7093 23.1703L90.1155 28.8372L98.2267 20.5539L106.334 28.8372L111.744 23.1703L103.704 14.9593L111.744 6.74836Z" fill="#6DD1AE"/>
</svg>
