<svg width="456" height="30" viewBox="0 0 456 30" fill="none" xmlns="http://www.w3.org/2000/svg">
<path d="M22.1607 8.29847L19.9106 11.3144L11.4515 23.0568C13.9206 24.5381 15.9243 26.5034 17.368 28.8371L32.8281 7.37743L29.4384 1.0813H0V9.08993H20.9281L22.1607 8.29847Z" fill="#6DD1AE"/>
<path d="M433.839 21.62L436.089 18.604L444.549 6.86169C442.079 5.3804 440.076 3.41508 438.632 1.08135L423.172 22.541L426.562 28.8372L456 28.8372L456 20.8285L435.072 20.8285L433.839 21.62Z" fill="white"/>
<path d="M162.736 0H154.269V11.0075H143V18.9111H154.269V29.9186H162.736V18.9111H174.004V11.0075H162.736V0Z" fill="white"/>
<path d="M312.357 6.74848L306.882 1.08154L298.678 9.36487L290.471 1.08154L285 6.74848L293.135 14.9595L285 23.1704L290.471 28.8374L298.678 20.554L306.882 28.8374L312.357 23.1704L304.221 14.9595L312.357 6.74848Z" fill="#6DD1AE"/>
</svg>
